<svg xmlns="http://www.w3.org/2000/svg" xmlns:xlink="http://www.w3.org/1999/xlink" width="494" height="705" viewBox="0 0 494 705"><defs><style>.a{fill:#fff;stroke:#707070;}.b{clip-path:url(#a);}.c{fill:#2775bc;}</style><clipPath id="a"><rect class="a" width="494" height="705" transform="translate(380 353.058)"/></clipPath></defs><g class="b" transform="translate(-380 -353.058)"><g transform="translate(380.03 353.225)"><path class="c" d="M331.322,1150.933h1.607c-.427-1.671-.776-3.037-1.03-4.029C331.757,1147.9,331.563,1149.253,331.322,1150.933Z" transform="translate(-129.372 -332.772)"/><path class="c" d="M504.141,911.778a15.469,15.469,0,0,1,5.812-4.623,13.267,13.267,0,0,0,6.609-6.443,7.094,7.094,0,0,1,.624-1c.449-.611.473-.7,2.506-10l.393-1.8c1.862-8.513.543-23.192-.854-38.733-.9-9.976-1.824-20.29-1.824-28.805,0-9.682-.362-14.1-.683-18a125.824,125.824,0,0,1-.206-19.39c.825-18.56,4.573-112.691-2.659-143.143-2.413-10.161-5.895-20.637-9.263-30.769-4.8-14.428-9.754-29.346-12.1-44.446-1.128-7.271-2.336-21.3-3.867-39.054-3.774-43.8-9.477-109.994-19.679-131.674-10.762-22.869-19.934-34.28-36.344-45.22-9.085-6.056-20.28-8.788-33.244-11.95-9.536-2.327-20.344-4.964-31.635-9.366-26.537-10.344-35.171-22.637-39.972-37.911-4.839-15.4-1.116-39.527-.955-40.546l.024-.086a74.484,74.484,0,0,0,3.2-12.035l.028-.136.106-.088c1.784-1.472,3.83-3.979,4.221-6.6a81.713,81.713,0,0,1,2.6-10.65c.455-1.572.941-3.26,1.448-5.115,2.053-7.529,3.936-22.462.213-24.16a2.266,2.266,0,0,0-.942-.206,4.3,4.3,0,0,0-2.607,1.213l-.682.6.038-.9c.515-12.157.537-23.867.068-34.806l.032-.825-.06-.25c-1.455-30.477-27.538-54.35-59.378-54.35s-57.922,23.874-59.378,54.35l-.047.37.024.423-.014.441c-.016.471-.033.942-.033,1.417,0,.983-.166,4.112-.377,8.072-.395,7.4-.934,17.543-.665,19.3l.654,5.06-.508-.075a2.289,2.289,0,0,0-1.3.172c-3.724,1.7-1.841,16.632.213,24.16.507,1.858.994,3.547,1.45,5.122a81.554,81.554,0,0,1,2.6,10.643c.377,2.525,2.336,4.986,4.043,6.448l.088.075.032.111a86.574,86.574,0,0,0,4.246,11.379l.029.091c.433,2.394,10.477,58.726-.132,67.667-6.082,5.125-42.969,32.93-52.4,37.423-2.228,1.061-4.967,2.075-7.866,3.148-9.549,3.535-21.433,7.934-28.609,18.372-9.935,14.452-13.783,28.509-10.314,73.6,2.077,27-1.077,58.178-2.592,73.16l-.226,2.242c-1.071,10.712-4.167,17.209-8.853,27.043-1.2,2.511-2.435,5.108-3.784,8.077-6.427,14.138-19.8,43.557-24.287,101.005-4.218,53.995-7.2,83.018-9.788,106.339-1.185,10.671-1.486,25.981-1.777,40.786-.26,13.216-.506,25.7-1.336,34.836-.3,3.288-.573,6.075-.809,8.476-1.163,11.836-1.4,14.3.794,21.629,2.667,8.889,7.594,21.327,15.925,30.1a188.308,188.308,0,0,0,16.6,15.923h6.357a14.382,14.382,0,0,0-.474-6.844c-.366-.976-5.085-6.989-8.168-10.792l.562-.532c.084.075,8.368,7.516,11.554,7.516a.819.819,0,0,0,.766-.328c3.137-4.6-3.472-12.8-3.539-12.881l-1.513-1.855,2.022,1.281c.039.025,3.871,2.435,6.083,2.435a1.194,1.194,0,0,0,1.155-.517c.962-1.733.679-5.923.626-6.584-.075-.123-.239-.388-.472-.736l-.134-.2.121-.208c1.134-1.96.759-6.1-1.426-8.5A28.62,28.62,0,0,0,115.5,875.7c-3.178-2.048-6.78-4.37-8.427-6.839l-.068-.1.459-20.9c.337-1.286,1.254-4.277,2.51-4.277.7,0,1.049.826,1.164,1.1.983,2.307,1.106,6.172,1.237,10.263a65.913,65.913,0,0,0,.522,7.637c1.15,7.28,5.153,9.863,8.231,9.863,1.434,0,2.62-.606,2.82-1.44.277-1.162.044-3.455-.278-6.629A136.7,136.7,0,0,1,122.8,845.5c.379-13.483-1.481-25.026-5.529-34.312-1.943-4.018-3.673-7.093-5.064-9.562-3.5-6.212-5.423-9.634-5.423-18.176,0-12.892,12.227-64.1,28.953-100.261l3.123-6.741c14.545-31.367,21.846-47.113,23.089-67.415,1.324-21.635,15.034-47.065,15.173-47.319l.812-1.494-.082,1.7c-.009.183-.978,18.749-8.458,60.554-4.545,25.4-6.272,42.608-7.66,56.436-.936,9.318-1.743,17.365-3.164,25.716-3.587,21.073-10.977,71.031-11.414,81.511-.083,1.995-.4,5.811-.831,11.093-1.97,23.977-6.069,73.869-3.174,120.551,0,.036.005.073.007.11H272.9l.869-6.073.276-1.932.485,1.891c.032.122.605,2.359,1.564,6.114H404.841c-.359-14.143-1.012-28.115-2.064-41.28-5.355-67.063-16.783-142.892-21.663-175.273-.784-5.2-1.391-9.229-1.765-11.847-2.164-15.152-1.7-29.251-1.212-44.178.116-3.527.233-7.1.319-10.755.067-2.884.1-5.831.13-8.682.178-16.457.362-33.475,7.006-54.3,6.305-19.769,8.035-29.461,9.3-36.538.353-1.981.687-3.851,1.073-5.688,1.758-8.35,3.539-18.131,3.557-18.229l.277-1.525.475,1.475c.084.262,8.549,26.457,17.336,46.228,2.829,6.367,5.816,12.371,8.7,18.176,6.224,12.513,11.6,23.321,13.124,33.083.763,4.89,1.109,10.281,1.509,16.524.756,11.806,1.7,26.5,6.078,45.2,3.224,13.754,7.1,25.255,10.526,35.4,3.738,11.081,6.966,20.65,8.579,30.558,3.073,18.878,8.05,57.8,4.887,70.005a31.553,31.553,0,0,1-5.943,12.28,85.551,85.551,0,0,0-9.648,17.142c-1.578,3.571-2.892,6.49-4.012,8.98-4.9,10.885-6.065,13.472-9.313,26.105-3.586,13.945-5.642,24.493-6.664,34.2-.194,1.846.149,2.659.471,3.017,1.739,1.928,8.573-3.819,13.463-16.1,5.46-13.721,10.828-18.356,11.054-18.547l.509-.429.124.654c.036.19,3.566,19.01,2.853,29.17a70.743,70.743,0,0,1-2.731,15.184H496.34C499.147,916.227,502.042,914.507,504.141,911.778Z" transform="translate(-71.731 -99.723)"/><path class="c" d="M548.507,990.745l-.123-.654-.509.429c-.225.191-5.593,4.825-11.054,18.547-4.891,12.285-11.725,18.032-13.463,16.1-.322-.358-.665-1.171-.471-3.017,1.022-9.707,3.077-20.255,6.664-34.2,3.248-12.633,4.413-15.22,9.313-26.105,1.12-2.49,2.434-5.409,4.012-8.98a85.538,85.538,0,0,1,9.649-17.142,31.552,31.552,0,0,0,5.943-12.28c3.164-12.2-1.813-51.128-4.887-70.005-1.613-9.908-4.841-19.477-8.579-30.558-3.422-10.147-7.3-21.648-10.526-35.4-4.382-18.7-5.323-33.389-6.078-45.2-.4-6.242-.745-11.634-1.509-16.524-1.526-9.762-6.9-20.569-13.124-33.083-2.888-5.805-5.874-11.809-8.7-18.176-8.787-19.771-17.252-45.966-17.336-46.228l-.475-1.475-.277,1.525c-.018.1-1.8,9.878-3.557,18.229-.386,1.837-.721,3.708-1.073,5.688-1.262,7.077-2.992,16.769-9.3,36.538-6.644,20.828-6.828,37.846-7.006,54.3-.031,2.85-.063,5.8-.13,8.682-.086,3.652-.2,7.229-.319,10.755-.49,14.927-.952,29.027,1.212,44.178.374,2.617.981,6.643,1.765,11.847,4.88,32.381,16.308,108.21,21.663,175.273,1.052,13.166,1.7,27.137,2.064,41.28h.777c-.359-14.164-1.013-28.156-2.066-41.342-5.357-67.089-16.788-142.938-21.669-175.327-.784-5.2-1.391-9.225-1.764-11.841-2.155-15.083-1.693-29.151-1.2-44.043.117-3.529.234-7.108.319-10.762.068-2.889.1-5.838.131-8.691.177-16.4.362-33.359,6.969-54.076,6.322-19.817,8.056-29.539,9.322-36.637.352-1.974.685-3.839,1.07-5.665,1.35-6.415,2.714-13.672,3.284-16.747,1.91,5.794,9.277,27.724,16.89,44.853,2.836,6.382,5.826,12.392,8.717,18.206,6.2,12.456,11.546,23.214,13.052,32.857.759,4.855,1.1,10.23,1.5,16.454.758,11.834,1.7,26.562,6.1,45.322,3.232,13.792,7.119,25.31,10.546,35.474,3.727,11.048,6.945,20.589,8.548,30.434,3.064,18.822,8.033,57.609,4.9,69.687a30.92,30.92,0,0,1-5.824,12.025,86.277,86.277,0,0,0-9.726,17.278c-1.577,3.569-2.891,6.487-4.011,8.974-4.922,10.936-6.092,13.534-9.357,26.231-3.6,13.985-5.657,24.567-6.683,34.312-.18,1.71.044,2.928.666,3.619a1.882,1.882,0,0,0,1.443.617c3.16,0,9.151-6.482,13.319-16.953,4.424-11.116,8.865-16.256,10.331-17.756.633,3.525,3.34,19.316,2.712,28.26a70,70,0,0,1-2.769,15.239h.814a70.748,70.748,0,0,0,2.731-15.184C552.074,1009.755,548.543,990.935,548.507,990.745Z" transform="translate(-159.184 -216.937)"/><path class="c" d="M106.484,917.661a188.312,188.312,0,0,1-16.6-15.923c-8.331-8.769-13.258-21.207-15.925-30.1-2.2-7.33-1.957-9.793-.794-21.629.236-2.4.51-5.188.809-8.476.83-9.137,1.076-21.619,1.336-34.836.291-14.8.592-30.114,1.777-40.786,2.591-23.321,5.571-52.344,9.788-106.339,4.488-57.448,17.86-86.867,24.287-101.005,1.349-2.969,2.587-5.565,3.784-8.077,4.686-9.833,7.782-16.33,8.853-27.043l.226-2.242c1.516-14.982,4.669-46.16,2.592-73.16-3.469-45.091.379-59.147,10.314-73.6,7.176-10.438,19.06-14.837,28.609-18.372,2.9-1.073,5.638-2.087,7.866-3.148,9.435-4.493,46.322-32.3,52.4-37.423,10.609-8.94.565-65.273.132-67.667l-.029-.091a86.577,86.577,0,0,1-4.246-11.379l-.032-.111-.088-.075c-1.707-1.462-3.666-3.924-4.043-6.448a81.551,81.551,0,0,0-2.6-10.643c-.455-1.576-.943-3.264-1.45-5.122-2.054-7.529-3.937-22.462-.213-24.16a2.289,2.289,0,0,1,1.3-.172l.508.075-.654-5.06c-.269-1.761.27-11.9.665-19.3.211-3.96.377-7.089.377-8.072,0-.475.017-.946.033-1.417l.014-.441-.024-.423.047-.37c1.456-30.477,27.538-54.35,59.378-54.35s57.923,23.874,59.378,54.35l.06.25-.032.825c.469,10.939.447,22.649-.068,34.806l-.038.9.682-.6a4.3,4.3,0,0,1,2.607-1.213,2.266,2.266,0,0,1,.942.206c3.723,1.7,1.84,16.632-.213,24.16-.507,1.855-.993,3.543-1.448,5.115a81.738,81.738,0,0,0-2.6,10.65c-.392,2.621-2.438,5.128-4.221,6.6l-.106.088-.028.136a74.483,74.483,0,0,1-3.2,12.035l-.024.086c-.161,1.02-3.884,25.148.955,40.546,4.8,15.274,13.435,27.567,39.972,37.911,11.291,4.4,22.1,7.038,31.635,9.366,12.964,3.162,24.159,5.894,33.244,11.95,16.41,10.94,25.581,22.351,36.344,45.22,10.2,21.68,15.906,87.873,19.679,131.674,1.53,17.757,2.739,31.783,3.867,39.054,2.343,15.1,7.3,30.018,12.1,44.446,3.368,10.132,6.849,20.607,9.263,30.769,7.233,30.452,3.484,124.583,2.659,143.143a125.827,125.827,0,0,0,.206,19.39c.321,3.9.683,8.316.683,18,0,8.515.927,18.83,1.824,28.805,1.4,15.541,2.717,30.22.854,38.733l-.393,1.8c-2.033,9.3-2.057,9.392-2.506,10a7.1,7.1,0,0,0-.624,1,13.267,13.267,0,0,1-6.609,6.443,15.469,15.469,0,0,0-5.812,4.623c-2.1,2.728-4.994,4.449-7.8,6.106h1.519a23.9,23.9,0,0,0,6.9-5.631,14.815,14.815,0,0,1,5.558-4.41,14.08,14.08,0,0,0,6.934-6.767,6.338,6.338,0,0,1,.564-.906c.551-.75.551-.75,2.638-10.3l.393-1.8c1.887-8.629.563-23.366-.84-38.969-.9-9.958-1.821-20.255-1.821-28.735,0-9.714-.364-14.148-.685-18.062a125.053,125.053,0,0,1-.205-19.292c.826-18.579,4.578-112.8-2.679-143.357-2.421-10.195-5.909-20.688-9.281-30.835-4.785-14.4-9.733-29.285-12.067-44.321-1.124-7.243-2.331-21.259-3.86-39-3.779-43.856-9.489-110.132-19.751-131.938-10.831-23.015-20.071-34.505-36.616-45.536-9.2-6.132-20.456-8.878-33.49-12.059-9.512-2.321-20.294-4.951-31.536-9.334-26.337-10.267-34.644-21.93-39.513-37.421-4.708-14.981-1.2-38.413-.936-40.148a75.158,75.158,0,0,0,3.2-12c1.869-1.575,3.973-4.21,4.389-7a81.116,81.116,0,0,1,2.577-10.548c.456-1.576.943-3.268,1.45-5.126,1.618-5.931,4.572-22.89-.214-25.073a3.69,3.69,0,0,0-3.7.6c.481-11.878.493-23.323.033-34l.043-1.077-.055-.4h-.035C333.359,123.5,307.017,99.5,274.89,99.5s-58.469,24-60.135,54.72h-.113l.072,1.209-.013.4c-.018.48-.035.961-.035,1.445,0,.962-.174,4.238-.376,8.031-.418,7.851-.938,17.622-.659,19.453l.527,4.072a3,3,0,0,0-1.237.27c-4.785,2.183-1.831,19.142-.213,25.073.508,1.862,1,3.554,1.452,5.133a80.97,80.97,0,0,1,2.574,10.541c.4,2.693,2.425,5.286,4.218,6.849a87.369,87.369,0,0,0,4.232,11.327c.346,1.937,10.267,58.34.124,66.887-6.068,5.113-42.848,32.845-52.237,37.317-2.2,1.045-4.919,2.054-7.8,3.121-9.652,3.572-21.664,8.019-28.98,18.66-10.043,14.608-13.935,28.774-10.448,74.1,2.071,26.93-1.077,58.061-2.591,73.021l-.226,2.242c-1.058,10.578-4.13,17.026-8.782,26.786-1.2,2.515-2.438,5.115-3.79,8.089C104.005,572.428,90.6,601.932,86.1,659.516c-4.217,53.984-7.2,83-9.786,106.313-1.189,10.707-1.49,26.034-1.782,40.856-.26,13.2-.505,25.672-1.333,34.782-.3,3.285-.572,6.069-.808,8.469-1.175,11.962-1.42,14.451.823,21.928,2.691,8.971,7.669,21.528,16.106,30.407a221.479,221.479,0,0,0,15.93,15.389Z" transform="translate(-71.507 -99.5)"/><path class="c" d="M155.467,928.945c.434-5.282.748-9.1.831-11.093.437-10.479,7.826-60.438,11.414-81.511,1.421-8.35,2.228-16.4,3.164-25.716,1.388-13.828,3.115-31.039,7.66-56.436,7.481-41.8,8.45-60.371,8.458-60.554l.082-1.7-.812,1.494c-.138.254-13.848,25.684-15.173,47.319-1.243,20.3-8.544,36.047-23.089,67.415l-3.123,6.741c-16.726,36.165-28.953,87.369-28.953,100.261,0,8.542,1.926,11.964,5.423,18.176,1.391,2.469,3.121,5.544,5.064,9.561,4.048,9.286,5.908,20.829,5.529,34.312a136.689,136.689,0,0,0,.868,18.872c.323,3.175.556,5.468.278,6.629-.2.835-1.386,1.441-2.82,1.441-3.079,0-7.081-2.583-8.231-9.863a65.912,65.912,0,0,1-.522-7.637c-.131-4.092-.253-7.956-1.237-10.263-.115-.271-.467-1.1-1.164-1.1-1.256,0-2.173,2.991-2.51,4.277l-.459,20.9.068.1c1.647,2.469,5.249,4.791,8.427,6.839a28.624,28.624,0,0,1,4.732,3.438c2.184,2.4,2.56,6.543,1.426,8.5l-.121.208.134.2c.232.348.4.613.472.736.052.661.336,4.85-.626,6.583a1.194,1.194,0,0,1-1.155.517c-2.212,0-6.044-2.41-6.083-2.435l-2.022-1.281,1.513,1.855c.067.082,6.676,8.28,3.539,12.881a.819.819,0,0,1-.766.328c-3.185,0-11.47-7.44-11.554-7.516l-.562.532c3.083,3.8,7.8,9.816,8.168,10.792a14.381,14.381,0,0,1,.474,6.844h.783a15.139,15.139,0,0,0-.529-7.117c-.347-.924-3.468-4.955-5.8-7.893,2.806,2.245,6.84,5.135,9.017,5.135a1.593,1.593,0,0,0,1.408-.669c2.627-3.853-.631-9.612-2.479-12.316a12.4,12.4,0,0,0,4.89,1.636,1.916,1.916,0,0,0,1.834-.916c1.157-2.082.733-6.915.714-7.119l-.053-.163s-.15-.253-.41-.651c1.15-2.3.723-6.6-1.639-9.2a28.277,28.277,0,0,0-4.887-3.57c-3.07-1.978-6.545-4.217-8.133-6.517l.441-20.517c.507-1.916,1.335-3.652,1.746-3.652.063,0,.239.131.448.624.927,2.172,1.052,6.143,1.174,9.983a66.722,66.722,0,0,0,.531,7.733c1.227,7.764,5.614,10.519,9,10.519,1.848,0,3.285-.819,3.576-2.037.308-1.29.082-3.516-.262-6.888a136.2,136.2,0,0,1-.864-18.772c.383-13.6-1.5-25.252-5.6-34.657-1.96-4.054-3.7-7.139-5.093-9.619-3.544-6.3-5.323-9.455-5.323-17.794,0-12.833,12.2-63.859,28.881-99.936l3.123-6.74c14.587-31.457,21.909-47.246,23.16-67.695,1.121-18.3,11.2-39.381,14.224-45.348-.431,5.625-2.175,24.255-8.322,58.6-4.55,25.427-6.279,42.654-7.668,56.5-.934,9.3-1.741,17.339-3.157,25.663-3.59,21.089-10.986,71.1-11.425,81.609-.082,1.979-.395,5.789-.829,11.061-1.971,24-6.073,73.924-3.174,120.663l0,.061h.779c0-.037,0-.073-.007-.11C149.4,1002.814,153.5,952.922,155.467,928.945Z" transform="translate(-80.875 -231.445)"/><path class="c" d="M331.457,1141.789l-.276,1.933-.869,6.073h.785c.241-1.681.435-3.037.577-4.029.254.992.6,2.358,1.03,4.029h.8c-.958-3.755-1.532-5.992-1.564-6.114Z" transform="translate(-129.147 -331.633)"/></g></g></svg>