<svg xmlns="http://www.w3.org/2000/svg" xmlns:xlink="http://www.w3.org/1999/xlink" width="363" height="681" viewBox="0 0 363 681"><defs><style>.a{fill:#fff;stroke:#707070;}.b{clip-path:url(#a);}.c{fill:#2775bc;fill-rule:evenodd;}</style><clipPath id="a"><rect class="a" width="363" height="681" transform="translate(786 6471)"/></clipPath></defs><g class="b" transform="translate(-786 -6471)"><path class="c" d="M430.236,1189.394c-2.244-25.224-4.7-59.124-5.132-84.473-.262-15.215-2.126-32.829-14.089-43.545-8.854-7.931-31.316-18.4-36.489-21.088-6.495-3.376-16.477-6.684-22.1-12.506-.123-.153-.245-.307-.37-.467a20.094,20.094,0,0,1-2.782-4.528c-1.327-4.761-.182-10.557,2.325-15.247,1.1-1.532,2.253-3.157,3.544-4.91.265-.271.535-.532.811-.778a37.714,37.714,0,0,0,5.955-7.223l-.081,0c1.49-1.907,3.077-4.026,4.887-6.441,1.4-1.865,4.314-8.377,6.4-14.137a16.373,16.373,0,0,0,3.981.355c1.667-.38,3.175-.912,3.876-2.224a12.3,12.3,0,0,0,.935-2.746c.752-2.834,1.207-5.871,2.617-8.535a34.668,34.668,0,0,0,4.121-19.088c-.14-3.109.05-5.268-.983-7.945a10.208,10.208,0,0,1,1.148-.482c.689-2.748-1.155-8.6-.817-10.839.906.463,1.226,1.482,2.073,2-.337-4.983,1.084-10.4,1.482-15.723a66.1,66.1,0,0,0-.641-13.632c-1.223-8.325-4.074-17.1-9.611-20.27-15.15-8.667,1.27-2.2,1.27-2.2-4.954-26.839-35.322-28.913-38.64-29.814.838-2.308,11.377.143,11.377.143-39.117-27.092-68.6-6.255-74.978.522-.939.521-18.557-8.03-32.866,9.57-2.894,3.559-5.791,10.118-5.649,10.581.232.758,2.824-5.29,10-6.512,1.674-.285-3.162,3.065-7.823,8.079-11.268,12.121-10.438,31.639-10.438,31.639.32,2.692.078,6.328.142,9.135.019.826,3.372,13.087,3.069,17.947.883-.4,1.3-2.033,2.258-1.818,0,.22-1.276,8.074-1.1,10.921.4.06.906.135,1.456.266-1.259,2.911-1.036,5.139-1.184,8.436a34.668,34.668,0,0,0,4.121,19.088c1.41,2.664,1.865,5.7,2.617,8.535a12.343,12.343,0,0,0,.935,2.746c.7,1.312,2.21,1.845,3.877,2.224a16.28,16.28,0,0,0,3.948-.348c2.091,5.759,5.006,12.266,6.4,14.13a134.22,134.22,0,0,0,10.561,13.072c.036.052.071.1.1.146,2.462,3.286,4.41,6.126,6.335,8.727a22.027,22.027,0,0,1,1.609,5.265c.008.049.014.095.022.143,0,0,0,5.94-1.078,8.372a18.637,18.637,0,0,1-1.149,1.913c-5.141,6.987-16.508,10.619-23.653,14.334-5.173,2.689-28.386,13.158-37.24,21.088-11.962,10.716-13.827,28.33-14.09,43.546-.436,25.349-2.887,59.249-5.131,84.473-1.4,15.685-6.127,30.408-8.913,45.812-4.262,23.573-2.714,82.382-1.123,103.673,1.712,22.923,1.425,36.6,21.407,48.528,4.143,2.473,12.581,10.356,17.063,5.623,3.13-3.3-4.768-11.385-6.536-13.458-4.466-5.238-9-11.312-9.028-18.8,0-1.4,1.028-8.122,4.424-5.991,3.069,1.925,1.585,13.03,3.951,16.582,3.758,5.641,9.023.156,9.255-4.782.4-8.487-2.189-18.113-3.61-26.444-1.719-10.075-10.629-16.14-12.226-25.367-1.848-10.687.276-24.651,2.831-35.018,5.165-20.956,14.28-39.607,14.232-57.1-.025-9.008,8.9-43.019,14.887-64.842l5.217-18.643-.006.064c-.336,3.406-15.538,142.938-15.238,183.979.028,3.859,0,14.815,0,16.268l.075.034c.1,36.432.059,72.318,5.846,108.6,3.389,21.243,7.517,42.025,9.241,63.539,1.71,21.339,1.366,42.294.973,63.662-.326,17.7.671,35.034,4.257,52.423,2.309,11.2,16.265,51.361,14.755,60.907-.953,5.04,1.806,9.792-.712,14.682-1.532,2.974-4.19,5.14-6.732,7.215-6.2,5.06-11.336,11.067-5.624,18.824,6.3,8.554,32.986,14.8,39.275,4.442,4.436-7.306,5.005-19.354,4.135-27.737-.721-4.377-.543-8.83-.686-13.247-.156-4.809-1.1-8.81-2.084-13.5-2.321-11.094.5-53.322,1.195-85.482.418-19.412-1.121-35.158-1.681-38.173a67.919,67.919,0,0,1,1.075-28.071c4.95-20.22,3.622-40.188,4.211-60.756.463-16.192,6.059-53.462,9.886-72.172a21.825,21.825,0,0,0,6.361.159c3.926,18.794,9.694,56,10.155,72.145.589,20.568-.739,40.537,4.211,60.756a67.922,67.922,0,0,1,1.075,28.071c-.575,3.1-2.082,19.609-1.648,39.732.69,31.952,3.445,73.008,1.161,83.923-.981,4.692-1.928,8.691-2.084,13.5-.143,4.417.036,8.867-.686,13.246-.87,8.383-.3,20.43,4.135,27.735,6.289,10.357,32.6,4.111,38.9-4.441,5.712-7.758.571-13.764-5.624-18.824-2.542-2.077-5.2-4.242-6.732-7.216-2.519-4.888.241-9.642-.713-14.681-1.51-9.547,12.446-49.707,14.755-60.907,3.586-17.389,4.583-34.724,4.256-52.425-.393-21.367-.737-42.322.973-63.661,1.724-21.514,5.852-42.3,9.241-63.54,5.823-36.509,5.605-72.614,5.668-109.278l.062-.025c-.008-1.193-.029-11.663,0-15.6.276-37.552-12.582-157.561-15.031-180.3l4.134,14.774s-.27-1.818-.686-4.784c5.863,21.221,16.214,60.037,16.255,69.754.063,14.928,10.077,39.918,14.232,57.1,2.509,10.377,4.678,24.33,2.83,35.017-1.6,9.227-10.506,15.291-12.225,25.368-1.422,8.329-4.01,17.956-3.61,26.442.232,4.938,5.5,10.424,9.255,4.782,2.367-3.552.883-14.656,3.951-16.581,3.4-2.131,4.428,4.591,4.424,5.99-.024,7.49-4.562,13.563-9.028,18.8-1.768,2.074-9.666,10.154-6.536,13.458,4.481,4.733,12.919-3.15,17.063-5.623,19.982-11.924,20.258-25.6,21.97-48.527,1.591-21.291,2.577-80.1-1.686-103.674C436.362,1219.8,431.632,1205.079,430.236,1189.394Z" transform="translate(646.548 5692.717)"/></g></svg>