<svg xmlns="http://www.w3.org/2000/svg" width="393.418" height="475.387" viewBox="0 0 393.418 475.387"><defs><style>.a{fill:#2775bc;}</style></defs><path class="a" d="M693.173,540.432c.621-2.6,2.811-11.867,2.169-18.582-.4-4.268-.921-6.672-2.265-9.072-.627-3.647-1.815-10.218-3.443-17.522-2.538-11.342-3.792-28.564-5.275-35.183a141.9,141.9,0,0,0-5.537-19.289c-3.427-13.607-5.039-19.621-11.433-30.315-4.525-7.572-9.013-12.927-10.057-20.35-4.188-29.823-9.912-42.675-21.683-51.468a26.532,26.532,0,0,0-8.327-4.37,97.734,97.734,0,0,0-15.937-4.37c-5.773-1.157-18.234-4.664-22.754-12.676-1.366-2.426-2.078-15.123-2.367-21.929q2.145-1.815,4.354-3.781a52.82,52.82,0,0,0,10.491-13.3c5.339,3.063,7.433-.477,14.416-8.381,7.492-8.483,13.661-19.434,8.167-26.337-3.759-4.723-7.214-5.344-10.2-3.941a180.38,180.38,0,0,0,2.1-26.208,60.5,60.5,0,0,0,1.655-14.143c-.755-24.034-13.393-35.612-17.758-38.905-3.261-6.185-10.282-12.451-18.829-12.879-15.187-.76-11.5-9.286-35-8.242-8.386.37-15.8,6.442-24.8,6.79-24.055.927-36.008,25.855-40.571,34.3-4.022,7.422-4.927,15.4-5.35,23.937a148.015,148.015,0,0,0,.7,15.353s.107-.878.289-2.308a187.044,187.044,0,0,0,1.9,21.961c-2.779-.905-5.928.011-9.334,4.284-5.489,6.9.68,17.854,8.172,26.337,6.619,7.5,8.847,11.069,13.618,8.8a49.851,49.851,0,0,0,11,13.452c3.31,2.753,6.48,5.286,9.591,7.572-.37,6.865-1.049,15.6-2.158,17.57-4.52,8.011-18.192,11.069-23.852,12.676-16.986,4.793-24.478,8.729-27.434,10.646a22.736,22.736,0,0,0-7.251,6.1c-7.417,9.463-12.793,20.971-17.966,51.029-1.275,7.39-3.877,13.516-8.391,21.089a78.115,78.115,0,0,0-9.532,25.367,23.738,23.738,0,0,0-2.726,5.95c-2.04,9.463,2.265,18.036,3.792,24.7-1.494-.241-3-.471-4.552-.707a44.325,44.325,0,0,0-7.481-.5,9.093,9.093,0,0,0-1.285.053,31.836,31.836,0,0,0-4.354.536c-7.717,1.253-29.1,7.958-29.448,45.5-.107,11-2.961,13.522-3.122,28.543-.048,4.439.626,6.978-5.077,6.978s-11.449-1.724-24.709,3.17c-7.454,2.742-12.3-2.919-21.49,1.869-7.588,3.952-6.764,2.849-8.665,3.593s-5.382,3.8-1.055,7.074c.958.723-.793,1.424-.578,3.54a3.269,3.269,0,0,0,1,1.848c.718.712,1.6,1.039,1.478,1.74-.161.9-.948,1.853,0,3.856.412.878,2.164,1.772,2.533,2.431.337.589-.948,1.692-.262,3.272.734,1.687,1.874,1.681,2.163,2.908.209.851-.305,1.681-.252,2.4.252,3.567,4.97,4.322,13.666,6.415,14.469,3.492,30.921-.064,35.494-.209a305.514,305.514,0,0,0,34.262-3.352c7.883-1.4,14-10.362,11.224-22a21.7,21.7,0,0,1-.573-6.5c13.168,8.1,21.7,11.508,33.855,13.5a11.1,11.1,0,0,0,1,3.422,3.333,3.333,0,0,0,2.212,1.96,2.349,2.349,0,0,0,2.64-.91,3.362,3.362,0,0,0,.536-1.312,21.228,21.228,0,0,0,2.4,2.533c.937.787,2.479,1.837,4.241.653,1.2-.809,1.451-2.019.969-3.888-.059-.225-.145-.5-.241-.809.541.054,1.055.1,1.612.15,2.03.177,4.043.305,6.03.407a3.7,3.7,0,0,0,2.956.123,192.939,192.939,0,0,0,26.685-1.034,18.1,18.1,0,0,0-.921,2.935c-2.088,9.575,3.294,19.118,7.208,22.711,3.127,2.881,6.314,4.82,9.837,5.457.412.075.814.145,1.2.214a8.283,8.283,0,0,0,5.966.948c4.873-.809,12.461-6.764,18.48-10.459a41.987,41.987,0,0,1,14.893-5.6c4.862-.632,39.89,2.137,64.642.846,20.285-1.055,33.839-4.991,46.477-10.983a98.769,98.769,0,0,0,26.09-18.24,2.388,2.388,0,0,0,2.115.536,3.317,3.317,0,0,0,2.324-1.826,13.522,13.522,0,0,0,1.408-4.343c.064-.284.15-.734.246-1.242.777-1.023,1.521-2.04,2.18-3.052a19.693,19.693,0,0,0,1.933-17.27C693.248,541.932,693.221,541.187,693.173,540.432ZM637.04,467.249l.005-.005a25.323,25.323,0,0,0,1.623,6.292c1.8,4.75,4.718,15.7,7.187,25.533-1.853-.439-3.722-.862-5.607-1.216a24.05,24.05,0,0,0-3.5-.337l-.835-33.239C636.617,466.173,637.04,467.249,637.04,467.249Zm-167.487-47.8.016-.246c.086,15.348-.637,33.041,5.553,62.452q.611,2.884,1.28,5.7c-3.32-.91-7.647-2.03-12.654-3.192-.294-4.2-.477-7.829-.439-10.148a40.807,40.807,0,0,0-2.528-14.646C464.251,446.316,468.835,427.926,469.553,419.449Z" transform="translate(-302.04 -139.1)"/></svg>