<svg xmlns="http://www.w3.org/2000/svg" width="1253.932" height="258.345" viewBox="0 0 1253.932 258.345"><defs><style>.a{fill:#a10c1a;}</style></defs><g transform="translate(-310.069 -1413.835)"><g transform="translate(841.999 1511.539)"><path class="a" d="M259.059-9.407l-1.412.023-7.2,147.4-7.25-123.461-1.4-.083c-.6,3.363-1.575,7.316-2.131,7.983-1.239.57-10.754.267-15.886.1-2.274-.072-4.237-.135-5.36-.135-2.41,0-3.459,2.1-4.473,4.137-1.091,2.188-2.121,4.255-4.717,4.255s-3.778-2.095-5.028-4.314c-1.168-2.074-2.377-4.22-4.844-4.22H-91.314V23.7H199.353c1.64,0,2.553,1.621,3.611,3.5,1.329,2.36,2.835,5.034,6.261,5.034,3.472,0,4.864-2.793,5.984-5.038,1.037-2.079,1.746-3.353,3.206-3.353,1.1,0,3.053.062,5.314.134,12.491.4,16.123.294,16.9-.483a10.235,10.235,0,0,0,1.457-3.665L249.8,151.234l1.413-.007L258.561.925c.923,9.557,2.285,21.385,3.465,22.565,1.317,1.318,4.731,3.528,12.795,3.528,2.757,0,5.29,5.983,7.738,11.77,3.239,7.65,6.586,15.561,12.014,15.561,4.951,0,7.211-6.685,9.6-13.763,2.408-7.123,4.9-14.488,10.032-14.488a12.167,12.167,0,0,1,5.525,1.164,10.708,10.708,0,0,0,4.722,1.076,8.174,8.174,0,0,0,4.794-1.851A14.079,14.079,0,0,1,338.3,23.7H630.688V22.282H338.3a15.479,15.479,0,0,0-9.838,3.028,6.873,6.873,0,0,1-4.007,1.612,9.282,9.282,0,0,1-4.167-.963,13.541,13.541,0,0,0-6.08-1.277c-6.151,0-8.806,7.855-11.374,15.45-2.224,6.583-4.326,12.8-8.261,12.8-4.489,0-7.794-7.808-10.71-14.7-2.869-6.779-5.348-12.633-9.043-12.633-7.836,0-10.858-2.177-11.794-3.113C262.051,21.183,260.25,5.076,259.059-9.407Z" transform="translate(91.314 9.407)"/></g><g transform="translate(401.383 1423.242)"><path class="a" d="M259.059,151.234l-1.412-.023-7.2-147.4-7.25,123.461-1.4.083c-.6-3.363-1.575-7.316-2.131-7.983-1.239-.57-10.754-.267-15.886-.1-2.274.072-4.237.135-5.36.135-2.41,0-3.459-2.1-4.473-4.137-1.091-2.188-2.121-4.255-4.717-4.255s-3.778,2.095-5.028,4.314c-1.168,2.074-2.377,4.22-4.844,4.22H-91.314v-1.415H199.353c1.64,0,2.553-1.621,3.611-3.5,1.329-2.36,2.835-5.034,6.261-5.034,3.472,0,4.864,2.793,5.984,5.038,1.037,2.079,1.746,3.353,3.206,3.353,1.1,0,3.053-.062,5.314-.134,12.491-.4,16.123-.294,16.9.483A10.235,10.235,0,0,1,242.086,122L249.8-9.407l1.413.007,7.344,150.3c.923-9.557,2.285-21.385,3.465-22.565,1.317-1.318,4.731-3.528,12.795-3.528,2.757,0,5.29-5.983,7.738-11.77,3.239-7.65,6.586-15.561,12.014-15.561,4.951,0,7.211,6.685,9.6,13.763,2.408,7.123,4.9,14.488,10.032,14.488a12.167,12.167,0,0,0,5.525-1.164,10.708,10.708,0,0,1,4.722-1.076,8.174,8.174,0,0,1,4.794,1.851,14.079,14.079,0,0,0,9.051,2.79H630.688v1.415H338.3a15.479,15.479,0,0,1-9.838-3.028,6.873,6.873,0,0,0-4.007-1.612,9.282,9.282,0,0,0-4.167.963,13.541,13.541,0,0,1-6.08,1.277c-6.151,0-8.806-7.855-11.374-15.45-2.224-6.583-4.326-12.8-8.261-12.8-4.489,0-7.794,7.808-10.71,14.7-2.869,6.779-5.348,12.633-9.043,12.633-7.836,0-10.858,2.177-11.794,3.113C262.051,120.644,260.25,136.751,259.059,151.234Z" transform="translate(0)"/></g></g></svg>