<?xml version="1.0" encoding="utf-8"?>
<!-- Generator: Adobe Illustrator 25.4.1, SVG Export Plug-In . SVG Version: 6.00 Build 0)  -->
<svg version="1.1" id="Layer_1" xmlns="http://www.w3.org/2000/svg" xmlns:xlink="http://www.w3.org/1999/xlink" x="0px" y="0px"
	 viewBox="0 0 480 210" style="enable-background:new 0 0 480 210;" xml:space="preserve">
<style type="text/css">
	.st0{fill:#2775BC;}
	.st1{fill:#74C12E;}
	.st2{fill:#39B54A;}
	.st3{fill:#009444;}
	.st4{fill:#006838;}
	.st5{fill:#594A42;}
	.st6{fill:#A2948C;stroke:#594A42;stroke-width:8.504;stroke-linejoin:round;}
	.st7{fill:#519877;stroke:#006838;stroke-width:8.504;stroke-linejoin:round;}
	.st8{fill:#31C474;stroke:#009444;stroke-width:8.504;stroke-linejoin:round;}
	.st9{fill:#91C899;stroke:#39B54A;stroke-width:8.504;stroke-linejoin:round;}
	.st10{fill:#A7DB79;stroke:#74C12E;stroke-width:8.504;stroke-linejoin:round;}
	.st11{fill:#FFFFFF;}
</style>
<g id="Group_3130" transform="translate(-1231.959 -763.146)">
	<g id="Group_3128" transform="translate(1225.889 828.461) rotate(-8)">
		<path id="Path_3332" class="st11" d="M6.7,82.3c-0.3-1.5,0.4-2.8,1.1-4.1c3.1-6.4,7.7-11.9,13.4-16.2c0.8-0.6,1.6-1.3,2.3-2.1
			c1.9-0.9,3.4-2.7,5.6-3c0.4,0.1,0.8,0.4,0.9,0.9c-0.1,0.8-0.6,1.6-1.4,1.9c-3.3,1.9-5.9,4.7-8.9,7c-0.8,0.7-1.6,1.5-2.1,2.5
			c-1.6,1.9-3.1,4-4.3,6.1c-1.1,2-3.3,3.2-3.6,5.7c-1.1,3.4-1.1,7.2,0.1,10.6c1.3,2.2,2.9,4.2,4.8,6c0.5,0.7,1.6,0.9,1.5,2.1
			c-0.6,0.8-1.4,0.5-2.2,0.2c-3.4-2.8-6.5-5.8-7.3-10.4C6.3,87.1,6.3,84.6,6.7,82.3z"/>
		<path id="Path_3333" class="st11" d="M284.9,79.4l-0.2,0.1l-0.2-0.1c-1.4,0.7-3.1-0.2-4.5,0.6l-0.2,0.1l-0.2-0.1
			c-1.3,0.6-2.7-0.3-3.9,0.6l-7.3,1.3c-0.9,0.3-2,0.3-2.6,1.3c0.1,0.8-0.3,1.7,0.5,2.4c0.8,0.9-0.2,2.1,0.7,3l0,0
			c0.3,0.8,0.3,1.7,0.1,2.5c-1.8-0.3-1.3-1.9-1.8-2.9c-0.6-1.2-0.3-2.6-0.8-3.8c-2.5-2.3-4.9,0.4-7.3,0.1c-0.9,0.3-1.9,0.3-2.8,0.2
			c-0.5,0.1-0.9-0.2-1.2-0.6c0-0.3,0.2-0.6,0.5-0.6c0.9-0.9,2.3-0.3,3.3-1l0,0c1.9-0.4,3.8-0.7,5.7-1.2l0.6-0.6
			c0.2-0.2,0.4-0.4,0.6-0.6c0.6-0.9,1.2-0.8,2-0.2c1.1,0.8,2.6,0.8,3.7,0c0.8-0.3,1.7,0.3,2.4-0.5l0,0c2.8-0.4,5.6-1.1,8.5-0.9
			c2.3-1.2,4.9-0.2,7.3-0.7c1.6-0.7,3.3-0.4,5-0.5c0.3,0,0.6,0.3,0.6,0.7c-0.4,1-1.6,0.1-2,1l0,0C289.2,79.5,286.9,78.5,284.9,79.4z
			"/>
		<path id="Path_3334" class="st11" d="M183.6,71.1c-1.3-1.3,0-2.7,0-4c-0.7-1,0.4-2.4-0.8-3.2c-0.5-1.4-1.2-2.8-0.9-4.4
			c0.2-0.6,0.6-0.9,1.3-0.7c0.4,0.6,0,1.4,0.5,1.9c-0.1,1.2,1.1,2.2,0.7,3.5c1.6,2.9,0.8,5.9,0.5,8.8c-0.1,0.2-0.3,0.3-0.3,0.5
			c-1.5,7.9-3.5,9.8-12.1,11.3c-0.4-0.4-1.5-0.1-1.4-1.2c0.3-0.5,1.1-0.2,1.4-0.7c3.6-0.9,7-2.3,9.2-5.6c0.7-0.7,1.1-1.6,1.3-2.5
			l0,0C183.9,73.8,183,72.4,183.6,71.1z"/>
		<path id="Path_3335" class="st11" d="M58.9,106l-0.2,0.1l-0.2-0.1c-0.7,0.2-1.4,0.3-2.1,0.1c-1.8-0.2-3.5-0.3-5.3-0.2
			c-3.3,0.3-6.7,0.3-10,0.2c-4.2-0.6-8.4-0.6-12.5-1.5c-1.6-0.3-3.4-0.3-4-2.3c0.2-0.3,0.5-0.5,0.9-0.6c3.6,0.2,7.1,0.7,10.7,1.4
			c5,0.8,10.1,0.7,15.1,0.7c3.3,0.1,6.6-0.1,9.9-0.6c1.7-0.3,3.4-0.5,5.1-0.7c0.3-0.1,0.6-0.2,0.9-0.2c0.7-0.1,1.5-0.1,2.2,0.1
			c0.9,0.4,2,0.5,2.3,1.7c0,0.3-0.2,0.5-0.4,0.7c-1.6-1.2-3.1,0.5-4.7,0c-1,0.6-2.3-0.2-3.2,0.6l0,0C61.9,106.1,60.3,105.1,58.9,106
			z"/>
		<path id="Path_3336" class="st11" d="M108,91.2l11.7-5.1c0.6,0.1,1.1,0.2,1.4,0.8c-7.4,4.3-15.4,7.6-23.6,9.9
			c-1.3,0.2-2.5,0.8-3.7,0.9c-0.3,0-0.6-0.1-0.8-0.3c-0.2-1.1,1-0.8,1.3-1.3l10.4-3.8C105.8,92,106.9,91.6,108,91.2z"/>
		<path id="Path_3337" class="st11" d="M74.7,103.6c-1.7,6.8-0.8,13.7-0.9,20.5c-0.1,5-1,10-0.6,15c0.1,1.2-0.4,2-1.6,2.2
			c-1.3,0.1-1.9-0.7-1.9-1.9c-0.1-2.1-0.5-4.3,0.4-6.4c0.4,0.2,0.6,0.6,0.7,1.1c0.3,1.4,0,2.9,0.2,4.3c0,0,0.1,0.2,0.1,0.2
			s0.3-0.1,0.2-0.1c0.2-0.8,0-1.6,0.3-2.3c0.2-2.2,0.1-4.4,0.1-6.7c0-0.7,0.1-1.3,0.2-2c0.6-2.6,0.6-5.4,0-8c0-4.1-0.3-8.2,0.6-12.3
			c0.1-1.4-0.4-2.9,1.1-3.9C74,103.2,74.4,103.3,74.7,103.6z"/>
		<path id="Path_3338" class="st11" d="M432.4,49.7l-0.2,0.1l-0.2-0.2c0.3-1.9,2.1-0.9,3-1.5c4.9,0,9.7,0,14.6,0
			c1.8,0.1,3.7-0.3,5.3-1.1l0,0c1.6-0.1,3.2-0.8,4.4-1.9l0,0c1.1-0.2,2.4-0.8,1.9,1.3c-3,2.5-6.8,2.8-10.4,3.2
			C444.7,50.1,438.6,50.1,432.4,49.7z"/>
		<path id="Path_3339" class="st11" d="M233.3,89.7c0.2-0.5,0.7-0.6,1.1-0.5c1.3-0.3,2.5-1.1,4-0.8c0.5,0.2,0.9,0.5,0.6,1.1
			c-3.5,1.5-7,2.7-10.3,4.7c-2,1.2-4.3,2.3-2.4,5.3c0.3,0.5,0.1,1.2-0.4,1.5c0,0-0.1,0-0.1,0.1c-0.5,0.4-1.2,0.3-1.7-0.1
			c-0.7-0.6-1.2-1.4-1.4-2.3c-0.7-2,0-3.1,1.8-4.2C227.4,92.7,230.4,91.3,233.3,89.7z"/>
		<path id="Path_3340" class="st11" d="M74.7,103.6l-0.8-0.1c-0.1-1.4,1-1.4,2.5-1.5c-1.5-0.1-2.1-0.5-2.4-1.4
			c-0.3-1.6-0.6-3.1,0.6-4.5c1.5,0.3,0.8,1.3,0.7,2.1c-0.2,2,0.6,2.8,2.7,2.2c3.3-0.9,6.7-1.7,10.1-2.5c1.7,0,3.3-1.5,5.2-0.5l0,0
			c0.3,1.6-1.6,0.4-1.8,1.4c-4.1,1.8-8.5,2.6-12.9,3.6C77.1,102.7,75.9,103.1,74.7,103.6z"/>
		<path id="Path_3341" class="st11" d="M171.3,83.7l1.2,1.2l-0.2,0.1l-0.3,0c-1.6,0.7-3.5-0.3-5.1,0.6l-0.2,0.1l-0.2-0.1
			c-2.5,0.7-5.1-0.2-7.6,0.5c-6,0.4-12,0.8-18-0.1c0.9-2,2.9-0.5,4.2-1.3c7.4,0.3,14.8-0.8,22.2-0.6c0.5,0,1-0.1,1.5-0.4
			C169.6,83.2,170.5,83.3,171.3,83.7z"/>
		<path id="Path_3342" class="st11" d="M272.4,109.1c2,4,4.3,7.9,5,12.4c0.1,0.8,0.7,2-0.7,2.3c-1.3,0.3-1.8-0.8-2-1.8
			c-0.3-2.6-1.6-4.9-2.3-7.3c-0.8-1.1,0.4-2.8-1.2-3.7c-0.1-0.2-0.1-0.4,0-0.6C271.7,109.9,271.3,108.8,272.4,109.1z"/>
		<path id="Path_3343" class="st11" d="M276.2,39.1c-4.2,1.6-8.7,1.4-13.1,2c-1,0.1-2,0.3-3,0.5c-0.2,0.2-0.5,0.2-0.8,0
			c-0.3-0.9-0.5-1.8-0.6-2.7c0.2-1.4-0.9-3.3,1.4-4.1c1.7,3.6,2,3.7,6.4,3.2c2.9-0.3,5.8-1.4,8.8-0.7
			C276,37.7,276.4,38.4,276.2,39.1z"/>
		<path id="Path_3344" class="st11" d="M263.7,80.5l-0.3,0h-0.3c-0.3-5.6-2.4-11-2.4-16.7c0.8-0.4,0.5-1.6,1.3-2
			c0.8,4.2,2,8.3,2.4,12.5c-0.4,0.3-0.6-0.2-1-0.2c0.2,0.5,0.6,1,1,1.5c0.5,0.7,0.8,1.6,0.7,2.4C263.5,78.3,264.7,80,263.7,80.5z"/>
		<path id="Path_3345" class="st11" d="M397.1,48.4c1.3-2,3.5-2,5.5-2.2c3-0.2,6-0.1,8.9,0.4c0.2,0.2,0.2,0.6,0,0.8c0,0,0,0-0.1,0.1
			c-1.3,0.1-2.5,0.1-3.8,0.1c-0.5,0-1,0.1-1.1,0c0.3,0.1,0.9-0.1,1.5,0c1.5,0,3-0.1,4.5-0.2c1.2-0.1,2.7-0.7,3.4,1
			c-0.4,0.6-0.9,0.4-1.5,0.2c-5.4,0-10.7-0.4-16,1.1C398.8,48.4,397.3,49.1,397.1,48.4z"/>
		<path id="Path_3346" class="st11" d="M329,75.5l-1.3,1.4c-3.4,0.7-6.8,0.2-10.2,0.3c-3.8-0.4-7.6-0.4-11.3-0.1
			c-1.2,0.1-2.4,0.6-3.6,0.1c-0.3-0.2-0.4-0.6-0.3-0.9c0,0,0,0,0-0.1c3.4-0.8,6.9-1,10.4-0.6c3.4-0.6,6.9-0.1,10.4-0.3
			c0.9-0.1,2,0.5,2.8-0.5c0.3-0.6,1.5-0.6,1.3-1.6c0.2-0.2,0.4-0.3,0.7-0.3c1,0.3,1,1.1,1.2,1.9C329.2,75,329.2,75.3,329,75.5z"/>
		<path id="Path_3347" class="st11" d="M80,25c-0.6-1.2-0.9-2.7,0.7-3c1.8-0.3,1.6,1.6,1.6,2.6c0.2,4.6,0.2,9.2,0.3,13.8
			c1.6,0.9,3.3,0.5,4.9,0.1l0,0c1-0.5,2.3-0.4,3.2,0.2c0.2,0.6-0.4,0.8-0.7,1.1h0c-1.8,0.8-3.8-0.2-5.6,0.6l-1.6,0.8
			c-0.3,0.2-0.7,0.2-1,0c-0.5-0.7-0.8-1.5-0.7-2.3c0.3-4.3-0.6-8.5-0.4-12.7C80.7,25.6,80.9,24.9,80,25z"/>
		<path id="Path_3348" class="st11" d="M168.9,83.8c-4.5,1.1-9.1,0.6-13.6,1c-3.6,0.2-7.2,0.3-10.7,0.1c-0.7,0.3-1.6,0.4-2.4,0.2
			c-1.1-0.4-2.3,0.1-3.4,0c-1.7-0.4-3.9,0.4-4.7-2.1c11.3,2,22.6,0.8,33.9,0.6c0.2-0.2,0.6-0.2,0.8,0
			C168.8,83.7,168.9,83.7,168.9,83.8z"/>
		<path id="Path_3349" class="st11" d="M272.4,109.1l-1.1,1.2c-1.5-3.8-2.8-7.8-3.7-11.8c0.3-0.6,0.6-1,1.3-0.7
			C271.3,101.2,271.8,105.2,272.4,109.1z"/>
		<path id="Path_3350" class="st11" d="M367.1,57.6l0.2-0.1l0.2,0.1c4.1,0.6,8.3,0.6,12.4,0l0.1-0.1l0.2,0.1
			c0.7-0.2,1.4-0.2,2.1-0.1c0.4,0.4,0.4,1,0.1,1.5l0.1,0c-1,0.6-2.3-0.3-3.2,0.6l0.1,0c-3.4,0.4-6.8,0.4-10.2,0l-0.2,0.1l-0.2-0.1
			c-2.4-1-5.1,0.2-7.5-0.6l0,0c-0.2-0.3-0.2-0.7,0-0.9c0.3-0.4,0.8-0.6,1.3-0.7C364.1,57.5,365.6,57.2,367.1,57.6z"/>
		<path id="Path_3351" class="st11" d="M111.1,49.6l-1.6,3.3c-0.9,0.3-1.9,0.7-2.8,1.1l-1.2,0c-0.6-0.4-1.2-0.9-0.7-1.7
			c0.4-0.6,1-0.5,1.6-0.3c1.5-0.9,2.9-1.8,3.3-3.7c0.9-1.2,0.5-2.4,0.2-3.6l-2-3c0.1-1.5,0.9-1.1,1.8-0.7c1.2,1,1.4,2.4,2,3.7
			C112.6,46.5,111.4,48,111.1,49.6z"/>
		<path id="Path_3352" class="st11" d="M239.1,89.5l-0.7-0.9c-0.2-0.1-0.3-0.3-0.2-0.4c0.1-0.1,0.1-0.2,0.2-0.2
			c1.4-1,3.1-1.5,4.8-1.3c1.1-1.1,2.6-1.1,3.9-1.7c1-0.2,2,0,2.8-0.8c1.1-0.2,2.3-0.4,3.4-0.5l0.6,0.6c0.2,0.1,0.3,0.3,0.2,0.4
			c-0.1,0.1-0.1,0.2-0.2,0.2L239.1,89.5z"/>
		<path id="Path_3353" class="st11" d="M196.1,42.3c0.9-0.5,1.7,0.2,2.6,0c3.4-0.8,6.9-0.1,10.3-0.3c1.5,0,3,0,4.5,0
			c0.6,0,1.3,0,1.2,0.9l-0.2,0.1l-0.2,0c-3.6,0.5-7.2,0.1-10.8,0.2c-1.2,0.1-2.5-0.3-3.7,0.3l-0.2,0.1l-0.2-0.1
			c-1.6,0.4-3.2,0.1-4.9,0.2c-1.5,0.2-3.1-0.5-4.6,0.4l0,0c-2.2,0.5-4.4,0.1-6.5,0.3c-0.5,0.1-1-0.2-1.1-0.7c0-0.1,0-0.2,0-0.3l0,0
			c1.6-0.6,3.5,0.4,5-0.6l0,0C190.3,42.1,193.3,43.1,196.1,42.3z"/>
		<path id="Path_3354" class="st11" d="M24.7,102.4c2.3,1.8,5.3,1.9,7.9,2.2c2.7,0.3,5.5,0.7,8.3,0.8c0.1,0.7-0.4,0.9-1,1
			c-2.1-0.2-4.2,0-6.3-0.2c-3.1-0.9-6.4-1.1-9.6-2c-1.1,0.2-2-0.5-2.9-0.8c-0.6-1.7,0.7-1.7,1.7-1.9
			C23.6,101.4,24.3,101.8,24.7,102.4z"/>
		<path id="Path_3355" class="st11" d="M80.8,64.1c0.1,1.6-0.1,3.2-0.7,4.8c-0.7,1,0,2.2-0.6,3.3c0.1,0.1,0.1,0.3-0.1,0.5
			c-0.7,0.9-0.1,2.1-0.5,3.1c-0.2,0.2-0.6,0.3-0.9,0.2c-0.5-0.4-0.9-1-1.1-1.6c-0.4-1.5,0.2-2.9,0.5-4.3c0.6-1.5,0.3-3.1,0.4-4.7
			c0-1.3,0.3-2.6,0.8-3.8c0.4-0.7,0.6-1.6,1.4-2c0.3,0,0.7,0.2,0.7,0.5c0,0,0,0,0,0C81.1,61.3,81,62.7,80.8,64.1z"/>
		<path id="Path_3356" class="st11" d="M455,47.1c-1.3,1.3-2.9,1.3-4.5,1.3c-5.3,0-10.7,0-16,0.1c-2.6,0.6-5.2,0.7-7.9,0.2
			c-1.2-0.1-2.5,0.1-3.6-0.6c-0.3-0.2-0.4-0.6-0.2-0.9c0,0,0,0,0,0c8.4,0.4,16.8,1.1,25.2,0.7C450.3,47.8,452.7,47.5,455,47.1z"/>
		<path id="Path_3357" class="st11" d="M78.8,39.8c0.1-0.2,0.3-0.2,0.5-0.2c0.7,0.2,1.4,0.4,1.5,1.3c-0.1,0.3-0.4,0.5-0.6,0.6
			c-1.1,0.4-2.4,0.2-3.4,1c-3.3,0.6-6.5,2-10,1.5c-0.3-0.1-0.5-0.4-0.7-0.7c-0.1-0.3,0-0.7,0.3-0.9c3-1,6-1.6,9.1-2
			C76.6,39.7,77.8,40.5,78.8,39.8z"/>
		<path id="Path_3358" class="st11" d="M183,59l-1.1,0.6c-1.6-2.1-1.5-5.1-3.6-6.9c-0.3-1.3-1.5-2-2.2-3c0.3-0.6,1-0.3,1.4-0.7
			c2.8,1.5,3.5,4.5,4.9,7C182.9,56.9,183.1,57.9,183,59z"/>
		<path id="Path_3359" class="st11" d="M466.6,37.2l0.2-0.5c0.5-0.9,1.4-1.6,1.7-2.5v0c2.1-2.3,2.4-5.3,3.1-8.2l0.6-1.7
			c1-0.7,0.7-2.9,2.7-2.4l-0.2,1.8c-0.9,1.5-1.5,3.3-1.7,5l0-0.1c-0.9,1-0.8,2.4-1.3,3.5c-0.8,1.9-1.8,3.6-3.1,5.1
			c-0.4,0.4-0.9,0.5-1.4,0.4C467,37.6,466.8,37.4,466.6,37.2z"/>
		<path id="Path_3360" class="st11" d="M272.6,26l1.8,0.1c2.1,1.3,4.2,2.7,6.1,4.2c1.8,1.6,2.5,3.7,0.7,5.9
			c-0.9-0.7-0.7-1.9-1.3-2.7c-1.2-1.8-2.8-3.2-4.8-4c-1.2-0.6-2.7-1-3-2.7C272.2,26.5,272.3,26.2,272.6,26z"/>
		<path id="Path_3361" class="st11" d="M388,54.7l1.7-1.4c1.3-0.4,2.5-1,3.6-1.7c0.8-0.5,1.6-0.7,1.6,0.7c-2.8,2.8-6.2,5-10,6.1
			c-0.5-0.3-0.8-0.7-0.9-1.2c0-0.3,0.1-0.5,0.3-0.7h0C385.5,56,387.2,56.2,388,54.7z"/>
		<path id="Path_3362" class="st11" d="M109.7,41c-0.7,0.1-1.4-0.1-1.8,0.7l-6.1-1.9c-2-0.9-4.2,0.1-6.3-0.6c-0.2-0.4,0-0.8,0.4-0.9
			c2.1-0.2,4.1-0.1,6.2,0.2C104.9,38.3,107.6,38.9,109.7,41z"/>
		<path id="Path_3363" class="st11" d="M257.5,39.6l0.6-4.8c0.2-0.2,0.5-0.2,0.7-0.1c0.3,1.8-0.2,3.6,0.3,5.3
			c0.1,0.7-0.2,1.5-0.9,1.8c-0.3,0.1-0.6,0-0.8-0.1l-4,0c-0.9,0.2-1.9,0.3-2.9,0.2c-0.9-0.3-1.9-0.2-2.8-0.7
			c-0.3-0.2-0.3-0.6-0.1-0.8c0,0,0,0,0,0l1.1-0.1C251.6,39.5,254.7,40.8,257.5,39.6z"/>
		<path id="Path_3364" class="st11" d="M422.7,47.8l3.7,0.2c0.1,0.8-0.4,1.3-1.1,1.4c-1.5-0.1-3.1,0.3-4.6-0.2l-1.1-0.1
			c-1.1-0.8-2.6,0.4-3.7-0.7c-2.9-1-5.9-0.2-8.8-0.6c-0.2-0.1-0.3-0.2-0.2-0.4c0.1-0.1,0.1-0.2,0.2-0.2l4.4,0
			c1.6-0.6,3.2-0.2,4.8-0.2C418.5,47.6,420.7,47.3,422.7,47.8z"/>
		<path id="Path_3365" class="st11" d="M121.1,86.8c-0.6,0-1.1-0.3-1.4-0.8l0.7-0.5c1.4-0.3,2.6-1,3.6-2c0.4-0.7,1.1-1.1,1.3-2
			c0.6-2.4,1.8-2.4,3.2-0.4c-0.3,0.6-0.9,0.8-1.4,1.2c0.6,0.5,2-0.2,2,1.3C126.1,83.8,124,86.3,121.1,86.8z"/>
		<path id="Path_3366" class="st11" d="M80.6,59.6l-0.3,0l-0.3,0c-1.2-1.1-0.8-2.5-0.9-3.9c0-2.6,0-5.3,0-7.9c0-1.2-0.2-2.5,1.2-3.2
			c1.3,0.7,1.2,1.8,0.9,2.9c-0.5,1.9-0.1,3.8-0.5,6.1c0.7-2-0.8-3.9,1.1-5.2c0.2,2.9,0,5.8-0.6,8.6C80.5,57.7,81.4,58.9,80.6,59.6z"
			/>
		<path id="Path_3367" class="st11" d="M214.8,42.9c-1.7-1.3-3.8-0.3-5.6-0.6c-0.2-0.1-0.3-0.2-0.2-0.4c0.1-0.1,0.1-0.2,0.2-0.2
			l6.6-0.1c3.4-0.5,6.8-0.1,10.3-0.2c0.4,0,0.7,0.3,0.7,0.7c-1.3,1.3-3.1-0.1-4.5,0.9L214.8,42.9z"/>
		<path id="Path_3368" class="st11" d="M134.1,83c1.4,1.4,3.2,1.3,4.9,1.3c1,0.6,2.2-0.1,3.2,0.5l2.4,0.1c-1,1.2-2.6,0-3.6,1
			l-0.7-0.1c-1.5,0.4-2.8-0.9-4.3-0.4c-0.8,0.4-1.2-0.4-1.9-0.6c-1-0.5-2.2,0.1-3.2-0.4c-0.5,0-1,0-1.1-0.6
			c-0.3-0.4-0.4-0.9-0.1-1.3c0.9-0.5,1.5,0.3,2.2,0.5L134.1,83z"/>
		<path id="Path_3369" class="st11" d="M337.1,59.6l-4.3,1.3c-0.7-0.4-1-1.2-0.7-2c0,0,0,0,0,0c0.9-0.5,1.9-0.7,2.9-0.7
			c1.6-0.1,3.1-0.8,4.8-0.8c0.9,0.3,1.9,0.2,2.8,0.7c0.3,0.2,0.3,0.6,0.1,0.8c0,0,0,0,0,0l-1,0.1C340.2,59.7,338.5,58.7,337.1,59.6z
			"/>
		<path id="Path_3370" class="st11" d="M80,25l0.2-1.2c1.2,4.8,1.8,9.8,1.7,14.7c-1.2,0-1.3-1-1.5-1.8c-0.2-3.7,0.4-7.5-0.3-11.2
			C79.9,25.4,79.9,25.2,80,25z"/>
		<path id="Path_3371" class="st11" d="M342,57c4.1-0.7,8.3-0.7,12.4,0c0.2,0.3,0.2,0.7-0.1,0.9c0,0,0,0,0,0c-4,0.3-8.1,0.7-12.1,0
			C341.9,57.8,341.8,57.4,342,57C342,57.1,342,57.1,342,57z"/>
		<path id="Path_3372" class="st11" d="M259.5,41.6l0.6,0l0,8.7c-0.8,1.5,0.2,2.9,0,4.4c0,0.5-0.3,1-0.7,1.3
			c-0.8-2.9-1.2-5.8-1.1-8.8c0.2-0.2,0.4-0.3,0.5-0.5C259.1,45,258,43.2,259.5,41.6z"/>
		<path id="Path_3373" class="st11" d="M73.2,107.2c-0.5,4.1-0.7,8.3-0.6,12.4c-0.8,0.3-1.2-0.1-1.5-0.7c-0.1-0.6-0.1-1.2,0.2-1.8
			l0,0c1-3.1-0.1-6.3,0.6-9.4c-0.2-1,0-2-0.7-2.9l0.2-0.2C73.9,104.3,72.3,106.5,73.2,107.2z"/>
		<path id="Path_3374" class="st11" d="M317.1,76.8l10.6,0.1c-0.4,0.9-1.2,0.6-1.9,0.6c-6.2,0-12.3,0.1-18.5,0.1l-0.1-0.5
			C310.5,76.2,313.8,76.5,317.1,76.8z"/>
		<path id="Path_3375" class="st11" d="M50.2,46.5c2-0.8,4-1.9,6.3-1.8c0.4,0.4,1.2,0.1,1.4,0.8c0,0.3-0.1,0.6-0.3,0.8
			c-1.7,1.3-3.8,2-6,1.8C50.9,48,50.4,47.3,50.2,46.5z"/>
		<path id="Path_3376" class="st11" d="M81.9,48.4c-1.4,1.6-0.2,3.8-1.4,6.3V44.6c-0.6-0.8-0.8-1.8-0.5-2.8c0.1-0.3,0.3-0.6,0.5-0.8
			l0.1,0c0.8-0.3,1.1,0.3,1.5,0.9c-0.1,2,0.2,4-0.2,6C82.1,48.1,82,48.3,81.9,48.4z"/>
		<path id="Path_3377" class="st11" d="M40.3,106l0.6-0.6l10.6,0c0.2,0.1,0.3,0.4,0.2,0.6c-0.2,0.3-0.6,0.4-0.8,0.6l-0.2,0.1
			l-0.3-0.1c-3.2,0.6-6.5,0.1-9.7,0.1C40.3,106.7,40.3,106.3,40.3,106z"/>
		<path id="Path_3378" class="st11" d="M233.3,89.7c-2.3,2.3-5.4,3.1-8.1,4.9c-1.7,1.2-2.6,2.1-2.5,4c-1-1.3-1.3-2.8,0.3-3.7
			C226.4,93.1,229.4,90.5,233.3,89.7z"/>
		<path id="Path_3379" class="st11" d="M29.9,57.8l-0.8-0.8l1.1-1.2c1.2-0.4,2.3-1,3.2-1.9l0.6-0.5c1.3-0.3,2.4-1,3.7-1.4
			c0.3,0.1,0.4,0.4,0.5,0.7c-0.1,1.2-1.1,1.6-1.8,2.3c-0.5,0.4-1.2,0.8-1.8,1c-1,0.3-1.9,0.9-2.7,1.6C31.2,57.9,30.6,58.3,29.9,57.8
			z"/>
		<path id="Path_3380" class="st11" d="M40.3,106c3.3,0.9,6.7,0.4,10.1,0.7c-5.9,0.9-11.8,0.3-17.7-0.6c0.1-0.3,0.5-0.4,0.8-0.3
			c0,0,0.1,0,0.1,0.1L40.3,106z"/>
		<path id="Path_3381" class="st11" d="M342.6,58.9c0-0.2,0-0.4,0-0.6c5.7-0.6,11.5-0.3,17.2-0.6c0.5,0,1,0.2,1.4,0.6l0,0.7
			C355,59,348.8,59,342.6,58.9z"/>
		<path id="Path_3382" class="st11" d="M302.3,76.2l0,0.7c-3.1,0.8-6.1,1.6-9.3,0.7c-1.7,0-3.4-0.3-5,0.6c-0.2-0.2-0.7-0.3-0.8-0.7
			C292.2,76.5,297.2,76.1,302.3,76.2z"/>
		<path id="Path_3383" class="st11" d="M432.5,49.7l18.3,0C444.7,50.5,438.5,50.5,432.5,49.7z"/>
		<path id="Path_3384" class="st11" d="M182.4,43.4c2.4,1.6,5.1,0.2,7.6,0.8c-3.3,0.6-6.7,1-10,1.1c-0.6-0.3-1.5,0.1-2-0.6
			C179.3,43.8,180.8,43.4,182.4,43.4z"/>
		<path id="Path_3385" class="st11" d="M23,102.2c-0.9,0.1-1.8,0-1.9,1.2c-0.3,0.1-0.6,0-0.7-0.3c0,0,0-0.1,0-0.1
			c-0.9-0.9-2.1-1-3.2-1.3c-1.2-0.2-2.3-0.9-3.1-1.9c0.7-0.1,1.5,0.1,2.1-0.6c1.8-0.7,2.9,1.2,4.5,1.3C21.4,101,22.9,100.7,23,102.2
			z"/>
		<path id="Path_3386" class="st11" d="M50.2,46.5c0.6,0.2,1.1,0.7,1.3,1.3c-0.2,0.8-0.9,1.1-1.6,1.4c-1.7,0.3-3.2,1.7-5.1,1.3
			c-0.4-0.3-0.5-0.7-0.4-1.2c0.1-0.5,0.6-0.6,0.9-0.9C47,47.9,48.4,46.7,50.2,46.5z"/>
		<path id="Path_3387" class="st11" d="M75.2,98.1c-0.2-0.7,0.1-1.5-0.7-2c-0.2-0.2-0.3-0.5-0.3-0.7c0.1-0.5,0.2-1.1,0.2-1.6
			c0.1-0.4,0.1-0.9,0.2-1.3c0.8-2.7,0.4-5.7,2.1-8.1c0.3-0.2,0.6-0.2,0.9,0C76.8,88.9,76,93.5,75.2,98.1z"/>
		<path id="Path_3388" class="st11" d="M44.6,49.2l0.1,1c-1.2,1.8-3.1,2.5-5,3.1c-0.6,0.1-1.3-0.1-1.8-0.5v-0.6
			c-0.2-0.1-0.3-0.3-0.2-0.4c0.1-0.1,0.2-0.2,0.2-0.2l1.1-0.8c1.1-0.3,2.2-0.7,3.1-1.3C43,49.5,43.7,48.8,44.6,49.2z"/>
		<path id="Path_3389" class="st11" d="M331.5,61.5c-1.3,0.7-2.1,2.2-1.9,3.7c-0.7,1.5-0.1,3.1-0.3,4.6c0,0.3-0.3,0.6-0.7,0.5
			c-0.7-0.2-0.8-0.9-1.1-1.5c0-0.3,0-0.6,0.1-0.9c0.3-1.6-0.1-3.2,0.4-4.8C329.4,60.2,330,59.9,331.5,61.5z"/>
		<path id="Path_3390" class="st11" d="M259.6,54.5c0.2-1.4-0.7-3,0.5-4.3c0.4,2.3,0.8,4.6,1.2,6.9c0.4,1.7,0.9,3.4-0.3,4.9
			c-1.1-0.5-0.4-1.5-0.6-2.3C259.3,58.2,260.2,56.3,259.6,54.5z"/>
		<path id="Path_3391" class="st11" d="M466.9,40.4c0.1,1-0.5,1.9-1.3,2.3c-0.9-0.4-1.5,0.5-2.3,0.5c-0.3,0-0.5-0.1-0.7-0.3
			c1.4-1.9,2.7-3.8,4.1-5.7c0.1,0,0.3,0,0.4,0.1C468,38.4,466.3,39.4,466.9,40.4z"/>
		<path id="Path_3392" class="st11" d="M222.2,42.8c1.3-1.2,3-0.3,4.4-0.7c2-0.9,4.2-0.3,6.2-0.7c1.2,0,2.4,0.1,3.5,0.3
			c0.3,0.1,0.6,0.3,0.8,0.6C232.2,43.1,227.2,42.8,222.2,42.8z"/>
		<path id="Path_3393" class="st11" d="M102,38.4l-6.5,0.1c-1.3,1.1-2.8,0.3-4.2,0.8c-0.3,0.1-0.7,0-0.9-0.2c-0.9-0.9-2.1-0.2-3-0.6
			C92.3,37.6,97.2,37.6,102,38.4z"/>
		<path id="Path_3394" class="st11" d="M80.1,25.5c1.4,2.7,0.4,5.6,0.6,8.4c0.1,1.1,0,2.3,0.1,3.4c0.3,0.7,0.5,1.4,0.1,2
			c-0.4,0.6-1,0.8-0.9-0.3C80,34.5,80,30,80.1,25.5z"/>
		<path id="Path_3395" class="st11" d="M394.9,52.3c-0.8-1.2-1.4-0.2-2,0.2c-0.9,0.7-2,1-3.2,0.9c2.2-1.1,3.6-3.4,6.2-3.8
			c0.6,0.1,1.2,0.2,1.4,0.8L394.9,52.3z"/>
		<path id="Path_3396" class="st11" d="M462.5,42.9l0.6,0c0.6,0.2-0.2,1.7,1.1,1.2c-0.3,1.4-1.6,2.4-3.1,2.4
			c-0.1-1.3-1.1-1.2-1.9-1.3L462.5,42.9z"/>
		<path id="Path_3397" class="st11" d="M177.5,49c-0.3,0.6-0.8,0.6-1.4,0.7c-0.7-0.4-0.9-1.2-1.2-1.9c-0.1-2.3,0.8-3.3,2.5-2.8
			c1.2,0.4,0.6,1,0,1.5c-0.7,0.5-0.8,1.4-0.3,2.1C177.3,48.8,177.4,48.9,177.5,49z"/>
		<path id="Path_3398" class="st11" d="M331.5,61.5c-2.2-1.5-2.3,0.8-3.1,1.8l-0.4,0.2l-0.3-0.3c0.4-2.2,2.2-4,4.4-4.3l0.7,2
			C332.4,61.3,332.1,61.6,331.5,61.5z"/>
		<path id="Path_3399" class="st11" d="M475.4,16.3c2,1.6,0.1,3.3,0,4.9c-2.2,0.9-1.1-1.3-1.8-1.8l0-1.2
			C474.3,17.6,473.8,15.9,475.4,16.3z"/>
		<path id="Path_3400" class="st11" d="M471.7,26c0,3.1-0.2,6.1-3.1,8.2L471.7,26z"/>
		<path id="Path_3401" class="st11" d="M325.8,74.8c-0.7,1.3-2,0.8-3,0.8c-3.4,0-6.8,0-10.1,0C317,74.7,321.5,75.4,325.8,74.8z"/>
		<path id="Path_3402" class="st11" d="M250.1,41.5l3.3,0.2c-4.2,0.9-8.4,0.4-12.6,0.5c-0.2-0.3-0.1-0.7,0.2-0.9c0,0,0,0,0.1,0
			C244.1,40.6,247.1,41.1,250.1,41.5z"/>
		<path id="Path_3403" class="st11" d="M379.9,57.7c-4.1,1.1-8.4,1.1-12.4,0L379.9,57.7z"/>
		<path id="Path_3404" class="st11" d="M268.9,97.9l-1.3,0.7c-0.7-0.8-0.9-1.9-0.7-3c-0.3-0.8-0.3-1.7-0.2-2.5
			c0-0.3,0.1-0.6,0.3-0.8c1.1-0.2,0.8,1,1.3,1.3L268.9,97.9z"/>
		<path id="Path_3405" class="st11" d="M354.4,57.7V57c4.2-0.2,8.5,0,12.7,0.6l-5.3,0.2C359.4,58.2,356.9,58.2,354.4,57.7z"/>
		<path id="Path_3406" class="st11" d="M90.5,39.1l0.9,0c1.3-0.4,2.7-0.4,4.1,0c2.1,0.5,4.3-0.7,6.3,0.7l-11.8,0L90.5,39.1z"/>
		<path id="Path_3407" class="st11" d="M264.4,84.3c1.4,2,0.9,4.7,2.3,6.7c0.4,0.2,0.5,0.7,0.3,1.1c0,0.1-0.1,0.2-0.2,0.2l0,0
			c-0.2,0.3-0.5,0.4-0.7,0.1C265.2,89.8,264.3,87.2,264.4,84.3z"/>
		<path id="Path_3408" class="st11" d="M425.9,48.9c0.2-0.3,0.4-0.6,0.6-0.9l7.9,0.5c-0.5,1-1.9,0.1-2.4,1.2l-0.6,0
			C429.7,48.8,427.6,50.1,425.9,48.9z"/>
		<path id="Path_3409" class="st11" d="M203,42.9c3.8,0,7.6,0,11.3,0.1c-3.7,0.9-7.6,0.4-11.3,0.5c-0.2-0.1-0.3-0.3-0.2-0.4
			C202.8,42.9,202.9,42.9,203,42.9z"/>
		<path id="Path_3410" class="st11" d="M263.7,80.5c0-0.7,0.1-1.4,0.1-2.1c0-2.1,0.9-0.4,1.3-0.4c0.5,1.8,1.9,1.9,3.4,1.8
			c0.2-0.2,0.6-0.2,0.8,0c0,0,0.1,0.1,0.1,0.2c-1.1,0.8-2.6,0.8-3.7,0.1C264.7,79.5,264.4,80.3,263.7,80.5z"/>
		<path id="Path_3411" class="st11" d="M328.9,70.1c0.3-1.6-0.6-3.5,0.7-5c-0.4,3.4,1,7-0.6,10.4l-0.1-0.7
			C328.8,73.2,327.6,71.6,328.9,70.1z"/>
		<path id="Path_3412" class="st11" d="M177.5,46.6c0.4-0.9,0.2-1.3-0.9-1.2c-1.5,0.2-1.6,1.3-1.6,2.5c-0.9-2.7-0.7-2.9,3-3.2
			c0.7,0.2,1.5-0.1,2,0.6C179.2,45.7,178.7,46.9,177.5,46.6z"/>
		<path id="Path_3413" class="st11" d="M276.2,39.1l-0.6-1.2c0.5-0.8,1.4-1.2,2.3-1.1c0.8,0.4,1.8-0.1,2.6,0.5
			C279.8,39.6,277.8,39,276.2,39.1z"/>
		<path id="Path_3414" class="st11" d="M33.6,105.9l-0.9,0.2c-3-0.1-5.9-0.7-8.6-1.9C27.3,104.2,30.4,105.1,33.6,105.9z"/>
		<path id="Path_3415" class="st11" d="M425.9,48.9c1.8,0.6,3.9-0.6,5.6,0.8c-3.6-0.1-7.1,0.1-10.7-0.5L425.9,48.9z"/>
		<path id="Path_3416" class="st11" d="M129.7,82.5l0,1.3l-0.6-0.2c-1-1.3-2.2,0.1-3.3-0.3c0.2-1.7,1.2-2.2,2.7-2.2l0,0
			C128.8,81.7,129.7,81.7,129.7,82.5z"/>
		<path id="Path_3417" class="st11" d="M57.7,46c0-0.2,0-0.4,0-0.6c0.1-0.2,0.2-0.3,0.4-0.4c0.4-0.3,0.9-0.3,1.3-0.6
			c-0.4,0.2-0.9,0.1-1.2-0.3c1.2-1,2.5-0.7,3.8-0.5c0.4,0.2,0.8,0.4,0.8,1c-0.7,1.4-2.2,1.5-3.4,1.9C58.8,46.6,58.1,46.4,57.7,46z"
			/>
		<path id="Path_3418" class="st11" d="M327.8,68.3c0,0.2,0,0.3,0,0.5c0.3,1,0.5,2,0.5,3c0,0.5-0.2,1-0.6,1.4h-0.6
			c0-3.3-0.7-6.7,0.5-10l0.2,0.2C328.2,65,328.2,66.7,327.8,68.3z"/>
		<path id="Path_3419" class="st11" d="M77.7,84.3l-0.7,0c-0.5-2.9-0.1-6,1.2-8.7c0.2,0,0.3,0,0.5,0c0.3,0.1,0.4,0.4,0.3,0.7
			c0,0.1-0.1,0.1-0.1,0.2C78.8,79.1,78.4,81.8,77.7,84.3z"/>
		<path id="Path_3420" class="st11" d="M369.1,59.6l10.2,0C375.9,60.6,372.5,60.2,369.1,59.6z"/>
		<path id="Path_3421" class="st11" d="M280.6,78.7l-8.7,0.6c2.8-1,5.8-1.4,8.7-1.3c0.2,0.1,0.3,0.3,0.2,0.5S280.6,78.7,280.6,78.7z
			"/>
		<path id="Path_3422" class="st11" d="M71.9,107.7c-0.1,3.1,0.8,6.3-0.6,9.4C70.9,113.9,71.2,110.8,71.9,107.7z"/>
		<path id="Path_3423" class="st11" d="M473.6,19.4c0.9,0.3,0.4,2,1.8,1.8c0.1,0.4,0,0.6-0.4,0.7c-1.5,0.2-1.3,2.2-2.7,2.4
			C472.7,22.6,473.2,21,473.6,19.4z"/>
		<path id="Path_3424" class="st11" d="M260.8,61.9c1.1-1.5,0.1-3.2,0.5-4.7c1,1.4,0.6,3.1,0.7,4.7c-0.6,0.5,1,2.6-1.3,2
			c-0.1-0.1-0.1-0.3-0.1-0.5C260.3,63,260.4,62.3,260.8,61.9z"/>
		<path id="Path_3425" class="st11" d="M185,73.1c-0.2-2.9,0.4-5.9-0.5-8.8C186.4,67.1,185.6,70.1,185,73.1z"/>
		<path id="Path_3426" class="st11" d="M80,39c0.6,0,0.6,0,0.7-1.7c0.4,0.4,0.7,0.8,1.1,1.2c0,0.8,0.1,1.7,0.1,2.5
			c0.2,0.2,0.2,0.3,0.1,0.4c-0.1,0.1-0.1,0.1-0.2,0.1L80.7,41c-0.5-0.5-0.9-0.9-1.4-1.4L80,39z"/>
		<path id="Path_3427" class="st11" d="M258.8,47.2c-0.2,0-0.4,0-0.6,0l-0.8-5.5l0.7-0.1C260,43.3,259.1,45.3,258.8,47.2z"/>
		<path id="Path_3428" class="st11" d="M307.3,77.6c-2.6,0.8-5.3,0.6-8,0.7l-0.2-0.5c2.6-0.8,5.4-0.9,8.1-0.4L307.3,77.6z"/>
		<path id="Path_3429" class="st11" d="M280.6,78.7l0-0.7c2.2-0.8,4.5-0.5,6.7-0.6l0.8,0.7C285.5,78.4,283,77.6,280.6,78.7z"/>
		<path id="Path_3430" class="st11" d="M342,57l0,0.6c-0.5,0.4-1.2,0.5-1.8,0.1c-1.8-0.1-3.5,1-5.3,0.5
			C337.2,57.2,339.6,56.8,342,57z"/>
		<path id="Path_3431" class="st11" d="M280.5,37.3c-0.8,0.1-1.7,0.6-2.5-0.1c0.6-1.6,1.9-2.7,2.5-4.2c1.2,0.8,0.5,2.1,0.7,3.2
			L280.5,37.3z"/>
		<path id="Path_3432" class="st11" d="M62.8,44.2l-0.7-0.6l1.2-0.7c1-0.4,2.2-0.4,3.1,0l0.1,0.8c-0.2,1.1-1.1,1-1.9,1.2
			C63.9,44.9,63.2,44.6,62.8,44.2z"/>
		<path id="Path_3433" class="st11" d="M81.9,41.6c0-0.2,0.1-0.4,0.1-0.5l0.8,0.1c-0.5,2.2,0,4.6-0.8,6.8
			C81.5,45.8,82,43.7,81.9,41.6z"/>
		<path id="Path_3434" class="st11" d="M361.2,59c2.5,0.2,5.1-0.7,7.5,0.6C366.2,59.4,363.7,60,361.2,59z"/>
		<path id="Path_3435" class="st11" d="M93.1,97.3c-1.8-0.3-3.4,1-5.2,0.5c2-0.9,4.2-1.5,6.4-1.8L93.1,97.3z"/>
		<path id="Path_3436" class="st11" d="M397.4,50.3c-0.6,0-1.1-0.3-1.4-0.8l1.2-1.1l2,0.3l-0.6,1L397.4,50.3z"/>
		<path id="Path_3437" class="st11" d="M91.3,98.7c0.2-1,1.5-0.6,1.8-1.4l4.4-0.6C95.5,97.7,93.4,98.4,91.3,98.7z"/>
		<path id="Path_3438" class="st11" d="M416.5,47.3c-1.6,0-3.3-0.1-4.9-0.1c0-0.2,0-0.4,0-0.6c2.5-0.3,5.1-0.1,7.6,0.5
			C418.4,47.6,417.3,47.7,416.5,47.3z"/>
		<path id="Path_3439" class="st11" d="M50.9,106.6l0.6-0.7c1.6-0.4,3.2-0.4,4.8-0.1l2.2,0.2C56,106.7,53.4,106.9,50.9,106.6z"/>
		<path id="Path_3440" class="st11" d="M158.9,86.1c2.5-1.2,5.1-0.4,7.6-0.5C164,86.4,161.5,86.1,158.9,86.1z"/>
		<path id="Path_3441" class="st11" d="M70.2,134.4c-0.1-0.5-0.1-0.9-0.2-1.4c-0.1-1.9,0.1-3.8,0.6-5.6c0.5,0.3,0.8,0.9,0.8,1.4
			C71.2,130.7,72.6,133,70.2,134.4z"/>
		<path id="Path_3442" class="st11" d="M6.7,82.3c0,2.4,0,4.8,0,7.2C5.9,87.1,5.9,84.6,6.7,82.3z"/>
		<path id="Path_3443" class="st11" d="M384.2,57.1c0.5,0.3,0.7,0.8,0.7,1.3c-0.7,0.5-1.6,0.7-2.5,0.6l0-1.3
			C382.8,57,383.3,56.5,384.2,57.1z"/>
		<path id="Path_3444" class="st11" d="M80.6,59.6c0.2-0.9-0.2-1.9,0.7-2.5c-0.2,2.3,0.2,4.7-0.6,7C80.7,62.6,80.7,61.1,80.6,59.6z"
			/>
		<path id="Path_3445" class="st11" d="M464.3,44.1c-1.5,0.7-1.2-0.4-1.1-1.2c0.8,0,1.4-2.5,2.3-0.2L464.3,44.1z"/>
		<path id="Path_3446" class="st11" d="M262.6,81.2c-1.7,1-3.7,1.5-5.7,1.2C258.7,81.6,260.6,81.2,262.6,81.2z"/>
		<path id="Path_3447" class="st11" d="M466.9,40.4c-1.2-1.1,0.3-2,0.1-3.1l1.6,0C468.4,38.6,467.5,39.4,466.9,40.4z"/>
		<path id="Path_3448" class="st11" d="M416.5,47.3l2.7-0.2c1.2,0,2.4,0.1,3.6,0.1c0,0.2,0,0.4,0,0.6
			C420.7,47.6,418.5,48.3,416.5,47.3z"/>
		<path id="Path_3449" class="st11" d="M284.9,79.4c2-1.3,4.2-0.5,6.3-0.6C289.2,79.4,287,79.6,284.9,79.4z"/>
		<path id="Path_3450" class="st11" d="M473.1,28.7c-0.2-1.9,0.1-3.7,1.7-5C474.7,25.5,473.7,27,473.1,28.7z"/>
		<path id="Path_3451" class="st11" d="M266.9,92.3c0-0.5-0.1-0.9-0.1-1.4c0.1-0.8,0.1-1.6,0.2-2.4c0.8,1.6,1.2,3.3,1.2,5
			L266.9,92.3z"/>
		<path id="Path_3452" class="st11" d="M71.3,117l0.2,2c0.2,0.4,0.4,0.9,0.5,1.3c0.2,1,0.1,2-0.4,2.8c-0.2,0.3-0.6,0.3-0.8,0.1
			c0,0,0,0,0,0C70.7,121.2,70.5,119.1,71.3,117z"/>
		<path id="Path_3453" class="st11" d="M388,54.7c-0.4,2.4-2.3,1.7-3.7,1.8L388,54.7z"/>
		<path id="Path_3454" class="st11" d="M129.7,82.5c-0.6-0.3-1.2-0.6-1.1-1.4c1.3,0.2,2.6,0.4,3.2,1.8L129.7,82.5z"/>
		<path id="Path_3455" class="st11" d="M183,59c-0.4-0.9-0.6-2-0.6-3c1.1,1.4,1.5,3.1,1.2,4.8C183,60.4,183.1,59.6,183,59z"/>
		<path id="Path_3456" class="st11" d="M124,83.5c-0.5,1.5-2.1,2.4-3.6,2L124,83.5z"/>
		<path id="Path_3457" class="st11" d="M87.5,38.5c-1.6,0.7-3.3,1.7-4.9-0.1L87.5,38.5z"/>
		<path id="Path_3458" class="st11" d="M84.4,40.4c1.8-1.1,3.7-0.6,5.6-0.6C88.2,40.6,86.3,40.3,84.4,40.4z"/>
		<path id="Path_3459" class="st11" d="M259.6,54.5c1.1,1.5,0.1,3.5,1.1,5c-0.2,0.3-0.4,0.3-0.7,0c-0.7-1.1-0.6-2.4-0.6-3.6
			C259.4,55.5,259.5,55,259.6,54.5z"/>
		<path id="Path_3460" class="st11" d="M459.3,45.2c-0.9,1.9-2.6,2-4.4,1.9L459.3,45.2z"/>
		<path id="Path_3461" class="st11" d="M111.1,49.6l0.6-4.9C112.6,46.3,112.3,48.3,111.1,49.6z"/>
		<path id="Path_3462" class="st11" d="M70.7,123.3c0.2,0,0.4,0,0.6-0.1c1.1,2,1.6,3.9-0.4,5.6c-0.1-0.5-0.1-1-0.2-1.4
			C70.4,126.1,70.4,124.6,70.7,123.3z"/>
		<path id="Path_3463" class="st11" d="M247,85c-1.1,1.1-2.6,1.2-3.9,1.7C244.1,85.3,245.5,85.1,247,85z"/>
		<path id="Path_3464" class="st11" d="M106.4,52c-1.5,0.1-1.5,0.9-0.9,2c-1.6-0.1-1.7-1.1-1.1-2C104.9,51.2,105.8,50.4,106.4,52z"
			/>
		<path id="Path_3465" class="st11" d="M167,85.6c1.6-1.2,3.4-0.5,5.1-0.6C170.4,85.8,168.7,85.6,167,85.6z"/>
		<path id="Path_3466" class="st11" d="M135.9,85.5c1.5-1.1,2.9,0.2,4.3,0.4C138.8,86.1,137.3,86,135.9,85.5z"/>
		<path id="Path_3467" class="st11" d="M264.5,75.7c-1.7-0.3-1.4-1.5-1.5-2.7c1.1,0.1,0.7,1.3,1.4,1.4L264.5,75.7z"/>
		<path id="Path_3468" class="st11" d="M299.3,78.3l-5.1,0.5c-0.2-0.2-0.2-0.6,0.1-0.8c0,0,0.1-0.1,0.1-0.1c1.6-0.2,3.1-0.8,4.6,0.1
			C299.1,78,299.2,78.1,299.3,78.3z"/>
		<path id="Path_3469" class="st11" d="M58.2,44l1.4,0.3c-0.4,0.8-1.2,0.8-1.9,1c-0.4-0.2-0.8-0.4-1.2-0.6L58.2,44z"/>
		<path id="Path_3470" class="st11" d="M416,48.3c1.2,0.3,2.6-0.4,3.7,0.7c-1.7,0-3.5,0.3-5.1-0.5L416,48.3z"/>
		<path id="Path_3471" class="st11" d="M37.9,51.6c0,0.2,0,0.4,0,0.5c-1.2,0.5-2.3,1.5-3.8,1.2C35.1,52.4,36.5,51.9,37.9,51.6z"/>
		<path id="Path_3472" class="st11" d="M194.3,43.5l5.2,0.1c-1.7,0.7-3.4,0.5-5.2,0.5c-0.2-0.1-0.3-0.2-0.2-0.4
			C194.1,43.6,194.2,43.5,194.3,43.5z"/>
		<path id="Path_3473" class="st11" d="M475.4,16.3l-1.8,1.8c-0.4-0.8-0.2-1.8,0.5-2.4c0.4-0.3,0.9-0.2,1.2,0.1
			C475.4,16,475.4,16.1,475.4,16.3z"/>
		<path id="Path_3474" class="st11" d="M194.3,43.5c0,0.2,0,0.4,0,0.5c-1.4,0-2.9,0.1-4.3,0.1C191.2,42.8,192.8,43.7,194.3,43.5z"/>
		<path id="Path_3475" class="st11" d="M337.1,59.6c1.4-1.3,3-0.6,4.5-0.6C340.2,59.5,338.6,59.7,337.1,59.6z"/>
		<path id="Path_3476" class="st11" d="M384.2,57.1l-1.8,0.6l-2.2-0.1c1.2-0.7,2.6-1,4-1.1V57.1z"/>
		<path id="Path_3477" class="st11" d="M33.4,53.9c-0.5,1.3-1.9,2.1-3.2,1.9C31.1,54.8,32.2,54.2,33.4,53.9z"/>
		<path id="Path_3478" class="st11" d="M279.9,80c1.4-1.2,3-0.5,4.5-0.6C283,79.9,281.5,80.1,279.9,80z"/>
		<path id="Path_3479" class="st11" d="M58.9,106c1.3-1.3,2.9-0.5,4.4-0.6C61.9,106,60.4,106.2,58.9,106z"/>
		<path id="Path_3480" class="st11" d="M168.9,83.8l-0.9-0.2c1.5-0.5,3-0.7,4.5-0.6c-0.3,0.4-0.7,0.7-1.2,0.7L168.9,83.8z"/>
		<path id="Path_3481" class="st11" d="M253.3,83.7c-1.1,0.6-2.3,0.8-3.4,0.5c1.2-0.7,2.6-1.1,4-1.2c0.2,0.1,0.3,0.3,0.2,0.4
			c-0.1,0.1-0.1,0.2-0.2,0.2C253.7,83.7,253.5,83.7,253.3,83.7z"/>
		<path id="Path_3482" class="st11" d="M271.3,110.9c2.1,0.7,0.9,2.4,1.2,3.7C271.6,113.5,271.9,112.1,271.3,110.9z"/>
		<path id="Path_3483" class="st11" d="M238.4,88l0,0.7c-1.3-0.2-2.5,0.9-3.9,0.5C235.6,88.3,237,87.9,238.4,88z"/>
		<path id="Path_3484" class="st11" d="M471.8,32.2c0-1.3,0-2.7,1.3-3.5C473,29.9,472.6,31.2,471.8,32.2z"/>
		<path id="Path_3485" class="st11" d="M44.6,49.2l-2.3,0.6c-0.2,0.2-0.5,0.1-0.7-0.1c0,0,0,0,0,0c1.1-0.7,2.4-1.2,3.8-1.2
			L44.6,49.2z"/>
		<path id="Path_3486" class="st11" d="M17.1,101.7c1.3-0.2,2.5,0,3.2,1.3L17.1,101.7z"/>
		<path id="Path_3487" class="st11" d="M240.9,41.7c0,0.2,0,0.4,0,0.6l-3.7,0.1c0-0.1-0.1-0.2-0.1-0.3c0-0.2,0-0.3,0-0.5l0.4-0.3
			C238.6,41,239.8,40.7,240.9,41.7z"/>
		<path id="Path_3488" class="st11" d="M78.9,76.5l-0.2-0.8c0.3-1-0.3-2.2,0.7-3.1C79.6,73.9,79.4,75.2,78.9,76.5z"/>
		<path id="Path_3489" class="st11" d="M108,91.2c-0.8,0.9-2,1.3-3.2,1.1C105.6,91.5,106.8,91.1,108,91.2z"/>
		<path id="Path_3490" class="st11" d="M41.5,49.6c0.2,0,0.5,0.1,0.8,0.1c-0.9,0.9-2.1,1.3-3.3,1.1L41.5,49.6z"/>
		<path id="Path_3491" class="st11" d="M23.5,60c-0.2,1.1-1.1,2-2.3,2.1C21.7,61.1,22.5,60.4,23.5,60z"/>
		<path id="Path_3492" class="st11" d="M253.9,83.7l0-0.7c0.9-0.5,2-0.7,3.1-0.6C256.2,83.5,254.8,82.9,253.9,83.7z"/>
		<path id="Path_3493" class="st11" d="M260,59.6l0.7,0c0,0.8,0.1,1.6,0.1,2.3c-0.1,0.5-0.1,1-0.2,1.5C260,62.3,259.8,60.9,260,59.6
			z"/>
		<path id="Path_3494" class="st11" d="M109.9,44.7c0.8,1.3,1.1,2.5-0.2,3.6C109.8,47.2,109.8,45.9,109.9,44.7z"/>
		<path id="Path_3495" class="st11" d="M468.6,34.1c0.1,1.3-0.8,2-1.7,2.5C467,35.6,467.7,34.7,468.6,34.1z"/>
		<path id="Path_3496" class="st11" d="M183.6,71.1c0,1.3,0.7,2.7-0.6,3.9C183,73.7,183.2,72.4,183.6,71.1z"/>
		<path id="Path_3497" class="st11" d="M275.6,80.6c1.2-1.1,2.6-0.6,3.9-0.6C278.3,80.6,276.9,80.8,275.6,80.6z"/>
		<path id="Path_3498" class="st11" d="M203,42.9c0,0.2,0,0.4,0,0.6l-3.1,0C200.7,42.4,201.9,43,203,42.9z"/>
		<path id="Path_3499" class="st11" d="M66.4,42.9l-3.1,0c0.9-0.6,2.1-0.8,3.2-0.5C66.4,42.5,66.4,42.7,66.4,42.9z"/>
		<path id="Path_3500" class="st11" d="M130.8,84.4c1.1-0.1,2.3-0.4,3.2,0.4C133,85.1,131.8,84.9,130.8,84.4z"/>
		<path id="Path_3501" class="st11" d="M253.9,84.9c0-0.2,0-0.4,0-0.6l3.2,0C256.1,84.9,255,85.1,253.9,84.9z"/>
		<path id="Path_3502" class="st11" d="M63.3,105.4c0.9-1.1,2.1-0.5,3.3-0.6C65.6,105.4,64.4,105.6,63.3,105.4z"/>
		<path id="Path_3503" class="st11" d="M266.2,92.4l0.7-0.1c0,1.1,0,2.1-0.1,3.2C266.3,94.6,266,93.5,266.2,92.4z"/>
		<path id="Path_3504" class="st11" d="M79.5,72.1c0-1.1-0.5-2.3,0.6-3.3C80.2,70,80,71.1,79.5,72.1z"/>
		<path id="Path_3505" class="st11" d="M78.8,39.8c-0.9,1.1-2.2,0.5-3.3,0.6C76.6,40.1,77.7,39.9,78.8,39.8z"/>
		<path id="Path_3506" class="st11" d="M265.7,83.2c0.4-1.4,1.4-1.5,2.6-1.3L265.7,83.2z"/>
		<path id="Path_3507" class="st11" d="M182.9,64c1.5,0.8,0.7,2.1,0.8,3.2C183.4,66.1,183.1,65,182.9,64z"/>
		<path id="Path_3508" class="st11" d="M266.9,88.6c-1.1-0.8-0.6-2-0.7-3C267.3,86.4,267,87.6,266.9,88.6z"/>
		<path id="Path_3509" class="st11" d="M183,74.9c0.2,1.1,0,2.1-1.3,2.5C181.9,76.5,182.4,75.7,183,74.9z"/>
		<path id="Path_3510" class="st11" d="M269.5,80.1l-0.9-0.2c1-0.5,2.2-0.7,3.3-0.6C271.3,80.3,270.3,79.9,269.5,80.1z"/>
		<path id="Path_3511" class="st11" d="M294.2,78.2c0,0.2,0,0.4,0,0.6c-1,0.3-2.1,0.3-3.1,0.1c0.4-0.9,1.1-0.7,1.8-0.7
			C293.3,77.8,293.8,77.8,294.2,78.2C294.2,78.1,294.2,78.1,294.2,78.2z"/>
		<path id="Path_3512" class="st11" d="M379.3,59.7c0.9-1.2,2.1-0.6,3.2-0.6C381.6,59.9,380.4,59.6,379.3,59.7z"/>
		<path id="Path_3513" class="st11" d="M106.7,54c0.6-0.9,1.7-1.3,2.8-1.1C108.8,53.6,107.8,54.1,106.7,54z"/>
		<path id="Path_3514" class="st11" d="M9.3,80.6c-0.7,3.7-0.5,7.5,0.6,11.1c0.3,0.7-0.1,0.8-0.6,0.7C7.9,88.4,7.3,84.5,9.3,80.6z"
			/>
		<path id="Path_3515" class="st11" d="M14.3,97.1l7,3.8c-0.1,0.3-0.5,0.4-0.7,0.3c-0.1,0-0.1-0.1-0.1-0.1c-1.8,0.1-2.8-1.4-4.3-1.9
			c-0.8-0.1-1.5-0.6-1.9-1.3c-0.2-0.1-0.2-0.4-0.1-0.6C14.2,97.2,14.3,97.2,14.3,97.1z"/>
		<path id="Path_3516" class="st11" d="M14.3,97.1c0,0.3-0.1,0.5-0.1,0.8c-2.2-1.4-3.3-3.8-5-5.6l0.6-0.7L14.3,97.1z"/>
		<path id="Path_3517" class="st11" d="M19.2,66.4c-0.2,1.1-0.9,2-1.9,2.3C17.5,67.6,18.2,66.7,19.2,66.4z"/>
		<path id="Path_3518" class="st11" d="M258.8,39.8c-0.4-1.6-0.4-3.3,0-4.9c-0.5-1.9,0.6-3.7,0.6-5.6l0,0c0.7-1.4,0.7-2.9,1.3-4.3
			c0.3-0.4,0.6-1.1,0.9-1.1c3.8-0.2,7.6-0.2,10.9,2.1l-0.1,0.9c-1.6,1.1-3.2,0.1-4.7,0.1c-4.1-0.1-5.1,0.5-6.4,4.5
			c-0.4,1-0.4,2.1-0.8,3.1c-0.1,0.1-0.2,0.2-0.3,0.3c-1.4,1.5-0.4,3.3-0.7,4.9C259.2,40.1,259,40.1,258.8,39.8z"/>
		<path id="Path_3519" class="st11" d="M226.6,41.7l-10.9-0.1c4.8-0.6,9.7-0.8,14.5-0.5C229.4,42.9,227.9,41.7,226.6,41.7z"/>
		<path id="Path_3520" class="st11" d="M209.2,41.7c0,0.2,0,0.4,0,0.5c-3.5,0-6.9,0-10.4,0.1C202.2,41.3,205.7,41.6,209.2,41.7z"/>
		<path id="Path_3521" class="st11" d="M226.6,41.7c1.2-0.3,2.6,0.5,3.7-0.7c0.2-0.1,0.4-0.1,0.5-0.1c0.5-0.2,1-0.3,1.6-0.2
			c0.4,0.1,0.8,0.3,1,0.6c0.1,0.2,0.1,0.5-0.1,0.7l-6.7,0C226.6,42,226.6,41.8,226.6,41.7z"/>
		<path id="Path_3522" class="st11" d="M196.1,42.3c-2.9,1.2-5.8,0.4-8.8,0.5C190.3,41.8,193.2,42.3,196.1,42.3z"/>
		<path id="Path_3523" class="st11" d="M257.5,39.6c-2.8,1.7-5.9,0.6-8.8,0.7C251.6,39.3,254.6,40.2,257.5,39.6z"/>
		<path id="Path_3524" class="st11" d="M236.3,40.9c2.5-0.8,5.1-0.4,7.6-0.5c0.2,0.2,0.1,0.6-0.1,0.7c-0.1,0-0.1,0.1-0.2,0.1
			c-2.1,0.1-4.3,0-6.4,0C236.9,41.4,236.5,41.2,236.3,40.9z"/>
		<path id="Path_3525" class="st11" d="M259.4,29.2c0.4,1.9-0.4,3.7-0.6,5.6l-0.7,0C258.2,32.9,258.7,31,259.4,29.2z"/>
		<path id="Path_3526" class="st11" d="M260.7,24.9c0.2,1.5-0.3,3.1-1.3,4.3C259.4,27.7,259.8,26.2,260.7,24.9z"/>
		<path id="Path_3527" class="st11" d="M187.4,42.8c-1.5,1.3-3.3,0.5-5,0.6C184,42.5,185.7,42.7,187.4,42.8z"/>
		<path id="Path_3528" class="st11" d="M232.7,41.2l-1.8-0.2c1.5-0.5,3.1-0.5,4.6,0C234.6,41.9,233.6,41.3,232.7,41.2z"/>
		<path id="Path_3529" class="st11" d="M232.7,41.2c0.9-0.1,1.8-0.2,2.8-0.2l0.9,0l0.9,0.2c0.1,0.1,0.2,0.3,0.1,0.4
			c-0.1,0.1-0.1,0.1-0.2,0.1l0,0c-1.2,0.5-2.5,0.5-3.7,0L232.7,41.2z"/>
		<path id="Path_3530" class="st11" d="M243.9,41c0-0.2,0-0.4,0-0.5l3.7,0c0,0.2,0,0.4,0,0.6C246.4,41.5,245.1,41.5,243.9,41z"/>
		<path id="Path_3531" class="st11" d="M294.2,78.2l-1.2,0c0-0.2,0-0.4,0-0.6c3.1-0.5,6.2-0.7,9.3-0.7c4.9-0.7,9.9-1.2,14.8-0.1
			c-3.3,0.3-6.6-0.5-9.9,0.5c-2.7,0.5-5.5-0.4-8.1,0.6C297.5,78,295.8,78.1,294.2,78.2z"/>
		<path id="Path_3532" class="st11" d="M73.2,107.1c-1-0.6-0.1-2.3-1.7-2.5c-0.1-1.2-1.4-1-1.9-1.7c0.1-0.2,0.4-0.3,0.7-0.3
			c1.4-0.4,2.7-1,2.8-2.8c1.4-0.6,0.7,1,1.4,1.2l1.9,0.9c-0.8,0.7-2,0.6-2.6,1.6C73.3,104.6,73.1,105.9,73.2,107.1z"/>
		<path id="Path_3533" class="st11" d="M51.3,104.7l10.7-1.2c0.2,0.1,0.3,0.3,0.2,0.4c-0.1,0.2-0.1,0.2-0.2,0.2
			C58.5,104.2,54.9,105.2,51.3,104.7z"/>
		<path id="Path_3534" class="st11" d="M20.4,101.1c0.3-0.1,0.6-0.1,0.9-0.2c1.5,0,3,0.5,4.3,1.3c-0.3,0.1-0.6,0.2-0.9,0.2
			c-0.6-0.1-1.2-0.1-1.7-0.2L20.4,101.1z"/>
		<path id="Path_3535" class="st11" d="M62,104.1l0-0.7c1.6-0.7,3.3-0.5,5-0.6C65.6,104.3,63.5,102.9,62,104.1z"/>
		<path id="Path_3536" class="st11" d="M56.3,105.9l-4.8,0.1c0-0.2,0-0.4,0-0.6C53.1,105.6,54.8,104.8,56.3,105.9z"/>
		<path id="Path_3537" class="st11" d="M70.1,102.9c-0.2,0-0.4,0-0.6,0c-0.9,0-1.7-0.1-2.6-0.1c1-0.6,2.1-0.8,3.2-0.6
			c0.2,0.1,0.3,0.3,0.2,0.4S70.2,102.9,70.1,102.9z"/>
		<path id="Path_3538" class="st11" d="M70.9,128.9c0.9-1.8,0.3-3.8,0.4-5.6c0.1-1,0.1-2,0.2-3c1.2-0.6,1.4,0.2,1.4,1.1
			c-0.1,2.1,0.3,4.2-0.2,6.3l-0.1,1.8c-0.8,2.4,0.2,5-0.6,7.4c0.1,1.1,0.7,2.3-0.7,3c-0.5-0.8-0.1-1.8-0.3-2.6
			c0,0.8,0.3,1.8-0.2,2.6c-1.2-1.7-0.4-3.7-0.5-5.5C71.3,132.7,70.5,130.7,70.9,128.9z"/>
		<path id="Path_3539" class="st11" d="M72.6,127.7c0-1.8,0-3.6,0-5.4c0-0.9,0.2-1.9-1.1-2c0-0.4,0-0.8,0-1.2l1.1,0.5
			C73.5,122.2,73.5,125,72.6,127.7z"/>
		<path id="Path_3540" class="st11" d="M72,136.9c0.3-2.5-0.6-5,0.6-7.4C72.3,131.9,73.1,134.5,72,136.9z"/>
		<path id="Path_3541" class="st11" d="M70.8,139.9V137c0.5,0.9,0.7,1.9,0.6,2.9l-0.3,0L70.8,139.9z"/>
		<path id="Path_3542" class="st11" d="M74.5,101c-1.1,0.3-0.3-1.2-1.1-1.1c-0.5-0.5-0.4-1-0.2-1.6c-0.1-0.1-0.1-0.2,0-0.3
			c0,0,0,0,0.1-0.1c1-0.5-0.5-2.4,1.3-2.5c0,0.2,0,0.4,0,0.6C74.5,97.7,74.5,99.4,74.5,101z"/>
		<path id="Path_3543" class="st11" d="M258.8,39.8l0.7,0c0.5,0.6,0.2,1.2,0,1.8c-0.1,1.9-0.1,3.7-0.2,5.6c0,0-0.1,0.1-0.2,0.1
			c-0.1,0-0.2-0.1-0.3-0.1c0-1.9,0.5-3.8-0.6-5.5C258.4,41,258.6,40.4,258.8,39.8z"/>
		<path id="Path_3544" class="st11" d="M407.2,47.2c0,0.2,0,0.4,0,0.5c-1.1,0-2.2,0.4-3.3-0.3C405,45.9,406.1,47.3,407.2,47.2z"/>
		<path id="Path_3545" class="st11" d="M327.8,73.2l0-1.2c0.5-0.5,0-1.4,0.6-1.9c0.2,0,0.4,0,0.5,0c0,1.6,0,3.1-0.1,4.7
			C328.5,74.3,328.1,73.7,327.8,73.2z"/>
		<path id="Path_3546" class="st11" d="M142.1,84.9c-1.1,0-2.2,0.4-3.2-0.5C140,84.4,141.2,84,142.1,84.9z"/>
		<path id="Path_3547" class="st11" d="M340.2,57.8l1.8-0.1l12.4,0c2.5,0,4.9,0.1,7.4,0.1l-0.6,0.6l-18.6,0
			C341.8,58.2,340.9,58.6,340.2,57.8z"/>
		<path id="Path_3548" class="st11" d="M75.6,83.5c0-3.1,0.7-6.2,2-9c0.4,0.3,0.6,0.7,0.6,1.2c0,2.9-0.4,5.9-1.2,8.7
			c-0.8,2.9-0.6,5.9-1.9,8.7c-0.7-0.5-0.6-1.3-0.9-1.9c-0.1-0.4-0.1-0.9,0.2-1.2c0-0.7-0.2-1.3,0.4-1.9
			C76.1,86.6,74.9,84.9,75.6,83.5z"/>
		<path id="Path_3549" class="st11" d="M79.4,61.4c0.2-1.9-0.2-3.9,0.6-5.8c0,1.3,0.1,2.6,0.1,4C80,60.3,80.1,61,79.4,61.4z"/>
		<path id="Path_3550" class="st11" d="M78.2,70.1c0.1-1.7-0.3-3.5,0.5-5.2C78.7,66.6,79.4,68.4,78.2,70.1z"/>
		<path id="Path_3551" class="st11" d="M80.6,41.8c-1.2-0.6-2.4,0-3.6-0.2c1.1-1.1,2.4-0.4,3.6-0.6C80.6,41.3,80.6,41.5,80.6,41.8z"
			/>
		<path id="Path_3552" class="st11" d="M95.5,39.1c-1.4,0-2.7,0-4.1,0c1.3-1,2.8-0.3,4.1-0.5C95.6,38.7,95.5,38.9,95.5,39.1z"/>
		<path id="Path_3553" class="st11" d="M243.9,41l3.7,0c0.8,0.1,1.8-0.2,2.5,0.5c-3.1,0-6.2,0.1-9.2,0.1c-1.2,0-2.5,0-3.7,0
			c0-0.2,0-0.3,0.1-0.5L243.9,41z"/>
		<path id="Path_3554" class="st11" d="M39.7,52.8c-1.2,0.7-2.2,1.7-3.7,1.7c0.6-0.6,1.3-1.1,1.9-1.7L39.7,52.8z"/>
		<path id="Path_3555" class="st11" d="M34.2,55.3c-0.4,1.1-1.4,1.8-2.6,1.7C32.2,55.9,33.2,55.7,34.2,55.3z"/>
		<path id="Path_3556" class="st11" d="M74.5,95.4c-1,0.5-0.2,2-1.3,2.5c-0.1-1.7,0.2-3.4,0.6-5c0.2-0.2,0.4-0.3,0.7-0.2
			c0.4,0.4,0.1,1,0.6,1.4C75.1,94.7,74.9,95.2,74.5,95.4z"/>
		<path id="Path_3557" class="st11" d="M75,94.2c-0.4-0.3-0.7-0.7-0.6-1.2c-0.3-0.6-0.5-1.3,0.1-1.8c0.6,0.5,0.5,1.2,0.5,1.9
			C75.1,93.4,75.1,93.8,75,94.2z"/>
		<path id="Path_3558" class="st11" d="M327.8,68.3c0-1.6,0-3.3,0-4.9c0.2,0,0.4-0.1,0.5-0.1C328.1,64.9,328.9,66.7,327.8,68.3z"/>
		<path id="Path_3559" class="st11" d="M328.4,70.1c0,0.7,0,1.4-0.6,1.9c0-1.1,0-2.1,0-3.2C328,69.2,328.2,69.7,328.4,70.1z"/>
		<path id="Path_3560" class="st11" d="M233.4,41.6l3.7,0c0,0.1,0,0.3-0.1,0.4l-3.7,0C233.4,41.9,233.4,41.8,233.4,41.6z"/>
		<path id="Path_3561" class="st11" d="M73.1,98.3l0.2,1.6c0,2.1-1.5,2.7-3.2,3v-0.6C72.4,101.9,72.6,100,73.1,98.3z"/>
		<path id="Path_3562" class="st11" d="M75.6,83.5c-0.1,1.5,0.9,3.2-0.8,4.5C75.1,86.4,75.3,85,75.6,83.5z"/>
		<path id="Path_3563" class="st11" d="M74.6,91.1L74.4,93c-0.2,0-0.4,0-0.6,0c-0.2-1.1,0-2.2,0.6-3.1L74.6,91.1z"/>
		<path id="Path_3564" class="st11" d="M260.7,31.7c0,1.1,0.1,2.2-0.6,3.1C260.2,33.8,259.7,32.6,260.7,31.7z"/>
	</g>
	<g id="Group_3129" transform="translate(1225.889 828.461) rotate(-8)">
		<path id="Path_3332-2" class="st11" d="M6.7,82.3c-0.3-1.5,0.4-2.8,1.1-4.1c3.1-6.4,7.7-11.9,13.4-16.2c0.8-0.6,1.6-1.3,2.3-2.1
			c1.9-0.9,3.4-2.7,5.6-3c0.4,0.1,0.8,0.4,0.9,0.9c-0.1,0.8-0.6,1.6-1.4,1.9c-3.3,1.9-5.9,4.7-8.9,7c-0.8,0.7-1.6,1.5-2.1,2.5
			c-1.6,1.9-3.1,4-4.3,6.1c-1.1,2-3.3,3.2-3.6,5.7c-1.1,3.4-1.1,7.2,0.1,10.6c1.3,2.2,2.9,4.2,4.8,6c0.5,0.7,1.6,0.9,1.5,2.1
			c-0.6,0.8-1.4,0.5-2.2,0.2c-3.4-2.8-6.5-5.8-7.3-10.4C6.3,87.1,6.3,84.6,6.7,82.3z"/>
		<path id="Path_3333-2" class="st11" d="M284.9,79.4l-0.2,0.1l-0.2-0.1c-1.4,0.7-3.1-0.2-4.5,0.6l-0.2,0.1l-0.2-0.1
			c-1.3,0.6-2.7-0.3-3.9,0.6l-7.3,1.3c-0.9,0.3-2,0.3-2.6,1.3c0.1,0.8-0.3,1.7,0.5,2.4c0.8,0.9-0.2,2.1,0.7,3l0,0
			c0.3,0.8,0.3,1.7,0.1,2.5c-1.8-0.3-1.3-1.9-1.8-2.9c-0.6-1.2-0.3-2.6-0.8-3.8c-2.5-2.3-4.9,0.4-7.3,0.1c-0.9,0.3-1.9,0.3-2.8,0.2
			c-0.5,0.1-0.9-0.2-1.2-0.6c0-0.3,0.2-0.6,0.5-0.6c0.9-0.9,2.3-0.3,3.3-1l0,0c1.9-0.4,3.8-0.7,5.7-1.2l0.6-0.6
			c0.2-0.2,0.4-0.4,0.6-0.6c0.6-0.9,1.2-0.8,2-0.2c1.1,0.8,2.6,0.8,3.7,0c0.8-0.3,1.7,0.3,2.4-0.5l0,0c2.8-0.4,5.6-1.1,8.5-0.9
			c2.3-1.2,4.9-0.2,7.3-0.7c1.6-0.7,3.3-0.4,5-0.5c0.3,0,0.6,0.3,0.6,0.7c-0.4,1-1.6,0.1-2,1l0,0C289.2,79.5,286.9,78.5,284.9,79.4z
			"/>
		<path id="Path_3334-2" class="st11" d="M183.6,71.1c-1.3-1.3,0-2.7,0-4c-0.7-1,0.4-2.4-0.8-3.2c-0.5-1.4-1.2-2.8-0.9-4.4
			c0.2-0.6,0.6-0.9,1.3-0.7c0.4,0.6,0,1.4,0.5,1.9c-0.1,1.2,1.1,2.2,0.7,3.5c1.6,2.9,0.8,5.9,0.5,8.8c-0.1,0.2-0.3,0.3-0.3,0.5
			c-1.5,7.9-3.5,9.8-12.1,11.3c-0.4-0.4-1.5-0.1-1.4-1.2c0.3-0.5,1.1-0.2,1.4-0.7c3.6-0.9,7-2.3,9.2-5.6c0.7-0.7,1.1-1.6,1.3-2.5
			l0,0C183.9,73.8,183,72.4,183.6,71.1z"/>
		<path id="Path_3335-2" class="st11" d="M58.9,106l-0.2,0.1l-0.2-0.1c-0.7,0.2-1.4,0.3-2.1,0.1c-1.8-0.2-3.5-0.3-5.3-0.2
			c-3.3,0.3-6.7,0.3-10,0.2c-4.2-0.6-8.4-0.6-12.5-1.5c-1.6-0.3-3.4-0.3-4-2.3c0.2-0.3,0.5-0.5,0.9-0.6c3.6,0.2,7.1,0.7,10.7,1.4
			c5,0.8,10.1,0.7,15.1,0.7c3.3,0.1,6.6-0.1,9.9-0.6c1.7-0.3,3.4-0.5,5.1-0.7c0.3-0.1,0.6-0.2,0.9-0.2c0.7-0.1,1.5-0.1,2.2,0.1
			c0.9,0.4,2,0.5,2.3,1.7c0,0.3-0.2,0.5-0.4,0.7c-1.6-1.2-3.1,0.5-4.7,0c-1,0.6-2.3-0.2-3.2,0.6l0,0C61.9,106.1,60.3,105.1,58.9,106
			z"/>
		<path id="Path_3336-2" class="st11" d="M108,91.2l11.7-5.1c0.6,0.1,1.1,0.2,1.4,0.8c-7.4,4.3-15.4,7.6-23.6,9.9
			c-1.3,0.2-2.5,0.8-3.7,0.9c-0.3,0-0.6-0.1-0.8-0.3c-0.2-1.1,1-0.8,1.3-1.3l10.4-3.8C105.8,92,106.9,91.6,108,91.2z"/>
		<path id="Path_3337-2" class="st11" d="M74.7,103.6c-1.7,6.8-0.8,13.7-0.9,20.5c-0.1,5-1,10-0.6,15c0.1,1.2-0.4,2-1.6,2.2
			c-1.3,0.1-1.9-0.7-1.9-1.9c-0.1-2.1-0.5-4.3,0.4-6.4c0.4,0.2,0.6,0.6,0.7,1.1c0.3,1.4,0,2.9,0.2,4.3c0,0,0.1,0.2,0.1,0.2
			s0.3-0.1,0.2-0.1c0.2-0.8,0-1.6,0.3-2.3c0.2-2.2,0.1-4.4,0.1-6.7c0-0.7,0.1-1.3,0.2-2c0.6-2.6,0.6-5.4,0-8c0-4.1-0.3-8.2,0.6-12.3
			c0.1-1.4-0.4-2.9,1.1-3.9C74,103.2,74.4,103.3,74.7,103.6z"/>
		<path id="Path_3338-2" class="st11" d="M432.4,49.7l-0.2,0.1l-0.2-0.2c0.3-1.9,2.1-0.9,3-1.5c4.9,0,9.7,0,14.6,0
			c1.8,0.1,3.7-0.3,5.3-1.1l0,0c1.6-0.1,3.2-0.8,4.4-1.9l0,0c1.1-0.2,2.4-0.8,1.9,1.3c-3,2.5-6.8,2.8-10.4,3.2
			C444.7,50.1,438.6,50.1,432.4,49.7z"/>
		<path id="Path_3339-2" class="st11" d="M233.3,89.7c0.2-0.5,0.7-0.6,1.1-0.5c1.3-0.3,2.5-1.1,4-0.8c0.5,0.2,0.9,0.5,0.6,1.1
			c-3.5,1.5-7,2.7-10.3,4.7c-2,1.2-4.3,2.3-2.4,5.3c0.3,0.5,0.1,1.2-0.4,1.5c0,0-0.1,0-0.1,0.1c-0.5,0.4-1.2,0.3-1.7-0.1
			c-0.7-0.6-1.2-1.4-1.4-2.3c-0.7-2,0-3.1,1.8-4.2C227.4,92.7,230.4,91.3,233.3,89.7z"/>
		<path id="Path_3340-2" class="st11" d="M74.7,103.6l-0.8-0.1c-0.1-1.4,1-1.4,2.5-1.5c-1.5-0.1-2.1-0.5-2.4-1.4
			c-0.3-1.6-0.6-3.1,0.6-4.5c1.5,0.3,0.8,1.3,0.7,2.1c-0.2,2,0.6,2.8,2.7,2.2c3.3-0.9,6.7-1.7,10.1-2.5c1.7,0,3.3-1.5,5.2-0.5l0,0
			c0.3,1.6-1.6,0.4-1.8,1.4c-4.1,1.8-8.5,2.6-12.9,3.6C77.1,102.7,75.9,103.1,74.7,103.6z"/>
		<path id="Path_3341-2" class="st11" d="M171.3,83.7l1.2,1.2l-0.2,0.1l-0.3,0c-1.6,0.7-3.5-0.3-5.1,0.6l-0.2,0.1l-0.2-0.1
			c-2.5,0.7-5.1-0.2-7.6,0.5c-6,0.4-12,0.8-18-0.1c0.9-2,2.9-0.5,4.2-1.3c7.4,0.3,14.8-0.8,22.2-0.6c0.5,0,1-0.1,1.5-0.4
			C169.6,83.2,170.5,83.3,171.3,83.7z"/>
		<path id="Path_3342-2" class="st11" d="M272.4,109.1c2,4,4.3,7.9,5,12.4c0.1,0.8,0.7,2-0.7,2.3c-1.3,0.3-1.8-0.8-2-1.8
			c-0.3-2.6-1.6-4.9-2.3-7.3c-0.8-1.1,0.4-2.8-1.2-3.7c-0.1-0.2-0.1-0.4,0-0.6C271.7,109.9,271.3,108.8,272.4,109.1z"/>
		<path id="Path_3343-2" class="st11" d="M276.2,39.1c-4.2,1.6-8.7,1.4-13.1,2c-1,0.1-2,0.3-3,0.5c-0.2,0.2-0.5,0.2-0.8,0
			c-0.3-0.9-0.5-1.8-0.6-2.7c0.2-1.4-0.9-3.3,1.4-4.1c1.7,3.6,2,3.7,6.4,3.2c2.9-0.3,5.8-1.4,8.8-0.7
			C276,37.7,276.4,38.4,276.2,39.1z"/>
		<path id="Path_3344-2" class="st11" d="M263.7,80.5l-0.3,0h-0.3c-0.3-5.6-2.4-11-2.4-16.7c0.8-0.4,0.5-1.6,1.3-2
			c0.8,4.2,2,8.3,2.4,12.5c-0.4,0.3-0.6-0.2-1-0.2c0.2,0.5,0.6,1,1,1.5c0.5,0.7,0.8,1.6,0.7,2.4C263.5,78.3,264.7,80,263.7,80.5z"/>
		<path id="Path_3345-2" class="st11" d="M397.1,48.4c1.3-2,3.5-2,5.5-2.2c3-0.2,6-0.1,8.9,0.4c0.2,0.2,0.2,0.6,0,0.8
			c0,0,0,0-0.1,0.1c-1.3,0.1-2.5,0.1-3.8,0.1c-0.5,0-1,0.1-1.1,0c0.3,0.1,0.9-0.1,1.5,0c1.5,0,3-0.1,4.5-0.2c1.2-0.1,2.7-0.7,3.4,1
			c-0.4,0.6-0.9,0.4-1.5,0.2c-5.4,0-10.7-0.4-16,1.1C398.8,48.4,397.3,49.1,397.1,48.4z"/>
		<path id="Path_3346-2" class="st11" d="M329,75.5l-1.3,1.4c-3.4,0.7-6.8,0.2-10.2,0.3c-3.8-0.4-7.6-0.4-11.3-0.1
			c-1.2,0.1-2.4,0.6-3.6,0.1c-0.3-0.2-0.4-0.6-0.3-0.9c0,0,0,0,0-0.1c3.4-0.8,6.9-1,10.4-0.6c3.4-0.6,6.9-0.1,10.4-0.3
			c0.9-0.1,2,0.5,2.8-0.5c0.3-0.6,1.5-0.6,1.3-1.6c0.2-0.2,0.4-0.3,0.7-0.3c1,0.3,1,1.1,1.2,1.9C329.2,75,329.2,75.3,329,75.5z"/>
		<path id="Path_3347-2" class="st11" d="M80,25c-0.6-1.2-0.9-2.7,0.7-3c1.8-0.3,1.6,1.6,1.6,2.6c0.2,4.6,0.2,9.2,0.3,13.8
			c1.6,0.9,3.3,0.5,4.9,0.1l0,0c1-0.5,2.3-0.4,3.2,0.2c0.2,0.6-0.4,0.8-0.7,1.1h0c-1.8,0.8-3.8-0.2-5.6,0.6l-1.6,0.8
			c-0.3,0.2-0.7,0.2-1,0c-0.5-0.7-0.8-1.5-0.7-2.3c0.3-4.3-0.6-8.5-0.4-12.7C80.7,25.6,80.9,24.9,80,25z"/>
		<path id="Path_3348-2" class="st11" d="M168.9,83.8c-4.5,1.1-9.1,0.6-13.6,1c-3.6,0.2-7.2,0.3-10.7,0.1c-0.7,0.3-1.6,0.4-2.4,0.2
			c-1.1-0.4-2.3,0.1-3.4,0c-1.7-0.4-3.9,0.4-4.7-2.1c11.3,2,22.6,0.8,33.9,0.6c0.2-0.2,0.6-0.2,0.8,0
			C168.8,83.7,168.9,83.7,168.9,83.8z"/>
		<path id="Path_3349-2" class="st11" d="M272.4,109.1l-1.1,1.2c-1.5-3.8-2.8-7.8-3.7-11.8c0.3-0.6,0.6-1,1.3-0.7
			C271.3,101.2,271.8,105.2,272.4,109.1z"/>
		<path id="Path_3350-2" class="st11" d="M367.1,57.6l0.2-0.1l0.2,0.1c4.1,0.6,8.3,0.6,12.4,0l0.1-0.1l0.2,0.1
			c0.7-0.2,1.4-0.2,2.1-0.1c0.4,0.4,0.4,1,0.1,1.5l0.1,0c-1,0.6-2.3-0.3-3.2,0.6l0.1,0c-3.4,0.4-6.8,0.4-10.2,0l-0.2,0.1l-0.2-0.1
			c-2.4-1-5.1,0.2-7.5-0.6l0,0c-0.2-0.3-0.2-0.7,0-0.9c0.3-0.4,0.8-0.6,1.3-0.7C364.1,57.5,365.6,57.2,367.1,57.6z"/>
		<path id="Path_3351-2" class="st11" d="M111.1,49.6l-1.6,3.3c-0.9,0.3-1.9,0.7-2.8,1.1l-1.2,0c-0.6-0.4-1.2-0.9-0.7-1.7
			c0.4-0.6,1-0.5,1.6-0.3c1.5-0.9,2.9-1.8,3.3-3.7c0.9-1.2,0.5-2.4,0.2-3.6l-2-3c0.1-1.5,0.9-1.1,1.8-0.7c1.2,1,1.4,2.4,2,3.7
			C112.6,46.5,111.4,48,111.1,49.6z"/>
		<path id="Path_3352-2" class="st11" d="M239.1,89.5l-0.7-0.9c-0.2-0.1-0.3-0.3-0.2-0.4c0.1-0.1,0.1-0.2,0.2-0.2
			c1.4-1,3.1-1.5,4.8-1.3c1.1-1.1,2.6-1.1,3.9-1.7c1-0.2,2,0,2.8-0.8c1.1-0.2,2.3-0.4,3.4-0.5l0.6,0.6c0.2,0.1,0.3,0.3,0.2,0.4
			c-0.1,0.1-0.1,0.2-0.2,0.2L239.1,89.5z"/>
		<path id="Path_3353-2" class="st11" d="M196.1,42.3c0.9-0.5,1.7,0.2,2.6,0c3.4-0.8,6.9-0.1,10.3-0.3c1.5,0,3,0,4.5,0
			c0.6,0,1.3,0,1.2,0.9l-0.2,0.1l-0.2,0c-3.6,0.5-7.2,0.1-10.8,0.2c-1.2,0.1-2.5-0.3-3.7,0.3l-0.2,0.1l-0.2-0.1
			c-1.6,0.4-3.2,0.1-4.9,0.2c-1.5,0.2-3.1-0.5-4.6,0.4l0,0c-2.2,0.5-4.4,0.1-6.5,0.3c-0.5,0.1-1-0.2-1.1-0.7c0-0.1,0-0.2,0-0.3l0,0
			c1.6-0.6,3.5,0.4,5-0.6l0,0C190.3,42.1,193.3,43.1,196.1,42.3z"/>
		<path id="Path_3354-2" class="st11" d="M24.7,102.4c2.3,1.8,5.3,1.9,7.9,2.2c2.7,0.3,5.5,0.7,8.3,0.8c0.1,0.7-0.4,0.9-1,1
			c-2.1-0.2-4.2,0-6.3-0.2c-3.1-0.9-6.4-1.1-9.6-2c-1.1,0.2-2-0.5-2.9-0.8c-0.6-1.7,0.7-1.7,1.7-1.9
			C23.6,101.4,24.3,101.8,24.7,102.4z"/>
		<path id="Path_3355-2" class="st11" d="M80.8,64.1c0.1,1.6-0.1,3.2-0.7,4.8c-0.7,1,0,2.2-0.6,3.3c0.1,0.1,0.1,0.3-0.1,0.5
			c-0.7,0.9-0.1,2.1-0.5,3.1c-0.2,0.2-0.6,0.3-0.9,0.2c-0.5-0.4-0.9-1-1.1-1.6c-0.4-1.5,0.2-2.9,0.5-4.3c0.6-1.5,0.3-3.1,0.4-4.7
			c0-1.3,0.3-2.6,0.8-3.8c0.4-0.7,0.6-1.6,1.4-2c0.3,0,0.7,0.2,0.7,0.5c0,0,0,0,0,0C81.1,61.3,81,62.7,80.8,64.1z"/>
		<path id="Path_3356-2" class="st11" d="M455,47.1c-1.3,1.3-2.9,1.3-4.5,1.3c-5.3,0-10.7,0-16,0.1c-2.6,0.6-5.2,0.7-7.9,0.2
			c-1.2-0.1-2.5,0.1-3.6-0.6c-0.3-0.2-0.4-0.6-0.2-0.9c0,0,0,0,0,0c8.4,0.4,16.8,1.1,25.2,0.7C450.3,47.8,452.7,47.5,455,47.1z"/>
		<path id="Path_3357-2" class="st11" d="M78.8,39.8c0.1-0.2,0.3-0.2,0.5-0.2c0.7,0.2,1.4,0.4,1.5,1.3c-0.1,0.3-0.4,0.5-0.6,0.6
			c-1.1,0.4-2.4,0.2-3.4,1c-3.3,0.6-6.5,2-10,1.5c-0.3-0.1-0.5-0.4-0.7-0.7c-0.1-0.3,0-0.7,0.3-0.9c3-1,6-1.6,9.1-2
			C76.6,39.7,77.8,40.5,78.8,39.8z"/>
		<path id="Path_3358-2" class="st11" d="M183,59l-1.1,0.6c-1.6-2.1-1.5-5.1-3.6-6.9c-0.3-1.3-1.5-2-2.2-3c0.3-0.6,1-0.3,1.4-0.7
			c2.8,1.5,3.5,4.5,4.9,7C182.9,56.9,183.1,57.9,183,59z"/>
		<path id="Path_3359-2" class="st11" d="M466.6,37.2l0.2-0.5c0.5-0.9,1.4-1.6,1.7-2.5v0c2.1-2.3,2.4-5.3,3.1-8.2l0.6-1.7
			c1-0.7,0.7-2.9,2.7-2.4l-0.2,1.8c-0.9,1.5-1.5,3.3-1.7,5l0-0.1c-0.9,1-0.8,2.4-1.3,3.5c-0.8,1.9-1.8,3.6-3.1,5.1
			c-0.4,0.4-0.9,0.5-1.4,0.4C467,37.6,466.8,37.4,466.6,37.2z"/>
		<path id="Path_3360-2" class="st11" d="M272.6,26l1.8,0.1c2.1,1.3,4.2,2.7,6.1,4.2c1.8,1.6,2.5,3.7,0.7,5.9
			c-0.9-0.7-0.7-1.9-1.3-2.7c-1.2-1.8-2.8-3.2-4.8-4c-1.2-0.6-2.7-1-3-2.7C272.2,26.5,272.3,26.2,272.6,26z"/>
		<path id="Path_3361-2" class="st11" d="M388,54.7l1.7-1.4c1.3-0.4,2.5-1,3.6-1.7c0.8-0.5,1.6-0.7,1.6,0.7c-2.8,2.8-6.2,5-10,6.1
			c-0.5-0.3-0.8-0.7-0.9-1.2c0-0.3,0.1-0.5,0.3-0.7h0C385.5,56,387.2,56.2,388,54.7z"/>
		<path id="Path_3362-2" class="st11" d="M109.7,41c-0.7,0.1-1.4-0.1-1.8,0.7l-6.1-1.9c-2-0.9-4.2,0.1-6.3-0.6
			c-0.2-0.4,0-0.8,0.4-0.9c2.1-0.2,4.1-0.1,6.2,0.2C104.9,38.3,107.6,38.9,109.7,41z"/>
		<path id="Path_3363-2" class="st11" d="M257.5,39.6l0.6-4.8c0.2-0.2,0.5-0.2,0.7-0.1c0.3,1.8-0.2,3.6,0.3,5.3
			c0.1,0.7-0.2,1.5-0.9,1.8c-0.3,0.1-0.6,0-0.8-0.1l-4,0c-0.9,0.2-1.9,0.3-2.9,0.2c-0.9-0.3-1.9-0.2-2.8-0.7
			c-0.3-0.2-0.3-0.6-0.1-0.8c0,0,0,0,0,0l1.1-0.1C251.6,39.5,254.7,40.8,257.5,39.6z"/>
		<path id="Path_3364-2" class="st11" d="M422.7,47.8l3.7,0.2c0.1,0.8-0.4,1.3-1.1,1.4c-1.5-0.1-3.1,0.3-4.6-0.2l-1.1-0.1
			c-1.1-0.8-2.6,0.4-3.7-0.7c-2.9-1-5.9-0.2-8.8-0.6c-0.2-0.1-0.3-0.2-0.2-0.4c0.1-0.1,0.1-0.2,0.2-0.2l4.4,0
			c1.6-0.6,3.2-0.2,4.8-0.2C418.5,47.6,420.7,47.3,422.7,47.8z"/>
		<path id="Path_3365-2" class="st11" d="M121.1,86.8c-0.6,0-1.1-0.3-1.4-0.8l0.7-0.5c1.4-0.3,2.6-1,3.6-2c0.4-0.7,1.1-1.1,1.3-2
			c0.6-2.4,1.8-2.4,3.2-0.4c-0.3,0.6-0.9,0.8-1.4,1.2c0.6,0.5,2-0.2,2,1.3C126.1,83.8,124,86.3,121.1,86.8z"/>
		<path id="Path_3366-2" class="st11" d="M80.6,59.6l-0.3,0l-0.3,0c-1.2-1.1-0.8-2.5-0.9-3.9c0-2.6,0-5.3,0-7.9
			c0-1.2-0.2-2.5,1.2-3.2c1.3,0.7,1.2,1.8,0.9,2.9c-0.5,1.9-0.1,3.8-0.5,6.1c0.7-2-0.8-3.9,1.1-5.2c0.2,2.9,0,5.8-0.6,8.6
			C80.5,57.7,81.4,58.9,80.6,59.6z"/>
		<path id="Path_3367-2" class="st11" d="M214.8,42.9c-1.7-1.3-3.8-0.3-5.6-0.6c-0.2-0.1-0.3-0.2-0.2-0.4c0.1-0.1,0.1-0.2,0.2-0.2
			l6.6-0.1c3.4-0.5,6.8-0.1,10.3-0.2c0.4,0,0.7,0.3,0.7,0.7c-1.3,1.3-3.1-0.1-4.5,0.9L214.8,42.9z"/>
		<path id="Path_3368-2" class="st11" d="M134.1,83c1.4,1.4,3.2,1.3,4.9,1.3c1,0.6,2.2-0.1,3.2,0.5l2.4,0.1c-1,1.2-2.6,0-3.6,1
			l-0.7-0.1c-1.5,0.4-2.8-0.9-4.3-0.4c-0.8,0.4-1.2-0.4-1.9-0.6c-1-0.5-2.2,0.1-3.2-0.4c-0.5,0-1,0-1.1-0.6
			c-0.3-0.4-0.4-0.9-0.1-1.3c0.9-0.5,1.5,0.3,2.2,0.5L134.1,83z"/>
		<path id="Path_3369-2" class="st11" d="M337.1,59.6l-4.3,1.3c-0.7-0.4-1-1.2-0.7-2c0,0,0,0,0,0c0.9-0.5,1.9-0.7,2.9-0.7
			c1.6-0.1,3.1-0.8,4.8-0.8c0.9,0.3,1.9,0.2,2.8,0.7c0.3,0.2,0.3,0.6,0.1,0.8c0,0,0,0,0,0l-1,0.1C340.2,59.7,338.5,58.7,337.1,59.6z
			"/>
		<path id="Path_3370-2" class="st11" d="M80,25l0.2-1.2c1.2,4.8,1.8,9.8,1.7,14.7c-1.2,0-1.3-1-1.5-1.8c-0.2-3.7,0.4-7.5-0.3-11.2
			C79.9,25.4,79.9,25.2,80,25z"/>
		<path id="Path_3371-2" class="st11" d="M342,57c4.1-0.7,8.3-0.7,12.4,0c0.2,0.3,0.2,0.7-0.1,0.9c0,0,0,0,0,0
			c-4,0.3-8.1,0.7-12.1,0C341.9,57.8,341.8,57.4,342,57C342,57.1,342,57.1,342,57z"/>
		<path id="Path_3372-2" class="st11" d="M259.5,41.6l0.6,0l0,8.7c-0.8,1.5,0.2,2.9,0,4.4c0,0.5-0.3,1-0.7,1.3
			c-0.8-2.9-1.2-5.8-1.1-8.8c0.2-0.2,0.4-0.3,0.5-0.5C259.1,45,258,43.2,259.5,41.6z"/>
		<path id="Path_3373-2" class="st11" d="M73.2,107.2c-0.5,4.1-0.7,8.3-0.6,12.4c-0.8,0.3-1.2-0.1-1.5-0.7c-0.1-0.6-0.1-1.2,0.2-1.8
			l0,0c1-3.1-0.1-6.3,0.6-9.4c-0.2-1,0-2-0.7-2.9l0.2-0.2C73.9,104.3,72.3,106.5,73.2,107.2z"/>
		<path id="Path_3374-2" class="st11" d="M317.1,76.8l10.6,0.1c-0.4,0.9-1.2,0.6-1.9,0.6c-6.2,0-12.3,0.1-18.5,0.1l-0.1-0.5
			C310.5,76.2,313.8,76.5,317.1,76.8z"/>
		<path id="Path_3375-2" class="st11" d="M50.2,46.5c2-0.8,4-1.9,6.3-1.8c0.4,0.4,1.2,0.1,1.4,0.8c0,0.3-0.1,0.6-0.3,0.8
			c-1.7,1.3-3.8,2-6,1.8C50.9,48,50.4,47.3,50.2,46.5z"/>
		<path id="Path_3376-2" class="st11" d="M81.9,48.4c-1.4,1.6-0.2,3.8-1.4,6.3V44.6c-0.6-0.8-0.8-1.8-0.5-2.8
			c0.1-0.3,0.3-0.6,0.5-0.8l0.1,0c0.8-0.3,1.1,0.3,1.5,0.9c-0.1,2,0.2,4-0.2,6C82.1,48.1,82,48.3,81.9,48.4z"/>
		<path id="Path_3377-2" class="st11" d="M40.3,106l0.6-0.6l10.6,0c0.2,0.1,0.3,0.4,0.2,0.6c-0.2,0.3-0.6,0.4-0.8,0.6l-0.2,0.1
			l-0.3-0.1c-3.2,0.6-6.5,0.1-9.7,0.1C40.3,106.7,40.3,106.3,40.3,106z"/>
		<path id="Path_3378-2" class="st11" d="M233.3,89.7c-2.3,2.3-5.4,3.1-8.1,4.9c-1.7,1.2-2.6,2.1-2.5,4c-1-1.3-1.3-2.8,0.3-3.7
			C226.4,93.1,229.4,90.5,233.3,89.7z"/>
		<path id="Path_3379-2" class="st11" d="M29.9,57.8l-0.8-0.8l1.1-1.2c1.2-0.4,2.3-1,3.2-1.9l0.6-0.5c1.3-0.3,2.4-1,3.7-1.4
			c0.3,0.1,0.4,0.4,0.5,0.7c-0.1,1.2-1.1,1.6-1.8,2.3c-0.5,0.4-1.2,0.8-1.8,1c-1,0.3-1.9,0.9-2.7,1.6C31.2,57.9,30.6,58.3,29.9,57.8
			z"/>
		<path id="Path_3380-2" class="st11" d="M40.3,106c3.3,0.9,6.7,0.4,10.1,0.7c-5.9,0.9-11.8,0.3-17.7-0.6c0.1-0.3,0.5-0.4,0.8-0.3
			c0,0,0.1,0,0.1,0.1L40.3,106z"/>
		<path id="Path_3381-2" class="st11" d="M342.6,58.9c0-0.2,0-0.4,0-0.6c5.7-0.6,11.5-0.3,17.2-0.6c0.5,0,1,0.2,1.4,0.6l0,0.7
			C355,59,348.8,59,342.6,58.9z"/>
		<path id="Path_3382-2" class="st11" d="M302.3,76.2l0,0.7c-3.1,0.8-6.1,1.6-9.3,0.7c-1.7,0-3.4-0.3-5,0.6
			c-0.2-0.2-0.7-0.3-0.8-0.7C292.2,76.5,297.2,76.1,302.3,76.2z"/>
		<path id="Path_3383-2" class="st11" d="M432.5,49.7l18.3,0C444.7,50.5,438.5,50.5,432.5,49.7z"/>
		<path id="Path_3384-2" class="st11" d="M182.4,43.4c2.4,1.6,5.1,0.2,7.6,0.8c-3.3,0.6-6.7,1-10,1.1c-0.6-0.3-1.5,0.1-2-0.6
			C179.3,43.8,180.8,43.4,182.4,43.4z"/>
		<path id="Path_3385-2" class="st11" d="M23,102.2c-0.9,0.1-1.8,0-1.9,1.2c-0.3,0.1-0.6,0-0.7-0.3c0,0,0-0.1,0-0.1
			c-0.9-0.9-2.1-1-3.2-1.3c-1.2-0.2-2.3-0.9-3.1-1.9c0.7-0.1,1.5,0.1,2.1-0.6c1.8-0.7,2.9,1.2,4.5,1.3C21.4,101,22.9,100.7,23,102.2
			z"/>
		<path id="Path_3386-2" class="st11" d="M50.2,46.5c0.6,0.2,1.1,0.7,1.3,1.3c-0.2,0.8-0.9,1.1-1.6,1.4c-1.7,0.3-3.2,1.7-5.1,1.3
			c-0.4-0.3-0.5-0.7-0.4-1.2c0.1-0.5,0.6-0.6,0.9-0.9C47,47.9,48.4,46.7,50.2,46.5z"/>
		<path id="Path_3387-2" class="st11" d="M75.2,98.1c-0.2-0.7,0.1-1.5-0.7-2c-0.2-0.2-0.3-0.5-0.3-0.7c0.1-0.5,0.2-1.1,0.2-1.6
			c0.1-0.4,0.1-0.9,0.2-1.3c0.8-2.7,0.4-5.7,2.1-8.1c0.3-0.2,0.6-0.2,0.9,0C76.8,88.9,76,93.5,75.2,98.1z"/>
		<path id="Path_3388-2" class="st11" d="M44.6,49.2l0.1,1c-1.2,1.8-3.1,2.5-5,3.1c-0.6,0.1-1.3-0.1-1.8-0.5v-0.6
			c-0.2-0.1-0.3-0.3-0.2-0.4c0.1-0.1,0.2-0.2,0.2-0.2l1.1-0.8c1.1-0.3,2.2-0.7,3.1-1.3C43,49.5,43.7,48.8,44.6,49.2z"/>
		<path id="Path_3389-2" class="st11" d="M331.5,61.5c-1.3,0.7-2.1,2.2-1.9,3.7c-0.7,1.5-0.1,3.1-0.3,4.6c0,0.3-0.3,0.6-0.7,0.5
			c-0.7-0.2-0.8-0.9-1.1-1.5c0-0.3,0-0.6,0.1-0.9c0.3-1.6-0.1-3.2,0.4-4.8C329.4,60.2,330,59.9,331.5,61.5z"/>
		<path id="Path_3390-2" class="st11" d="M259.6,54.5c0.2-1.4-0.7-3,0.5-4.3c0.4,2.3,0.8,4.6,1.2,6.9c0.4,1.7,0.9,3.4-0.3,4.9
			c-1.1-0.5-0.4-1.5-0.6-2.3C259.3,58.2,260.2,56.3,259.6,54.5z"/>
		<path id="Path_3391-2" class="st11" d="M466.9,40.4c0.1,1-0.5,1.9-1.3,2.3c-0.9-0.4-1.5,0.5-2.3,0.5c-0.3,0-0.5-0.1-0.7-0.3
			c1.4-1.9,2.7-3.8,4.1-5.7c0.1,0,0.3,0,0.4,0.1C468,38.4,466.3,39.4,466.9,40.4z"/>
		<path id="Path_3392-2" class="st11" d="M222.2,42.8c1.3-1.2,3-0.3,4.4-0.7c2-0.9,4.2-0.3,6.2-0.7c1.2,0,2.4,0.1,3.5,0.3
			c0.3,0.1,0.6,0.3,0.8,0.6C232.2,43.1,227.2,42.8,222.2,42.8z"/>
		<path id="Path_3393-2" class="st11" d="M102,38.4l-6.5,0.1c-1.3,1.1-2.8,0.3-4.2,0.8c-0.3,0.1-0.7,0-0.9-0.2
			c-0.9-0.9-2.1-0.2-3-0.6C92.3,37.6,97.2,37.6,102,38.4z"/>
		<path id="Path_3394-2" class="st11" d="M80.1,25.5c1.4,2.7,0.4,5.6,0.6,8.4c0.1,1.1,0,2.3,0.1,3.4c0.3,0.7,0.5,1.4,0.1,2
			c-0.4,0.6-1,0.8-0.9-0.3C80,34.5,80,30,80.1,25.5z"/>
		<path id="Path_3395-2" class="st11" d="M394.9,52.3c-0.8-1.2-1.4-0.2-2,0.2c-0.9,0.7-2,1-3.2,0.9c2.2-1.1,3.6-3.4,6.2-3.8
			c0.6,0.1,1.2,0.2,1.4,0.8L394.9,52.3z"/>
		<path id="Path_3396-2" class="st11" d="M462.5,42.9l0.6,0c0.6,0.2-0.2,1.7,1.1,1.2c-0.3,1.4-1.6,2.4-3.1,2.4
			c-0.1-1.3-1.1-1.2-1.9-1.3L462.5,42.9z"/>
		<path id="Path_3397-2" class="st11" d="M177.5,49c-0.3,0.6-0.8,0.6-1.4,0.7c-0.7-0.4-0.9-1.2-1.2-1.9c-0.1-2.3,0.8-3.3,2.5-2.8
			c1.2,0.4,0.6,1,0,1.5c-0.7,0.5-0.8,1.4-0.3,2.1C177.3,48.8,177.4,48.9,177.5,49z"/>
		<path id="Path_3398-2" class="st11" d="M331.5,61.5c-2.2-1.5-2.3,0.8-3.1,1.8l-0.4,0.2l-0.3-0.3c0.4-2.2,2.2-4,4.4-4.3l0.7,2
			C332.4,61.3,332.1,61.6,331.5,61.5z"/>
		<path id="Path_3399-2" class="st11" d="M475.4,16.3c2,1.6,0.1,3.3,0,4.9c-2.2,0.9-1.1-1.3-1.8-1.8l0-1.2
			C474.3,17.6,473.8,15.9,475.4,16.3z"/>
		<path id="Path_3400-2" class="st11" d="M471.7,26c0,3.1-0.2,6.1-3.1,8.2L471.7,26z"/>
		<path id="Path_3401-2" class="st11" d="M325.8,74.8c-0.7,1.3-2,0.8-3,0.8c-3.4,0-6.8,0-10.1,0C317,74.7,321.5,75.4,325.8,74.8z"/>
		<path id="Path_3402-2" class="st11" d="M250.1,41.5l3.3,0.2c-4.2,0.9-8.4,0.4-12.6,0.5c-0.2-0.3-0.1-0.7,0.2-0.9c0,0,0,0,0.1,0
			C244.1,40.6,247.1,41.1,250.1,41.5z"/>
		<path id="Path_3403-2" class="st11" d="M379.9,57.7c-4.1,1.1-8.4,1.1-12.4,0L379.9,57.7z"/>
		<path id="Path_3404-2" class="st11" d="M268.9,97.9l-1.3,0.7c-0.7-0.8-0.9-1.9-0.7-3c-0.3-0.8-0.3-1.7-0.2-2.5
			c0-0.3,0.1-0.6,0.3-0.8c1.1-0.2,0.8,1,1.3,1.3L268.9,97.9z"/>
		<path id="Path_3405-2" class="st11" d="M354.4,57.7V57c4.2-0.2,8.5,0,12.7,0.6l-5.3,0.2C359.4,58.2,356.9,58.2,354.4,57.7z"/>
		<path id="Path_3406-2" class="st11" d="M90.5,39.1l0.9,0c1.3-0.4,2.7-0.4,4.1,0c2.1,0.5,4.3-0.7,6.3,0.7l-11.8,0L90.5,39.1z"/>
		<path id="Path_3407-2" class="st11" d="M264.4,84.3c1.4,2,0.9,4.7,2.3,6.7c0.4,0.2,0.5,0.7,0.3,1.1c0,0.1-0.1,0.2-0.2,0.2l0,0
			c-0.2,0.3-0.5,0.4-0.7,0.1C265.2,89.8,264.3,87.2,264.4,84.3z"/>
		<path id="Path_3408-2" class="st11" d="M425.9,48.9c0.2-0.3,0.4-0.6,0.6-0.9l7.9,0.5c-0.5,1-1.9,0.1-2.4,1.2l-0.6,0
			C429.7,48.8,427.6,50.1,425.9,48.9z"/>
		<path id="Path_3409-2" class="st11" d="M203,42.9c3.8,0,7.6,0,11.3,0.1c-3.7,0.9-7.6,0.4-11.3,0.5c-0.2-0.1-0.3-0.3-0.2-0.4
			C202.8,42.9,202.9,42.9,203,42.9z"/>
		<path id="Path_3410-2" class="st11" d="M263.7,80.5c0-0.7,0.1-1.4,0.1-2.1c0-2.1,0.9-0.4,1.3-0.4c0.5,1.8,1.9,1.9,3.4,1.8
			c0.2-0.2,0.6-0.2,0.8,0c0,0,0.1,0.1,0.1,0.2c-1.1,0.8-2.6,0.8-3.7,0.1C264.7,79.5,264.4,80.3,263.7,80.5z"/>
		<path id="Path_3411-2" class="st11" d="M328.9,70.1c0.3-1.6-0.6-3.5,0.7-5c-0.4,3.4,1,7-0.6,10.4l-0.1-0.7
			C328.8,73.2,327.6,71.6,328.9,70.1z"/>
		<path id="Path_3412-2" class="st11" d="M177.5,46.6c0.4-0.9,0.2-1.3-0.9-1.2c-1.5,0.2-1.6,1.3-1.6,2.5c-0.9-2.7-0.7-2.9,3-3.2
			c0.7,0.2,1.5-0.1,2,0.6C179.2,45.7,178.7,46.9,177.5,46.6z"/>
		<path id="Path_3413-2" class="st11" d="M276.2,39.1l-0.6-1.2c0.5-0.8,1.4-1.2,2.3-1.1c0.8,0.4,1.8-0.1,2.6,0.5
			C279.8,39.6,277.8,39,276.2,39.1z"/>
		<path id="Path_3414-2" class="st11" d="M33.6,105.9l-0.9,0.2c-3-0.1-5.9-0.7-8.6-1.9C27.3,104.2,30.4,105.1,33.6,105.9z"/>
		<path id="Path_3415-2" class="st11" d="M425.9,48.9c1.8,0.6,3.9-0.6,5.6,0.8c-3.6-0.1-7.1,0.1-10.7-0.5L425.9,48.9z"/>
		<path id="Path_3416-2" class="st11" d="M129.7,82.5l0,1.3l-0.6-0.2c-1-1.3-2.2,0.1-3.3-0.3c0.2-1.7,1.2-2.2,2.7-2.2l0,0
			C128.8,81.7,129.7,81.7,129.7,82.5z"/>
		<path id="Path_3417-2" class="st11" d="M57.7,46c0-0.2,0-0.4,0-0.6c0.1-0.2,0.2-0.3,0.4-0.4c0.4-0.3,0.9-0.3,1.3-0.6
			c-0.4,0.2-0.9,0.1-1.2-0.3c1.2-1,2.5-0.7,3.8-0.5c0.4,0.2,0.8,0.4,0.8,1c-0.7,1.4-2.2,1.5-3.4,1.9C58.8,46.6,58.1,46.4,57.7,46z"
			/>
		<path id="Path_3418-2" class="st11" d="M327.8,68.3c0,0.2,0,0.3,0,0.5c0.3,1,0.5,2,0.5,3c0,0.5-0.2,1-0.6,1.4h-0.6
			c0-3.3-0.7-6.7,0.5-10l0.2,0.2C328.2,65,328.2,66.7,327.8,68.3z"/>
		<path id="Path_3419-2" class="st11" d="M77.7,84.3l-0.7,0c-0.5-2.9-0.1-6,1.2-8.7c0.2,0,0.3,0,0.5,0c0.3,0.1,0.4,0.4,0.3,0.7
			c0,0.1-0.1,0.1-0.1,0.2C78.8,79.1,78.4,81.8,77.7,84.3z"/>
		<path id="Path_3420-2" class="st11" d="M369.1,59.6l10.2,0C375.9,60.6,372.5,60.2,369.1,59.6z"/>
		<path id="Path_3421-2" class="st11" d="M280.6,78.7l-8.7,0.6c2.8-1,5.8-1.4,8.7-1.3c0.2,0.1,0.3,0.3,0.2,0.5
			S280.6,78.7,280.6,78.7z"/>
		<path id="Path_3422-2" class="st11" d="M71.9,107.7c-0.1,3.1,0.8,6.3-0.6,9.4C70.9,113.9,71.2,110.8,71.9,107.7z"/>
		<path id="Path_3423-2" class="st11" d="M473.6,19.4c0.9,0.3,0.4,2,1.8,1.8c0.1,0.4,0,0.6-0.4,0.7c-1.5,0.2-1.3,2.2-2.7,2.4
			C472.7,22.6,473.2,21,473.6,19.4z"/>
		<path id="Path_3424-2" class="st11" d="M260.8,61.9c1.1-1.5,0.1-3.2,0.5-4.7c1,1.4,0.6,3.1,0.7,4.7c-0.6,0.5,1,2.6-1.3,2
			c-0.1-0.1-0.1-0.3-0.1-0.5C260.3,63,260.4,62.3,260.8,61.9z"/>
		<path id="Path_3425-2" class="st11" d="M185,73.1c-0.2-2.9,0.4-5.9-0.5-8.8C186.4,67.1,185.6,70.1,185,73.1z"/>
		<path id="Path_3426-2" class="st11" d="M80,39c0.6,0,0.6,0,0.7-1.7c0.4,0.4,0.7,0.8,1.1,1.2c0,0.8,0.1,1.7,0.1,2.5
			c0.2,0.2,0.2,0.3,0.1,0.4c-0.1,0.1-0.1,0.1-0.2,0.1L80.7,41c-0.5-0.5-0.9-0.9-1.4-1.4L80,39z"/>
		<path id="Path_3427-2" class="st11" d="M258.8,47.2c-0.2,0-0.4,0-0.6,0l-0.8-5.5l0.7-0.1C260,43.3,259.1,45.3,258.8,47.2z"/>
		<path id="Path_3428-2" class="st11" d="M307.3,77.6c-2.6,0.8-5.3,0.6-8,0.7l-0.2-0.5c2.6-0.8,5.4-0.9,8.1-0.4L307.3,77.6z"/>
		<path id="Path_3429-2" class="st11" d="M280.6,78.7l0-0.7c2.2-0.8,4.5-0.5,6.7-0.6l0.8,0.7C285.5,78.4,283,77.6,280.6,78.7z"/>
		<path id="Path_3430-2" class="st11" d="M342,57l0,0.6c-0.5,0.4-1.2,0.5-1.8,0.1c-1.8-0.1-3.5,1-5.3,0.5
			C337.2,57.2,339.6,56.8,342,57z"/>
		<path id="Path_3431-2" class="st11" d="M280.5,37.3c-0.8,0.1-1.7,0.6-2.5-0.1c0.6-1.6,1.9-2.7,2.5-4.2c1.2,0.8,0.5,2.1,0.7,3.2
			L280.5,37.3z"/>
		<path id="Path_3432-2" class="st11" d="M62.8,44.2l-0.7-0.6l1.2-0.7c1-0.4,2.2-0.4,3.1,0l0.1,0.8c-0.2,1.1-1.1,1-1.9,1.2
			C63.9,44.9,63.2,44.6,62.8,44.2z"/>
		<path id="Path_3433-2" class="st11" d="M81.9,41.6c0-0.2,0.1-0.4,0.1-0.5l0.8,0.1c-0.5,2.2,0,4.6-0.8,6.8
			C81.5,45.8,82,43.7,81.9,41.6z"/>
		<path id="Path_3434-2" class="st11" d="M361.2,59c2.5,0.2,5.1-0.7,7.5,0.6C366.2,59.4,363.7,60,361.2,59z"/>
		<path id="Path_3435-2" class="st11" d="M93.1,97.3c-1.8-0.3-3.4,1-5.2,0.5c2-0.9,4.2-1.5,6.4-1.8L93.1,97.3z"/>
		<path id="Path_3436-2" class="st11" d="M397.4,50.3c-0.6,0-1.1-0.3-1.4-0.8l1.2-1.1l2,0.3l-0.6,1L397.4,50.3z"/>
		<path id="Path_3437-2" class="st11" d="M91.3,98.7c0.2-1,1.5-0.6,1.8-1.4l4.4-0.6C95.5,97.7,93.4,98.4,91.3,98.7z"/>
		<path id="Path_3438-2" class="st11" d="M416.5,47.3c-1.6,0-3.3-0.1-4.9-0.1c0-0.2,0-0.4,0-0.6c2.5-0.3,5.1-0.1,7.6,0.5
			C418.4,47.6,417.3,47.7,416.5,47.3z"/>
		<path id="Path_3439-2" class="st11" d="M50.9,106.6l0.6-0.7c1.6-0.4,3.2-0.4,4.8-0.1l2.2,0.2C56,106.7,53.4,106.9,50.9,106.6z"/>
		<path id="Path_3440-2" class="st11" d="M158.9,86.1c2.5-1.2,5.1-0.4,7.6-0.5C164,86.4,161.5,86.1,158.9,86.1z"/>
		<path id="Path_3441-2" class="st11" d="M70.2,134.4c-0.1-0.5-0.1-0.9-0.2-1.4c-0.1-1.9,0.1-3.8,0.6-5.6c0.5,0.3,0.8,0.9,0.8,1.4
			C71.2,130.7,72.6,133,70.2,134.4z"/>
		<path id="Path_3442-2" class="st11" d="M6.7,82.3c0,2.4,0,4.8,0,7.2C5.9,87.1,5.9,84.6,6.7,82.3z"/>
		<path id="Path_3443-2" class="st11" d="M384.2,57.1c0.5,0.3,0.7,0.8,0.7,1.3c-0.7,0.5-1.6,0.7-2.5,0.6l0-1.3
			C382.8,57,383.3,56.5,384.2,57.1z"/>
		<path id="Path_3444-2" class="st11" d="M80.6,59.6c0.2-0.9-0.2-1.9,0.7-2.5c-0.2,2.3,0.2,4.7-0.6,7C80.7,62.6,80.7,61.1,80.6,59.6
			z"/>
		<path id="Path_3445-2" class="st11" d="M464.3,44.1c-1.5,0.7-1.2-0.4-1.1-1.2c0.8,0,1.4-2.5,2.3-0.2L464.3,44.1z"/>
		<path id="Path_3446-2" class="st11" d="M262.6,81.2c-1.7,1-3.7,1.5-5.7,1.2C258.7,81.6,260.6,81.2,262.6,81.2z"/>
		<path id="Path_3447-2" class="st11" d="M466.9,40.4c-1.2-1.1,0.3-2,0.1-3.1l1.6,0C468.4,38.6,467.5,39.4,466.9,40.4z"/>
		<path id="Path_3448-2" class="st11" d="M416.5,47.3l2.7-0.2c1.2,0,2.4,0.1,3.6,0.1c0,0.2,0,0.4,0,0.6
			C420.7,47.6,418.5,48.3,416.5,47.3z"/>
		<path id="Path_3449-2" class="st11" d="M284.9,79.4c2-1.3,4.2-0.5,6.3-0.6C289.2,79.4,287,79.6,284.9,79.4z"/>
		<path id="Path_3450-2" class="st11" d="M473.1,28.7c-0.2-1.9,0.1-3.7,1.7-5C474.7,25.5,473.7,27,473.1,28.7z"/>
		<path id="Path_3451-2" class="st11" d="M266.9,92.3c0-0.5-0.1-0.9-0.1-1.4c0.1-0.8,0.1-1.6,0.2-2.4c0.8,1.6,1.2,3.3,1.2,5
			L266.9,92.3z"/>
		<path id="Path_3452-2" class="st11" d="M71.3,117l0.2,2c0.2,0.4,0.4,0.9,0.5,1.3c0.2,1,0.1,2-0.4,2.8c-0.2,0.3-0.6,0.3-0.8,0.1
			c0,0,0,0,0,0C70.7,121.2,70.5,119.1,71.3,117z"/>
		<path id="Path_3453-2" class="st11" d="M388,54.7c-0.4,2.4-2.3,1.7-3.7,1.8L388,54.7z"/>
		<path id="Path_3454-2" class="st11" d="M129.7,82.5c-0.6-0.3-1.2-0.6-1.1-1.4c1.3,0.2,2.6,0.4,3.2,1.8L129.7,82.5z"/>
		<path id="Path_3455-2" class="st11" d="M183,59c-0.4-0.9-0.6-2-0.6-3c1.1,1.4,1.5,3.1,1.2,4.8C183,60.4,183.1,59.6,183,59z"/>
		<path id="Path_3456-2" class="st11" d="M124,83.5c-0.5,1.5-2.1,2.4-3.6,2L124,83.5z"/>
		<path id="Path_3457-2" class="st11" d="M87.5,38.5c-1.6,0.7-3.3,1.7-4.9-0.1L87.5,38.5z"/>
		<path id="Path_3458-2" class="st11" d="M84.4,40.4c1.8-1.1,3.7-0.6,5.6-0.6C88.2,40.6,86.3,40.3,84.4,40.4z"/>
		<path id="Path_3459-2" class="st11" d="M259.6,54.5c1.1,1.5,0.1,3.5,1.1,5c-0.2,0.3-0.4,0.3-0.7,0c-0.7-1.1-0.6-2.4-0.6-3.6
			C259.4,55.5,259.5,55,259.6,54.5z"/>
		<path id="Path_3460-2" class="st11" d="M459.3,45.2c-0.9,1.9-2.6,2-4.4,1.9L459.3,45.2z"/>
		<path id="Path_3461-2" class="st11" d="M111.1,49.6l0.6-4.9C112.6,46.3,112.3,48.3,111.1,49.6z"/>
		<path id="Path_3462-2" class="st11" d="M70.7,123.3c0.2,0,0.4,0,0.6-0.1c1.1,2,1.6,3.9-0.4,5.6c-0.1-0.5-0.1-1-0.2-1.4
			C70.4,126.1,70.4,124.6,70.7,123.3z"/>
		<path id="Path_3463-2" class="st11" d="M247,85c-1.1,1.1-2.6,1.2-3.9,1.7C244.1,85.3,245.5,85.1,247,85z"/>
		<path id="Path_3464-2" class="st11" d="M106.4,52c-1.5,0.1-1.5,0.9-0.9,2c-1.6-0.1-1.7-1.1-1.1-2C104.9,51.2,105.8,50.4,106.4,52z
			"/>
		<path id="Path_3465-2" class="st11" d="M167,85.6c1.6-1.2,3.4-0.5,5.1-0.6C170.4,85.8,168.7,85.6,167,85.6z"/>
		<path id="Path_3466-2" class="st11" d="M135.9,85.5c1.5-1.1,2.9,0.2,4.3,0.4C138.8,86.1,137.3,86,135.9,85.5z"/>
		<path id="Path_3467-2" class="st11" d="M264.5,75.7c-1.7-0.3-1.4-1.5-1.5-2.7c1.1,0.1,0.7,1.3,1.4,1.4L264.5,75.7z"/>
		<path id="Path_3468-2" class="st11" d="M299.3,78.3l-5.1,0.5c-0.2-0.2-0.2-0.6,0.1-0.8c0,0,0.1-0.1,0.1-0.1
			c1.6-0.2,3.1-0.8,4.6,0.1C299.1,78,299.2,78.1,299.3,78.3z"/>
		<path id="Path_3469-2" class="st11" d="M58.2,44l1.4,0.3c-0.4,0.8-1.2,0.8-1.9,1c-0.4-0.2-0.8-0.4-1.2-0.6L58.2,44z"/>
		<path id="Path_3470-2" class="st11" d="M416,48.3c1.2,0.3,2.6-0.4,3.7,0.7c-1.7,0-3.5,0.3-5.1-0.5L416,48.3z"/>
		<path id="Path_3471-2" class="st11" d="M37.9,51.6c0,0.2,0,0.4,0,0.5c-1.2,0.5-2.3,1.5-3.8,1.2C35.1,52.4,36.5,51.9,37.9,51.6z"/>
		<path id="Path_3472-2" class="st11" d="M194.3,43.5l5.2,0.1c-1.7,0.7-3.4,0.5-5.2,0.5c-0.2-0.1-0.3-0.2-0.2-0.4
			C194.1,43.6,194.2,43.5,194.3,43.5z"/>
		<path id="Path_3473-2" class="st11" d="M475.4,16.3l-1.8,1.8c-0.4-0.8-0.2-1.8,0.5-2.4c0.4-0.3,0.9-0.2,1.2,0.1
			C475.4,16,475.4,16.1,475.4,16.3z"/>
		<path id="Path_3474-2" class="st11" d="M194.3,43.5c0,0.2,0,0.4,0,0.5c-1.4,0-2.9,0.1-4.3,0.1C191.2,42.8,192.8,43.7,194.3,43.5z"
			/>
		<path id="Path_3475-2" class="st11" d="M337.1,59.6c1.4-1.3,3-0.6,4.5-0.6C340.2,59.5,338.6,59.7,337.1,59.6z"/>
		<path id="Path_3476-2" class="st11" d="M384.2,57.1l-1.8,0.6l-2.2-0.1c1.2-0.7,2.6-1,4-1.1V57.1z"/>
		<path id="Path_3477-2" class="st11" d="M33.4,53.9c-0.5,1.3-1.9,2.1-3.2,1.9C31.1,54.8,32.2,54.2,33.4,53.9z"/>
		<path id="Path_3478-2" class="st11" d="M279.9,80c1.4-1.2,3-0.5,4.5-0.6C283,79.9,281.5,80.1,279.9,80z"/>
		<path id="Path_3479-2" class="st11" d="M58.9,106c1.3-1.3,2.9-0.5,4.4-0.6C61.9,106,60.4,106.2,58.9,106z"/>
		<path id="Path_3480-2" class="st11" d="M168.9,83.8l-0.9-0.2c1.5-0.5,3-0.7,4.5-0.6c-0.3,0.4-0.7,0.7-1.2,0.7L168.9,83.8z"/>
		<path id="Path_3481-2" class="st11" d="M253.3,83.7c-1.1,0.6-2.3,0.8-3.4,0.5c1.2-0.7,2.6-1.1,4-1.2c0.2,0.1,0.3,0.3,0.2,0.4
			c-0.1,0.1-0.1,0.2-0.2,0.2C253.7,83.7,253.5,83.7,253.3,83.7z"/>
		<path id="Path_3482-2" class="st11" d="M271.3,110.9c2.1,0.7,0.9,2.4,1.2,3.7C271.6,113.5,271.9,112.1,271.3,110.9z"/>
		<path id="Path_3483-2" class="st11" d="M238.4,88l0,0.7c-1.3-0.2-2.5,0.9-3.9,0.5C235.6,88.3,237,87.9,238.4,88z"/>
		<path id="Path_3484-2" class="st11" d="M471.8,32.2c0-1.3,0-2.7,1.3-3.5C473,29.9,472.6,31.2,471.8,32.2z"/>
		<path id="Path_3485-2" class="st11" d="M44.6,49.2l-2.3,0.6c-0.2,0.2-0.5,0.1-0.7-0.1c0,0,0,0,0,0c1.1-0.7,2.4-1.2,3.8-1.2
			L44.6,49.2z"/>
		<path id="Path_3486-2" class="st11" d="M17.1,101.7c1.3-0.2,2.5,0,3.2,1.3L17.1,101.7z"/>
		<path id="Path_3487-2" class="st11" d="M240.9,41.7c0,0.2,0,0.4,0,0.6l-3.7,0.1c0-0.1-0.1-0.2-0.1-0.3c0-0.2,0-0.3,0-0.5l0.4-0.3
			C238.6,41,239.8,40.7,240.9,41.7z"/>
		<path id="Path_3488-2" class="st11" d="M78.9,76.5l-0.2-0.8c0.3-1-0.3-2.2,0.7-3.1C79.6,73.9,79.4,75.2,78.9,76.5z"/>
		<path id="Path_3489-2" class="st11" d="M108,91.2c-0.8,0.9-2,1.3-3.2,1.1C105.6,91.5,106.8,91.1,108,91.2z"/>
		<path id="Path_3490-2" class="st11" d="M41.5,49.6c0.2,0,0.5,0.1,0.8,0.1c-0.9,0.9-2.1,1.3-3.3,1.1L41.5,49.6z"/>
		<path id="Path_3491-2" class="st11" d="M23.5,60c-0.2,1.1-1.1,2-2.3,2.1C21.7,61.1,22.5,60.4,23.5,60z"/>
		<path id="Path_3492-2" class="st11" d="M253.9,83.7l0-0.7c0.9-0.5,2-0.7,3.1-0.6C256.2,83.5,254.8,82.9,253.9,83.7z"/>
		<path id="Path_3493-2" class="st11" d="M260,59.6l0.7,0c0,0.8,0.1,1.6,0.1,2.3c-0.1,0.5-0.1,1-0.2,1.5
			C260,62.3,259.8,60.9,260,59.6z"/>
		<path id="Path_3494-2" class="st11" d="M109.9,44.7c0.8,1.3,1.1,2.5-0.2,3.6C109.8,47.2,109.8,45.9,109.9,44.7z"/>
		<path id="Path_3495-2" class="st11" d="M468.6,34.1c0.1,1.3-0.8,2-1.7,2.5C467,35.6,467.7,34.7,468.6,34.1z"/>
		<path id="Path_3496-2" class="st11" d="M183.6,71.1c0,1.3,0.7,2.7-0.6,3.9C183,73.7,183.2,72.4,183.6,71.1z"/>
		<path id="Path_3497-2" class="st11" d="M275.6,80.6c1.2-1.1,2.6-0.6,3.9-0.6C278.3,80.6,276.9,80.8,275.6,80.6z"/>
		<path id="Path_3498-2" class="st11" d="M203,42.9c0,0.2,0,0.4,0,0.6l-3.1,0C200.7,42.4,201.9,43,203,42.9z"/>
		<path id="Path_3499-2" class="st11" d="M66.4,42.9l-3.1,0c0.9-0.6,2.1-0.8,3.2-0.5C66.4,42.5,66.4,42.7,66.4,42.9z"/>
		<path id="Path_3500-2" class="st11" d="M130.8,84.4c1.1-0.1,2.3-0.4,3.2,0.4C133,85.1,131.8,84.9,130.8,84.4z"/>
		<path id="Path_3501-2" class="st11" d="M253.9,84.9c0-0.2,0-0.4,0-0.6l3.2,0C256.1,84.9,255,85.1,253.9,84.9z"/>
		<path id="Path_3502-2" class="st11" d="M63.3,105.4c0.9-1.1,2.1-0.5,3.3-0.6C65.6,105.4,64.4,105.6,63.3,105.4z"/>
		<path id="Path_3503-2" class="st11" d="M266.2,92.4l0.7-0.1c0,1.1,0,2.1-0.1,3.2C266.3,94.6,266,93.5,266.2,92.4z"/>
		<path id="Path_3504-2" class="st11" d="M79.5,72.1c0-1.1-0.5-2.3,0.6-3.3C80.2,70,80,71.1,79.5,72.1z"/>
		<path id="Path_3505-2" class="st11" d="M78.8,39.8c-0.9,1.1-2.2,0.5-3.3,0.6C76.6,40.1,77.7,39.9,78.8,39.8z"/>
		<path id="Path_3506-2" class="st11" d="M265.7,83.2c0.4-1.4,1.4-1.5,2.6-1.3L265.7,83.2z"/>
		<path id="Path_3507-2" class="st11" d="M182.9,64c1.5,0.8,0.7,2.1,0.8,3.2C183.4,66.1,183.1,65,182.9,64z"/>
		<path id="Path_3508-2" class="st11" d="M266.9,88.6c-1.1-0.8-0.6-2-0.7-3C267.3,86.4,267,87.6,266.9,88.6z"/>
		<path id="Path_3509-2" class="st11" d="M183,74.9c0.2,1.1,0,2.1-1.3,2.5C181.9,76.5,182.4,75.7,183,74.9z"/>
		<path id="Path_3510-2" class="st11" d="M269.5,80.1l-0.9-0.2c1-0.5,2.2-0.7,3.3-0.6C271.3,80.3,270.3,79.9,269.5,80.1z"/>
		<path id="Path_3511-2" class="st11" d="M294.2,78.2c0,0.2,0,0.4,0,0.6c-1,0.3-2.1,0.3-3.1,0.1c0.4-0.9,1.1-0.7,1.8-0.7
			C293.3,77.8,293.8,77.8,294.2,78.2C294.2,78.1,294.2,78.1,294.2,78.2z"/>
		<path id="Path_3512-2" class="st11" d="M379.3,59.7c0.9-1.2,2.1-0.6,3.2-0.6C381.6,59.9,380.4,59.6,379.3,59.7z"/>
		<path id="Path_3513-2" class="st11" d="M106.7,54c0.6-0.9,1.7-1.3,2.8-1.1C108.8,53.6,107.8,54.1,106.7,54z"/>
		<path id="Path_3514-2" class="st11" d="M9.3,80.6c-0.7,3.7-0.5,7.5,0.6,11.1c0.3,0.7-0.1,0.8-0.6,0.7C7.9,88.4,7.3,84.5,9.3,80.6z
			"/>
		<path id="Path_3515-2" class="st11" d="M14.3,97.1l7,3.8c-0.1,0.3-0.5,0.4-0.7,0.3c-0.1,0-0.1-0.1-0.1-0.1
			c-1.8,0.1-2.8-1.4-4.3-1.9c-0.8-0.1-1.5-0.6-1.9-1.3c-0.2-0.1-0.2-0.4-0.1-0.6C14.2,97.2,14.3,97.2,14.3,97.1z"/>
		<path id="Path_3516-2" class="st11" d="M14.3,97.1c0,0.3-0.1,0.5-0.1,0.8c-2.2-1.4-3.3-3.8-5-5.6l0.6-0.7L14.3,97.1z"/>
		<path id="Path_3517-2" class="st11" d="M19.2,66.4c-0.2,1.1-0.9,2-1.9,2.3C17.5,67.6,18.2,66.7,19.2,66.4z"/>
		<path id="Path_3518-2" class="st11" d="M258.8,39.8c-0.4-1.6-0.4-3.3,0-4.9c-0.5-1.9,0.6-3.7,0.6-5.6l0,0c0.7-1.4,0.7-2.9,1.3-4.3
			c0.3-0.4,0.6-1.1,0.9-1.1c3.8-0.2,7.6-0.2,10.9,2.1l-0.1,0.9c-1.6,1.1-3.2,0.1-4.7,0.1c-4.1-0.1-5.1,0.5-6.4,4.5
			c-0.4,1-0.4,2.1-0.8,3.1c-0.1,0.1-0.2,0.2-0.3,0.3c-1.4,1.5-0.4,3.3-0.7,4.9C259.2,40.1,259,40.1,258.8,39.8z"/>
		<path id="Path_3519-2" class="st11" d="M226.6,41.7l-10.9-0.1c4.8-0.6,9.7-0.8,14.5-0.5C229.4,42.9,227.9,41.7,226.6,41.7z"/>
		<path id="Path_3520-2" class="st11" d="M209.2,41.7c0,0.2,0,0.4,0,0.5c-3.5,0-6.9,0-10.4,0.1C202.2,41.3,205.7,41.6,209.2,41.7z"
			/>
		<path id="Path_3521-2" class="st11" d="M226.6,41.7c1.2-0.3,2.6,0.5,3.7-0.7c0.2-0.1,0.4-0.1,0.5-0.1c0.5-0.2,1-0.3,1.6-0.2
			c0.4,0.1,0.8,0.3,1,0.6c0.1,0.2,0.1,0.5-0.1,0.7l-6.7,0C226.6,42,226.6,41.8,226.6,41.7z"/>
		<path id="Path_3522-2" class="st11" d="M196.1,42.3c-2.9,1.2-5.8,0.4-8.8,0.5C190.3,41.8,193.2,42.3,196.1,42.3z"/>
		<path id="Path_3523-2" class="st11" d="M257.5,39.6c-2.8,1.7-5.9,0.6-8.8,0.7C251.6,39.3,254.6,40.2,257.5,39.6z"/>
		<path id="Path_3524-2" class="st11" d="M236.3,40.9c2.5-0.8,5.1-0.4,7.6-0.5c0.2,0.2,0.1,0.6-0.1,0.7c-0.1,0-0.1,0.1-0.2,0.1
			c-2.1,0.1-4.3,0-6.4,0C236.9,41.4,236.5,41.2,236.3,40.9z"/>
		<path id="Path_3525-2" class="st11" d="M259.4,29.2c0.4,1.9-0.4,3.7-0.6,5.6l-0.7,0C258.2,32.9,258.7,31,259.4,29.2z"/>
		<path id="Path_3526-2" class="st11" d="M260.7,24.9c0.2,1.5-0.3,3.1-1.3,4.3C259.4,27.7,259.8,26.2,260.7,24.9z"/>
		<path id="Path_3527-2" class="st11" d="M187.4,42.8c-1.5,1.3-3.3,0.5-5,0.6C184,42.5,185.7,42.7,187.4,42.8z"/>
		<path id="Path_3528-2" class="st11" d="M232.7,41.2l-1.8-0.2c1.5-0.5,3.1-0.5,4.6,0C234.6,41.9,233.6,41.3,232.7,41.2z"/>
		<path id="Path_3529-2" class="st11" d="M232.7,41.2c0.9-0.1,1.8-0.2,2.8-0.2l0.9,0l0.9,0.2c0.1,0.1,0.2,0.3,0.1,0.4
			c-0.1,0.1-0.1,0.1-0.2,0.1l0,0c-1.2,0.5-2.5,0.5-3.7,0L232.7,41.2z"/>
		<path id="Path_3530-2" class="st11" d="M243.9,41c0-0.2,0-0.4,0-0.5l3.7,0c0,0.2,0,0.4,0,0.6C246.4,41.5,245.1,41.5,243.9,41z"/>
		<path id="Path_3531-2" class="st11" d="M294.2,78.2l-1.2,0c0-0.2,0-0.4,0-0.6c3.1-0.5,6.2-0.7,9.3-0.7c4.9-0.7,9.9-1.2,14.8-0.1
			c-3.3,0.3-6.6-0.5-9.9,0.5c-2.7,0.5-5.5-0.4-8.1,0.6C297.5,78,295.8,78.1,294.2,78.2z"/>
		<path id="Path_3532-2" class="st11" d="M73.2,107.1c-1-0.6-0.1-2.3-1.7-2.5c-0.1-1.2-1.4-1-1.9-1.7c0.1-0.2,0.4-0.3,0.7-0.3
			c1.4-0.4,2.7-1,2.8-2.8c1.4-0.6,0.7,1,1.4,1.2l1.9,0.9c-0.8,0.7-2,0.6-2.6,1.6C73.3,104.6,73.1,105.9,73.2,107.1z"/>
		<path id="Path_3533-2" class="st11" d="M51.3,104.7l10.7-1.2c0.2,0.1,0.3,0.3,0.2,0.4c-0.1,0.2-0.1,0.2-0.2,0.2
			C58.5,104.2,54.9,105.2,51.3,104.7z"/>
		<path id="Path_3534-2" class="st11" d="M20.4,101.1c0.3-0.1,0.6-0.1,0.9-0.2c1.5,0,3,0.5,4.3,1.3c-0.3,0.1-0.6,0.2-0.9,0.2
			c-0.6-0.1-1.2-0.1-1.7-0.2L20.4,101.1z"/>
		<path id="Path_3535-2" class="st11" d="M62,104.1l0-0.7c1.6-0.7,3.3-0.5,5-0.6C65.6,104.3,63.5,102.9,62,104.1z"/>
		<path id="Path_3536-2" class="st11" d="M56.3,105.9l-4.8,0.1c0-0.2,0-0.4,0-0.6C53.1,105.6,54.8,104.8,56.3,105.9z"/>
		<path id="Path_3537-2" class="st11" d="M70.1,102.9c-0.2,0-0.4,0-0.6,0c-0.9,0-1.7-0.1-2.6-0.1c1-0.6,2.1-0.8,3.2-0.6
			c0.2,0.1,0.3,0.3,0.2,0.4S70.2,102.9,70.1,102.9z"/>
		<path id="Path_3538-2" class="st11" d="M70.9,128.9c0.9-1.8,0.3-3.8,0.4-5.6c0.1-1,0.1-2,0.2-3c1.2-0.6,1.4,0.2,1.4,1.1
			c-0.1,2.1,0.3,4.2-0.2,6.3l-0.1,1.8c-0.8,2.4,0.2,5-0.6,7.4c0.1,1.1,0.7,2.3-0.7,3c-0.5-0.8-0.1-1.8-0.3-2.6
			c0,0.8,0.3,1.8-0.2,2.6c-1.2-1.7-0.4-3.7-0.5-5.5C71.3,132.7,70.5,130.7,70.9,128.9z"/>
		<path id="Path_3539-2" class="st11" d="M72.6,127.7c0-1.8,0-3.6,0-5.4c0-0.9,0.2-1.9-1.1-2c0-0.4,0-0.8,0-1.2l1.1,0.5
			C73.5,122.2,73.5,125,72.6,127.7z"/>
		<path id="Path_3540-2" class="st11" d="M72,136.9c0.3-2.5-0.6-5,0.6-7.4C72.3,131.9,73.1,134.5,72,136.9z"/>
		<path id="Path_3541-2" class="st11" d="M70.8,139.9V137c0.5,0.9,0.7,1.9,0.6,2.9l-0.3,0L70.8,139.9z"/>
		<path id="Path_3542-2" class="st11" d="M74.5,101c-1.1,0.3-0.3-1.2-1.1-1.1c-0.5-0.5-0.4-1-0.2-1.6c-0.1-0.1-0.1-0.2,0-0.3
			c0,0,0,0,0.1-0.1c1-0.5-0.5-2.4,1.3-2.5c0,0.2,0,0.4,0,0.6C74.5,97.7,74.5,99.4,74.5,101z"/>
		<path id="Path_3543-2" class="st11" d="M258.8,39.8l0.7,0c0.5,0.6,0.2,1.2,0,1.8c-0.1,1.9-0.1,3.7-0.2,5.6c0,0-0.1,0.1-0.2,0.1
			c-0.1,0-0.2-0.1-0.3-0.1c0-1.9,0.5-3.8-0.6-5.5C258.4,41,258.6,40.4,258.8,39.8z"/>
		<path id="Path_3544-2" class="st11" d="M407.2,47.2c0,0.2,0,0.4,0,0.5c-1.1,0-2.2,0.4-3.3-0.3C405,45.9,406.1,47.3,407.2,47.2z"/>
		<path id="Path_3545-2" class="st11" d="M327.8,73.2l0-1.2c0.5-0.5,0-1.4,0.6-1.9c0.2,0,0.4,0,0.5,0c0,1.6,0,3.1-0.1,4.7
			C328.5,74.3,328.1,73.7,327.8,73.2z"/>
		<path id="Path_3546-2" class="st11" d="M142.1,84.9c-1.1,0-2.2,0.4-3.2-0.5C140,84.4,141.2,84,142.1,84.9z"/>
		<path id="Path_3547-2" class="st11" d="M340.2,57.8l1.8-0.1l12.4,0c2.5,0,4.9,0.1,7.4,0.1l-0.6,0.6l-18.6,0
			C341.8,58.2,340.9,58.6,340.2,57.8z"/>
		<path id="Path_3548-2" class="st11" d="M75.6,83.5c0-3.1,0.7-6.2,2-9c0.4,0.3,0.6,0.7,0.6,1.2c0,2.9-0.4,5.9-1.2,8.7
			c-0.8,2.9-0.6,5.9-1.9,8.7c-0.7-0.5-0.6-1.3-0.9-1.9c-0.1-0.4-0.1-0.9,0.2-1.2c0-0.7-0.2-1.3,0.4-1.9
			C76.1,86.6,74.9,84.9,75.6,83.5z"/>
		<path id="Path_3549-2" class="st11" d="M79.4,61.4c0.2-1.9-0.2-3.9,0.6-5.8c0,1.3,0.1,2.6,0.1,4C80,60.3,80.1,61,79.4,61.4z"/>
		<path id="Path_3550-2" class="st11" d="M78.2,70.1c0.1-1.7-0.3-3.5,0.5-5.2C78.7,66.6,79.4,68.4,78.2,70.1z"/>
		<path id="Path_3551-2" class="st11" d="M80.6,41.8c-1.2-0.6-2.4,0-3.6-0.2c1.1-1.1,2.4-0.4,3.6-0.6C80.6,41.3,80.6,41.5,80.6,41.8
			z"/>
		<path id="Path_3552-2" class="st11" d="M95.5,39.1c-1.4,0-2.7,0-4.1,0c1.3-1,2.8-0.3,4.1-0.5C95.6,38.7,95.5,38.9,95.5,39.1z"/>
		<path id="Path_3553-2" class="st11" d="M243.9,41l3.7,0c0.8,0.1,1.8-0.2,2.5,0.5c-3.1,0-6.2,0.1-9.2,0.1c-1.2,0-2.5,0-3.7,0
			c0-0.2,0-0.3,0.1-0.5L243.9,41z"/>
		<path id="Path_3554-2" class="st11" d="M39.7,52.8c-1.2,0.7-2.2,1.7-3.7,1.7c0.6-0.6,1.3-1.1,1.9-1.7L39.7,52.8z"/>
		<path id="Path_3555-2" class="st11" d="M34.2,55.3c-0.4,1.1-1.4,1.8-2.6,1.7C32.2,55.9,33.2,55.7,34.2,55.3z"/>
		<path id="Path_3556-2" class="st11" d="M74.5,95.4c-1,0.5-0.2,2-1.3,2.5c-0.1-1.7,0.2-3.4,0.6-5c0.2-0.2,0.4-0.3,0.7-0.2
			c0.4,0.4,0.1,1,0.6,1.4C75.1,94.7,74.9,95.2,74.5,95.4z"/>
		<path id="Path_3557-2" class="st11" d="M75,94.2c-0.4-0.3-0.7-0.7-0.6-1.2c-0.3-0.6-0.5-1.3,0.1-1.8c0.6,0.5,0.5,1.2,0.5,1.9
			C75.1,93.4,75.1,93.8,75,94.2z"/>
		<path id="Path_3558-2" class="st11" d="M327.8,68.3c0-1.6,0-3.3,0-4.9c0.2,0,0.4-0.1,0.5-0.1C328.1,64.9,328.9,66.7,327.8,68.3z"
			/>
		<path id="Path_3559-2" class="st11" d="M328.4,70.1c0,0.7,0,1.4-0.6,1.9c0-1.1,0-2.1,0-3.2C328,69.2,328.2,69.7,328.4,70.1z"/>
		<path id="Path_3560-2" class="st11" d="M233.4,41.6l3.7,0c0,0.1,0,0.3-0.1,0.4l-3.7,0C233.4,41.9,233.4,41.8,233.4,41.6z"/>
		<path id="Path_3561-2" class="st11" d="M73.1,98.3l0.2,1.6c0,2.1-1.5,2.7-3.2,3v-0.6C72.4,101.9,72.6,100,73.1,98.3z"/>
		<path id="Path_3562-2" class="st11" d="M75.6,83.5c-0.1,1.5,0.9,3.2-0.8,4.5C75.1,86.4,75.3,85,75.6,83.5z"/>
		<path id="Path_3563-2" class="st11" d="M74.6,91.1L74.4,93c-0.2,0-0.4,0-0.6,0c-0.2-1.1,0-2.2,0.6-3.1L74.6,91.1z"/>
		<path id="Path_3564-2" class="st11" d="M260.7,31.7c0,1.1,0.1,2.2-0.6,3.1C260.2,33.8,259.7,32.6,260.7,31.7z"/>
	</g>
</g>
</svg>
