<?xml version="1.0" encoding="utf-8"?>
<!-- Generator: Adobe Illustrator 25.4.1, SVG Export Plug-In . SVG Version: 6.00 Build 0)  -->
<svg version="1.1" id="Layer_1" xmlns="http://www.w3.org/2000/svg" xmlns:xlink="http://www.w3.org/1999/xlink" x="0px" y="0px"
	 viewBox="0 0 177.2 649.3" style="enable-background:new 0 0 177.2 649.3;" xml:space="preserve">
<style type="text/css">
	.st0{fill:none;stroke:#E54D48;}
	.st1{fill:none;stroke:#2775BC;}
</style>
<g transform="translate(-1012.486 -225.953)">
	<path class="st0" d="M1106.4,847.5c-0.5-6.7-2.2-8.8-3.2-14.2c-0.8-4.9-1.2-9.8-1.3-14.8v-2.3c0-1.4,0-2.6,0-3.6v-19.9
		c0.1-6.8,0.6-17.9,2.9-21.8c2.6-4.6,7.2-7.6,7.9-13.6c0.4-3.5-0.9-6.7-2.6-9.6l0,0l0,0c-0.1-0.2-0.2-0.4-0.3-0.6
		c-2.3-4.3-1.3-10.5-0.7-13.2c0.5-2.1,1.1-4.2,1.7-6.3c0.2-0.6,0.4-1.1,0.6-1.7s0.4-1.1,0.6-1.7c0.4-1.1,0.8-2.3,1.3-3.4
		c0.4-1.1,0.9-2.3,1.4-3.4c0.2-0.6,0.5-1.1,0.8-1.7l0.4-0.9l0.4-0.9c1.1-2.3,2.2-4.6,3.5-6.9l1.9-3.4c0.3-0.6,0.7-1.1,1-1.7l1-1.7
		c0.4-0.6,0.7-1.1,1.1-1.7l1.1-1.7l1.1-1.7l0.6-0.9l0.6-0.9l2.4-3.4l2.5-3.4l2.5-3.4c0.4-0.6,0.8-1.1,1.3-1.7l1.3-1.7l5.3-6.9
		l5.3-6.9l5.3-6.9c0.9-1.1,1.8-2.3,2.6-3.4l1.3-1.7c0.4-0.6,0.8-1.1,1.2-1.7l2.4-3.4l2.3-3.4l0.6-0.9l0.5-0.9l1.1-1.7l1.1-1.7l1-1.7
		c1.4-2.3,2.6-4.6,3.8-6.9c1.1-2.3,2.2-4.6,3.2-6.9c0.9-2.3,1.8-4.6,2.6-6.9c2.9-8.9,4.2-18.2,3.9-27.6c-0.4-9.6-2.9-19-7.3-27.6
		c-0.6-1.1-1.2-2.3-1.8-3.4l-1-1.7l-1-1.7c-0.7-1.1-1.4-2.3-2.2-3.4l-1.1-1.7l-0.6-0.9c-0.2-0.3-0.4-0.6-0.6-0.9
		c-0.8-1.1-1.6-2.3-2.5-3.4l-2.6-3.4l-5.6-6.9l-0.4-0.4l-0.4-0.4l-0.7-0.9l-1.5-1.7l-3-3.4l-6.1-6.9l-6.1-6.9l-1.5-1.7
		c-0.5-0.6-1-1.1-1.4-1.7l-2.9-3.4c-1.9-2.3-3.7-4.6-5.5-6.9l-2.5-3.4l-2.4-3.4c-0.4-0.6-0.8-1.1-1.1-1.7l-1.1-1.7
		c-0.7-1.1-1.4-2.3-2.1-3.4c-1.3-2.3-2.5-4.6-3.6-6.9c-0.7-1.4-1.3-2.7-1.8-4.1c-0.8-1.8-0.9-3.9-0.1-5.8c0.2-0.2,0.3-0.5,0.5-0.7
		l0,0c0.8-1.3,1.3-2.7,1.5-4.2c1.4-7.6-6-13-2-20.3s18.3-10.1,15.9-21.5c-1.8-8.5-10.4-8.5-18.8-15.3c-2.8-2.2-4.3-8.2-5.2-13.6
		c0-0.2-0.1-0.4-0.1-0.6c-0.2-1-0.3-2-0.4-2.9c-0.5-5.1-0.5-12.4-0.5-13.4V275.8c0.1-6.3,0.4-14.5,2-20c1.5-5.1,3.6-10.7,0.7-15.9
		c-3.4-6.3-13.6-2.8-10.8,9.4c1.2,5,1.6,7.4,2.4,11.1c1.1,5.2,1.7,10.5,1.8,15.9l0,0.1v108.5c-0.2,7.1,0,18.4,0,18.4v0.3
		c0,2.7-0.6,23.4-13.3,38c-4.8,5.5-14.7,11.4-12.7,21.9c1.4,7.6,7.7,8.6,11.5,14.7c2,4,1.8,8.8-0.5,12.6l-0.6,1
		c-0.2,0.3-0.3,0.5-0.5,0.8c-0.2,0.3-0.4,0.6-0.6,1l-2.4,3.4l-2.5,3.4c-1.7,2.3-3.5,4.6-5.5,6.9l-2.9,3.4c-0.5,0.6-0.9,1.1-1.4,1.7
		l-1.5,1.7l-6.1,6.9l-6.1,6.9l-3,3.4l-1.5,1.7l-0.7,0.9l-0.4,0.4l-0.4,0.4l-5.6,6.9l-2.6,3.4c-0.9,1.1-1.7,2.3-2.5,3.4
		c-0.2,0.3-0.4,0.6-0.6,0.9l-0.6,0.9l-1.1,1.7c-0.8,1.1-1.5,2.3-2.2,3.4l-1,1.7l-1,1.7c-0.6,1.1-1.2,2.3-1.8,3.4
		c-4.4,8.6-6.9,18-7.3,27.6c-0.3,9.3,1,18.7,3.9,27.6c0.8,2.3,1.6,4.6,2.6,6.9c1,2.3,2,4.6,3.2,6.9c1.2,2.3,2.4,4.6,3.8,6.9l1,1.7
		l1.1,1.7l1.1,1.7l0.5,0.9l0.6,0.9l2.3,3.4l2.4,3.4c0.4,0.6,0.8,1.1,1.2,1.7l1.3,1.7c0.8,1.1,1.7,2.3,2.6,3.4l5.3,6.9l5.3,6.9
		l5.3,6.9l1.3,1.7c0.4,0.6,0.8,1.1,1.3,1.7l2.5,3.4l2.5,3.4l2.4,3.4l0.6,0.9l0.6,0.9l1.1,1.7l1.1,1.7c0.4,0.6,0.7,1.1,1.1,1.7l1,1.7
		c0.3,0.6,0.7,1.1,1,1.7l1.9,3.4c1.3,2.3,2.4,4.6,3.5,6.9l0.4,0.9l0.4,0.9c0.3,0.6,0.5,1.1,0.8,1.7c0.5,1.1,1,2.3,1.4,3.4
		c0.5,1.1,0.9,2.3,1.3,3.4c0.2,0.6,0.4,1.1,0.6,1.7c0.2,0.6,0.4,1.1,0.6,1.7c0.3,1,0.6,2.1,0.9,3.1c0.8,3,1.3,6.1,1.4,9.3
		c-0.1,2.8-1.1,5.6-3,7.7c-0.3,0.4-0.7,0.7-1,1l0,0c0,0-0.1,0.1-0.1,0.1c-2.7,2.7-5.5,4.6-6.8,7.3c-2.2,4.7,0.1,9.2,3.8,12.9
		c3.5,3.4,8.3,6,9.6,10.7c2,7.2,1.6,19,1.8,21.6c0,0.1,0,0.2,0,0.3v13.7c0,6.4-0.4,13.8-2.1,19.6c-1.5,5.1-3.1,11.8-0.7,15.8
		C1099,857.2,1107,855.7,1106.4,847.5z"/>
	<path class="st1" d="M1095.2,867c0.5-7,2.5-9.2,3.5-14.9c0.9-5.1,1.4-10.3,1.4-15.5v-2.4c-0.1-1.5,0-2.8,0-3.8v-20.8
		c-0.1-7.1-0.7-18.7-3.1-22.9c-2.8-4.8-7.9-8-8.6-14.2c-0.4-3.7,1-7,2.8-10l0,0l0,0c0.1-0.2,0.2-0.4,0.4-0.6
		c2.5-4.5,1.4-11,0.8-13.8c-0.6-2.2-1.2-4.4-1.9-6.6c-0.2-0.6-0.4-1.2-0.6-1.8c-0.2-0.6-0.4-1.2-0.6-1.8c-0.5-1.2-0.9-2.4-1.4-3.6
		c-0.5-1.2-1-2.4-1.5-3.6c-0.3-0.6-0.6-1.2-0.8-1.8l-0.4-0.9l-0.4-0.9c-1.2-2.4-2.5-4.8-3.8-7.2l-2.1-3.6c-0.3-0.6-0.7-1.2-1.1-1.8
		l-1.1-1.8c-0.4-0.6-0.8-1.2-1.2-1.8l-1.2-1.8l-1.2-1.8l-0.6-0.9l-0.6-0.9l-2.6-3.6l-2.7-3.6l-2.7-3.6c-0.5-0.6-0.9-1.2-1.4-1.8
		l-1.5-1.8l-5.8-7.2l-5.8-7.2l-5.7-7.2c-1-1.2-1.9-2.4-2.8-3.6l-1.4-1.8c-0.5-0.6-0.9-1.2-1.4-1.8l-2.6-3.6l-2.5-3.6l-0.6-0.9
		l-0.6-0.9l-1.2-1.8l-1.2-1.8l-1.1-1.8c-1.5-2.4-2.9-4.8-4.1-7.2c-1.3-2.4-2.4-4.8-3.5-7.2c-1-2.4-2-4.8-2.8-7.2
		c-3.2-9.3-4.6-19.1-4.3-28.9c0.5-10.1,3.2-20,8-28.9c0.6-1.2,1.3-2.4,2-3.6l1.1-1.8l1.1-1.8c0.8-1.2,1.5-2.4,2.4-3.6l1.3-1.8
		l0.6-0.9c0.2-0.3,0.4-0.6,0.7-0.9c0.9-1.2,1.8-2.4,2.7-3.6l2.9-3.7l6.2-7.2l0.4-0.5l0.4-0.5l0.8-0.9l1.6-1.8l3.3-3.6l6.6-7.2
		l6.6-7.2l1.7-1.8c0.5-0.6,1-1.2,1.6-1.8l3.1-3.6c2.1-2.4,4.1-4.8,6-7.2l2.8-3.6l2.6-3.6c0.4-0.6,0.8-1.2,1.2-1.8l1.2-1.8
		c0.8-1.2,1.5-2.4,2.3-3.6c1.5-2.4,2.8-4.8,4-7.2c0.7-1.4,1.4-2.8,2-4.3c1.2-3,0.6-5,0.1-6c-0.2-0.2-0.3-0.5-0.5-0.8l0,0
		c-0.8-1.4-1.4-2.9-1.7-4.4c-1.6-8,6.6-13.6,2.2-21.3c-4.4-7.7-20-10.6-17.4-22.6c2-8.9,11.3-8.9,20.6-16.1c3-2.3,4.8-8.6,5.7-14.2
		c0-0.2,0.1-0.4,0.1-0.7c0.2-1.1,0.3-2.1,0.4-3.1c0.6-5.4,0.6-13,0.6-14.1V267.4c-0.1-6.7-0.4-15.2-2.2-21
		c-1.6-5.4-3.9-11.2-0.8-16.7c3.7-6.6,14.9-2.9,11.8,9.9c-1.3,5.3-1.8,7.7-2.6,11.6c-1.3,5.5-1.9,11.1-1.9,16.7l0,0.1v113.9
		c0.3,7.5,0,19.3,0,19.3v0.3c0,2.8,0.6,24.5,14.6,39.9c5.3,5.8,16,12,13.9,22.9c-1.6,8-8.4,9-12.6,15.4c-2.2,4.2-2,9.3,0.6,13.2
		l0.7,1c0.2,0.3,0.4,0.5,0.5,0.8c0.2,0.3,0.4,0.7,0.7,1l2.6,3.6l2.8,3.6c1.9,2.4,3.9,4.8,6,7.2l3.1,3.6c0.5,0.6,1,1.2,1.6,1.8
		l1.7,1.8l6.6,7.2l6.6,7.2l3.3,3.6l1.6,1.8l0.8,0.9l0.4,0.5l0.4,0.5l6.2,7.2l2.9,3.6c0.9,1.2,1.8,2.4,2.7,3.6
		c0.2,0.3,0.5,0.6,0.7,0.9l0.6,0.9l1.3,1.8c0.9,1.2,1.6,2.4,2.4,3.6l1.1,1.8l1.1,1.8c0.7,1.2,1.4,2.4,2,3.6c4.8,8.9,7.5,18.8,8,28.9
		c0.3,9.8-1.1,19.6-4.3,28.9c-0.8,2.4-1.8,4.8-2.8,7.2c-1.1,2.4-2.2,4.8-3.5,7.2c-1.3,2.4-2.6,4.8-4.1,7.2l-1.1,1.8l-1.2,1.8
		l-1.2,1.8l-0.6,0.9l-0.6,0.9l-2.5,3.6l-2.6,3.6c-0.4,0.6-0.9,1.2-1.4,1.8l-1.4,1.8c-0.9,1.2-1.9,2.4-2.8,3.6l-5.7,7.2l-5.8,7.2
		l-5.8,7.2l-1.5,1.8c-0.5,0.6-0.9,1.2-1.4,1.8l-2.7,3.6l-2.7,3.6l-2.6,3.6l-0.6,0.9l-0.6,0.9l-1.2,1.8l-1.2,1.8
		c-0.4,0.6-0.8,1.2-1.2,1.8l-1.1,1.8c-0.4,0.6-0.8,1.2-1.1,1.8l-2.1,3.6c-1.4,2.4-2.7,4.8-3.8,7.2l-0.4,0.9l-0.4,0.9
		c-0.3,0.6-0.6,1.2-0.8,1.8c-0.5,1.2-1.1,2.4-1.5,3.6c-0.5,1.2-1,2.4-1.4,3.6c-0.2,0.6-0.4,1.2-0.6,1.8c-0.2,0.6-0.4,1.2-0.6,1.8
		c-0.4,1.1-0.7,2.2-1,3.3c-0.9,3.2-1.4,6.4-1.6,9.7c0.1,3,1.2,5.9,3.2,8.1c0.4,0.4,0.7,0.7,1.1,1.1l0,0c0,0,0.1,0.1,0.1,0.1
		c2.9,2.8,6,4.8,7.5,7.7c2.4,4.9-0.1,9.6-4.1,13.5c-3.8,3.6-9.1,6.3-10.5,11.2c-2.2,7.5-1.7,19.9-1.9,22.7c0,0.1,0,0.2,0,0.3v14.3
		c0,6.7,0.5,14.5,2.3,20.6c1.6,5.4,3.4,12.4,0.8,16.5C1103.3,877.2,1094.6,875.6,1095.2,867z"/>
</g>
</svg>
