<?xml version="1.0" encoding="utf-8"?>
<!-- Generator: Adobe Illustrator 25.4.1, SVG Export Plug-In . SVG Version: 6.00 Build 0)  -->
<svg version="1.1" id="Layer_1" xmlns="http://www.w3.org/2000/svg" xmlns:xlink="http://www.w3.org/1999/xlink" x="0px" y="0px"
	 viewBox="0 0 177.2 830.1" style="enable-background:new 0 0 177.2 830.1;" xml:space="preserve">
<style type="text/css">
	.st0{fill:none;stroke:#E54D48;}
	.st1{fill:none;stroke:#2775BC;}
</style>
<g transform="translate(0.557 0.501)">
	<path class="st0" d="M93.9,37.9c-0.5,6.6-2.5,8.8-3.5,14.1c-0.9,4.8-1.4,9.8-1.4,14.7v2.3c0.1,1.4,0,2.6,0,3.6v19.7
		c0.1,6.7,0.7,17.7,3.1,21.7c2.8,4.5,7.9,7.6,8.6,13.5c0.4,3.5-1,6.6-2.8,9.5l0,0l0,0c-0.1,0.2-0.2,0.4-0.4,0.6
		c-2.5,4.2-1.4,10.4-0.8,13.1c0.6,2.1,1.2,4.2,1.9,6.2c0.2,0.6,0.4,1.1,0.6,1.7s0.4,1.1,0.6,1.7c0.5,1.1,0.9,2.3,1.4,3.4
		c0.5,1.1,1,2.3,1.5,3.4c0.3,0.6,0.6,1.1,0.8,1.7l0.4,0.9l0.4,0.9c1.2,2.3,2.5,4.6,3.8,6.8l2.1,3.4c0.3,0.6,0.7,1.1,1.1,1.7l1.1,1.7
		c0.4,0.6,0.8,1.1,1.2,1.7l1.2,1.7l1.2,1.7l0.6,0.9l0.6,0.9l2.6,3.4l2.7,3.4l2.7,3.4c0.5,0.6,0.9,1.1,1.4,1.7l1.5,1.7l5.8,6.8
		l5.8,6.8l5.7,6.8c1,1.1,1.9,2.3,2.8,3.4l1.4,1.7c0.5,0.6,0.9,1.1,1.4,1.7l2.6,3.4l2.5,3.4l0.6,0.9l0.6,0.9l1.2,1.7l1.2,1.7l1.1,1.7
		c1.5,2.3,2.9,4.6,4.1,6.8c1.3,2.3,2.4,4.6,3.5,6.8c1,2.3,2,4.6,2.8,6.8c3.2,8.8,4.6,18,4.3,27.4c-0.5,9.6-3.2,19-8,27.4
		c-0.6,1.1-1.3,2.3-2,3.4l-1.1,1.7l-1.1,1.7c-0.8,1.1-1.5,2.3-2.4,3.4l-1.3,1.7l-0.6,0.9c-0.2,0.3-0.4,0.6-0.7,0.9
		c-0.9,1.1-1.8,2.3-2.7,3.4l-2.9,3.4l-6.2,6.8l-0.4,0.4l-0.4,0.4l-0.8,0.9l-1.6,1.7l-3.3,3.4l-6.6,6.8l-6.6,6.8l-1.7,1.7
		c-0.5,0.6-1,1.1-1.6,1.7l-3.1,3.4c-2.1,2.3-4.1,4.6-6,6.8l-2.8,3.4l-2.6,3.4c-0.4,0.6-0.8,1.1-1.2,1.7l-1.2,1.7
		c-0.8,1.1-1.5,2.3-2.3,3.4c-1.5,2.3-2.8,4.6-4,6.8c-0.7,1.3-1.4,2.7-2,4c-1.2,2.9-0.6,4.8-0.1,5.7c0.2,0.2,0.3,0.5,0.5,0.7l0,0
		c0.8,1.3,1.4,2.7,1.7,4.2c1.6,7.5-6.6,12.9-2.2,20.2s20,10,17.4,21.4c-2,8.4-11.3,8.4-20.6,15.2c-3,2.2-4.8,8.2-5.7,13.5
		c0,0.2-0.1,0.4-0.1,0.6c-0.2,1-0.3,2-0.4,2.9c-0.6,5.1-0.6,12.3-0.6,13.4v265.5c0.1,6.3,0.4,14.4,2.2,19.8
		c1.6,5.1,3.9,10.6,0.8,15.8c-3.7,6.2-14.9,2.7-11.8-9.3c1.3-5,1.8-7.3,2.6-11c1.3-5.2,1.9-10.5,1.9-15.8l0-0.1V497.2
		c-0.2-7.1,0-18.3,0-18.3v-0.3c0-2.7-0.6-23.2-14.6-37.7c-5.3-5.5-16-11.3-13.9-21.7c1.6-7.5,8.4-8.5,12.6-14.6
		c2.2-3.9,2-8.8-0.6-12.5l-0.7-1c-0.2-0.3-0.4-0.5-0.5-0.8c-0.2-0.3-0.4-0.6-0.7-0.9l-2.6-3.4l-2.8-3.4c-1.9-2.3-3.9-4.6-6-6.8
		l-3.1-3.4c-0.5-0.6-1-1.1-1.6-1.7l-1.7-1.7L42,362l-6.6-6.8l-3.3-3.4l-1.6-1.7l-0.8-0.9l-0.4-0.4l-0.4-0.4l-6.2-6.8l-2.9-3.4
		c-0.9-1.1-1.8-2.3-2.7-3.4c-0.2-0.3-0.5-0.6-0.7-0.9l-0.6-0.9l-1.3-1.7c-0.9-1.1-1.6-2.3-2.4-3.4l-1.1-1.7l-1.1-1.7
		c-0.7-1.1-1.4-2.3-2-3.4c-4.8-8.4-7.5-17.7-8-27.4c-0.3-9.3,1.1-18.6,4.3-27.4c0.8-2.3,1.8-4.6,2.8-6.8c1.1-2.3,2.2-4.6,3.5-6.8
		c1.3-2.3,2.6-4.6,4.1-6.8l1.1-1.7l1.2-1.7l1.2-1.7l0.6-0.9l0.6-0.9l2.5-3.4l2.6-3.4c0.4-0.6,0.9-1.1,1.4-1.7l1.4-1.7
		c0.9-1.1,1.9-2.3,2.8-3.4l5.7-6.8l5.8-6.8l5.8-6.8l1.5-1.7c0.5-0.6,0.9-1.1,1.4-1.7l2.7-3.4l2.7-3.4l2.6-3.4l0.6-0.9l0.6-0.9
		l1.2-1.7l1.2-1.7c0.4-0.6,0.8-1.1,1.2-1.7l1.1-1.7c0.4-0.6,0.8-1.1,1.1-1.7l2.1-3.4c1.4-2.3,2.7-4.6,3.8-6.8l0.4-0.9l0.4-0.9
		c0.3-0.6,0.6-1.1,0.8-1.7c0.5-1.1,1.1-2.3,1.5-3.4c0.5-1.1,1-2.3,1.4-3.4c0.2-0.6,0.4-1.1,0.6-1.7s0.4-1.1,0.6-1.7
		c0.4-1,0.7-2.1,1-3.1c0.9-3,1.4-6.1,1.6-9.2c-0.1-2.9-1.3-5.6-3.2-7.7c-0.4-0.4-0.7-0.7-1.1-1l0,0c0,0-0.1-0.1-0.1-0.1
		c-2.9-2.7-6-4.6-7.5-7.3c-2.4-4.7,0.1-9.1,4.1-12.8c3.8-3.4,9.1-6,10.5-10.6c2.2-7.1,1.7-18.9,1.9-21.5c0-0.1,0-0.2,0-0.3V69.6
		c0-6.4-0.5-13.7-2.3-19.5c-1.6-5.1-3.4-11.7-0.8-15.6C85.8,28.3,94.5,29.8,93.9,37.9z"/>
	<path class="st1" d="M82.2,7.7c0.5,7,2.5,9.3,3.5,15c0.9,5.2,1.4,10.4,1.4,15.6v2.4c-0.1,1.5,0,2.8,0,3.9v21
		C87,72.8,86.4,84.5,84,88.7c-2.8,4.8-7.9,8-8.6,14.3c-0.4,3.8,1,7,2.8,10.1l0,0l0,0c0.1,0.2,0.2,0.4,0.4,0.6
		c2.5,4.5,1.4,11.1,0.8,13.9c-0.6,2.2-1.2,4.4-1.9,6.6c-0.2,0.6-0.4,1.2-0.6,1.8s-0.4,1.2-0.6,1.8c-0.5,1.2-0.9,2.4-1.4,3.6
		c-0.5,1.2-1,2.4-1.5,3.6c-0.3,0.6-0.6,1.2-0.8,1.8l-0.4,0.9l-0.4,0.9c-1.2,2.4-2.5,4.9-3.8,7.3l-2.1,3.6c-0.3,0.6-0.7,1.2-1.1,1.8
		l-1.1,1.8c-0.4,0.6-0.8,1.2-1.2,1.8l-1.2,1.8l-1.2,1.8l-0.6,0.9l-0.6,0.9l-2.6,3.6l-2.7,3.6l-2.7,3.6c-0.5,0.6-0.9,1.2-1.4,1.8
		l-1.5,1.8l-5.8,7.3l-5.8,7.3l-5.7,7.3c-1,1.2-1.9,2.4-2.8,3.6l-1.4,1.8c-0.5,0.6-0.9,1.2-1.4,1.8l-2.6,3.6l-2.5,3.6l-0.6,0.9
		l-0.6,0.9l-1.2,1.8l-1.2,1.8l-1.1,1.8c-1.5,2.4-2.9,4.9-4.1,7.3c-1.3,2.4-2.4,4.9-3.5,7.3c-1,2.4-2,4.9-2.8,7.3
		c-3.2,9.4-4.6,19.2-4.3,29.1c0.5,10.2,3.2,20.1,8,29.1c0.6,1.2,1.3,2.4,2,3.6l1.1,1.8l1.1,1.8c0.8,1.2,1.5,2.4,2.4,3.6l1.3,1.8
		l0.6,0.9c0.2,0.3,0.4,0.6,0.7,0.9c0.9,1.2,1.8,2.4,2.7,3.6l2.9,3.6l6.2,7.3l0.4,0.5l0.4,0.5l0.8,0.9l1.6,1.8l3.3,3.6L42,353
		l6.6,7.3l1.7,1.8c0.5,0.6,1,1.2,1.6,1.8l3.1,3.6c2.1,2.4,4.1,4.9,6,7.3l2.8,3.6l2.6,3.6c0.4,0.6,0.8,1.2,1.2,1.8l1.2,1.8
		c0.8,1.2,1.5,2.4,2.3,3.6c1.5,2.4,2.8,4.9,4,7.3c0.7,1.4,1.4,2.9,2,4.3c1.2,3,0.6,5.1,0.1,6.1c-0.2,0.2-0.3,0.5-0.5,0.8l0,0
		c-0.8,1.4-1.4,2.9-1.7,4.5c-1.6,8,6.6,13.7,2.2,21.5s-20,10.7-17.4,22.7c2,9,11.3,9,20.6,16.2c3,2.4,4.8,8.7,5.7,14.4
		c0,0.2,0.1,0.4,0.1,0.7c0.2,1.1,0.3,2.1,0.4,3.1c0.6,5.4,0.6,13.1,0.6,14.2v282.8c-0.1,6.7-0.4,15.3-2.2,21.1
		c-1.6,5.4-3.9,11.3-0.8,16.8c3.7,6.6,14.9,2.9,11.8-9.9c-1.3-5.3-1.8-7.8-2.6-11.7c-1.3-5.5-1.9-11.1-1.9-16.8l0-0.1V496.9
		c0.2-7.5,0-19.5,0-19.5v-0.3c0-2.8,0.6-24.7,14.6-40.2c5.3-5.8,16-12.1,13.9-23.1c-1.6-8-8.4-9.1-12.6-15.5
		c-2.2-4.2-2-9.3,0.6-13.3l0.7-1c0.2-0.3,0.4-0.5,0.5-0.8c0.2-0.3,0.4-0.7,0.7-1l2.6-3.6l2.8-3.6c1.9-2.4,3.9-4.9,6-7.3l3.1-3.6
		c0.5-0.6,1-1.2,1.6-1.8l1.7-1.8l6.6-7.3l6.6-7.3l3.3-3.6l1.6-1.8l0.8-0.9l0.4-0.5l0.4-0.5l6.2-7.3l2.9-3.6c0.9-1.2,1.8-2.4,2.7-3.6
		c0.2-0.3,0.5-0.6,0.7-0.9l0.6-0.9l1.3-1.8c0.9-1.2,1.6-2.4,2.4-3.6l1.1-1.8l1.1-1.8c0.7-1.2,1.4-2.4,2-3.6c4.8-9,7.5-19,8-29.1
		c0.3-9.9-1.1-19.8-4.3-29.1c-0.8-2.4-1.8-4.9-2.8-7.3c-1.1-2.4-2.2-4.9-3.5-7.3c-1.3-2.4-2.6-4.9-4.1-7.3l-1.1-1.8l-1.2-1.8
		l-1.2-1.8l-0.6-0.9l-0.6-0.9l-2.5-3.6l-2.6-3.6c-0.4-0.6-0.9-1.2-1.4-1.8l-1.4-1.8c-0.9-1.2-1.9-2.4-2.8-3.6l-5.7-7.3l-5.8-7.3
		l-5.8-7.3l-1.5-1.8c-0.5-0.6-0.9-1.2-1.4-1.8l-2.7-3.6l-2.7-3.6l-2.6-3.6l-0.6-0.9l-0.6-0.9l-1.2-1.8l-1.2-1.8
		c-0.4-0.6-0.8-1.2-1.2-1.8l-1.1-1.8c-0.4-0.6-0.8-1.2-1.1-1.8l-2.1-3.6c-1.4-2.4-2.7-4.9-3.8-7.3l-0.4-0.9l-0.4-0.9
		c-0.3-0.6-0.6-1.2-0.8-1.8c-0.5-1.2-1.1-2.4-1.5-3.6c-0.5-1.2-1-2.4-1.4-3.6c-0.2-0.6-0.4-1.2-0.6-1.8s-0.4-1.2-0.6-1.8
		c-0.4-1.1-0.7-2.2-1-3.3c-0.9-3.2-1.4-6.5-1.6-9.8c0.1-3,1.2-5.9,3.2-8.2c0.4-0.4,0.7-0.8,1.1-1.1l0,0c0,0,0.1-0.1,0.1-0.1
		c2.9-2.8,6-4.9,7.5-7.8c2.4-5-0.1-9.7-4.1-13.6c-3.8-3.6-9.1-6.4-10.5-11.3c-2.2-7.6-1.7-20.1-1.9-22.9c0-0.1,0-0.2,0-0.3V41.5
		c0-6.8,0.5-14.6,2.3-20.7c1.6-5.4,3.4-12.5,0.8-16.7C90.3-2.5,81.6-0.9,82.2,7.7z"/>
</g>
</svg>
