<svg xmlns="http://www.w3.org/2000/svg" width="830.065" height="177.183" viewBox="0 0 830.065 177.183"><defs><style>.a{fill:#e54d48;stroke:#e54d48;}.b{fill:none;stroke:#2775bc;}</style></defs><g transform="translate(-97.443 -1240.818)"><path class="a" d="M1900.307,711.045c6.61.514,8.753,2.458,14.1,3.493a88.077,88.077,0,0,0,14.675,1.417h2.266c1.416-.052,2.61-.049,3.618,0h19.721c6.721-.11,17.722-.677,21.667-3.132,4.538-2.826,7.555-7.9,13.452-8.624,3.523-.435,6.618.976,9.5,2.795h0l.019.013c.191.121.382.243.571.367,4.245,2.511,10.385,1.445,13.1.785q3.116-.833,6.233-1.912c.57-.184,1.14-.406,1.709-.613s1.14-.41,1.711-.641c1.14-.457,2.277-.9,3.42-1.41,1.14-.478,2.28-1.02,3.419-1.546.571-.268,1.14-.558,1.711-.837l.855-.422.854-.445c2.28-1.169,4.56-2.46,6.84-3.836l3.42-2.12c.571-.34,1.14-.745,1.71-1.121l1.71-1.146c.57-.385,1.139-.755,1.71-1.154l1.711-1.224,1.71-1.224.854-.615.855-.646,3.421-2.588,3.42-2.749,3.42-2.749c.57-.464,1.14-.906,1.71-1.384l1.71-1.456,6.84-5.823,6.841-5.823,6.84-5.746c1.14-.957,2.28-1.921,3.42-2.824l1.711-1.377c.569-.458,1.14-.923,1.71-1.356l3.42-2.645,3.42-2.515.855-.627.855-.59,1.71-1.18,1.71-1.175,1.709-1.092q3.422-2.228,6.841-4.129,3.421-1.881,6.84-3.462c2.28-1.037,4.56-1.959,6.84-2.79a72.583,72.583,0,0,1,27.361-4.308,61.78,61.78,0,0,1,27.361,8.01c1.14.613,2.28,1.287,3.42,1.967l1.71,1.063,1.71,1.145c1.14.773,2.281,1.5,3.42,2.369l1.71,1.257.855.628c.285.211.57.447.855.669,1.14.911,2.28,1.786,3.419,2.728l3.421,2.883,6.839,6.177.431.386.428.406.855.819,1.71,1.637,3.42,3.275,6.84,6.621,6.834,6.63,1.71,1.658c.571.536,1.14,1.045,1.709,1.567l3.421,3.122c2.281,2.126,4.56,4.07,6.84,5.981l3.42,2.772,3.42,2.594c.571.447,1.14.825,1.71,1.229l1.71,1.2c1.139.82,2.28,1.548,3.42,2.288,2.28,1.451,4.56,2.768,6.84,3.977,1.345.713,2.69,1.371,4.035,1.991,2.85,1.173,4.757.581,5.711.055.23-.176.469-.346.718-.511h0a11.626,11.626,0,0,1,4.191-1.693c7.535-1.564,12.885,6.572,20.191,2.152s10.028-20.031,21.356-17.384c8.445,1.973,8.444,11.331,15.223,20.594,2.224,3.039,8.167,4.753,13.487,5.7.182.024.39.058.644.112,1,.169,1.973.312,2.886.432,5.089.556,12.3.584,13.352.586h265.5c6.3-.088,14.407-.422,19.839-2.155,5.07-1.618,10.6-3.911,15.808-.781,6.218,3.741,2.743,14.907-9.335,11.846-4.989-1.264-7.308-1.756-10.97-2.637a68.96,68.96,0,0,0-15.778-1.936l-.113-.014H2359.6c-7.073.25-18.308,0-18.308,0H2341c-2.655.02-23.186.636-37.738,14.571-5.488,5.255-11.345,16.041-21.695,13.868-7.542-1.583-8.5-8.4-14.579-12.618a11.869,11.869,0,0,0-12.53.591l-.951.667c-.263.2-.516.376-.76.533-.316.222-.633.448-.95.7l-3.42,2.595-3.42,2.772c-2.28,1.911-4.559,3.856-6.84,5.978l-3.421,3.123c-.569.522-1.139,1.034-1.709,1.567l-1.71,1.658-6.84,6.632-6.841,6.622-3.42,3.274-1.71,1.637-.855.818-.428.406-.43.386-6.84,6.177-3.421,2.884c-1.14.94-2.28,1.816-3.42,2.728-.285.222-.57.458-.855.67l-.855.628-1.71,1.257c-1.14.871-2.28,1.6-3.42,2.37l-1.71,1.145-1.711,1.063c-1.14.68-2.28,1.354-3.42,1.967a61.761,61.761,0,0,1-27.361,8.009,72.584,72.584,0,0,1-27.36-4.308c-2.28-.831-4.561-1.753-6.841-2.79q-3.42-1.582-6.84-3.463-3.42-1.9-6.84-4.129l-1.711-1.093-1.709-1.175-1.71-1.179-.855-.59-.855-.627-3.42-2.515-3.42-2.645c-.571-.433-1.141-.9-1.71-1.356l-1.711-1.377c-1.14-.9-2.281-1.866-3.42-2.824l-6.839-5.746-6.841-5.823-6.841-5.824-1.709-1.456c-.571-.478-1.141-.922-1.711-1.384l-3.42-2.749-3.42-2.749-3.421-2.588-.855-.646-.855-.615-1.71-1.224-1.711-1.224c-.571-.4-1.141-.769-1.71-1.154l-1.71-1.146c-.57-.376-1.139-.78-1.71-1.121l-3.421-2.121c-2.28-1.375-4.56-2.666-6.839-3.836l-.855-.445-.856-.422c-.569-.278-1.14-.569-1.71-.837-1.14-.526-2.277-1.068-3.421-1.546-1.14-.507-2.279-.952-3.419-1.41-.57-.232-1.14-.426-1.71-.638s-1.14-.43-1.71-.613q-1.553-.541-3.106-1.016a37.5,37.5,0,0,0-9.209-1.56,11.77,11.77,0,0,0-7.666,3.232q-.541.535-1.041,1.085h0c-.039.045-.078.086-.117.129-2.661,2.947-4.571,6.046-7.295,7.451-4.684,2.415-9.132-.057-12.789-4.142-3.4-3.8-5.988-9.086-10.634-10.5-7.132-2.178-18.866-1.716-21.46-1.931-.1-.008-.2-.018-.3-.029h-13.558c-6.358.012-13.708.465-19.474,2.3-5.07,1.618-11.729,3.368-15.649.756C1890.7,719.184,1892.172,710.412,1900.307,711.045Z" transform="translate(-1764.452 612.505)"/><path class="b" d="M1900.777,722.765c7.04-.514,9.323-2.458,15.018-3.493a99.726,99.726,0,0,1,15.63-1.417h2.413c1.509.052,2.78.049,3.853,0h21c7.158.11,18.875.677,23.076,3.132,4.833,2.826,8.047,7.9,14.326,8.624,3.752.435,7.049-.976,10.122-2.795h0l.021-.013c.2-.121.407-.243.608-.367,4.521-2.511,11.061-1.445,13.95-.785q3.319.833,6.639,1.912c.607.184,1.214.406,1.821.613s1.214.41,1.822.641c1.214.457,2.425.9,3.642,1.41,1.214.478,2.428,1.02,3.642,1.546.608.268,1.215.558,1.822.837l.911.422.91.445c2.428,1.169,4.857,2.461,7.285,3.836l3.643,2.12c.608.34,1.214.745,1.821,1.121l1.821,1.146c.607.385,1.214.755,1.822,1.154l1.822,1.224,1.822,1.224.91.615.91.646,3.643,2.588,3.642,2.749,3.643,2.749c.607.464,1.214.906,1.821,1.384l1.822,1.456,7.285,5.823,7.286,5.823,7.284,5.746c1.215.957,2.428,1.921,3.642,2.824l1.823,1.377c.606.458,1.214.923,1.821,1.356l3.643,2.645,3.643,2.515.91.627.91.59,1.822,1.18,1.821,1.175,1.821,1.092q3.644,2.228,7.285,4.129,3.644,1.881,7.285,3.462c2.428,1.037,4.857,1.959,7.285,2.79a81.889,81.889,0,0,0,29.14,4.308,69.018,69.018,0,0,0,29.141-8.01c1.214-.613,2.428-1.287,3.643-1.967l1.821-1.062,1.821-1.145c1.214-.774,2.429-1.5,3.643-2.369l1.822-1.257.911-.628c.3-.211.607-.447.911-.669,1.214-.911,2.428-1.786,3.642-2.728l3.644-2.883,7.284-6.177.459-.386.456-.406.911-.819,1.822-1.637,3.643-3.274,7.285-6.621,7.278-6.63,1.822-1.658c.608-.536,1.214-1.045,1.821-1.567l3.643-3.122c2.429-2.126,4.857-4.07,7.285-5.981l3.643-2.772,3.642-2.594c.608-.448,1.214-.825,1.821-1.229l1.822-1.2c1.214-.819,2.428-1.548,3.643-2.288,2.428-1.451,4.857-2.768,7.285-3.977,1.433-.713,2.865-1.371,4.3-1.991,3.036-1.172,5.066-.581,6.082-.055.245.176.5.346.765.511h0a12.841,12.841,0,0,0,4.464,1.693c8.025,1.564,13.723-6.571,21.5-2.152s10.68,20.031,22.745,17.384c8.994-1.973,8.993-11.331,16.213-20.594,2.368-3.039,8.7-4.753,14.364-5.7.193-.024.415-.059.686-.112,1.066-.169,2.1-.312,3.074-.432,5.42-.556,13.1-.584,14.22-.586h282.765c6.707.088,15.344.422,21.13,2.155,5.4,1.618,11.295,3.911,16.836.781,6.622-3.741,2.921-14.907-9.942-11.846-5.313,1.264-7.783,1.756-11.684,2.637a78.03,78.03,0,0,1-16.8,1.936l-.12.014H2389.94c-7.533-.25-19.5,0-19.5,0h-.308c-2.828-.02-24.694-.636-40.192-14.571-5.844-5.255-12.083-16.041-23.106-13.868-8.032,1.583-9.051,8.4-15.527,12.618a13.339,13.339,0,0,1-13.345-.591l-1.013-.667c-.28-.2-.549-.376-.809-.533-.337-.222-.674-.448-1.012-.7l-3.642-2.594-3.643-2.772c-2.428-1.911-4.855-3.856-7.285-5.978l-3.643-3.123c-.607-.522-1.213-1.034-1.821-1.567l-1.822-1.658-7.284-6.632-7.286-6.622L2235.062,661l-1.822-1.637-.911-.818-.456-.406-.458-.386-7.284-6.177-3.643-2.884c-1.214-.94-2.428-1.816-3.643-2.728-.3-.222-.607-.458-.911-.67l-.911-.628-1.821-1.257c-1.215-.871-2.428-1.6-3.642-2.37l-1.821-1.145-1.822-1.063c-1.214-.68-2.428-1.354-3.642-1.967a69,69,0,0,0-29.14-8.009,81.894,81.894,0,0,0-29.14,4.308c-2.428.831-4.857,1.753-7.286,2.79q-3.643,1.582-7.285,3.463-3.642,1.9-7.285,4.129l-1.822,1.093-1.82,1.175L2116.674,647l-.911.59-.91.627-3.643,2.515-3.642,2.645c-.607.433-1.215.9-1.821,1.356l-1.822,1.377c-1.215.9-2.429,1.866-3.643,2.824L2093,664.675l-7.286,5.823-7.286,5.824-1.821,1.456c-.608.478-1.215.922-1.822,1.384l-3.642,2.749-3.643,2.749-3.643,2.588-.91.646-.91.615-1.821,1.224-1.822,1.224c-.608.4-1.215.768-1.822,1.154l-1.822,1.146c-.607.376-1.213.78-1.821,1.121l-3.643,2.121c-2.428,1.375-4.856,2.666-7.284,3.836l-.91.445-.912.422c-.606.278-1.214.569-1.821.837-1.214.526-2.425,1.068-3.643,1.546-1.214.507-2.428.952-3.642,1.41-.607.232-1.214.426-1.822.638s-1.214.43-1.821.613q-1.653.541-3.308,1.016a42.291,42.291,0,0,1-9.808,1.56,12.986,12.986,0,0,1-8.164-3.232q-.576-.535-1.109-1.085h0c-.041-.045-.083-.086-.125-.129-2.834-2.947-4.868-6.046-7.769-7.451-4.989-2.415-9.726.057-13.621,4.142-3.619,3.8-6.377,9.086-11.325,10.5-7.6,2.178-20.093,1.716-22.856,1.931-.109.008-.216.018-.32.029h-14.439c-6.771-.012-14.6-.464-20.74-2.3-5.4-1.618-12.491-3.368-16.667-.756C1890.541,714.626,1892.113,723.4,1900.777,722.765Z" transform="translate(-1795.077 612.505)"/></g></svg>