<svg xmlns="http://www.w3.org/2000/svg" width="649.267" height="177.183" viewBox="0 0 649.267 177.183"><defs><style>.a,.b{fill:none;}.a{stroke:#e54d48;}.b{stroke:#2775bc;}</style></defs><g transform="translate(0.557 0.501)"><path class="a" d="M1908.806,230.973c6.657.469,8.816,2.248,14.2,3.193a97.476,97.476,0,0,0,14.781,1.3h2.283c1.426-.048,2.628-.045,3.644,0h19.865c6.769-.1,17.85-.619,21.823-2.864,4.572-2.584,7.611-7.219,13.55-7.885,3.548-.4,6.666.892,9.572,2.556h0l.019.012q.289.165.575.335c4.275,2.3,10.46,1.321,13.193.718q3.138-.762,6.278-1.748c.574-.168,1.148-.371,1.722-.56s1.148-.375,1.723-.586c1.148-.418,2.293-.825,3.444-1.289,1.148-.437,2.3-.933,3.445-1.414.575-.245,1.149-.51,1.724-.765l.861-.386.861-.407c2.3-1.069,4.593-2.25,6.89-3.507l3.445-1.939c.575-.311,1.148-.681,1.722-1.025l1.723-1.048c.574-.352,1.148-.69,1.723-1.055l1.723-1.118,1.723-1.119.861-.562.861-.591,3.445-2.366,3.445-2.514,3.445-2.514c.574-.424,1.148-.829,1.722-1.266l1.723-1.331,6.889-5.324,6.89-5.324,6.889-5.253c1.149-.875,2.3-1.757,3.445-2.582l1.723-1.259c.573-.419,1.148-.844,1.723-1.24l3.445-2.418,3.445-2.3.861-.573.861-.539,1.723-1.078,1.722-1.075,1.722-1q3.446-2.038,6.89-3.775,3.445-1.72,6.89-3.166c2.3-.948,4.594-1.791,6.89-2.551a79.905,79.905,0,0,1,27.559-3.939,67.006,67.006,0,0,1,27.56,7.323c1.148.56,2.3,1.177,3.446,1.8l1.722.972,1.723,1.046c1.148.708,2.3,1.372,3.445,2.167l1.723,1.149.861.574c.287.193.574.409.861.612,1.148.833,2.3,1.634,3.445,2.494l3.445,2.637,6.889,5.647.434.353.431.372.861.749,1.723,1.5,3.445,2.994,6.89,6.054,6.883,6.062,1.723,1.516c.574.49,1.148.955,1.722,1.433l3.445,2.855c2.3,1.943,4.593,3.721,6.89,5.468l3.445,2.535,3.445,2.372c.575.409,1.148.754,1.723,1.124l1.722,1.1c1.148.749,2.3,1.416,3.445,2.092,2.3,1.327,4.593,2.531,6.89,3.636,1.354.652,2.709,1.254,4.063,1.82a7.052,7.052,0,0,0,5.753.05c.232-.161.472-.317.723-.467h0a12.4,12.4,0,0,1,4.222-1.548c7.59-1.43,12.978,6.009,20.337,1.968s10.1-18.315,21.511-15.895c8.506,1.8,8.5,10.36,15.333,18.83,2.24,2.779,8.226,4.346,13.585,5.216.183.022.392.053.648.1,1.008.155,1.988.285,2.908.4,5.126.508,12.39.534,13.448.535h101.368c6.343-.08,14.512-.386,19.983-1.971,5.106-1.479,10.682-3.576,15.922-.714,6.263,3.42,2.762,13.63-9.4,10.831-5.025-1.156-7.361-1.605-11.05-2.411a76.236,76.236,0,0,0-15.893-1.77l-.114-.012H2371.426c-7.124.229-18.44,0-18.44,0h-.292c-2.674.019-23.354.582-38.011,13.323-5.527,4.8-11.428,14.667-21.852,12.68-7.6-1.447-8.56-7.679-14.685-11.537a12.988,12.988,0,0,0-12.62.54l-.958.61c-.265.184-.52.344-.766.487-.319.2-.637.41-.957.637l-3.445,2.372-3.445,2.535c-2.3,1.748-4.592,3.526-6.89,5.466l-3.445,2.855c-.573.478-1.148.945-1.722,1.433l-1.723,1.515-6.889,6.064-6.89,6.054-3.445,2.993-1.722,1.5-.861.748-.431.371-.434.353-6.889,5.647-3.445,2.637c-1.149.859-2.3,1.66-3.445,2.494-.288.2-.574.419-.862.612l-.862.574-1.722,1.149c-1.149.8-2.3,1.459-3.445,2.167l-1.722,1.047-1.723.972c-1.148.621-2.3,1.238-3.445,1.8a67,67,0,0,1-27.559,7.323,79.9,79.9,0,0,1-27.559-3.939c-2.3-.759-4.594-1.6-6.89-2.551q-3.445-1.446-6.889-3.166-3.445-1.739-6.89-3.775l-1.723-1-1.722-1.075-1.722-1.078-.861-.539-.861-.573-3.445-2.3-3.445-2.418c-.574-.4-1.149-.82-1.723-1.24l-1.723-1.259c-1.148-.825-2.3-1.707-3.445-2.582l-6.889-5.254-6.89-5.324-6.89-5.325-1.722-1.331c-.575-.437-1.148-.843-1.723-1.266l-3.444-2.514-3.445-2.514-3.445-2.366-.861-.591-.861-.562-1.723-1.119-1.722-1.119c-.575-.364-1.149-.7-1.723-1.055l-1.722-1.047c-.574-.344-1.147-.714-1.723-1.025l-3.445-1.939c-2.3-1.258-4.593-2.438-6.89-3.507l-.861-.407-.862-.386c-.574-.254-1.149-.521-1.723-.765-1.148-.481-2.293-.977-3.445-1.414-1.148-.464-2.3-.871-3.444-1.289-.574-.212-1.148-.389-1.723-.584s-1.148-.393-1.722-.561q-1.564-.495-3.128-.929a41.248,41.248,0,0,0-9.276-1.426,12.534,12.534,0,0,0-7.721,2.955q-.545.489-1.048.992h0c-.038.041-.078.079-.118.118-2.68,2.694-4.6,5.528-7.347,6.813-4.718,2.209-9.2-.052-12.882-3.787-3.423-3.47-6.031-8.308-10.711-9.605-7.184-1.992-19-1.569-21.615-1.766-.1-.008-.2-.017-.3-.027H1940.78c-6.4.011-13.807.425-19.615,2.107-5.106,1.479-11.814,3.08-15.762.691C1899.125,238.415,1900.612,230.395,1908.806,230.973Z" transform="translate(-1881.659 -148.241)"/><path class="b" d="M1909.163,249.737c6.983-.513,9.248-2.458,14.9-3.493a98.161,98.161,0,0,1,15.5-1.418h2.395c1.5.052,2.757.049,3.822,0h20.836c7.1.11,18.724.677,22.891,3.132,4.8,2.826,7.983,7.9,14.213,8.624,3.721.435,6.992-.976,10.041-2.795h0l.02-.013q.3-.181.6-.367c4.484-2.511,10.972-1.445,13.839-.785q3.292.833,6.584,1.912c.6.183,1.2.406,1.807.613s1.2.41,1.808.641c1.2.458,2.406.9,3.613,1.41,1.2.478,2.409,1.021,3.613,1.546.6.268,1.206.558,1.808.837l.9.422.9.445c2.409,1.17,4.818,2.46,7.227,3.836l3.613,2.12c.6.34,1.2.745,1.806,1.121l1.807,1.146c.6.385,1.2.754,1.807,1.154l1.807,1.223,1.807,1.224.9.615.9.646,3.614,2.588,3.613,2.749,3.614,2.749c.6.464,1.2.907,1.806,1.384l1.807,1.456,7.227,5.823,7.228,5.823,7.226,5.746c1.205.957,2.409,1.921,3.614,2.824l1.807,1.377c.6.458,1.2.923,1.807,1.357l3.613,2.645,3.614,2.515.9.627.9.59,1.807,1.179,1.807,1.175,1.807,1.092q3.615,2.229,7.227,4.129,3.614,1.881,7.227,3.463c2.409,1.036,4.818,1.959,7.227,2.79a80.648,80.648,0,0,0,28.907,4.308,68.042,68.042,0,0,0,28.908-8.009c1.2-.613,2.408-1.287,3.614-1.967l1.806-1.062,1.807-1.145c1.2-.774,2.41-1.5,3.614-2.37l1.807-1.257.9-.628c.3-.211.6-.447.9-.669,1.2-.911,2.409-1.787,3.613-2.728l3.614-2.884,7.226-6.176.455-.386.452-.406.9-.819,1.807-1.637,3.613-3.274,7.227-6.621,7.22-6.63,1.807-1.658c.6-.536,1.2-1.045,1.806-1.567l3.614-3.122c2.41-2.125,4.818-4.07,7.227-5.981l3.614-2.773,3.613-2.594c.6-.448,1.2-.825,1.807-1.229l1.807-1.2c1.2-.819,2.408-1.548,3.613-2.288,2.409-1.451,4.818-2.768,7.228-3.977,1.42-.713,2.841-1.371,4.262-1.991,3.012-1.173,5.026-.582,6.034-.055.243.176.5.346.759.511h0a12.68,12.68,0,0,0,4.428,1.693c7.962,1.564,13.613-6.572,21.333-2.152s10.594,20.031,22.564,17.384c8.922-1.973,8.921-11.331,16.083-20.594,2.349-3.039,8.629-4.753,14.25-5.7.192-.024.412-.059.68-.112,1.058-.169,2.085-.312,3.05-.432,5.377-.556,13-.584,14.107-.586h106.328c6.653.087,15.222.422,20.961,2.155,5.356,1.617,11.2,3.911,16.7.781,6.569-3.74,2.9-14.906-9.863-11.845-5.271,1.264-7.721,1.756-11.591,2.637a76.807,76.807,0,0,1-16.67,1.936l-.119.014H2394.421c-7.473-.251-19.343,0-19.343,0h-.306c-2.8-.021-24.5-.636-39.871-14.571-5.8-5.255-11.987-16.041-22.921-13.868-7.968,1.583-8.979,8.4-15.4,12.618a13.141,13.141,0,0,1-13.238-.59l-1.005-.667c-.278-.2-.545-.376-.8-.533-.334-.222-.669-.448-1-.7l-3.613-2.594-3.614-2.773c-2.409-1.911-4.817-3.856-7.227-5.978l-3.614-3.123c-.6-.522-1.2-1.034-1.806-1.567l-1.807-1.657-7.226-6.632-7.227-6.622-3.613-3.274-1.807-1.637-.9-.818-.452-.406-.455-.386-7.226-6.177-3.614-2.884c-1.2-.94-2.409-1.815-3.614-2.728-.3-.222-.6-.459-.9-.67l-.9-.628-1.806-1.257c-1.205-.871-2.409-1.6-3.614-2.369l-1.807-1.145-1.807-1.063c-1.2-.68-2.409-1.354-3.614-1.967a68.031,68.031,0,0,0-28.908-8.009,80.64,80.64,0,0,0-28.907,4.308c-2.41.831-4.819,1.753-7.228,2.79q-3.614,1.581-7.226,3.462-3.614,1.9-7.227,4.129l-1.807,1.093-1.806,1.175-1.807,1.18-.9.59-.9.627-3.614,2.515-3.613,2.645c-.6.433-1.206.9-1.807,1.356l-1.808,1.377c-1.2.9-2.409,1.866-3.614,2.824l-7.226,5.746-7.228,5.823-7.227,5.824-1.807,1.456c-.6.478-1.2.922-1.807,1.384l-3.613,2.749-3.614,2.749-3.614,2.588-.9.646-.9.615-1.807,1.224-1.807,1.224c-.6.4-1.2.768-1.807,1.154l-1.807,1.146c-.6.376-1.2.78-1.807,1.121l-3.613,2.121c-2.409,1.376-4.818,2.666-7.227,3.836l-.9.445-.9.422c-.6.278-1.2.569-1.808.837-1.2.526-2.405,1.069-3.614,1.546-1.2.507-2.408.952-3.613,1.41-.6.232-1.205.426-1.808.638s-1.2.43-1.807.613q-1.641.541-3.281,1.016a41.643,41.643,0,0,1-9.73,1.56,12.827,12.827,0,0,1-8.1-3.232q-.571-.535-1.1-1.085h0c-.04-.045-.082-.086-.123-.129-2.811-2.947-4.828-6.046-7.707-7.451-4.949-2.416-9.648.057-13.512,4.142-3.591,3.8-6.327,9.086-11.235,10.5-7.535,2.178-19.932,1.716-22.673,1.931-.109.008-.214.019-.318.03H1942.7c-6.717-.012-14.482-.465-20.574-2.3-5.356-1.617-12.392-3.368-16.534-.756C1899.008,241.6,1900.568,250.37,1909.163,249.737Z" transform="translate(-1901.524 -155.787)"/></g></svg>