<svg xmlns="http://www.w3.org/2000/svg" width="1124.285" height="460.556" viewBox="0 0 1124.285 460.556">
  <g id="Page_03_img_01" transform="translate(-58.181 175.643)">
    <g id="Group_3085" data-name="Group 3085" transform="translate(305.346 -175.643)">
      <path id="Path_3305" data-name="Path 3305" d="M251.962-63.846v-.885A7.591,7.591,0,0,0,251.962-63.846Z" transform="translate(-251.95 206.207)" fill="none"/>
      <path id="Path_3306" data-name="Path 3306" d="M583.786-65.412v1.657A9.01,9.01,0,0,0,583.786-65.412Z" transform="translate(-160.506 206.02)" fill="none"/>
      <path id="Path_3307" data-name="Path 3307" d="M675.227-33.379v-1.657c.435-9.756-11.151-11.975-11.151-11.975q-1.776-.419-3.526-.948-5.18-1.425-10.36-3.334c-.864-.295-1.727-.652-2.591-.983s-1.727-.658-2.591-1.031l-1.313-.556c-1.289-.546-2.578-1.1-3.868-1.708-1.727-.767-3.449-1.638-5.18-2.482-.865-.43-1.727-.9-2.592-1.344l-1.295-.677-1.295-.716c-3.454-1.878-6.907-3.95-10.361-6.16l-5.18-3.4c-.864-.546-1.726-1.2-2.591-1.8l-2.589-1.839c-.864-.62-1.727-1.212-2.591-1.853l-2.591-1.964-2.589-1.966-1.3-.987L598.385-81.8l-5.179-4.156-5.181-4.415-5.18-4.415c-.863-.746-1.727-1.457-2.591-2.223l-2.589-2.339L567.308-108.7l-10.36-9.351-10.361-9.227c-1.727-1.537-3.448-3.084-5.18-4.535l-2.591-2.211c-.864-.736-1.727-1.482-2.591-2.179l-5.18-4.246-5.18-4.04L524.57-145.5l-1.3-.946-2.589-1.894-2.592-1.888L515.5-151.98q-5.18-3.578-10.361-6.63-5.179-3.021-10.36-5.56c-3.454-1.665-6.908-3.147-10.361-4.481a104.276,104.276,0,0,0-41.443-6.919c-13.814.619-27.629,4.814-41.443,12.863-1.727.983-3.453,2.068-5.18,3.158l-2.591,1.707L391.172-156c-1.727,1.242-3.448,2.41-5.18,3.806l-2.589,2.017-1.3,1.009c-.431.339-.864.718-1.3,1.075-1.727,1.463-3.453,2.869-5.18,4.38l-5.18,4.63-10.36,9.919-.653.62-.647.653-1.3,1.315L354.9-123.95l-5.18,5.259-10.36,10.632L329-97.412l-2.591,2.663c-.864.86-1.727,1.677-2.591,2.517l-5.18,5.014c-3.453,3.413-6.907,6.536-10.36,9.605L303.1-73.16l-5.18,4.166c-.864.718-1.727,1.324-2.591,1.973L292.742-65.1c-1.727,1.316-3.449,2.487-5.18,3.675-3.453,2.329-6.907,4.444-10.36,6.387s-6.908,3.653-10.361,5.184c-.862.372-1.727.777-2.589,1.114L261.66-47.7l-.117.043a15.951,15.951,0,0,0-9.583,13.493v.885c.116,2.359,1.226,8.881,9.7,12.633l2.591,1.033c.862.337,1.727.746,2.589,1.114,3.453,1.531,6.907,3.23,10.361,5.184s6.907,4.052,10.36,6.386c1.727,1.188,3.453,2.359,5.18,3.675l2.589,1.925c.865.652,1.727,1.255,2.591,1.973l5.18,4.167,5.181,4.452c3.453,3.069,6.907,6.193,10.36,9.6l5.18,5.014c.864.839,1.727,1.661,2.591,2.517L329,29.054l10.36,10.651L349.726,50.34l5.18,5.258,2.593,2.646,1.3,1.314.648.653.652.62,10.361,9.919,5.179,4.632c1.727,1.509,3.454,2.915,5.181,4.38.432.357.862.736,1.295,1.075l1.3,1.009L386,83.863c1.727,1.4,3.453,2.563,5.18,3.805l2.591,1.838,2.589,1.708c1.727,1.092,3.453,2.175,5.181,3.158,13.813,8.05,27.629,12.245,41.443,12.863a104.3,104.3,0,0,0,41.443-6.917c3.453-1.334,6.907-2.816,10.36-4.481q5.181-2.539,10.361-5.56,5.18-3.054,10.36-6.63l2.591-1.755L520.69,80l2.591-1.894,1.295-.946,1.295-1.006,5.181-4.038,5.18-4.248c.864-.7,1.727-1.441,2.591-2.179l2.589-2.211c1.727-1.449,3.454-3,5.181-4.535l10.36-9.227,10.355-9.354,10.361-9.352,2.589-2.338c.864-.768,1.727-1.48,2.591-2.223l5.18-4.415,5.181-4.415,5.179-4.157,1.295-1.037,1.3-.987,2.589-1.966,2.591-1.966c.864-.638,1.727-1.233,2.591-1.852l2.589-1.841c.865-.6,1.727-1.254,2.591-1.8l5.18-3.406c3.454-2.209,6.907-4.282,10.361-6.16l1.295-.714,1.295-.679c.864-.446,1.727-.913,2.592-1.343,1.727-.844,3.448-1.717,5.18-2.484,1.727-.815,3.454-1.529,5.18-2.264.864-.372,1.727-.684,2.591-1.026s1.727-.689,2.591-.983q5.18-1.915,10.36-3.336c.323-.1.649-.179.973-.27.422-.128.879-.259,1.412-.392C673.218-23.614,674.981-30.264,675.227-33.379Z" transform="translate(-251.947 175.643)" fill="#0063af"/>
    </g>
    <g id="Group_3086" data-name="Group 3086" transform="translate(759.15 -175.643)">
      <path id="Path_3308" data-name="Path 3308" d="M607.727-63.846v-.885A7.6,7.6,0,0,0,607.727-63.846Z" transform="translate(-607.715 206.207)" fill="none"/>
      <path id="Path_3309" data-name="Path 3309" d="M939.551-65.412v1.657A9.01,9.01,0,0,0,939.551-65.412Z" transform="translate(-516.271 206.02)" fill="none"/>
      <path id="Path_3310" data-name="Path 3310" d="M1030.993-33.379v-1.657c.435-9.756-11.151-11.975-11.151-11.975q-1.776-.419-3.526-.948-5.18-1.425-10.361-3.334c-.862-.295-1.726-.652-2.589-.983s-1.727-.658-2.591-1.031l-1.313-.556c-1.29-.546-2.578-1.1-3.867-1.708-1.727-.767-3.449-1.638-5.181-2.482-.864-.43-1.727-.9-2.591-1.344l-1.295-.677-1.3-.716c-3.453-1.878-6.906-3.95-10.36-6.16l-5.18-3.4c-.865-.546-1.727-1.2-2.591-1.8l-2.591-1.839c-.862-.62-1.726-1.212-2.589-1.853l-2.591-1.964-2.591-1.966-1.295-.987L954.15-81.8l-5.18-4.156-5.18-4.415-5.18-4.415c-.865-.746-1.727-1.457-2.591-2.223l-2.591-2.339L923.073-108.7l-10.361-9.351-10.36-9.227c-1.727-1.537-3.449-3.084-5.18-4.535l-2.591-2.211c-.864-.736-1.727-1.482-2.591-2.179l-5.18-4.246-5.18-4.04-1.295-1.006-1.3-.946-2.591-1.894-2.591-1.888-2.591-1.754q-5.179-3.578-10.36-6.63-5.181-3.021-10.361-5.56c-3.453-1.665-6.907-3.147-10.36-4.481a104.277,104.277,0,0,0-41.443-6.919c-13.816.619-27.629,4.814-41.443,12.863-1.727.983-3.453,2.068-5.18,3.158l-2.591,1.707L746.937-156c-1.727,1.242-3.448,2.41-5.18,3.806l-2.591,2.017-1.295,1.009c-.432.339-.864.718-1.3,1.075-1.727,1.463-3.453,2.869-5.18,4.38l-5.18,4.63-10.36,9.919-.653.62-.648.653-1.295,1.315-2.591,2.629-5.18,5.259-10.361,10.632L684.768-97.412l-2.589,2.663c-.864.86-1.727,1.677-2.591,2.517l-5.18,5.014c-3.454,3.413-6.909,6.536-10.361,9.605l-5.18,4.453-5.18,4.166c-.865.718-1.727,1.324-2.591,1.973L648.505-65.1c-1.726,1.316-3.448,2.487-5.179,3.675-3.453,2.329-6.907,4.444-10.361,6.387s-6.907,3.653-10.36,5.184c-.864.372-1.727.777-2.591,1.114L617.425-47.7l-.117.043a15.946,15.946,0,0,0-9.583,13.493v.885c.115,2.359,1.226,8.881,9.7,12.633l2.589,1.033c.864.337,1.727.746,2.591,1.114,3.453,1.531,6.907,3.23,10.36,5.184s6.908,4.052,10.361,6.386c1.727,1.188,3.453,2.359,5.179,3.675L651.1-1.332c.864.652,1.727,1.255,2.591,1.973l5.18,4.167,5.18,4.452c3.453,3.069,6.907,6.193,10.361,9.6l5.18,5.014c.864.839,1.726,1.661,2.591,2.517l2.589,2.662L695.13,39.705,705.49,50.34l5.181,5.258,2.593,2.646,1.3,1.314.648.653.652.62,10.361,9.919L731.4,75.38c1.727,1.509,3.453,2.915,5.18,4.38.432.357.864.736,1.3,1.075l1.3,1.009,2.589,2.018c1.727,1.4,3.454,2.563,5.181,3.805l2.589,1.838,2.591,1.708c1.727,1.092,3.453,2.175,5.18,3.158,13.814,8.05,27.629,12.245,41.443,12.863a104.3,104.3,0,0,0,41.443-6.917c3.454-1.334,6.909-2.816,10.361-4.481q5.18-2.539,10.36-5.56,5.182-3.054,10.361-6.63l2.589-1.755L876.455,80l2.591-1.894,1.295-.946,1.295-1.006,5.18-4.038L892,67.87c.862-.7,1.727-1.441,2.589-2.179l2.591-2.211c1.727-1.449,3.453-3,5.18-4.535l10.361-9.227,10.355-9.354,10.36-9.352,2.591-2.338c.864-.768,1.726-1.48,2.591-2.223l5.18-4.415,5.18-4.415,5.18-4.157,1.295-1.037,1.295-.987,2.591-1.966,2.591-1.966c.864-.638,1.727-1.233,2.589-1.852l2.591-1.841c.864-.6,1.726-1.254,2.591-1.8l5.18-3.406c3.454-2.209,6.907-4.282,10.36-6.16l1.3-.714,1.295-.679c.864-.446,1.727-.913,2.591-1.343,1.727-.844,3.449-1.717,5.181-2.484,1.727-.815,3.454-1.529,5.18-2.264.864-.372,1.726-.684,2.591-1.026s1.727-.689,2.589-.983q5.181-1.915,10.361-3.336c.323-.1.649-.179.973-.27.422-.128.879-.259,1.412-.392C1028.984-23.614,1030.746-30.264,1030.993-33.379Z" transform="translate(-607.712 175.643)" fill="#0063af"/>
    </g>
    <g id="Group_3087" data-name="Group 3087" transform="translate(305.346 -175.643)">
      <path id="Path_3311" data-name="Path 3311" d="M251.962-63.846v-.885A7.591,7.591,0,0,0,251.962-63.846Z" transform="translate(-251.95 206.207)" fill="none"/>
      <path id="Path_3312" data-name="Path 3312" d="M583.786-65.412v1.657A9.01,9.01,0,0,0,583.786-65.412Z" transform="translate(-160.506 206.02)" fill="none"/>
      <path id="Path_3313" data-name="Path 3313" d="M675.227-33.379v-1.657c.435-9.756-11.151-11.975-11.151-11.975q-1.776-.419-3.526-.948-5.18-1.425-10.36-3.334c-.864-.295-1.727-.652-2.591-.983s-1.727-.658-2.591-1.031l-1.313-.556c-1.289-.546-2.578-1.1-3.868-1.708-1.727-.767-3.449-1.638-5.18-2.482-.865-.43-1.727-.9-2.592-1.344l-1.295-.677-1.295-.716c-3.454-1.878-6.907-3.95-10.361-6.16l-5.18-3.4c-.864-.546-1.726-1.2-2.591-1.8l-2.589-1.839c-.864-.62-1.727-1.212-2.591-1.853l-2.591-1.964-2.589-1.966-1.3-.987L598.385-81.8l-5.179-4.156-5.181-4.415-5.18-4.415c-.863-.746-1.727-1.457-2.591-2.223l-2.589-2.339L567.308-108.7l-10.36-9.351-10.361-9.227c-1.727-1.537-3.448-3.084-5.18-4.535l-2.591-2.211c-.864-.736-1.727-1.482-2.591-2.179l-5.18-4.246-5.18-4.04L524.57-145.5l-1.3-.946-2.589-1.894-2.592-1.888L515.5-151.98q-5.18-3.578-10.361-6.63-5.179-3.021-10.36-5.56c-3.454-1.665-6.908-3.147-10.361-4.481a104.276,104.276,0,0,0-41.443-6.919c-13.814.619-27.629,4.814-41.443,12.863-1.727.983-3.453,2.068-5.18,3.158l-2.591,1.707L391.172-156c-1.727,1.242-3.448,2.41-5.18,3.806l-2.589,2.017-1.3,1.009c-.431.339-.864.718-1.3,1.075-1.727,1.463-3.453,2.869-5.18,4.38l-5.18,4.63-10.36,9.919-.653.62-.647.653-1.3,1.315L354.9-123.95l-5.18,5.259-10.36,10.632L329-97.412l-2.591,2.663c-.864.86-1.727,1.677-2.591,2.517l-5.18,5.014c-3.453,3.413-6.907,6.536-10.36,9.605L303.1-73.16l-5.18,4.166c-.864.718-1.727,1.324-2.591,1.973L292.742-65.1c-1.727,1.316-3.449,2.487-5.18,3.675-3.453,2.329-6.907,4.444-10.36,6.387s-6.908,3.653-10.361,5.184c-.862.372-1.727.777-2.589,1.114L261.66-47.7l-.117.043a15.951,15.951,0,0,0-9.583,13.493v.885c.116,2.359,1.226,8.881,9.7,12.633l2.591,1.033c.862.337,1.727.746,2.589,1.114,3.453,1.531,6.907,3.23,10.361,5.184s6.907,4.052,10.36,6.386c1.727,1.188,3.453,2.359,5.18,3.675l2.589,1.925c.865.652,1.727,1.255,2.591,1.973l5.18,4.167,5.181,4.452c3.453,3.069,6.907,6.193,10.36,9.6l5.18,5.014c.864.839,1.727,1.661,2.591,2.517L329,29.054l10.36,10.651L349.726,50.34l5.18,5.258,2.593,2.646,1.3,1.314.648.653.652.62,10.361,9.919,5.179,4.632c1.727,1.509,3.454,2.915,5.181,4.38.432.357.862.736,1.295,1.075l1.3,1.009L386,83.863c1.727,1.4,3.453,2.563,5.18,3.805l2.591,1.838,2.589,1.708c1.727,1.092,3.453,2.175,5.181,3.158,13.813,8.05,27.629,12.245,41.443,12.863a104.3,104.3,0,0,0,41.443-6.917c3.453-1.334,6.907-2.816,10.36-4.481q5.181-2.539,10.361-5.56,5.18-3.054,10.36-6.63l2.591-1.755L520.69,80l2.591-1.894,1.295-.946,1.295-1.006,5.181-4.038,5.18-4.248c.864-.7,1.727-1.441,2.591-2.179l2.589-2.211c1.727-1.449,3.454-3,5.181-4.535l10.36-9.227,10.355-9.354,10.361-9.352,2.589-2.338c.864-.768,1.727-1.48,2.591-2.223l5.18-4.415,5.181-4.415,5.179-4.157,1.295-1.037,1.3-.987,2.589-1.966,2.591-1.966c.864-.638,1.727-1.233,2.591-1.852l2.589-1.841c.865-.6,1.727-1.254,2.591-1.8l5.18-3.406c3.454-2.209,6.907-4.282,10.361-6.16l1.295-.714,1.295-.679c.864-.446,1.727-.913,2.592-1.343,1.727-.844,3.448-1.717,5.18-2.484,1.727-.815,3.454-1.529,5.18-2.264.864-.372,1.727-.684,2.591-1.026s1.727-.689,2.591-.983q5.18-1.915,10.36-3.336c.323-.1.649-.179.973-.27.422-.128.879-.259,1.412-.392C673.218-23.614,674.981-30.264,675.227-33.379Z" transform="translate(-251.947 175.643)" fill="#0063af"/>
    </g>
    <g id="Group_3088" data-name="Group 3088" transform="translate(759.15 -175.643)">
      <path id="Path_3314" data-name="Path 3314" d="M607.727-63.846v-.885A7.6,7.6,0,0,0,607.727-63.846Z" transform="translate(-607.715 206.207)" fill="none"/>
      <path id="Path_3315" data-name="Path 3315" d="M939.551-65.412v1.657A9.01,9.01,0,0,0,939.551-65.412Z" transform="translate(-516.271 206.02)" fill="none"/>
      <path id="Path_3316" data-name="Path 3316" d="M1030.993-33.379v-1.657c.435-9.756-11.151-11.975-11.151-11.975q-1.776-.419-3.526-.948-5.18-1.425-10.361-3.334c-.862-.295-1.726-.652-2.589-.983s-1.727-.658-2.591-1.031l-1.313-.556c-1.29-.546-2.578-1.1-3.867-1.708-1.727-.767-3.449-1.638-5.181-2.482-.864-.43-1.727-.9-2.591-1.344l-1.295-.677-1.3-.716c-3.453-1.878-6.906-3.95-10.36-6.16l-5.18-3.4c-.865-.546-1.727-1.2-2.591-1.8l-2.591-1.839c-.862-.62-1.726-1.212-2.589-1.853l-2.591-1.964-2.591-1.966-1.295-.987L954.15-81.8l-5.18-4.156-5.18-4.415-5.18-4.415c-.865-.746-1.727-1.457-2.591-2.223l-2.591-2.339L923.073-108.7l-10.361-9.351-10.36-9.227c-1.727-1.537-3.449-3.084-5.18-4.535l-2.591-2.211c-.864-.736-1.727-1.482-2.591-2.179l-5.18-4.246-5.18-4.04-1.295-1.006-1.3-.946-2.591-1.894-2.591-1.888-2.591-1.754q-5.179-3.578-10.36-6.63-5.181-3.021-10.361-5.56c-3.453-1.665-6.907-3.147-10.36-4.481a104.277,104.277,0,0,0-41.443-6.919c-13.816.619-27.629,4.814-41.443,12.863-1.727.983-3.453,2.068-5.18,3.158l-2.591,1.707L746.937-156c-1.727,1.242-3.448,2.41-5.18,3.806l-2.591,2.017-1.295,1.009c-.432.339-.864.718-1.3,1.075-1.727,1.463-3.453,2.869-5.18,4.38l-5.18,4.63-10.36,9.919-.653.62-.648.653-1.295,1.315-2.591,2.629-5.18,5.259-10.361,10.632L684.768-97.412l-2.589,2.663c-.864.86-1.727,1.677-2.591,2.517l-5.18,5.014c-3.454,3.413-6.909,6.536-10.361,9.605l-5.18,4.453-5.18,4.166c-.865.718-1.727,1.324-2.591,1.973L648.505-65.1c-1.726,1.316-3.448,2.487-5.179,3.675-3.453,2.329-6.907,4.444-10.361,6.387s-6.907,3.653-10.36,5.184c-.864.372-1.727.777-2.591,1.114L617.425-47.7l-.117.043a15.946,15.946,0,0,0-9.583,13.493v.885c.115,2.359,1.226,8.881,9.7,12.633l2.589,1.033c.864.337,1.727.746,2.591,1.114,3.453,1.531,6.907,3.23,10.36,5.184s6.908,4.052,10.361,6.386c1.727,1.188,3.453,2.359,5.179,3.675L651.1-1.332c.864.652,1.727,1.255,2.591,1.973l5.18,4.167,5.18,4.452c3.453,3.069,6.907,6.193,10.361,9.6l5.18,5.014c.864.839,1.726,1.661,2.591,2.517l2.589,2.662L695.13,39.705,705.49,50.34l5.181,5.258,2.593,2.646,1.3,1.314.648.653.652.62,10.361,9.919L731.4,75.38c1.727,1.509,3.453,2.915,5.18,4.38.432.357.864.736,1.3,1.075l1.3,1.009,2.589,2.018c1.727,1.4,3.454,2.563,5.181,3.805l2.589,1.838,2.591,1.708c1.727,1.092,3.453,2.175,5.18,3.158,13.814,8.05,27.629,12.245,41.443,12.863a104.3,104.3,0,0,0,41.443-6.917c3.454-1.334,6.909-2.816,10.361-4.481q5.18-2.539,10.36-5.56,5.182-3.054,10.361-6.63l2.589-1.755L876.455,80l2.591-1.894,1.295-.946,1.295-1.006,5.18-4.038L892,67.87c.862-.7,1.727-1.441,2.589-2.179l2.591-2.211c1.727-1.449,3.453-3,5.18-4.535l10.361-9.227,10.355-9.354,10.36-9.352,2.591-2.338c.864-.768,1.726-1.48,2.591-2.223l5.18-4.415,5.18-4.415,5.18-4.157,1.295-1.037,1.295-.987,2.591-1.966,2.591-1.966c.864-.638,1.727-1.233,2.589-1.852l2.591-1.841c.864-.6,1.726-1.254,2.591-1.8l5.18-3.406c3.454-2.209,6.907-4.282,10.36-6.16l1.3-.714,1.295-.679c.864-.446,1.727-.913,2.591-1.343,1.727-.844,3.449-1.717,5.181-2.484,1.727-.815,3.454-1.529,5.18-2.264.864-.372,1.726-.684,2.591-1.026s1.727-.689,2.589-.983q5.181-1.915,10.361-3.336c.323-.1.649-.179.973-.27.422-.128.879-.259,1.412-.392C1028.984-23.614,1030.746-30.264,1030.993-33.379Z" transform="translate(-607.712 175.643)" fill="#0063af"/>
    </g>
    <g id="Group_3089" data-name="Group 3089" transform="translate(305.346 -175.643)">
      <path id="Path_3317" data-name="Path 3317" d="M251.962-63.846v-.885A7.591,7.591,0,0,0,251.962-63.846Z" transform="translate(-251.95 206.207)" fill="none"/>
      <path id="Path_3318" data-name="Path 3318" d="M583.786-65.412v1.657A9.01,9.01,0,0,0,583.786-65.412Z" transform="translate(-160.506 206.02)" fill="none"/>
      <path id="Path_3319" data-name="Path 3319" d="M675.227-33.379v-1.657c.435-9.756-11.151-11.975-11.151-11.975q-1.776-.419-3.526-.948-5.18-1.425-10.36-3.334c-.864-.295-1.727-.652-2.591-.983s-1.727-.658-2.591-1.031l-1.313-.556c-1.289-.546-2.578-1.1-3.868-1.708-1.727-.767-3.449-1.638-5.18-2.482-.865-.43-1.727-.9-2.592-1.344l-1.295-.677-1.295-.716c-3.454-1.878-6.907-3.95-10.361-6.16l-5.18-3.4c-.864-.546-1.726-1.2-2.591-1.8l-2.589-1.839c-.864-.62-1.727-1.212-2.591-1.853l-2.591-1.964-2.589-1.966-1.3-.987L598.385-81.8l-5.179-4.156-5.181-4.415-5.18-4.415c-.863-.746-1.727-1.457-2.591-2.223l-2.589-2.339L567.308-108.7l-10.36-9.351-10.361-9.227c-1.727-1.537-3.448-3.084-5.18-4.535l-2.591-2.211c-.864-.736-1.727-1.482-2.591-2.179l-5.18-4.246-5.18-4.04L524.57-145.5l-1.3-.946-2.589-1.894-2.592-1.888L515.5-151.98q-5.18-3.578-10.361-6.63-5.179-3.021-10.36-5.56c-3.454-1.665-6.908-3.147-10.361-4.481a104.276,104.276,0,0,0-41.443-6.919c-13.814.619-27.629,4.814-41.443,12.863-1.727.983-3.453,2.068-5.18,3.158l-2.591,1.707L391.172-156c-1.727,1.242-3.448,2.41-5.18,3.806l-2.589,2.017-1.3,1.009c-.431.339-.864.718-1.3,1.075-1.727,1.463-3.453,2.869-5.18,4.38l-5.18,4.63-10.36,9.919-.653.62-.647.653-1.3,1.315L354.9-123.95l-5.18,5.259-10.36,10.632L329-97.412l-2.591,2.663c-.864.86-1.727,1.677-2.591,2.517l-5.18,5.014c-3.453,3.413-6.907,6.536-10.36,9.605L303.1-73.16l-5.18,4.166c-.864.718-1.727,1.324-2.591,1.973L292.742-65.1c-1.727,1.316-3.449,2.487-5.18,3.675-3.453,2.329-6.907,4.444-10.36,6.387s-6.908,3.653-10.361,5.184c-.862.372-1.727.777-2.589,1.114L261.66-47.7l-.117.043a15.951,15.951,0,0,0-9.583,13.493v.885c.116,2.359,1.226,8.881,9.7,12.633l2.591,1.033c.862.337,1.727.746,2.589,1.114,3.453,1.531,6.907,3.23,10.361,5.184s6.907,4.052,10.36,6.386c1.727,1.188,3.453,2.359,5.18,3.675l2.589,1.925c.865.652,1.727,1.255,2.591,1.973l5.18,4.167,5.181,4.452c3.453,3.069,6.907,6.193,10.36,9.6l5.18,5.014c.864.839,1.727,1.661,2.591,2.517L329,29.054l10.36,10.651L349.726,50.34l5.18,5.258,2.593,2.646,1.3,1.314.648.653.652.62,10.361,9.919,5.179,4.632c1.727,1.509,3.454,2.915,5.181,4.38.432.357.862.736,1.295,1.075l1.3,1.009L386,83.863c1.727,1.4,3.453,2.563,5.18,3.805l2.591,1.838,2.589,1.708c1.727,1.092,3.453,2.175,5.181,3.158,13.813,8.05,27.629,12.245,41.443,12.863a104.3,104.3,0,0,0,41.443-6.917c3.453-1.334,6.907-2.816,10.36-4.481q5.181-2.539,10.361-5.56,5.18-3.054,10.36-6.63l2.591-1.755L520.69,80l2.591-1.894,1.295-.946,1.295-1.006,5.181-4.038,5.18-4.248c.864-.7,1.727-1.441,2.591-2.179l2.589-2.211c1.727-1.449,3.454-3,5.181-4.535l10.36-9.227,10.355-9.354,10.361-9.352,2.589-2.338c.864-.768,1.727-1.48,2.591-2.223l5.18-4.415,5.181-4.415,5.179-4.157,1.295-1.037,1.3-.987,2.589-1.966,2.591-1.966c.864-.638,1.727-1.233,2.591-1.852l2.589-1.841c.865-.6,1.727-1.254,2.591-1.8l5.18-3.406c3.454-2.209,6.907-4.282,10.361-6.16l1.295-.714,1.295-.679c.864-.446,1.727-.913,2.592-1.343,1.727-.844,3.448-1.717,5.18-2.484,1.727-.815,3.454-1.529,5.18-2.264.864-.372,1.727-.684,2.591-1.026s1.727-.689,2.591-.983q5.18-1.915,10.36-3.336c.323-.1.649-.179.973-.27.422-.128.879-.259,1.412-.392C673.218-23.614,674.981-30.264,675.227-33.379Z" transform="translate(-251.947 175.643)" fill="#0063af"/>
    </g>
    <g id="Group_3090" data-name="Group 3090" transform="translate(759.15 -175.643)">
      <path id="Path_3320" data-name="Path 3320" d="M607.727-63.846v-.885A7.6,7.6,0,0,0,607.727-63.846Z" transform="translate(-607.715 206.207)" fill="#66a24d"/>
      <path id="Path_3321" data-name="Path 3321" d="M939.551-65.412v1.657A9.01,9.01,0,0,0,939.551-65.412Z" transform="translate(-516.271 206.02)" fill="#66a24d"/>
      <path id="Path_3322" data-name="Path 3322" d="M1030.993-33.379v-1.657c.435-9.756-11.151-11.975-11.151-11.975q-1.776-.419-3.526-.948-5.18-1.425-10.361-3.334c-.862-.295-1.726-.652-2.589-.983s-1.727-.658-2.591-1.031l-1.313-.556c-1.29-.546-2.578-1.1-3.867-1.708-1.727-.767-3.449-1.638-5.181-2.482-.864-.43-1.727-.9-2.591-1.344l-1.295-.677-1.3-.716c-3.453-1.878-6.906-3.95-10.36-6.16l-5.18-3.4c-.865-.546-1.727-1.2-2.591-1.8l-2.591-1.839c-.862-.62-1.726-1.212-2.589-1.853l-2.591-1.964-2.591-1.966-1.295-.987L954.15-81.8l-5.18-4.156-5.18-4.415-5.18-4.415c-.865-.746-1.727-1.457-2.591-2.223l-2.591-2.339L923.073-108.7l-10.361-9.351-10.36-9.227c-1.727-1.537-3.449-3.084-5.18-4.535l-2.591-2.211c-.864-.736-1.727-1.482-2.591-2.179l-5.18-4.246-5.18-4.04-1.295-1.006-1.3-.946-2.591-1.894-2.591-1.888-2.591-1.754q-5.179-3.578-10.36-6.63-5.181-3.021-10.361-5.56c-3.453-1.665-6.907-3.147-10.36-4.481a104.277,104.277,0,0,0-41.443-6.919c-13.816.619-27.629,4.814-41.443,12.863-1.727.983-3.453,2.068-5.18,3.158l-2.591,1.707L746.937-156c-1.727,1.242-3.448,2.41-5.18,3.806l-2.591,2.017-1.295,1.009c-.432.339-.864.718-1.3,1.075-1.727,1.463-3.453,2.869-5.18,4.38l-5.18,4.63-10.36,9.919-.653.62-.648.653-1.295,1.315-2.591,2.629-5.18,5.259-10.361,10.632L684.768-97.412l-2.589,2.663c-.864.86-1.727,1.677-2.591,2.517l-5.18,5.014c-3.454,3.413-6.909,6.536-10.361,9.605l-5.18,4.453-5.18,4.166c-.865.718-1.727,1.324-2.591,1.973L648.505-65.1c-1.726,1.316-3.448,2.487-5.179,3.675-3.453,2.329-6.907,4.444-10.361,6.387s-6.907,3.653-10.36,5.184c-.864.372-1.727.777-2.591,1.114L617.425-47.7l-.117.043a15.946,15.946,0,0,0-9.583,13.493v.885c.115,2.359,1.226,8.881,9.7,12.633l2.589,1.033c.864.337,1.727.746,2.591,1.114,3.453,1.531,6.907,3.23,10.36,5.184s6.908,4.052,10.361,6.386c1.727,1.188,3.453,2.359,5.179,3.675L651.1-1.332c.864.652,1.727,1.255,2.591,1.973l5.18,4.167,5.18,4.452c3.453,3.069,6.907,6.193,10.361,9.6l5.18,5.014c.864.839,1.726,1.661,2.591,2.517l2.589,2.662L695.13,39.705,705.49,50.34l5.181,5.258,2.593,2.646,1.3,1.314.648.653.652.62,10.361,9.919L731.4,75.38c1.727,1.509,3.453,2.915,5.18,4.38.432.357.864.736,1.3,1.075l1.3,1.009,2.589,2.018c1.727,1.4,3.454,2.563,5.181,3.805l2.589,1.838,2.591,1.708c1.727,1.092,3.453,2.175,5.18,3.158,13.814,8.05,27.629,12.245,41.443,12.863a104.3,104.3,0,0,0,41.443-6.917c3.454-1.334,6.909-2.816,10.361-4.481q5.18-2.539,10.36-5.56,5.182-3.054,10.361-6.63l2.589-1.755L876.455,80l2.591-1.894,1.295-.946,1.295-1.006,5.18-4.038L892,67.87c.862-.7,1.727-1.441,2.589-2.179l2.591-2.211c1.727-1.449,3.453-3,5.18-4.535l10.361-9.227,10.355-9.354,10.36-9.352,2.591-2.338c.864-.768,1.726-1.48,2.591-2.223l5.18-4.415,5.18-4.415,5.18-4.157,1.295-1.037,1.295-.987,2.591-1.966,2.591-1.966c.864-.638,1.727-1.233,2.589-1.852l2.591-1.841c.864-.6,1.726-1.254,2.591-1.8l5.18-3.406c3.454-2.209,6.907-4.282,10.36-6.16l1.3-.714,1.295-.679c.864-.446,1.727-.913,2.591-1.343,1.727-.844,3.449-1.717,5.181-2.484,1.727-.815,3.454-1.529,5.18-2.264.864-.372,1.726-.684,2.591-1.026s1.727-.689,2.589-.983q5.181-1.915,10.361-3.336c.323-.1.649-.179.973-.27.422-.128.879-.259,1.412-.392C1028.984-23.614,1030.746-30.264,1030.993-33.379Z" transform="translate(-607.712 175.643)" fill="#66a24d"/>
    </g>
    <g id="Group_3091" data-name="Group 3091" transform="translate(58.181 1.961)">
      <path id="Path_3323" data-name="Path 3323" d="M390.035,73.809V74.7A7.272,7.272,0,0,0,390.035,73.809Z" transform="translate(33.268 66.781)" fill="#5ab7e9"/>
      <path id="Path_3324" data-name="Path 3324" d="M58.217,75.542V73.885A9.005,9.005,0,0,0,58.217,75.542Z" transform="translate(-58.181 66.802)" fill="#5ab7e9"/>
      <path id="Path_3325" data-name="Path 3325" d="M58.212,104.278v1.657c-.436,9.756,11.15,11.976,11.15,11.976q1.778.419,3.526.948,5.179,1.424,10.361,3.333c.864.295,1.726.653,2.591.985s1.727.658,2.589,1.029q.656.279,1.314.556c1.288.547,2.578,1.1,3.868,1.708,1.727.768,3.448,1.639,5.18,2.484.864.43,1.727.9,2.591,1.343l1.295.679,1.3.714c3.453,1.878,6.906,3.952,10.36,6.16l5.181,3.406c.864.546,1.726,1.2,2.589,1.8l2.591,1.839c.864.619,1.726,1.212,2.591,1.853l2.589,1.964,2.591,1.964,1.3.989,1.295,1.037,5.179,4.156,5.18,4.416,5.181,4.415c.864.746,1.727,1.455,2.589,2.223l2.591,2.338,10.356,9.351,10.36,9.351,10.36,9.227c1.727,1.537,3.449,3.086,5.181,4.535l2.591,2.212c.862.736,1.727,1.481,2.589,2.177l5.18,4.248,5.181,4.038,1.295,1.006,1.295.948,2.591,1.893,2.591,1.888,2.591,1.754q5.179,3.58,10.361,6.632,5.179,3.019,10.36,5.56c3.453,1.665,6.907,3.146,10.36,4.48a104.261,104.261,0,0,0,41.445,6.919c13.814-.617,27.629-4.814,41.443-12.862,1.727-.985,3.453-2.068,5.18-3.16l2.589-1.707,2.591-1.838c1.727-1.242,3.449-2.408,5.18-3.805l2.591-2.018,1.3-1.009c.431-.339.862-.718,1.295-1.074,1.727-1.463,3.454-2.869,5.181-4.38l5.179-4.632,10.361-9.919.652-.62.648-.652,1.3-1.315,2.589-2.629,5.181-5.259,10.36-10.633,10.359-10.647,2.591-2.662c.862-.861,1.727-1.679,2.589-2.517l5.181-5.014c3.453-3.413,6.907-6.536,10.36-9.605l5.18-4.453,5.181-4.166c.864-.719,1.727-1.325,2.589-1.975L440.7,136c1.726-1.316,3.448-2.486,5.179-3.674,3.454-2.33,6.909-4.445,10.362-6.387s6.907-3.653,10.36-5.184c.864-.372,1.727-.778,2.591-1.114l2.591-1.035c.038-.015.078-.028.116-.043a15.946,15.946,0,0,0,9.583-13.492v-.887c-.115-2.357-1.226-8.881-9.7-12.632l-2.591-1.034c-.864-.335-1.727-.745-2.591-1.114-3.453-1.531-6.907-3.23-10.36-5.183s-6.907-4.052-10.362-6.387c-1.727-1.188-3.453-2.359-5.179-3.674l-2.591-1.925c-.864-.653-1.727-1.256-2.589-1.975l-5.181-4.166-5.18-4.453c-3.453-3.069-6.907-6.193-10.36-9.6l-5.181-5.016c-.862-.839-1.726-1.66-2.589-2.517l-2.591-2.662L394.074,31.2,383.713,20.562l-5.18-5.258-2.595-2.646-1.3-1.315L374,10.691l-.653-.62L362.982.152,357.8-4.479c-1.727-1.509-3.453-2.916-5.18-4.382-.432-.356-.864-.736-1.3-1.075l-1.295-1.008-2.591-2.018c-1.727-1.4-3.453-2.563-5.18-3.806l-2.591-1.838-2.591-1.707c-1.727-1.092-3.453-2.175-5.18-3.16-13.814-8.049-27.629-12.245-41.443-12.863a104.277,104.277,0,0,0-41.443,6.919c-3.453,1.333-6.907,2.815-10.36,4.48q-5.181,2.541-10.361,5.561-5.179,3.054-10.36,6.63L215.34-10.99,212.749-9.1l-2.591,1.894-1.3.948-1.295,1.006-5.18,4.038-5.18,4.248c-.864.7-1.727,1.441-2.591,2.177l-2.591,2.212c-1.727,1.449-3.453,3-5.18,4.535l-10.36,9.227-10.355,9.354L155.77,39.889l-2.591,2.337c-.862.769-1.726,1.481-2.589,2.223l-5.181,4.416-5.18,4.415-5.179,4.156-1.295,1.037-1.3.989-2.591,1.964-2.589,1.966c-.865.639-1.727,1.235-2.591,1.853L122.1,67.084c-.864.6-1.726,1.254-2.589,1.8l-5.181,3.406c-3.454,2.209-6.907,4.282-10.36,6.161l-1.3.714-1.295.677c-.862.446-1.727.915-2.591,1.344-1.727.844-3.449,1.716-5.18,2.482-1.727.815-3.454,1.531-5.181,2.264-.862.374-1.726.685-2.589,1.026s-1.727.69-2.591.985q-5.181,1.913-10.36,3.334c-.323.1-.651.179-.975.27-.421.129-.878.259-1.411.393C60.219,94.515,58.457,101.165,58.212,104.278Z" transform="translate(-58.176 36.408)" fill="#5ab7e9"/>
    </g>
    <g id="Group_3092" data-name="Group 3092" transform="translate(510.633 1.961)">
      <path id="Path_3326" data-name="Path 3326" d="M744.741,75.389V74.5A7.237,7.237,0,0,1,744.741,75.389Z" transform="translate(-321.437 66.972)" fill="#125d5a"/>
      <path id="Path_3327" data-name="Path 3327" d="M412.922,73.824v1.657A9.142,9.142,0,0,1,412.922,73.824Z" transform="translate(-412.886 66.785)" fill="#125d5a"/>
      <path id="Path_3328" data-name="Path 3328" d="M412.917,105.858V104.2c-.435-9.756,11.151-11.976,11.151-11.976q1.777-.419,3.526-.948,5.179-1.424,10.361-3.333c.864-.295,1.726-.653,2.591-.985s1.727-.658,2.589-1.029l1.313-.557c1.29-.546,2.579-1.1,3.869-1.707,1.727-.768,3.448-1.639,5.18-2.484.864-.43,1.727-.9,2.591-1.344l1.295-.677,1.3-.714c3.453-1.879,6.906-3.952,10.36-6.16l5.181-3.406c.864-.546,1.726-1.2,2.589-1.8l2.591-1.839c.864-.619,1.726-1.212,2.591-1.853l2.589-1.964,2.591-1.964,1.295-.989,1.295-1.037,5.18-4.156,5.18-4.416,5.18-4.415c.865-.746,1.727-1.455,2.591-2.223l2.591-2.338,10.355-9.351L531.2,21.181l10.36-9.226c1.727-1.537,3.449-3.086,5.181-4.535l2.589-2.212c.864-.736,1.727-1.481,2.591-2.177l5.18-4.248,5.181-4.038,1.295-1.006,1.295-.948L567.461-9.1l2.591-1.887,2.591-1.754q5.179-3.58,10.36-6.632,5.181-3.019,10.361-5.56c3.453-1.665,6.907-3.146,10.36-4.481a104.3,104.3,0,0,1,41.443-6.919c13.816.619,27.63,4.815,41.443,12.863,1.727.985,3.454,2.068,5.181,3.16l2.589,1.705,2.591,1.838c1.727,1.242,3.449,2.41,5.18,3.806l2.591,2.018,1.3,1.008c.431.339.862.719,1.295,1.075,1.727,1.463,3.454,2.869,5.181,4.38l5.179,4.63,10.361,9.92.652.619.648.653,1.3,1.315,2.589,2.629,5.18,5.259,10.362,10.633,10.359,10.647,2.591,2.662c.862.861,1.727,1.679,2.589,2.517l5.18,5.014c3.454,3.413,6.909,6.536,10.361,9.605l5.18,4.453,5.18,4.166c.865.719,1.727,1.324,2.591,1.975l2.591,1.925c1.726,1.315,3.448,2.486,5.179,3.674,3.454,2.33,6.908,4.445,10.361,6.387s6.907,3.653,10.36,5.184c.864.372,1.727.777,2.591,1.114l2.591,1.034c.038.015.078.028.116.043a15.946,15.946,0,0,1,9.583,13.492v.885c-.115,2.359-1.226,8.882-9.7,12.633L823.9,119.62c-.864.337-1.727.746-2.591,1.115-3.453,1.529-6.907,3.23-10.36,5.183s-6.907,4.052-10.361,6.387c-1.727,1.188-3.453,2.359-5.179,3.674l-2.591,1.925c-.864.653-1.727,1.255-2.591,1.975l-5.18,4.166-5.18,4.453c-3.453,3.069-6.907,6.192-10.361,9.6l-5.18,5.016c-.862.838-1.726,1.66-2.589,2.517l-2.591,2.662-10.361,10.65-10.36,10.634-5.18,5.258-2.594,2.646-1.3,1.315-.647.652-.653.62-10.36,9.919-5.18,4.632c-1.727,1.509-3.453,2.916-5.18,4.38-.432.357-.864.737-1.3,1.077l-1.295,1.008-2.591,2.018c-1.727,1.4-3.453,2.563-5.18,3.806l-2.591,1.838-2.591,1.707c-1.727,1.092-3.453,2.175-5.18,3.16-13.814,8.049-27.629,12.245-41.443,12.862a104.253,104.253,0,0,1-41.443-6.917c-3.453-1.334-6.907-2.815-10.361-4.48q-5.179-2.541-10.36-5.561-5.181-3.054-10.362-6.63l-2.589-1.755-2.592-1.888-2.589-1.893-1.3-.948-1.295-1.006-5.18-4.038-5.18-4.248c-.864-.7-1.727-1.441-2.591-2.179l-2.591-2.211c-1.727-1.449-3.453-3-5.18-4.535l-10.361-9.227L520.836,179.6l-10.36-9.352-2.591-2.338c-.862-.768-1.726-1.48-2.589-2.222l-5.181-4.416-5.18-4.415-5.18-4.156-1.293-1.037-1.3-.989-2.591-1.964-2.589-1.966c-.865-.639-1.727-1.235-2.591-1.853l-2.591-1.839c-.864-.6-1.726-1.254-2.589-1.8l-5.181-3.406c-3.454-2.209-6.907-4.282-10.36-6.161l-1.3-.714-1.295-.677c-.862-.446-1.727-.915-2.591-1.344-1.727-.844-3.449-1.716-5.18-2.484-1.727-.814-3.454-1.529-5.181-2.263-.862-.374-1.726-.685-2.589-1.026s-1.727-.69-2.591-.985q-5.181-1.913-10.361-3.334c-.322-.1-.649-.179-.973-.27-.421-.129-.878-.259-1.412-.393C414.926,115.621,413.163,108.971,412.917,105.858Z" transform="translate(-412.882 36.408)" fill="#125d5a"/>
    </g>
  </g>
</svg>
