<?xml version="1.0" encoding="utf-8"?>
<!-- Generator: Adobe Illustrator 25.4.1, SVG Export Plug-In . SVG Version: 6.00 Build 0)  -->
<svg version="1.1" id="Layer_1" xmlns="http://www.w3.org/2000/svg" xmlns:xlink="http://www.w3.org/1999/xlink" x="0px" y="0px"
	 viewBox="0 0 512 512" style="enable-background:new 0 0 512 512;" xml:space="preserve">
<style type="text/css">
	.st0{fill:#F1F2F2;}
	.st1{fill:#BCBEC0;}
	.st2{fill:#4379BA;}
	.st3{fill:#92C95C;}
	.st4{fill:#424142;}
	.st5{fill:#7FB847;}
	.st6{fill:#365226;}
	.st7{opacity:5.000000e-02;enable-background:new    ;}
	.st8{opacity:0.1;fill:#F1F2F2;enable-background:new    ;}
	.st9{opacity:0.1;}
	.st10{fill:#FFFFFF;}
	.st11{fill:#231F20;}
	.st12{fill:none;}
	.st13{fill:#5BA77E;}
	.st14{fill:#14213B;}
	.st15{fill:#25465B;}
	.st16{fill:#11122D;}
	.st17{fill:#1E546B;}
	.st18{fill:#A7B0AD;}
	.st19{fill:#919E9F;}
	.st20{fill:#667B84;}
	.st21{fill:#7C8C92;}
	.st22{fill:#1D334C;}
	.st23{fill:#1A3B51;}
	.st24{fill:#F8A585;}
	.st25{fill:#ED7F5B;}
	.st26{fill:#162C45;}
	.st27{fill:#E11F26;}
	.st28{fill:#6197D0;}
	.st29{fill:#2B4672;}
	.st30{fill:#203451;}
	.st31{fill:#C2D4E5;}
	.st32{fill:#E6E6E6;}
	.st33{fill:#F15E69;}
	.st34{fill:#B92028;}
	.st35{fill:#FAA41A;}
	.st36{fill:#FED700;}
	.st37{fill:#B1B4C6;}
</style>
<g id="Group_2242" transform="translate(0 0)">
	<g id="Rectangle_947">
		<rect x="334.1" y="159.2" class="st14" width="144.5" height="123.7"/>
	</g>
	<g id="Rectangle_948">
		<path class="st14" d="M336.4,156.1L336.4,156.1L336.4,156.1v199.9l0,0h-25.4l0,0V181.4C311.1,167.4,322.4,156.1,336.4,156.1
			C336.4,156.1,336.4,156.1,336.4,156.1z"/>
	</g>
	<g id="Rectangle_949">
		<path class="st15" d="M439.8,304.2v34.6l0,0H48.2c-9.6,0-17.3-7.7-17.3-17.3l0,0c0-9.6,7.7-17.3,17.3-17.3H439.8L439.8,304.2z"/>
	</g>
	<g id="Path_1940">
		<path class="st16" d="M34.5,332.1h171.6v6.7h-158C42.8,338.8,37.8,336.3,34.5,332.1z"/>
	</g>
	<g id="Path_1941">
		<path class="st17" d="M320.1,162.6c3.9-4.2,9.3-6.6,15-6.6h146v6.6H320.1z"/>
	</g>
	<g id="Rectangle_950">
		<path class="st14" d="M481.1,156.1L481.1,156.1L481.1,156.1v199.9l0,0h-25.4l0,0V181.4C455.8,167.4,467.1,156.1,481.1,156.1
			C481.1,156.1,481.1,156.1,481.1,156.1z"/>
	</g>
	<g id="Rectangle_951">
		<path class="st14" d="M459.6,304.2v34.6l0,0h-269c-9.6,0-17.3-7.7-17.3-17.3l0,0c0-9.6,7.7-17.3,17.3-17.3H459.6L459.6,304.2z"/>
	</g>
	<g id="Rectangle_952">
		<path class="st18" d="M85.9,256.5h221.8c20,0,36.2,16.2,36.2,36.2v11.5l0,0H49.7l0,0v-11.5C49.7,272.7,65.9,256.5,85.9,256.5
			C85.9,256.5,85.9,256.5,85.9,256.5z"/>
	</g>
	<g id="Group_2233" transform="translate(14.631 47.466)">
		<g id="Path_1942">
			<path class="st19" d="M137.4,253.4h5.7v-20.7c0-1.6-1.3-2.8-2.9-2.8l0,0c-1.6,0-2.8,1.3-2.8,2.8L137.4,253.4z"/>
		</g>
		<g id="Path_1943">
			<path class="st19" d="M53.6,253.4h5.7v-20.7c0-1.6-1.3-2.8-2.8-2.8l0,0c-1.6,0-2.8,1.3-2.8,2.8L53.6,253.4z"/>
		</g>
		<g id="Path_1944">
			<path class="st19" d="M125.7,253.4h5.7v-14.6c0-1.6-1.3-2.8-2.8-2.9c0,0,0,0,0,0l0,0c-1.6,0-2.8,1.3-2.9,2.8c0,0,0,0,0,0V253.4z"
				/>
		</g>
	</g>
	<g id="Path_1945">
		<path class="st18" d="M68.3,263.2c4.5-4.3,10.5-6.7,16.7-6.7h245.8c6.2,0,12.2,2.4,16.7,6.7H68.3z"/>
	</g>
	<g id="Path_1946">
		<path class="st19" d="M191.7,304.2h264v-23.5c0-13.4-10.8-24.2-24.2-24.2H216c-13.4,0-24.2,10.8-24.2,24.2V304.2z"/>
	</g>
	<g id="Rectangle_953">
		<rect x="49.7" y="297.5" class="st20" width="406.1" height="6.7"/>
	</g>
	<g id="Path_1947">
		<path class="st20" d="M294.1,240.6c5.6-9.8,16.1-15.9,27.5-15.9h106.7c11.3,0,21.8,6.1,27.5,15.9c-5.6,9.8-16.1,15.9-27.5,15.9
			H321.6C310.3,256.5,299.8,250.4,294.1,240.6z"/>
	</g>
	<g id="Path_1948">
		<path class="st21" d="M391.5,240.6c5.6-9.8,16.1-15.9,27.5-15.9h9.3c11.3,0,21.8,6.1,27.5,15.9c-5.6,9.8-16.1,15.9-27.5,15.9H419
			C407.7,256.5,397.2,250.4,391.5,240.6z"/>
	</g>
	<g id="Path_1949">
		<path class="st20" d="M307.2,226.8l6.3-6.3c6-6,14.3-9.2,22.8-8.8h64.6l-27.9,44.8h-73.5v-0.2l-0.1,0
			C296.4,245.8,299.4,234.5,307.2,226.8z"/>
	</g>
	<g id="Path_1950">
		<path class="st19" d="M365.6,255.5c-2.8-10.3,0.1-21.3,7.7-28.9l6.2-6.2c7.6-7.5,18.6-10.5,28.9-7.7c2.8,10.3-0.1,21.3-7.7,28.9
			l-6.2,6.2C386.9,255.3,375.9,258.3,365.6,255.5z"/>
	</g>
	<g id="Group_2234" transform="translate(113.192 4.535)">
		<g id="Path_1951">
			<path class="st22" d="M327.5,163.2L327.5,163.2l8.4,8.4l-8.4,8.4c-4.8-4.4-5.5-11.6-1.1-16.4C326.6,163.3,326.9,163,327.5,163.2z
				"/>
		</g>
		<g id="Path_1952">
			<path class="st22" d="M298.2,163.2L298.2,163.2l8.4,8.4l-8.4,8.4C293.6,175.3,293.6,167.8,298.2,163.2z"/>
		</g>
		<g id="Path_1953">
			<path class="st22" d="M268.9,163.2L268.9,163.2l8.4,8.4l-8.4,8.4C264.3,175.3,264.3,167.8,268.9,163.2z"/>
		</g>
		<g id="Path_1954">
			<path class="st22" d="M239.6,163.2L239.6,163.2l8.4,8.4l-8.4,8.4C235,175.3,235,167.8,239.6,163.2z"/>
		</g>
		<g id="Path_1955">
			<path class="st22" d="M210.3,163.2L210.3,163.2l8.4,8.4l-8.4,8.4C205.7,175.3,205.7,167.8,210.3,163.2z"/>
		</g>
	</g>
	<g id="Group_2235" transform="translate(118.649 12.375)">
		<g id="Path_1956">
			<path class="st22" d="M306.7,175.4L306.7,175.4l8.4,8.4l-8.4,8.4C302.1,187.5,302.1,180,306.7,175.4z"/>
		</g>
		<g id="Path_1957">
			<path class="st22" d="M277.4,175.4L277.4,175.4l8.4,8.4l-8.4,8.4C272.8,187.5,272.8,180,277.4,175.4z"/>
		</g>
		<g id="Path_1958">
			<path class="st22" d="M248.1,175.4L248.1,175.4l8.4,8.4l-8.4,8.4C243.5,187.5,243.5,180,248.1,175.4z"/>
		</g>
		<g id="Path_1959">
			<path class="st22" d="M218.8,175.4L218.8,175.4l8.4,8.4l-8.4,8.4C214.2,187.5,214.2,180,218.8,175.4z"/>
		</g>
	</g>
	<g id="Group_2236" transform="translate(9.48 71.517)">
		<g id="Rectangle_954">
			<rect x="51.7" y="267.3" class="st16" width="9.9" height="17.2"/>
		</g>
		<g id="Rectangle_955">
			<rect x="45.6" y="267.3" class="st23" width="9.9" height="17.2"/>
		</g>
		<g id="Rectangle_956">
			<rect x="45.6" y="267.3" class="st16" width="9.9" height="8.6"/>
		</g>
		<g id="Rectangle_957">
			<rect x="192.9" y="267.3" class="st16" width="9.9" height="17.2"/>
		</g>
		<g id="Rectangle_958">
			<rect x="186.8" y="267.3" class="st23" width="9.9" height="17.2"/>
		</g>
		<g id="Rectangle_959">
			<rect x="186.8" y="267.3" class="st16" width="9.9" height="8.6"/>
		</g>
	</g>
	<g id="Group_2239" transform="translate(114.383 10.708)">
		<g id="Path_1960">
			<path class="st24" d="M232,204.7c-1.9-2.5-5.5-3-8-1.1l-15.3,11.6l6.9,9.1l15.3-11.6C233.5,210.8,233.9,207.2,232,204.7z"/>
		</g>
		<g id="Path_1961">
			<path class="st16" d="M256,186.8l9.5,8.7c3.1,2.5,3.5,7,1,10.1c-0.3,0.4-0.7,0.8-1.1,1.1l-9,6.4c-1.9,1.3-4.5,1.2-6.2-0.4l-9.7-9
				L256,186.8z"/>
		</g>
		<g id="Path_1962">
			<path class="st24" d="M224,221.7c-7.9-7.3-8.4-19.7-1.1-27.6l14.6-15.8l21.2,19.5c2.5,2.3,2.7,6.3,0.4,8.9c0,0,0,0,0,0
				l-16.1,17.5c-4.1,4.5-11.1,4.8-15.5,0.6L224,221.7z"/>
		</g>
		<g id="Path_1963">
			<path class="st16" d="M268.6,184.4l-2.6-2.4c-4.7-4.4-10.9-6.7-17.4-6.6l-5.2,0.1l0,0c-4.1-3.8-10.6-3.6-14.4,0.6
				c-0.4,0.4-0.7,0.8-1,1.2l-8.4,12.5l7.8,7.2c0.9,0.9,2.4,0.8,3.3-0.1c0,0,0,0,0,0l2.6-2.9c2.4-1.8,5.8-1.7,8,0.4l3.7-6.1l8.5,7.9
				c2.7,2.6,6.4,3.7,10.1,3.2c4.7-0.5,8.1-4.7,7.7-9.4C271.2,187.8,270.2,185.8,268.6,184.4z"/>
		</g>
		<g id="Path_1964">
			<path class="st24" d="M227,188.4L227,188.4c-2.1-2.1-5.5-2.1-7.7-0.1c-2.2,2.1-2.2,5.6-0.1,7.7c0.1,0.1,0.1,0.1,0.2,0.2l3.1,2.9
				l4.7-5.1C228.7,192.4,228.6,189.9,227,188.4C227,188.4,227,188.4,227,188.4z"/>
		</g>
		<g id="Group_2237" transform="translate(9.018 15.789)">
			<g id="Path_1965">
				<path class="st25" d="M228.3,204.5c-0.2,0-0.5-0.1-0.6-0.3l-3.7-3.4c-1-0.9-1.5-2.3-1.4-3.7c0.1-0.5,0.5-0.9,1.1-0.9
					c0.5,0.1,0.9,0.5,0.9,1c-0.1,0.8,0.2,1.6,0.8,2.1l3.7,3.4c0.4,0.4,0.4,1,0.1,1.4C228.8,204.4,228.6,204.5,228.3,204.5z"/>
			</g>
			<g id="Line_5">
				<path class="st25" d="M224.2,205.5c-0.2,0-0.3-0.1-0.4-0.2l-1.8-1.6c-0.3-0.2-0.3-0.6,0-0.9s0.6-0.3,0.9,0l1.8,1.6
					c0.3,0.2,0.3,0.6,0,0.9C224.5,205.5,224.3,205.5,224.2,205.5z"/>
			</g>
		</g>
		<g id="Group_2238" transform="translate(10.81 11.152)">
			<g id="Path_1966">
				<path class="st16" d="M237.2,202.9c-0.5,0-1.1-0.2-1.6-0.5c-1.3-0.9-1.7-2.6-0.8-3.9c0.2-0.3,0.6-0.4,0.9-0.2
					c0.3,0.2,0.4,0.6,0.2,0.9c-0.2,0.3-0.3,0.8-0.2,1.2c0.1,0.4,0.3,0.8,0.7,1c0.6,0.4,1.3,0.3,1.9-0.1c0.3-0.2,0.7-0.2,0.9,0.1
					c0.2,0.3,0.2,0.7-0.1,0.9C238.5,202.6,237.8,202.9,237.2,202.9z"/>
			</g>
			<g id="Path_1967">
				<path class="st16" d="M227.7,194.1c-0.5,0-1.1-0.2-1.6-0.5c-0.6-0.4-1.1-1.1-1.2-1.8c-0.1-0.7,0-1.5,0.4-2.1
					c0.2-0.3,0.6-0.4,0.9-0.2c0.3,0.2,0.4,0.6,0.2,0.9c-0.2,0.3-0.3,0.8-0.2,1.2c0.1,0.4,0.3,0.8,0.7,1c0.6,0.4,1.3,0.3,1.8-0.1
					c0.3-0.2,0.7-0.2,0.9,0.1c0.2,0.3,0.2,0.7-0.1,0.9C229,193.9,228.4,194.1,227.7,194.1z"/>
			</g>
		</g>
	</g>
	<g id="Group_2240" transform="translate(114.128 27.366)">
		<g id="Path_1968">
			<path class="st24" d="M246.3,231.7h-12.8c-14.9,0-27.6-10.2-31-24.7l-1.6-6.5c-1-4.1,1.4-8.2,5.5-9.3c4.1-1,8.2,1.4,9.3,5.5
				l1.7,6.7c1.8,7.7,8.4,13,16.1,13h12.8c4.2,0,7.6,3.4,7.6,7.6C253.9,228.3,250.5,231.7,246.3,231.7z"/>
		</g>
		<g id="Path_1969">
			<path class="st24" d="M252,217.6h-5c-3.2,0-5.8,2.6-5.8,5.8l0,0c0,3.2,2.6,5.8,5.8,5.8l0,0h16.6
				C263.6,222.8,258.4,217.6,252,217.6z"/>
		</g>
	</g>
	<g id="Path_1970">
		<path class="st21" d="M403.9,313.8l17.6-50.5H208.8c11.2,16.1,28.5,26.8,47.9,29.6L403.9,313.8z"/>
	</g>
	<g id="Path_1971">
		<path class="st20" d="M372.6,309.3l14.8-46.1h4.8l-15,46.8L372.6,309.3z"/>
	</g>
	<g id="Group_2241" transform="translate(29.46 22.301)">
		<g id="Path_1972">
			<path class="st19" d="M76.7,234.2c0-9.3,6.5-17.3,15.5-19.3l57.4-12.6c34.7-7.6,70.2-11.5,105.7-11.5h37.2c11.1,0,20,9,20,20
				c0,0,0,0,0,0l0,0c0,12.9,10.5,23.4,23.5,23.4h5.5c0,3.7-3,6.7-6.7,6.7h-59.3c-3.7,0-6.7-3-6.7-6.7l0,0L76.7,234.2z"/>
		</g>
		<g id="Path_1973">
			<path class="st18" d="M76.7,234.2c0-6.1,2.9-11.9,7.8-15.6c5-3.8,6.2-3.4,43.2-11.5l0,0l21.9-4.8c34.7-7.6,70.2-11.5,105.7-11.5
				h37.2c4,0,7.9,1.2,11.2,3.5h-48.4c-35.3,0-70.5,3.8-104.9,11.4l-12.3,2.7c-6,1.3-10.3,6.7-10.3,12.8v13.1L76.7,234.2z"/>
		</g>
		<g id="Path_1974">
			<path class="st19" d="M94.3,234.2h32.3v-5.8h-26.6C96.9,228.4,94.3,231,94.3,234.2C94.3,234.2,94.3,234.2,94.3,234.2z"/>
		</g>
		<g id="Path_1975">
			<path class="st21" d="M122.4,228.4h10.9v-6.5c0-1.6,1.3-2.8,2.8-2.8c1.6,0,2.8,1.3,2.8,2.8c0,0,0,0,0,0v6.5h5v-6.5
				c0-1.6,1.3-2.8,2.8-2.8c1.5,0,2.8,1.3,2.8,2.8v6.5h67.7v-13.2c0-1.9,1.6-3.5,3.5-3.5c1.9,0,3.5,1.6,3.5,3.5v13.2h6.5v-20.6
				c0-3.5,2.9-6.4,6.4-6.4c2,0,3.8,0.9,5,2.4l19.5,24.6h27.9v-15.7c0-1.6,1.3-2.8,2.8-2.8c1.5,0,2.8,1.3,2.8,2.8v15.7h25.4
				c4.1,3.6,9.4,5.7,15,5.8H116.6C116.6,231,119.2,228.4,122.4,228.4C122.4,228.4,122.4,228.4,122.4,228.4z"/>
		</g>
		<g id="Path_1976">
			<path class="st20" d="M279.8,234.2v-24.6c0-10.4-8.4-18.8-18.8-18.8c-0.1,0-0.3,0-0.4-0.1h14c6.1,4.4,9.7,11.4,9.7,18.9v24.6
				H279.8z"/>
		</g>
	</g>
</g>
</svg>
