<?xml version="1.0" encoding="utf-8"?>
<!-- Generator: Adobe Illustrator 25.4.1, SVG Export Plug-In . SVG Version: 6.00 Build 0)  -->
<svg version="1.1" id="Layer_1" xmlns="http://www.w3.org/2000/svg" xmlns:xlink="http://www.w3.org/1999/xlink" x="0px" y="0px"
	 viewBox="0 0 512 512" style="enable-background:new 0 0 512 512;" xml:space="preserve">
<style type="text/css">
	.st0{fill:#14213B;}
	.st1{fill:#25455B;}
	.st2{fill:#11122D;}
	.st3{fill:#1D556C;}
	.st4{fill:#A6AFAC;}
	.st5{fill:#909D9E;}
	.st6{fill:#667B84;}
	.st7{fill:#7C8B91;}
	.st8{fill:#1D334C;}
	.st9{fill:#193B51;}
	.st10{fill:#F7A485;}
	.st11{fill:#ED7F5B;}
	.st12{fill:#152C45;}
	.st13{fill:#B82028;}
	.st14{fill:#F9A31A;}
	.st15{fill:#FDD600;}
	.st16{fill:#B0B4C5;}
	.st17{fill:#F58A1F;}
	.st18{fill:#FFD23E;}
	.st19{fill:#F5891F;}
	.st20{fill:url(#SVGID_1_);}
	.st21{fill-rule:evenodd;clip-rule:evenodd;fill:#FFFFFF;}
	.st22{fill:#FD0000;}
	.st23{fill:#FFFFFF;}
	.st24{fill:#2967B0;}
	.st25{fill:#FDFDFD;}
	.st26{fill:#1677F0;}
	.st27{fill:#F1F2F2;}
	.st28{fill:#BCBEC0;}
	.st29{fill:#4278BA;}
	.st30{fill:#90D35B;}
	.st31{fill:#414042;}
	.st32{fill:#7FB749;}
	.st33{fill:#345118;}
	.st34{opacity:5.000000e-02;enable-background:new    ;}
	.st35{opacity:0.1;fill:#F1F2F2;enable-background:new    ;}
	.st36{opacity:0.1;}
	.st37{fill:#231F20;}
	.st38{fill:none;}
	.st39{fill:none;stroke:#5DA77E;stroke-width:7.1299;}
	.st40{fill:#5DA77E;}
	.st41{fill:#E20F23;}
	.st42{fill:none;stroke:#E20F23;stroke-width:7.1299;}
	.st43{fill:#5A98E2;}
	.st44{fill:#2B4572;}
	.st45{fill:#203451;}
	.st46{fill:#C1D3E5;}
	.st47{fill:#E6E6E6;}
	.st48{fill:#FF5C68;}
</style>
<g id="Group_2270_00000152963866550265634180000015227153006766318269_" transform="translate(-213 -378)">
	<g id="Group_2243_00000099644863202316924670000017050382623923597500_" transform="translate(95.614 611.067)">
		<g id="Group_2230-2">
			<path id="Rectangle_941-2" class="st27" d="M291.9-163.2h146.4c38,0,68.8,30.8,68.8,68.8v233.2c0,38-30.8,68.8-68.8,68.8H291.9
				c-38,0-68.8-30.8-68.8-68.8V-94.3C223.1-132.3,253.9-163.2,291.9-163.2z"/>
			<path id="Path_1867-2" class="st28" d="M432-146.8H301.2c-33.1,0-59.9,26.8-59.9,59.9c0,0,0,0,0,0V85.8c0,9.8,7.9,17.7,17.7,17.7
				h215.3c9.8,0,17.7-7.9,17.7-17.7c0,0,0,0,0,0V-86.9C492-120,465.1-146.8,432-146.8C432-146.8,432-146.8,432-146.8z"/>
			<g id="Group_2212-2">
				<path id="Rectangle_942-2" class="st29" d="M259.8,115.4h52.5c3.5,0,6.3,2.8,6.3,6.3V142c0,3.5-2.8,6.3-6.3,6.3h-52.5
					c-3.5,0-6.3-2.8-6.3-6.3v-20.3C253.5,118.2,256.3,115.4,259.8,115.4z"/>
				<path id="Rectangle_943-2" class="st29" d="M340.4,115.4h52.5c3.5,0,6.3,2.8,6.3,6.3V142c0,3.5-2.8,6.3-6.3,6.3h-52.5
					c-3.5,0-6.3-2.8-6.3-6.3v-20.3C334.1,118.2,336.9,115.4,340.4,115.4z"/>
				<path id="Rectangle_944-2" class="st29" d="M421,115.4h52.5c3.5,0,6.3,2.8,6.3,6.3V142c0,3.5-2.8,6.3-6.3,6.3H421
					c-3.5,0-6.3-2.8-6.3-6.3v-20.3C414.7,118.2,417.5,115.4,421,115.4z"/>
			</g>
			<g id="Group_2229-2">
				<g id="Group_2228-2">
					<path id="Rectangle_945-2" class="st30" d="M347-114.5h97.1c12.1,0,21.9,9.8,21.9,21.9V58.9c0,12.1-9.8,21.9-21.9,21.9H347
						c-12.1,0-21.9-9.8-21.9-21.9V-92.6C325.1-104.7,334.9-114.5,347-114.5z"/>
					<g id="Group_2213-2">
						<path id="Path_1868-2" class="st31" d="M282.7-66.8c1,0.6,2.2,1,3.4,1c2,0,3.1-1.1,3.1-2.6c0-1.4-0.8-2.2-2.8-3
							c-2.4-0.9-3.9-2.2-3.9-4.3c0.1-2.4,2.1-4.2,4.5-4.2c0.1,0,0.2,0,0.3,0c1.1,0,2.3,0.2,3.3,0.7l-0.5,1.6
							c-0.9-0.5-1.8-0.7-2.8-0.7c-2,0-2.8,1.2-2.8,2.3c0,1.4,0.9,2.1,3,2.9c2.5,1,3.8,2.2,3.8,4.5c0,2.3-1.7,4.4-5.2,4.4
							c-1.3,0-2.6-0.3-3.8-1L282.7-66.8z"/>
						<path id="Path_1869-2" class="st31" d="M297.1-64.4v-6.5l-4.7-8.8h2.2l2.1,4.2c0.6,1.2,1,2.1,1.5,3.1h0c0.4-1,0.9-2,1.5-3.1
							l2.1-4.2h2.2l-5,8.7v6.5L297.1-64.4z"/>
						<path id="Path_1870-2" class="st31" d="M305.2-66.8c1,0.6,2.2,1,3.4,1c2,0,3.1-1.1,3.1-2.6c0-1.4-0.8-2.2-2.8-3
							c-2.4-0.9-3.9-2.2-3.9-4.3c0.1-2.4,2.1-4.2,4.5-4.2c0.1,0,0.2,0,0.3,0c1.1,0,2.3,0.2,3.3,0.7l-0.5,1.6
							c-0.9-0.5-1.8-0.7-2.8-0.7c-2,0-2.8,1.2-2.8,2.3c0,1.4,0.9,2.1,3,2.9c2.5,1,3.8,2.2,3.8,4.5c0,2.3-1.7,4.4-5.2,4.4
							c-1.3,0-2.6-0.3-3.8-1L305.2-66.8z"/>
					</g>
					<g id="Group_2214-2">
						<path id="Path_1871-2" class="st31" d="M282.8-16.2c1.4-0.2,2.7-0.3,4.1-0.3c2.2-0.2,4.3,0.5,6,1.9c1.5,1.4,2.2,3.4,2.1,5.5
							c0.1,2.2-0.7,4.3-2.1,5.9c-1.8,1.6-4.2,2.4-6.6,2.2c-1.2,0-2.3-0.1-3.5-0.2V-16.2z M284.8-2.8c0.6,0.1,1.3,0.1,1.9,0.1
							c3.2,0.3,6-2,6.3-5.2c0-0.4,0-0.9,0-1.3c0.3-2.9-1.8-5.6-4.8-5.9c-0.4,0-0.8,0-1.2,0c-0.8,0-1.5,0.1-2.3,0.2V-2.8z"/>
						<path id="Path_1872-2" class="st31" d="M299.5-16.4v15.2h-1.9v-15.2H299.5z"/>
						<path id="Path_1873-2" class="st31" d="M305.2-6l-1.5,4.8h-2l5.1-15.2h2.3l5.1,15.2h-2.1L310.5-6H305.2z M310.1-7.5l-1.5-4.4
							c-0.3-1-0.6-1.9-0.8-2.8h0c-0.2,0.9-0.5,1.8-0.8,2.8l-1.5,4.4H310.1z"/>
					</g>
					<g id="Group_2215-2">
						<path id="Path_1874-2" class="st31" d="M266.2,43.6c1-0.2,2.1-0.3,3.2-0.3c1.3-0.1,2.6,0.3,3.6,1.1c0.8,0.7,1.2,1.7,1.1,2.7
							c0.1,1-0.3,2-1,2.8c-1,1-2.5,1.5-3.9,1.4c-0.4,0-0.9,0-1.3-0.1v5.2h-1.6L266.2,43.6z M267.8,49.9c0.4,0.1,0.9,0.1,1.4,0.1
							c2,0,3.2-1,3.2-2.8c0-1.7-1.2-2.6-3-2.6c-0.5,0-1,0-1.6,0.1L267.8,49.9z"/>
						<path id="Path_1875-2" class="st31" d="M277.9,43.5v7.7c0,2.9,1.3,4.2,3,4.2c1.9,0,3.1-1.3,3.1-4.2v-7.7h1.7v7.6
							c0,4-2.1,5.7-4.8,5.7c-2.6,0-4.6-1.5-4.6-5.6v-7.7L277.9,43.5z"/>
						<path id="Path_1876-2" class="st31" d="M288.5,43.5h1.6v11.6h5.5v1.4h-7.1V43.5z"/>
						<path id="Path_1877-2" class="st31" d="M297.2,54.5c0.9,0.5,1.9,0.8,3,0.9c1.7,0,2.7-0.9,2.7-2.2c0-1.2-0.7-1.9-2.4-2.6
							c-2.1-0.8-3.4-1.9-3.4-3.7c0.1-2,1.8-3.6,3.8-3.6c0.1,0,0.2,0,0.3,0c1,0,2,0.2,2.8,0.6l-0.5,1.4c-0.7-0.4-1.6-0.6-2.4-0.6
							c-1.7,0-2.4,1.1-2.4,2c0,1.2,0.8,1.8,2.5,2.5c2.2,0.9,3.3,1.9,3.3,3.8c0,2-1.5,3.8-4.5,3.8c-1.1,0-2.3-0.3-3.3-0.8L297.2,54.5
							z"/>
						<path id="Path_1878-2" class="st31" d="M313.4,50.4h-5v4.7h5.5v1.4h-7.2V43.5h6.9v1.4h-5.2V49h5L313.4,50.4z"/>
					</g>
					<g id="Group_2219-2">
						<g id="Group_2216-2">
							<path id="Path_1879-2" class="st32" d="M340.2-81.3c-1.4,1.5-2.2,3.6-2.2,5.7v15.1c0,1.5,0.4,2.9,1.1,4.2l6-3.5v-16.4
								L340.2-81.3z"/>
							<path id="Path_1880-2" class="st32" d="M367.6-55.8L367.6-55.8l-6.3-3.7h-15.7l-6.3,3.7l0,0c0,0,0,0,0,0.1l6,3.5h16.3
								L367.6-55.8C367.6-55.8,367.6-55.8,367.6-55.8z"/>
							<path id="Path_1881-2" class="st33" d="M366.7-81.3l-4.9,5.1v16.4l6,3.5c0.7-1.3,1.1-2.7,1.1-4.2v-15.1
								C369-77.7,368.2-79.7,366.7-81.3z"/>
							<path id="Path_1882-2" class="st32" d="M360.8-83.9h-14.8c-2.1,0-4.1,0.8-5.5,2.3l4.9,5h16l4.9-5
								C364.9-83.1,362.9-83.9,360.8-83.9z"/>
							<path id="Path_1883-2" class="st33" d="M367.9-55.3l-6.1,3.6v16.2l4.9,5.1c1.4-1.5,2.2-3.6,2.2-5.7v-15.1
								C368.9-52.7,368.6-54.1,367.9-55.3z"/>
							<path id="Path_1884-2" class="st32" d="M339.1-55.3c-0.7,1.3-1.1,2.7-1.1,4.1v15.1c0,2.1,0.8,4.1,2.2,5.7l4.9-5.1v-16.2
								L339.1-55.3z"/>
							<path id="Path_1885-2" class="st32" d="M361.5-35.2h-16l-4.9,5c1.5,1.4,3.5,2.3,5.5,2.3h14.8c2.1,0,4.1-0.8,5.5-2.3
								L361.5-35.2z"/>
						</g>
						<g id="Group_2217-2">
							<path id="Path_1886-2" class="st33" d="M379.1-81.3c-1.4,1.5-2.2,3.6-2.2,5.7v15.1c0,1.5,0.4,3,1.1,4.2l6-3.5v-16.4
								L379.1-81.3z"/>
							<path id="Path_1887-2" class="st33" d="M406.5-55.8L406.5-55.8l-6.3-3.7h-15.7l-6.3,3.7l0,0c0,0,0,0,0,0.1l6,3.5h16.3
								L406.5-55.8C406.5-55.8,406.5-55.8,406.5-55.8z"/>
							<path id="Path_1888-2" class="st33" d="M405.7-81.3l-4.9,5.1v16.4l6,3.5c0.7-1.3,1.1-2.7,1.1-4.2v-15.1
								C407.9-77.7,407.1-79.7,405.7-81.3z"/>
							<path id="Path_1889-2" class="st32" d="M399.8-83.9H385c-2.1,0-4.1,0.8-5.5,2.3l4.9,5h16l4.9-5
								C403.8-83.1,401.8-83.9,399.8-83.9z"/>
							<path id="Path_1890-2" class="st33" d="M406.8-55.3l-6.1,3.6v16.2l4.9,5.1c1.4-1.5,2.2-3.6,2.2-5.7v-15.1
								C407.9-52.7,407.5-54.1,406.8-55.3z"/>
							<path id="Path_1891-2" class="st32" d="M378-55.3c-0.7,1.3-1.1,2.7-1.1,4.1v15.1c0,2.1,0.8,4.1,2.2,5.7l4.9-5.1v-16.2
								L378-55.3z"/>
							<path id="Path_1892-2" class="st32" d="M400.4-35.2h-16l-4.9,5c1.5,1.4,3.5,2.3,5.5,2.3h14.8c2.1,0,4.1-0.8,5.5-2.3
								L400.4-35.2z"/>
						</g>
						<g id="Group_2218-2">
							<path id="Path_1893-2" class="st33" d="M418-81.3c-1.4,1.5-2.2,3.6-2.2,5.7v15.1c0,1.5,0.4,3,1.1,4.2l6-3.5v-16.4L418-81.3z"
								/>
							<path id="Path_1894-2" class="st32" d="M445.4-55.8L445.4-55.8l-6.3-3.7h-15.7l-6.3,3.7l0,0c0,0,0,0,0,0.1l6,3.5h16.3
								L445.4-55.8C445.5-55.8,445.4-55.8,445.4-55.8z"/>
							<path id="Path_1895-2" class="st33" d="M444.6-81.3l-4.9,5.1v16.4l6,3.5c0.7-1.3,1.1-2.7,1.1-4.2v-15.1
								C446.8-77.7,446-79.7,444.6-81.3z"/>
							<path id="Path_1896-2" class="st33" d="M438.7-83.9h-14.8c-2.1,0-4.1,0.8-5.5,2.3l4.9,5h16l4.9-5
								C442.8-83.1,440.8-83.9,438.7-83.9z"/>
							<path id="Path_1897-2" class="st33" d="M445.7-55.3l-6.1,3.6v16.2l4.9,5.1c1.4-1.5,2.2-3.6,2.2-5.7v-15.1
								C446.8-52.7,446.4-54.1,445.7-55.3z"/>
							<path id="Path_1898-2" class="st33" d="M416.9-55.3c-0.7,1.3-1.1,2.7-1.1,4.1v15.1c0,2.1,0.8,4.1,2.2,5.7l4.9-5.1v-16.2
								L416.9-55.3z"/>
							<path id="Path_1899-2" class="st33" d="M439.3-35.2h-16l-4.9,5c1.5,1.4,3.5,2.3,5.5,2.3h14.8c2.1,0,4.1-0.8,5.5-2.3
								L439.3-35.2z"/>
						</g>
					</g>
					<g id="Group_2223-2">
						<g id="Group_2220-2">
							<path id="Path_1900-2" class="st32" d="M339.4-19.7c-1.5,1.6-2.3,3.6-2.3,5.8L337,1.4c0,1.5,0.4,3,1.1,4.3l6.2-3.6l0.1-16.7
								L339.4-19.7z"/>
							<path id="Path_1901-2" class="st32" d="M367.1,6.5L367.1,6.5l-6.3-3.8l-16-0.1l-6.4,3.7l0,0c0,0,0,0,0,0.1l6.1,3.7l16.6,0.2
								L367.1,6.5C367.1,6.5,367.1,6.5,367.1,6.5z"/>
							<path id="Path_1902-2" class="st32" d="M366.5-19.5l-5.1,5.1l-0.2,16.7l6.1,3.7c0.8-1.3,1.2-2.8,1.2-4.3l0.1-15.4
								C368.7-15.8,367.9-17.9,366.5-19.5z"/>
							<path id="Path_1903-2" class="st32" d="M360.5-22.2l-15-0.1c-2.1,0-4.1,0.8-5.7,2.2l5,5.2l16.3,0.2l5.1-5.1
								C364.6-21.3,362.6-22.2,360.5-22.2z"/>
							<path id="Path_1904-2" class="st32" d="M367.4,6.9l-6.2,3.6L361,27.1l5,5.2c1.5-1.6,2.3-3.6,2.3-5.8l0.1-15.4
								C368.5,9.7,368.1,8.2,367.4,6.9z"/>
							<path id="Path_1905-2" class="st32" d="M338,6.7c-0.7,1.3-1.1,2.7-1.1,4.2l-0.1,15.4c0,2.1,0.8,4.2,2.2,5.8l5.1-5.1l0.1-16.6
								L338,6.7z"/>
							<path id="Path_1906-2" class="st32" d="M360.7,27.4l-16.3-0.2l-5.1,5.1c1.5,1.5,3.5,2.3,5.6,2.4l15,0.1
								c2.1,0,4.1-0.8,5.7-2.2L360.7,27.4z"/>
						</g>
						<g id="Group_2221-2">
							<path id="Path_1907-2" class="st33" d="M379.1-19.4c-1.5,1.6-2.3,3.6-2.3,5.8l-0.1,15.4c0,1.5,0.4,3,1.1,4.3l6.2-3.6
								l0.1-16.7L379.1-19.4z"/>
							<path id="Path_1908-2" class="st33" d="M406.8,6.8L406.8,6.8L400.4,3l-16-0.1L378,6.6l0,0c0,0,0,0,0,0.1l6.1,3.7l16.6,0.2
								L406.8,6.8C406.8,6.9,406.8,6.8,406.8,6.8z"/>
							<path id="Path_1909-2" class="st33" d="M406.1-19.1l-5.1,5.1l-0.1,16.7l6.1,3.7c0.8-1.3,1.2-2.8,1.2-4.3l0.1-15.4
								C408.4-15.5,407.6-17.5,406.1-19.1z"/>
							<path id="Path_1910-2" class="st33" d="M400.2-21.8l-15-0.1c-2.1,0-4.1,0.8-5.7,2.2l5,5.2l16.3,0.2l5.1-5.1
								C404.3-21,402.3-21.8,400.2-21.8z"/>
							<path id="Path_1911-2" class="st33" d="M407.1,7.3l-6.2,3.6l-0.1,16.6l5,5.2c1.5-1.6,2.3-3.6,2.3-5.8l0.1-15.4
								C408.1,10,407.8,8.6,407.1,7.3z"/>
							<path id="Path_1912-2" class="st32" d="M377.7,7c-0.7,1.3-1.1,2.7-1.1,4.2l-0.1,15.4c0,2.1,0.8,4.2,2.2,5.8l5.1-5.1l0.1-16.6
								L377.7,7z"/>
							<path id="Path_1913-2" class="st33" d="M400.3,27.8l-16.3-0.2l-5.1,5.1c1.5,1.5,3.5,2.3,5.6,2.4l15,0.1
								c2.1,0,4.1-0.8,5.7-2.2L400.3,27.8z"/>
						</g>
						<g id="Group_2222-2">
							<path id="Path_1914-2" class="st32" d="M418.8-19c-1.5,1.6-2.3,3.6-2.3,5.8l-0.1,15.4c0,1.5,0.4,3,1.1,4.3l6.1-3.6l0.2-16.7
								L418.8-19z"/>
							<path id="Path_1915-2" class="st32" d="M446.5,7.2L446.5,7.2l-6.3-3.8l-16-0.1l-6.4,3.7l0,0c0,0,0,0,0,0.1l6.1,3.7l16.6,0.2
								L446.5,7.2C446.5,7.2,446.5,7.2,446.5,7.2z"/>
							<path id="Path_1916-2" class="st33" d="M445.8-18.7l-5.1,5.1l-0.1,16.7l6.1,3.7c0.8-1.3,1.2-2.8,1.2-4.3l0.1-15.4
								C448-15.1,447.3-17.2,445.8-18.7z"/>
							<path id="Path_1917-2" class="st32" d="M439.8-21.5l-15-0.1c-2.1,0-4.2,0.8-5.7,2.2l5,5.2l16.3,0.2l5.1-5.1
								C444-20.6,442-21.4,439.8-21.5z"/>
							<path id="Path_1918-2" class="st33" d="M446.8,7.7l-6.2,3.6l-0.1,16.6l5,5.2c1.5-1.6,2.3-3.6,2.3-5.8l0.1-15.4
								C447.8,10.4,447.5,9,446.8,7.7z"/>
							<path id="Path_1919-2" class="st32" d="M417.4,7.4c-0.7,1.3-1.1,2.7-1.1,4.2L416.1,27c0,2.1,0.8,4.2,2.2,5.8l5.1-5.1
								l0.1-16.6L417.4,7.4z"/>
							<path id="Path_1920-2" class="st32" d="M440,28.2L423.7,28l-5.1,5.1c1.5,1.5,3.5,2.3,5.6,2.4l15,0.1c2.1,0,4.1-0.8,5.7-2.2
								L440,28.2z"/>
						</g>
					</g>
					<g id="Group_2226-2">
						<g id="Group_2224-2">
							<path id="Path_1921-2" class="st32" d="M407,42.7c-0.9,0.9-1.3,2.2-1.3,3.5v9.2c0,0.9,0.2,1.8,0.7,2.6l3.7-2.2v-10L407,42.7z
								"/>
							<path id="Path_1922-2" class="st32" d="M423.7,58.2L423.7,58.2l-3.8-2.2h-9.6l-3.8,2.2l0,0l0,0l3.7,2.2h9.9L423.7,58.2
								L423.7,58.2z"/>
							<path id="Path_1923-2" class="st33" d="M423.1,42.7l-3,3v9.9l3.6,2.1c0.5-0.8,0.7-1.7,0.7-2.6v-9.1
								C424.4,44.9,423.9,43.6,423.1,42.7z"/>
							<path id="Path_1924-2" class="st33" d="M419.5,41.1h-8.9c-1.2,0-2.4,0.5-3.3,1.4l3,3h9.6l3-3C422,41.6,420.8,41.1,419.5,41.1
								z"/>
							<path id="Path_1925-2" class="st33" d="M423.7,58.3l-3.7,2.2v9.8l3,3c0.9-0.9,1.3-2.2,1.3-3.4v-9.1
								C424.4,59.9,424.2,59.1,423.7,58.3z"/>
							<path id="Path_1926-2" class="st32" d="M406.3,58.5c-0.4,0.8-0.6,1.6-0.6,2.5v9.2c0,1.3,0.5,2.5,1.3,3.5l3-3.1v-9.9
								L406.3,58.5z"/>
							<path id="Path_1927-2" class="st32" d="M419.9,70.5h-9.6l-3,3c0.9,0.9,2.1,1.4,3.3,1.4h8.9c1.2,0,2.4-0.5,3.3-1.4L419.9,70.5
								z"/>
						</g>
						<g id="Group_2225-2">
							<path id="Path_1928-2" class="st32" d="M430.5,42.7c-0.9,0.9-1.3,2.2-1.3,3.4v9.1c0,0.9,0.2,1.8,0.7,2.6l3.6-2.1v-9.9
								L430.5,42.7z"/>
							<path id="Path_1929-2" class="st33" d="M447,58L447,58l-3.8-2.2h-9.5L430,58l0,0l0,0l3.6,2.1h9.8L447,58L447,58z"/>
							<path id="Path_1930-2" class="st33" d="M446.5,42.7l-3,3v9.9l3.6,2.1c0.5-0.8,0.7-1.7,0.7-2.6v-9.1
								C447.8,44.9,447.4,43.6,446.5,42.7z"/>
							<path id="Path_1931-2" class="st33" d="M443,41.1h-8.9c-1.2,0-2.4,0.5-3.3,1.4l3,3h9.6l3-3C445.4,41.6,444.2,41.1,443,41.1z"
								/>
							<path id="Path_1932-2" class="st32" d="M447.2,58.3l-3.7,2.2v9.8l3,3c0.9-0.9,1.3-2.2,1.3-3.4v-9.1
								C447.8,59.9,447.6,59.1,447.2,58.3z"/>
							<path id="Path_1933-2" class="st33" d="M429.8,58.3c-0.4,0.8-0.6,1.6-0.6,2.5v9.1c0,1.3,0.5,2.5,1.3,3.4l3-3v-9.8L429.8,58.3
								z"/>
							<path id="Path_1934-2" class="st33" d="M443.3,70.5h-9.6l-3,3c0.9,0.9,2.1,1.4,3.3,1.4h8.9c1.2,0,2.4-0.5,3.3-1.4L443.3,70.5
								z"/>
						</g>
					</g>
					<g id="Group_2227-2">
						<path id="Path_1935-2" class="st33" d="M386.3,58.4L387,54l1.3,6.9l1-8.3l1.5,4.5l1.4-7l1.4,8.3h2.6c2-3.3,2.8-6.8,0.3-9.5
							c-6.5-7.4-10.2,0-10.2,0s-4-7.1-10.2,0c-2.3,2.7-1.5,6.2,0.6,9.5L386.3,58.4z"/>
						<path id="Path_1936-2" class="st33" d="M393.2,58.9l-1-6.3l-1.2,6.3l-1.4-4.2l-1.1,9.1l-1.3-7.1l-0.3,2.2h-9.8
							c2.6,3.8,5.8,7.2,9.4,10.1c3.7-2.9,6.9-6.3,9.6-10.1L393.2,58.9z"/>
					</g>
				</g>
				<path id="Path_1937-2" class="st34" d="M444.3-114.5h-97.6c-12.1,0.1-21.8,10.1-21.6,22.1v10.6c-0.1-12.1,9.5-22,21.6-22.1h97.6
					c12.1,0.1,21.8,10.1,21.6,22.1v-10.6C466.1-104.5,456.4-114.4,444.3-114.5z"/>
			</g>
			<path id="Path_1938-2" class="st35" d="M473.9-153.4c-10.5-6.4-22.5-9.8-34.8-9.8h-148c-37.6,0-68,31.2-68,69.6V79
				C328.3,25.1,429.3-95.5,473.9-153.4z"/>
		</g>
		<g id="Group_2231-2" class="st36">
			<path id="Rectangle_946-2" class="st23" d="M293.9-158h142.4c37,0,66.9,30,66.9,66.9v226.8c0,37-30,66.9-66.9,66.9H293.9
				c-37,0-66.9-30-66.9-66.9V-91.1C227-128.1,257-158,293.9-158z"/>
			<path id="Path_1939-2" class="st37" d="M437.1,203.3H293.2c-36.9,0-66.9-30.7-66.9-68.4V-90.3c0-37.7,30-68.4,66.9-68.4h143.9
				c36.9,0,66.9,30.7,66.9,68.4v225.2C503.9,172.6,474,203.3,437.1,203.3z M293.2-157.3c-36.1,0-65.4,30-65.4,67v225.2
				c0,36.9,29.4,67,65.4,67h143.9c36.1,0,65.4-30,65.4-67V-90.3c0-36.9-29.4-67-65.4-67H293.2z"/>
		</g>
	</g>
	<g id="Group_2245_00000049212022872105270160000000089285418028014483_" transform="translate(1139.996 769)">
		
			<rect id="Rectangle_960_00000067934713878816482510000015565813384222300852_" x="-552.9" y="-290.1" class="st41" width="54" height="16.7"/>
		<g id="Ellipse_17_00000107563441857527158700000001211220402517080704_" transform="translate(0.005)">
			<circle class="st38" cx="-525.3" cy="-281.3" r="46.3"/>
			<circle class="st42" cx="-525.3" cy="-281.3" r="42.8"/>
		</g>
	</g>
</g>
</svg>
