<?xml version="1.0" encoding="utf-8"?>
<!-- Generator: Adobe Illustrator 25.4.1, SVG Export Plug-In . SVG Version: 6.00 Build 0)  -->
<svg version="1.1" id="Layer_1" xmlns="http://www.w3.org/2000/svg" xmlns:xlink="http://www.w3.org/1999/xlink" x="0px" y="0px"
	 viewBox="0 0 512 512" style="enable-background:new 0 0 512 512;" xml:space="preserve">
<style type="text/css">
	.st0{fill:#14213B;}
	.st1{fill:#25455B;}
	.st2{fill:#11122D;}
	.st3{fill:#1D556C;}
	.st4{fill:#A6AFAC;}
	.st5{fill:#909D9E;}
	.st6{fill:#667B84;}
	.st7{fill:#7C8B91;}
	.st8{fill:#1D334C;}
	.st9{fill:#193B51;}
	.st10{fill:#F7A485;}
	.st11{fill:#ED7F5B;}
	.st12{fill:#152C45;}
	.st13{fill:#B82028;}
	.st14{fill:#F9A31A;}
	.st15{fill:#FDD600;}
	.st16{fill:#B0B4C5;}
	.st17{fill:#F58A1F;}
	.st18{fill:#FFD23E;}
	.st19{fill:#F5891F;}
	.st20{fill:url(#SVGID_1_);}
	.st21{fill-rule:evenodd;clip-rule:evenodd;fill:#FFFFFF;}
	.st22{fill:#FD0000;}
	.st23{fill:#FFFFFF;}
	.st24{fill:#2967B0;}
	.st25{fill:#FDFDFD;}
	.st26{fill:#1677F0;}
	.st27{fill:#F1F2F2;}
	.st28{fill:#BCBEC0;}
	.st29{fill:#4278BA;}
	.st30{fill:#90D35B;}
	.st31{fill:#414042;}
	.st32{fill:#7FB749;}
	.st33{fill:#345118;}
	.st34{opacity:5.000000e-02;enable-background:new    ;}
	.st35{opacity:0.1;fill:#F1F2F2;enable-background:new    ;}
	.st36{opacity:0.1;}
	.st37{fill:#231F20;}
	.st38{fill:none;}
	.st39{fill:none;stroke:#5DA77E;stroke-width:7.1299;}
	.st40{fill:#5DA77E;}
	.st41{fill:#E20F23;}
	.st42{fill:none;stroke:#E20F23;stroke-width:7.1299;}
	.st43{fill:#5A98E2;}
	.st44{fill:#2B4572;}
	.st45{fill:#203451;}
	.st46{fill:#C1D3E5;}
	.st47{fill:#E6E6E6;}
	.st48{fill:#FF5C68;}
	.st49{fill:#919191;}
</style>
<ellipse id="Ellipse_19" cx="207.4" cy="266.9" rx="1.2" ry="1.2"/>
<rect id="Rectangle_965" x="107" y="324" transform="matrix(0.3482 -0.9374 0.9374 0.3482 -182.5808 386.1279)" class="st13" width="158.8" height="0.7"/>
<path id="Path_1997" d="M109.1,170.5l-2.8,2.8l114.2,108.6l2.7-2.9L109.1,170.5z"/>
<path id="Path_1998" d="M283,211.2l-94,66.2l2.5,3.4l94-66.2L283,211.2z"/>
<ellipse id="Ellipse_20" class="st13" cx="207.5" cy="267.1" rx="7" ry="7"/>
<g id="Group_2266" transform="translate(545.238 1018.949)">
	<path id="Path_1999" class="st14" d="M-121.5-681.9l-9.7,13h19.4L-121.5-681.9z"/>
	<path id="Path_2000" class="st14" d="M-121.5-584.1l-9.7-13h19.4L-121.5-584.1z"/>
	<path id="Path_2001" class="st14" d="M-97.1-675.3l-14.9,6.4l16.8,9.7L-97.1-675.3z"/>
	<path id="Path_2002" class="st14" d="M-146-590.6l-1.9-16.1l16.8,9.7L-146-590.6z"/>
	<path id="Path_2003" class="st14" d="M-79.2-657.4l-16.1-1.9l4.9,8.4l4.9,8.4L-79.2-657.4z"/>
	<path id="Path_2004" class="st14" d="M-163.9-608.5l6.4-14.9l9.7,16.8L-163.9-608.5z"/>
	<path id="Path_2005" class="st14" d="M-72.6-633l-13-9.7v19.4L-72.6-633z"/>
	<path id="Path_2006" class="st14" d="M-170.4-633l13-9.7v19.4L-170.4-633z"/>
	<path id="Path_2007" class="st14" d="M-79.2-608.5l-6.4-14.9l-4.9,8.4l-4.9,8.4L-79.2-608.5z"/>
	<path id="Path_2008" class="st14" d="M-163.9-657.4l16.1-1.9l-9.7,16.8L-163.9-657.4z"/>
	<path id="Path_2009" class="st14" d="M-97.1-590.6l1.9-16.1L-112-597L-97.1-590.6z"/>
	<path id="Path_2010" class="st14" d="M-146-675.3l14.9,6.4l-16.8,9.7L-146-675.3z"/>
	<path id="Path_2011" class="st15" d="M-84.7-633c0,9.8-3.9,19.1-10.8,26.1c-6.9,6.9-16.3,10.8-26,10.8c-9.8,0-19.1-3.9-26-10.8
		c-6.9-6.9-10.8-16.3-10.8-26c0-9.8,3.9-19.1,10.8-26c6.9-6.9,16.3-10.8,26-10.8c9.8,0,19.1,3.9,26,10.8
		C-88.6-652.1-84.7-642.7-84.7-633L-84.7-633z"/>
</g>
<g>
	<g>
		<rect x="205.9" y="94.1" width="2.3" height="18.1"/>
		<rect x="205.9" y="421.6" width="2.3" height="18.1"/>
		<rect x="124" y="116" transform="matrix(0.866 -0.5 0.5 0.866 -45.759 79.3075)" width="2.3" height="18.1"/>
		<rect x="287.8" y="399.7" transform="matrix(0.866 -0.5001 0.5001 0.866 -165.687 199.2677)" width="2.3" height="18.1"/>
		<rect x="64" y="176" transform="matrix(0.4999 -0.8661 0.8661 0.4999 -127.6299 148.9388)" width="2.3" height="18.1"/>
		<rect x="347.7" y="339.7" transform="matrix(0.5 -0.866 0.866 0.5 -127.6253 476.5004)" width="2.3" height="18.1"/>
		<rect x="34.2" y="265.8" width="18.1" height="2.3"/>
		<rect x="361.7" y="265.8" width="18.1" height="2.3"/>
		<rect x="56.1" y="347.6" transform="matrix(0.866 -0.5001 0.5001 0.866 -165.679 79.3233)" width="18.1" height="2.3"/>
		<rect x="339.8" y="183.9" transform="matrix(0.866 -0.5 0.5 0.866 -45.7578 199.2265)" width="18.1" height="2.3"/>
		<rect x="116.1" y="407.6" transform="matrix(0.5 -0.866 0.866 0.5 -291.4147 312.7149)" width="18.1" height="2.3"/>
		<rect x="279.9" y="123.9" transform="matrix(0.4999 -0.8661 0.8661 0.4999 36.1767 312.7322)" width="18.1" height="2.3"/>
	</g>
	<g>
		
			<rect x="189.5" y="98.6" transform="matrix(0.9945 -0.1044 0.1044 0.9945 -9.8292 20.3981)" class="st49" width="0.7" height="11"/>
		
			<rect x="223.8" y="424.2" transform="matrix(0.9945 -0.1046 0.1046 0.9945 -43.7342 25.8108)" class="st49" width="0.7" height="11"/>
		
			<rect x="172.6" y="101.3" transform="matrix(0.9782 -0.2076 0.2076 0.9782 -18.3943 38.2365)" class="st49" width="0.7" height="11"/>
		
			<rect x="240.7" y="421.5" transform="matrix(0.9783 -0.2073 0.2073 0.9783 -83.2951 59.2523)" class="st49" width="0.7" height="11"/>
		
			<rect x="156.1" y="105.7" transform="matrix(0.9511 -0.3089 0.3089 0.9511 -26.6948 53.7501)" class="st49" width="0.7" height="11"/>
		
			<rect x="257.3" y="417.1" transform="matrix(0.9511 -0.3087 0.3087 0.9511 -117.8869 100.1765)" class="st49" width="0.7" height="11"/>
		
			<rect x="140.1" y="111.8" transform="matrix(0.9137 -0.4063 0.4063 0.9137 -35.5586 67.1745)" class="st49" width="0.7" height="11"/>
		
			<rect x="273.2" y="410.9" transform="matrix(0.9138 -0.4061 0.4061 0.9138 -145.5516 147.0049)" class="st49" width="0.7" height="11"/>
		
			<rect x="110.4" y="128.9" transform="matrix(0.8092 -0.5875 0.5875 0.8092 -57.8476 90.7215)" class="st49" width="0.7" height="11"/>
		
			<rect x="302.9" y="393.8" transform="matrix(0.8095 -0.5871 0.5871 0.8095 -176.6832 254.0862)" class="st49" width="0.7" height="11"/>
		
			<rect x="97.1" y="139.7" transform="matrix(0.7432 -0.6691 0.6691 0.7432 -72.1396 102.5097)" class="st49" width="0.7" height="11"/>
		
			<rect x="316.2" y="383" transform="matrix(0.7438 -0.6684 0.6684 0.7438 -178.6055 311.1282)" class="st49" width="0.7" height="11"/>
		
			<rect x="85" y="151.8" transform="matrix(0.6692 -0.7431 0.7431 0.6692 -88.6855 115.4611)" class="st49" width="0.7" height="11"/>
		
			<rect x="328.3" y="370.9" transform="matrix(0.6694 -0.7429 0.7429 0.6694 -170.9936 368.6382)" class="st49" width="0.7" height="11"/>
		
			<rect x="74.2" y="165.2" transform="matrix(0.5878 -0.809 0.809 0.5878 -107.3298 130.6565)" class="st49" width="0.7" height="11"/>
		
			<rect x="339.1" y="357.6" transform="matrix(0.5882 -0.8087 0.8087 0.5882 -153.8671 424.0619)" class="st49" width="0.7" height="11"/>
		
			<rect x="57.1" y="194.8" transform="matrix(0.4069 -0.9135 0.9135 0.4069 -148.8936 171.2592)" class="st49" width="0.7" height="11"/>
		
			<rect x="356.2" y="328" transform="matrix(0.4074 -0.9133 0.9133 0.4074 -93.2409 523.2491)" class="st49" width="0.7" height="11"/>
		
			<rect x="51" y="210.8" transform="matrix(0.3094 -0.9509 0.9509 0.3094 -170.2508 198.1528)" class="st49" width="0.7" height="11"/>
		
			<rect x="362.4" y="312" transform="matrix(0.3093 -0.951 0.951 0.3093 -51.3921 564.1851)" class="st49" width="0.7" height="11"/>
		
			<rect x="46.5" y="227.3" transform="matrix(0.208 -0.9781 0.9781 0.208 -190.6346 230.2511)" class="st49" width="0.7" height="11"/>
		
			<rect x="366.8" y="295.4" transform="matrix(0.2084 -0.9781 0.9781 0.2084 -3.679 597.2944)" class="st49" width="0.7" height="11"/>
		
			<rect x="43.8" y="244.3" transform="matrix(0.1051 -0.9945 0.9945 0.1051 -208.8448 267.4711)" class="st49" width="0.7" height="11"/>
		
			<rect x="369.5" y="278.5" transform="matrix(0.1045 -0.9945 0.9945 0.1045 48.7111 622.0913)" class="st49" width="0.7" height="11"/>
		
			<rect x="38.7" y="283.7" transform="matrix(0.9946 -0.1041 0.1041 0.9946 -29.3273 6.1436)" class="st49" width="11" height="0.7"/>
		
			<rect x="364.3" y="249.4" transform="matrix(0.9946 -0.1039 0.1039 0.9946 -23.9491 39.7745)" class="st49" width="11" height="0.7"/>
		
			<rect x="41.4" y="300.6" transform="matrix(0.9783 -0.2073 0.2073 0.9783 -61.3755 16.2569)" class="st49" width="11" height="0.7"/>
		
			<rect x="361.6" y="232.5" transform="matrix(0.9782 -0.2079 0.2079 0.9782 -40.3847 81.4095)" class="st49" width="11" height="0.7"/>
		
			<rect x="45.8" y="317.1" transform="matrix(0.9509 -0.3095 0.3095 0.9509 -95.7474 31.4702)" class="st49" width="11" height="0.7"/>
		
			<rect x="357.2" y="216" transform="matrix(0.9512 -0.3086 0.3086 0.9512 -49.0467 122.4909)" class="st49" width="11" height="0.7"/>
		
			<rect x="51.9" y="333.1" transform="matrix(0.9137 -0.4064 0.4064 0.9137 -130.5588 52.1205)" class="st49" width="11" height="0.7"/>
		
			<rect x="351.1" y="200" transform="matrix(0.9137 -0.4064 0.4064 0.9137 -50.6292 162.207)" class="st49" width="11" height="0.7"/>
		
			<rect x="69.1" y="362.8" transform="matrix(0.8095 -0.5872 0.5872 0.8095 -199.002 112.9616)" class="st49" width="11" height="0.7"/>
		
			<rect x="333.9" y="170.3" transform="matrix(0.8091 -0.5876 0.5876 0.8091 -35.4921 232.0418)" class="st49" width="11" height="0.7"/>
		
			<rect x="79.8" y="376.1" transform="matrix(0.7437 -0.6685 0.6685 0.7437 -229.7782 153.5336)" class="st49" width="11" height="0.7"/>
		
			<rect x="323.2" y="157" transform="matrix(0.7435 -0.6687 0.6687 0.7435 -20.9188 260.1358)" class="st49" width="11" height="0.7"/>
		
			<rect x="92" y="388.2" transform="matrix(0.6685 -0.7437 0.7437 0.6685 -256.647 201.2595)" class="st49" width="11" height="0.7"/>
		
			<rect x="311" y="144.9" transform="matrix(0.6695 -0.7428 0.7428 0.6695 -3.2629 283.1088)" class="st49" width="11" height="0.7"/>
		
			<rect x="105.3" y="399" transform="matrix(0.5881 -0.8088 0.8088 0.5881 -277.3521 254.0952)" class="st49" width="11" height="0.7"/>
		
			<rect x="297.7" y="134.1" transform="matrix(0.5883 -0.8087 0.8087 0.5883 16.1321 300.5607)" class="st49" width="11" height="0.7"/>
		
			<rect x="134.9" y="416.1" transform="matrix(0.4075 -0.9132 0.9132 0.4075 -297.0995 374.9442)" class="st49" width="11" height="0.7"/>
		
			<rect x="268.1" y="117" transform="matrix(0.4069 -0.9135 0.9135 0.4069 55.0929 319.5011)" class="st49" width="11" height="0.7"/>
		
			<rect x="150.9" y="422.2" transform="matrix(0.3094 -0.9509 0.9509 0.3094 -293.8287 440.5883)" class="st49" width="11" height="0.7"/>
		
			<rect x="252.1" y="110.8" transform="matrix(0.3095 -0.9509 0.9509 0.3095 72.149 321.7211)" class="st49" width="11" height="0.7"/>
		
			<rect x="167.5" y="426.7" transform="matrix(0.2075 -0.9782 0.9782 0.2075 -280.6485 507.6161)" class="st49" width="11" height="0.7"/>
		
			<rect x="235.5" y="106.4" transform="matrix(0.2085 -0.978 0.978 0.2085 86.3812 320.2336)" class="st49" width="11" height="0.7"/>
		
			<rect x="184.4" y="429.4" transform="matrix(0.1046 -0.9945 0.9945 0.1046 -257.3161 573.5924)" class="st49" width="11" height="0.7"/>
		
			<rect x="218.6" y="103.7" transform="matrix(0.1053 -0.9944 0.9944 0.1053 97.0192 315.9742)" class="st49" width="11" height="0.7"/>
	</g>
</g>
</svg>
