<?xml version="1.0" encoding="utf-8"?>
<!-- Generator: Adobe Illustrator 25.4.1, SVG Export Plug-In . SVG Version: 6.00 Build 0)  -->
<svg version="1.1" id="Layer_1" xmlns="http://www.w3.org/2000/svg" xmlns:xlink="http://www.w3.org/1999/xlink" x="0px" y="0px"
	 viewBox="0 0 512 512" style="enable-background:new 0 0 512 512;" xml:space="preserve">
<style type="text/css">
	.st0{fill:#14213B;}
	.st1{fill:#25455B;}
	.st2{fill:#11122D;}
	.st3{fill:#1D556C;}
	.st4{fill:#A6AFAC;}
	.st5{fill:#909D9E;}
	.st6{fill:#667B84;}
	.st7{fill:#7C8B91;}
	.st8{fill:#1D334C;}
	.st9{fill:#193B51;}
	.st10{fill:#F7A485;}
	.st11{fill:#ED7F5B;}
	.st12{fill:#152C45;}
	.st13{fill:#B82028;}
	.st14{fill:#F9A31A;}
	.st15{fill:#FDD600;}
	.st16{fill:#B0B4C5;}
	.st17{fill:#F58A1F;}
	.st18{fill:#FFD23E;}
	.st19{fill:#F5891F;}
	.st20{fill:url(#SVGID_1_);}
	.st21{fill-rule:evenodd;clip-rule:evenodd;fill:#FFFFFF;}
	.st22{fill:#FD0000;}
	.st23{fill:#FFFFFF;}
	.st24{fill:#2967B0;}
	.st25{fill:#FDFDFD;}
	.st26{fill:#1677F0;}
	.st27{fill:#F1F2F2;}
	.st28{fill:#BCBEC0;}
	.st29{fill:#4278BA;}
	.st30{fill:#90D35B;}
	.st31{fill:#414042;}
	.st32{fill:#7FB749;}
	.st33{fill:#345118;}
	.st34{opacity:5.000000e-02;enable-background:new    ;}
	.st35{opacity:0.1;fill:#F1F2F2;enable-background:new    ;}
	.st36{opacity:0.1;}
	.st37{fill:#231F20;}
	.st38{fill:none;}
	.st39{fill:none;stroke:#5DA77E;stroke-width:7.1299;}
	.st40{fill:#5DA77E;}
	.st41{fill:#E20F23;}
	.st42{fill:none;stroke:#E20F23;stroke-width:7.1299;}
	.st43{fill:#5A98E2;}
	.st44{fill:#2B4572;}
	.st45{fill:#203451;}
	.st46{fill:#C1D3E5;}
	.st47{fill:#E6E6E6;}
	.st48{fill:#FF5C68;}
</style>
<g id="Group_2267_00000159448538420823487070000015324522399429865391_" transform="translate(-213 -378)">
	<g id="Group_2232_00000033344998207635600990000013534778160868365190_" transform="translate(-726.356 226.067)">
		<g id="Group_2230_00000116929886101774363740000009608105310558116031_">
			<path id="Rectangle_941_00000005226754463660680280000011224448805300364174_" class="st27" d="M1100.4,222.2h146.4
				c38,0,68.8,30.8,68.8,68.8v233.2c0,38-30.8,68.8-68.8,68.8h-146.4c-38,0-68.8-30.8-68.8-68.8V291
				C1031.6,253,1062.4,222.2,1100.4,222.2z"/>
			<path id="Path_1867_00000019636916734800001680000005478046123015294882_" class="st28" d="M1240.5,238.5h-130.8
				c-33.1,0-59.9,26.8-59.9,59.9c0,0,0,0,0,0v172.7c0,9.8,7.9,17.7,17.7,17.7h215.3c9.8,0,17.7-7.9,17.7-17.7c0,0,0,0,0,0V298.5
				C1300.4,265.4,1273.6,238.5,1240.5,238.5C1240.5,238.5,1240.5,238.5,1240.5,238.5z"/>
			<g id="Group_2212_00000093874006468129048880000002066013658697522821_">
				<path id="Rectangle_942_00000061458799678661636790000003048674507981957260_" class="st29" d="M1068.2,500.8h52.5
					c3.5,0,6.3,2.8,6.3,6.3v20.3c0,3.5-2.8,6.3-6.3,6.3h-52.5c-3.5,0-6.3-2.8-6.3-6.3v-20.3C1061.9,503.6,1064.8,500.8,1068.2,500.8
					z"/>
				<path id="Rectangle_943_00000123399172251352035590000000588149295721660308_" class="st29" d="M1148.9,500.8h52.5
					c3.5,0,6.3,2.8,6.3,6.3v20.3c0,3.5-2.8,6.3-6.3,6.3h-52.5c-3.5,0-6.3-2.8-6.3-6.3v-20.3C1142.5,503.6,1145.4,500.8,1148.9,500.8
					z"/>
				<path id="Rectangle_944_00000074413456520978364280000018353098365379086485_" class="st29" d="M1229.5,500.8h52.5
					c3.5,0,6.3,2.8,6.3,6.3v20.3c0,3.5-2.8,6.3-6.3,6.3h-52.5c-3.5,0-6.3-2.8-6.3-6.3v-20.3C1223.2,503.6,1226,500.8,1229.5,500.8z"
					/>
			</g>
			<g id="Group_2229_00000074419062864889834920000016319019771016735651_">
				<g id="Group_2228_00000072273258667046902990000003908375656395460231_">
					<path id="Rectangle_945_00000006673184340565968520000014258911318168964794_" class="st30" d="M1155.5,270.8h97.1
						c12.1,0,21.9,9.8,21.9,21.9v151.6c0,12.1-9.8,21.9-21.9,21.9h-97.1c-12.1,0-21.9-9.8-21.9-21.9V292.7
						C1133.6,280.6,1143.4,270.8,1155.5,270.8z"/>
					<g id="Group_2213_00000027592587312497803850000013092992659923835309_">
						<path id="Path_1868_00000137848918207335640850000013085073338746734221_" class="st31" d="M1091.1,318.5c1,0.6,2.2,1,3.4,1
							c2,0,3.1-1.1,3.1-2.6c0-1.4-0.8-2.2-2.8-3c-2.4-0.9-3.9-2.2-3.9-4.3c0.1-2.4,2.1-4.2,4.5-4.2c0.1,0,0.2,0,0.3,0
							c1.1,0,2.3,0.2,3.3,0.7l-0.5,1.6c-0.9-0.5-1.8-0.7-2.8-0.7c-2,0-2.8,1.2-2.8,2.3c0,1.4,0.9,2.1,3,2.9c2.5,1,3.8,2.2,3.8,4.5
							c0,2.3-1.7,4.4-5.2,4.4c-1.3,0-2.6-0.3-3.8-1L1091.1,318.5z"/>
						<path id="Path_1869_00000022562442928384636980000001142275707682408125_" class="st31" d="M1105.6,320.9v-6.5l-4.7-8.8h2.2
							l2.1,4.2c0.6,1.2,1,2.1,1.5,3.1h0c0.4-1,0.9-2,1.5-3.1l2.1-4.2h2.2l-5,8.7v6.5L1105.6,320.9z"/>
						<path id="Path_1870_00000121268671242602831910000011368768591196724627_" class="st31" d="M1113.7,318.5c1,0.6,2.2,1,3.4,1
							c2,0,3.1-1.1,3.1-2.6c0-1.4-0.8-2.2-2.8-3c-2.4-0.9-3.9-2.2-3.9-4.3c0.1-2.4,2.1-4.2,4.5-4.2c0.1,0,0.2,0,0.3,0
							c1.1,0,2.3,0.2,3.3,0.7l-0.5,1.6c-0.9-0.5-1.8-0.7-2.8-0.7c-2,0-2.8,1.2-2.8,2.3c0,1.4,0.9,2.1,3,2.9c2.5,1,3.8,2.2,3.8,4.5
							c0,2.3-1.7,4.4-5.2,4.4c-1.3,0-2.6-0.3-3.8-1L1113.7,318.5z"/>
					</g>
					<g id="Group_2214_00000011713779892906322150000002239046758563180700_">
						<path id="Path_1871_00000051375732579037328000000003596551643535656086_" class="st31" d="M1091.3,369.1
							c1.4-0.2,2.7-0.3,4.1-0.3c2.2-0.2,4.3,0.5,6,1.9c1.5,1.4,2.2,3.4,2.1,5.5c0.1,2.2-0.7,4.3-2.1,5.9c-1.8,1.6-4.2,2.4-6.6,2.2
							c-1.2,0-2.3-0.1-3.5-0.2V369.1z M1093.2,382.6c0.6,0.1,1.3,0.1,1.9,0.1c3.2,0.3,6-2,6.3-5.2c0-0.4,0-0.9,0-1.3
							c0.3-2.9-1.8-5.6-4.8-5.9c-0.4,0-0.8,0-1.2,0c-0.8,0-1.5,0.1-2.3,0.2V382.6z"/>
						<path id="Path_1872_00000117667156239197417310000008090559789543699131_" class="st31" d="M1107.9,368.9v15.2h-1.9v-15.2
							H1107.9z"/>
						<path id="Path_1873_00000026882512648553579830000002435906617919310255_" class="st31" d="M1113.7,379.4l-1.5,4.8h-2
							l5.1-15.2h2.3l5.1,15.2h-2.1l-1.6-4.8H1113.7z M1118.6,377.8l-1.5-4.4c-0.3-1-0.6-1.9-0.8-2.8h0c-0.2,0.9-0.5,1.8-0.8,2.8
							l-1.5,4.4H1118.6z"/>
					</g>
					<g id="Group_2215_00000044866036758822358390000008629276899254428606_">
						<path id="Path_1874_00000114073200032530510010000001150712256451424936_" class="st31" d="M1074.6,429c1-0.2,2.1-0.3,3.2-0.3
							c1.3-0.1,2.6,0.3,3.6,1.1c0.8,0.7,1.2,1.7,1.1,2.7c0.1,1-0.3,2-1,2.8c-1,1-2.5,1.5-3.9,1.4c-0.4,0-0.9,0-1.3-0.1v5.2h-1.6
							L1074.6,429z M1076.3,435.3c0.4,0.1,0.9,0.1,1.4,0.1c2,0,3.2-1,3.2-2.8c0-1.7-1.2-2.6-3-2.6c-0.5,0-1,0-1.6,0.1L1076.3,435.3z
							"/>
						<path id="Path_1875_00000158717962031233528560000001294720106192493223_" class="st31" d="M1086.4,428.8v7.7
							c0,2.9,1.3,4.2,3,4.2c1.9,0,3.1-1.3,3.1-4.2v-7.7h1.7v7.6c0,4-2.1,5.7-4.8,5.7c-2.6,0-4.6-1.5-4.6-5.6v-7.7L1086.4,428.8z"/>
						<path id="Path_1876_00000093139062172769207730000014102856274259879315_" class="st31" d="M1097,428.8h1.6v11.6h5.5v1.4h-7.1
							V428.8z"/>
						<path id="Path_1877_00000146470993019180642020000007549553540769671583_" class="st31" d="M1105.7,439.8
							c0.9,0.5,1.9,0.8,3,0.9c1.7,0,2.7-0.9,2.7-2.2c0-1.2-0.7-1.9-2.4-2.6c-2.1-0.8-3.4-1.9-3.4-3.7c0.1-2,1.8-3.6,3.8-3.6
							c0.1,0,0.2,0,0.3,0c1,0,2,0.2,2.8,0.6l-0.5,1.4c-0.7-0.4-1.6-0.6-2.4-0.6c-1.7,0-2.4,1.1-2.4,2c0,1.2,0.8,1.8,2.5,2.5
							c2.2,0.9,3.3,1.9,3.3,3.8c0,2-1.5,3.8-4.5,3.8c-1.1,0-2.3-0.3-3.3-0.8L1105.7,439.8z"/>
						<path id="Path_1878_00000158024772737375496210000003798105000222917777_" class="st31" d="M1121.8,435.8h-5v4.7h5.5v1.4h-7.2
							v-13.1h6.9v1.4h-5.2v4.1h5L1121.8,435.8z"/>
					</g>
					<g id="Group_2219_00000129172418238863005770000012154312658257847939_">
						<g id="Group_2216_00000134236722952182284050000010927077137070217123_">
							<path id="Path_1879_00000001631053636333343900000005521665236360824472_" class="st32" d="M1148.7,304.1
								c-1.4,1.5-2.2,3.6-2.2,5.7v15.1c0,1.5,0.4,2.9,1.1,4.2l6-3.5v-16.4L1148.7,304.1z"/>
							<path id="Path_1880_00000029043646735826100470000000551636594460310154_" class="st32" d="M1176.1,329.5L1176.1,329.5
								l-6.3-3.7h-15.7l-6.3,3.7l0,0c0,0,0,0,0,0.1l6,3.5h16.3L1176.1,329.5C1176.1,329.6,1176.1,329.5,1176.1,329.5z"/>
							<path id="Path_1881_00000010995080437587860200000007279357341232109742_" class="st33" d="M1175.2,304.1l-4.9,5.1v16.4
								l6,3.5c0.7-1.3,1.1-2.7,1.1-4.2v-15.1C1177.4,307.7,1176.6,305.6,1175.2,304.1z"/>
							<path id="Path_1882_00000138555322147835718270000016439427034177718955_" class="st32" d="M1169.3,301.5h-14.8
								c-2.1,0-4.1,0.8-5.5,2.3l4.9,5h16l4.9-5C1173.4,302.3,1171.4,301.5,1169.3,301.5z"/>
							<path id="Path_1883_00000126319418455191846880000004727080777662130577_" class="st33" d="M1176.3,330l-6.1,3.6v16.2
								l4.9,5.1c1.4-1.5,2.2-3.6,2.2-5.7v-15.1C1177.4,332.7,1177,331.3,1176.3,330z"/>
							<path id="Path_1884_00000041257234268859567420000003535184295599850153_" class="st32" d="M1147.5,330
								c-0.7,1.3-1.1,2.7-1.1,4.1v15.1c0,2.1,0.8,4.1,2.2,5.7l4.9-5.1v-16.2L1147.5,330z"/>
							<path id="Path_1885_00000152976260702828685590000003141182419911259069_" class="st32" d="M1169.9,350.2h-16l-4.9,5
								c1.5,1.4,3.5,2.3,5.5,2.3h14.8c2.1,0,4.1-0.8,5.5-2.3L1169.9,350.2z"/>
						</g>
						<g id="Group_2217_00000062168534692795897830000009748680819854063761_">
							<path id="Path_1886_00000111874354868625835320000016801730649768653235_" class="st33" d="M1187.6,304.1
								c-1.4,1.5-2.2,3.6-2.2,5.7v15.1c0,1.5,0.4,3,1.1,4.2l6-3.5v-16.4L1187.6,304.1z"/>
							<path id="Path_1887_00000103252326257020530640000017989165050661050010_" class="st33" d="M1215,329.5L1215,329.5l-6.3-3.7
								H1193l-6.3,3.7l0,0c0,0,0,0,0,0.1l6,3.5h16.3L1215,329.5C1215,329.6,1215,329.5,1215,329.5z"/>
							<path id="Path_1888_00000182488265743134637470000009079822194575828401_" class="st33" d="M1214.1,304.1l-4.9,5.1v16.4
								l6,3.5c0.7-1.3,1.1-2.7,1.1-4.2v-15.1C1216.3,307.7,1215.5,305.6,1214.1,304.1z"/>
							<path id="Path_1889_00000022554121745740222850000002785201416974711683_" class="st32" d="M1208.2,301.5h-14.8
								c-2.1,0-4.1,0.8-5.5,2.3l4.9,5h16l4.9-5C1212.3,302.3,1210.3,301.5,1208.2,301.5z"/>
							<path id="Path_1890_00000057842318591354690060000001649422422894790784_" class="st33" d="M1215.3,330l-6.1,3.6v16.2
								l4.9,5.1c1.4-1.5,2.2-3.6,2.2-5.7v-15.1C1216.3,332.7,1216,331.3,1215.3,330z"/>
							<path id="Path_1891_00000119100300704253850800000018179657932708938381_" class="st32" d="M1186.5,330
								c-0.7,1.3-1.1,2.7-1.1,4.1v15.1c0,2.1,0.8,4.1,2.2,5.7l4.9-5.1v-16.2L1186.5,330z"/>
							<path id="Path_1892_00000023251355957299436180000014582717321280180646_" class="st32" d="M1208.9,350.2h-16l-4.9,5
								c1.5,1.4,3.5,2.3,5.5,2.3h14.8c2.1,0,4.1-0.8,5.5-2.3L1208.9,350.2z"/>
						</g>
						<g id="Group_2218_00000103957535493165422930000014104976888582536338_">
							<path id="Path_1893_00000041260522547116156230000007066571317940938670_" class="st33" d="M1226.5,304.1
								c-1.4,1.5-2.2,3.6-2.2,5.7v15.1c0,1.5,0.4,3,1.1,4.2l6-3.5v-16.4L1226.5,304.1z"/>
							<path id="Path_1894_00000166647623060979234020000010621545005471592609_" class="st32" d="M1253.9,329.5L1253.9,329.5
								l-6.3-3.7h-15.7l-6.3,3.7l0,0c0,0,0,0,0,0.1l6,3.5h16.3L1253.9,329.5C1253.9,329.6,1253.9,329.5,1253.9,329.5z"/>
							<path id="Path_1895_00000173868767324391296360000018241180625829167012_" class="st33" d="M1253,304.1l-4.9,5.1v16.4l6,3.5
								c0.7-1.3,1.1-2.7,1.1-4.2v-15.1C1255.3,307.7,1254.5,305.6,1253,304.1z"/>
							<path id="Path_1896_00000156587130537067764980000008251746508710476966_" class="st33" d="M1247.2,301.5h-14.8
								c-2.1,0-4.1,0.8-5.5,2.3l4.9,5h16l4.9-5C1251.2,302.3,1249.2,301.5,1247.2,301.5z"/>
							<path id="Path_1897_00000074427405917864152960000013881992090636383633_" class="st33" d="M1254.2,330l-6.1,3.6v16.2
								l4.9,5.1c1.4-1.5,2.2-3.6,2.2-5.7v-15.1C1255.3,332.7,1254.9,331.3,1254.2,330z"/>
							<path id="Path_1898_00000168814568477017095360000010545288059432054461_" class="st33" d="M1225.4,330
								c-0.7,1.3-1.1,2.7-1.1,4.1v15.1c0,2.1,0.8,4.1,2.2,5.7l4.9-5.1v-16.2L1225.4,330z"/>
							<path id="Path_1899_00000140710909936539952620000012076905690716643471_" class="st33" d="M1247.8,350.2h-16l-4.9,5
								c1.5,1.4,3.5,2.3,5.5,2.3h14.8c2.1,0,4.1-0.8,5.5-2.3L1247.8,350.2z"/>
						</g>
					</g>
					<g id="Group_2223_00000024711424528062571020000014482079581447360951_">
						<g id="Group_2220_00000012445836903114739550000016469280128775754383_">
							<path id="Path_1900_00000179632563528193131880000007916144612230530458_" class="st32" d="M1147.9,365.6
								c-1.5,1.6-2.3,3.6-2.3,5.8l-0.1,15.4c0,1.5,0.4,3,1.1,4.3l6.2-3.6l0.1-16.7L1147.9,365.6z"/>
							<path id="Path_1901_00000075142360594949877230000017178186639346684601_" class="st32" d="M1175.6,391.8L1175.6,391.8
								l-6.3-3.8l-16-0.1l-6.4,3.7l0,0c0,0,0,0,0,0.1l6.1,3.7l16.6,0.2L1175.6,391.8C1175.6,391.8,1175.6,391.8,1175.6,391.8z"/>
							<path id="Path_1902_00000140694357659831430780000003365784581941783947_" class="st32" d="M1174.9,365.9l-5.1,5.1l-0.2,16.7
								l6.1,3.7c0.8-1.3,1.2-2.8,1.2-4.3l0.1-15.4C1177.1,369.5,1176.4,367.4,1174.9,365.9z"/>
							<path id="Path_1903_00000005985575045222380760000008735664037194943141_" class="st32" d="M1169,363.1l-15-0.1
								c-2.1,0-4.2,0.8-5.7,2.2l5,5.2l16.3,0.2l5.1-5.1C1173.1,364,1171.1,363.2,1169,363.1z"/>
							<path id="Path_1904_00000048461128615376188490000007305129493820024981_" class="st32" d="M1175.9,392.3l-6.2,3.6l-0.1,16.6
								l5,5.2c1.5-1.6,2.3-3.6,2.3-5.8l0.1-15.4C1176.9,395,1176.6,393.6,1175.9,392.3z"/>
							<path id="Path_1905_00000133486919872932558730000002441579377984664753_" class="st32" d="M1146.5,392
								c-0.7,1.3-1.1,2.7-1.1,4.2l-0.1,15.4c0,2.1,0.8,4.2,2.2,5.8l5.1-5.1l0.1-16.6L1146.5,392z"/>
							<path id="Path_1906_00000080915934294872823750000014730683783478551446_" class="st32" d="M1169.1,412.8l-16.3-0.2l-5.1,5.1
								c1.5,1.5,3.5,2.3,5.6,2.4l15,0.1c2.1,0,4.1-0.8,5.7-2.2L1169.1,412.8z"/>
						</g>
						<g id="Group_2221_00000158024389749050510490000014810739024473793418_">
							<path id="Path_1907_00000179646959657576165780000000870014643722409137_" class="st33" d="M1187.6,366
								c-1.5,1.6-2.3,3.6-2.3,5.8l-0.1,15.4c0,1.5,0.4,3,1.1,4.3l6.2-3.6l0.1-16.7L1187.6,366z"/>
							<path id="Path_1908_00000120560936995886880060000016719186437854331298_" class="st33" d="M1215.2,392.2L1215.2,392.2
								l-6.3-3.8l-16-0.1l-6.4,3.7l0,0c0,0,0,0,0,0.1l6.1,3.7l16.6,0.2L1215.2,392.2C1215.3,392.2,1215.3,392.2,1215.2,392.2z"/>
							<path id="Path_1909_00000139291111694759471000000001398367980576832921_" class="st33" d="M1214.6,366.2l-5.1,5.1l-0.1,16.7
								l6.1,3.7c0.8-1.3,1.2-2.8,1.2-4.3l0.1-15.4C1216.8,369.9,1216.1,367.8,1214.6,366.2z"/>
							<path id="Path_1910_00000105413671154592086340000012908660924903483061_" class="st33" d="M1208.6,363.5l-15-0.1
								c-2.1,0-4.1,0.8-5.7,2.2l5,5.2l16.3,0.2l5.1-5.1C1212.8,364.4,1210.8,363.5,1208.6,363.5z"/>
							<path id="Path_1911_00000060026457184912341980000011341474937819732655_" class="st33" d="M1215.5,392.7l-6.2,3.6l-0.1,16.6
								l5,5.2c1.5-1.6,2.3-3.6,2.3-5.8l0.1-15.4C1216.6,395.4,1216.2,393.9,1215.5,392.7z"/>
							<path id="Path_1912_00000171714184161403924050000015867580057786584198_" class="st32" d="M1186.2,392.4
								c-0.7,1.3-1.1,2.7-1.1,4.2l-0.1,15.4c0,2.1,0.8,4.2,2.2,5.8l5.1-5.1l0.1-16.6L1186.2,392.4z"/>
							<path id="Path_1913_00000103262660246678988760000008036098629338152613_" class="st33" d="M1208.8,413.2l-16.3-0.2l-5.1,5.1
								c1.5,1.5,3.5,2.3,5.6,2.4l15,0.1c2.1,0,4.1-0.8,5.7-2.2L1208.8,413.2z"/>
						</g>
						<g id="Group_2222_00000004513046413188787480000004152063321505416379_">
							<path id="Path_1914_00000048498116264775429200000015653318991132325542_" class="st32" d="M1227.3,366.3
								c-1.5,1.6-2.3,3.6-2.3,5.8l-0.1,15.4c0,1.5,0.4,3,1.1,4.3l6.1-3.6l0.2-16.7L1227.3,366.3z"/>
							<path id="Path_1915_00000078016322379600251230000011999436508164454586_" class="st32" d="M1254.9,392.6L1254.9,392.6
								l-6.3-3.8l-16-0.1l-6.4,3.7l0,0c0,0,0,0,0,0.1l6.1,3.7l16.6,0.2L1254.9,392.6C1255,392.6,1254.9,392.6,1254.9,392.6z"/>
							<path id="Path_1916_00000098195467201412490770000007629637995572480643_" class="st33" d="M1254.3,366.6l-5.1,5.1l-0.1,16.7
								l6.1,3.7c0.8-1.3,1.2-2.8,1.2-4.3l0.1-15.4C1256.5,370.3,1255.7,368.2,1254.3,366.6z"/>
							<path id="Path_1917_00000050640359342469440130000007252525821532299704_" class="st32" d="M1248.3,363.9l-15-0.1
								c-2.1,0-4.2,0.8-5.7,2.2l5,5.2l16.3,0.2l5.1-5.1C1252.5,364.8,1250.4,363.9,1248.3,363.9z"/>
							<path id="Path_1918_00000003827353830109442400000003498740140736135356_" class="st33" d="M1255.2,393l-6.2,3.6l-0.1,16.6
								l5,5.2c1.5-1.6,2.3-3.6,2.3-5.8l0.1-15.4C1256.3,395.8,1255.9,394.3,1255.2,393z"/>
							<path id="Path_1919_00000093868378915057078940000011801600181450841737_" class="st32" d="M1225.9,392.8
								c-0.7,1.3-1.1,2.7-1.1,4.2l-0.1,15.4c0,2.1,0.8,4.2,2.2,5.8l5.1-5.1l0.1-16.6L1225.9,392.8z"/>
							<path id="Path_1920_00000167370984976209925560000000087434554085742231_" class="st32" d="M1248.5,413.5l-16.3-0.2l-5.1,5.1
								c1.5,1.5,3.5,2.3,5.6,2.4l15,0.1c2.1,0,4.1-0.8,5.7-2.2L1248.5,413.5z"/>
						</g>
					</g>
					<g id="Group_2226_00000124843018514833631050000008021908900746197905_">
						<g id="Group_2224_00000142151241886504580410000014622230369179340940_">
							<path id="Path_1921_00000062912847651161094910000002708434839013675677_" class="st32" d="M1215.5,428
								c-0.9,0.9-1.3,2.2-1.3,3.5v9.2c0,0.9,0.2,1.8,0.7,2.6l3.7-2.2v-10L1215.5,428z"/>
							<path id="Path_1922_00000033368223111310516020000004409408964743833239_" class="st32" d="M1232.1,443.5L1232.1,443.5
								l-3.8-2.2h-9.6l-3.8,2.2l0,0l0,0l3.7,2.2h9.9L1232.1,443.5L1232.1,443.5z"/>
							<path id="Path_1923_00000168824923948245290960000013526438007361542321_" class="st33" d="M1231.5,428l-3,3v9.9l3.6,2.1
								c0.5-0.8,0.7-1.7,0.7-2.6v-9.1C1232.9,430.2,1232.4,429,1231.5,428z"/>
							<path id="Path_1924_00000157986854906335779510000001962722711430634665_" class="st33" d="M1228,426.5h-8.9
								c-1.2,0-2.4,0.5-3.3,1.4l3,3h9.6l3-3C1230.4,427,1229.2,426.5,1228,426.5z"/>
							<path id="Path_1925_00000011017911944299295750000011274745988345127593_" class="st33" d="M1232.2,443.7l-3.7,2.2v9.8l3,3
								c0.9-0.9,1.3-2.2,1.3-3.4v-9.1C1232.9,445.3,1232.6,444.4,1232.2,443.7z"/>
							<path id="Path_1926_00000160871196425794464620000008143335247219229362_" class="st32" d="M1214.8,443.8
								c-0.4,0.8-0.6,1.6-0.6,2.5v9.2c0,1.3,0.5,2.5,1.3,3.5l3-3.1V446L1214.8,443.8z"/>
							<path id="Path_1927_00000176735996176609923040000016184880970788093871_" class="st32" d="M1228.4,455.8h-9.6l-3,3
								c0.9,0.9,2.1,1.4,3.3,1.4h8.9c1.2,0,2.4-0.5,3.3-1.4L1228.4,455.8z"/>
						</g>
						<g id="Group_2225_00000057833289060820212680000011347417018517842560_">
							<path id="Path_1928_00000159454945731371232400000008926562420669925008_" class="st32" d="M1239,428
								c-0.9,0.9-1.3,2.2-1.3,3.4v9.1c0,0.9,0.2,1.8,0.7,2.6l3.6-2.1v-9.9L1239,428z"/>
							<path id="Path_1929_00000094607386730023892930000017806493278422113935_" class="st33" d="M1255.5,443.4L1255.5,443.4
								l-3.8-2.2h-9.5l-3.8,2.2l0,0l0,0l3.6,2.1h9.8L1255.5,443.4L1255.5,443.4z"/>
							<path id="Path_1930_00000062162736350194347150000003581349367656564148_" class="st33" d="M1255,428l-3,3v9.9l3.6,2.1
								c0.5-0.8,0.7-1.7,0.7-2.6v-9.1C1256.3,430.2,1255.8,429,1255,428z"/>
							<path id="Path_1931_00000059298147524803796650000005169099752665747877_" class="st33" d="M1251.4,426.5h-8.9
								c-1.2,0-2.4,0.5-3.3,1.4l3,3h9.6l3-3C1253.9,427,1252.7,426.5,1251.4,426.5z"/>
							<path id="Path_1932_00000034779767711097176130000008924139701212756368_" class="st32" d="M1255.7,443.7l-3.7,2.2v9.8l3,3
								c0.9-0.9,1.3-2.2,1.3-3.4v-9.1C1256.3,445.3,1256.1,444.4,1255.7,443.7z"/>
							<path id="Path_1933_00000000215237216405342370000016021326730349196427_" class="st33" d="M1238.3,443.7
								c-0.4,0.8-0.6,1.6-0.6,2.5v9.1c0,1.3,0.5,2.5,1.3,3.4l3-3v-9.8L1238.3,443.7z"/>
							<path id="Path_1934_00000051385549013115623110000014012330872361740478_" class="st33" d="M1251.8,455.8h-9.6l-3,3
								c0.9,0.9,2.1,1.4,3.3,1.4h8.9c1.2,0,2.4-0.5,3.3-1.4L1251.8,455.8z"/>
						</g>
					</g>
					<g id="Group_2227_00000090981731894712420140000005228559166640750004_">
						<path id="Path_1935_00000147926435123418901700000009635950386928219013_" class="st33" d="M1194.8,443.7l0.7-4.4l1.3,6.9
							l1-8.3l1.5,4.5l1.4-7l1.4,8.3h2.6c2-3.3,2.8-6.8,0.3-9.5c-6.5-7.4-10.2,0-10.2,0s-4-7.1-10.2,0c-2.3,2.7-1.5,6.2,0.6,9.5
							L1194.8,443.7z"/>
						<path id="Path_1936_00000083787282494647715370000015484907089792860563_" class="st33" d="M1201.6,444.2l-1-6.3l-1.2,6.3
							l-1.4-4.2l-1.1,9.1l-1.3-7.1l-0.3,2.2h-9.8c2.6,3.8,5.8,7.2,9.4,10.1c3.7-2.9,6.9-6.3,9.6-10.1L1201.6,444.2z"/>
					</g>
				</g>
				<path id="Path_1937_00000062874295340932500960000004753368583193654666_" class="st34" d="M1252.8,270.8h-97.6
					c-12.1,0.1-21.8,10.1-21.6,22.1v10.6c-0.1-12.1,9.5-22,21.6-22.1h97.6c12.1,0.1,21.8,10.1,21.6,22.1V293
					C1274.6,280.9,1264.9,271,1252.8,270.8z"/>
			</g>
			<path id="Path_1938_00000137091035537030986290000006680682595711498416_" class="st35" d="M1282.4,232
				c-10.5-6.4-22.5-9.8-34.8-9.8h-148c-37.6,0-68,31.2-68,69.6v172.6C1136.8,410.5,1237.8,289.8,1282.4,232z"/>
		</g>
		<g id="Group_2231_00000009563364887131295580000013691761578947383479_" class="st36">
			<path id="Rectangle_946_00000007395342130516529180000015706570389111093390_" class="st23" d="M1102.4,227.3h142.4
				c37,0,66.9,30,66.9,66.9V521c0,37-30,66.9-66.9,66.9h-142.4c-37,0-66.9-30-66.9-66.9V294.2
				C1035.5,257.3,1065.4,227.3,1102.4,227.3z"/>
			<path id="Path_1939_00000099619760633316673170000009897782213779346832_" class="st37" d="M1245.6,588.6h-143.9
				c-36.9,0-66.9-30.7-66.9-68.4V295c0-37.7,30-68.4,66.9-68.4h143.9c36.9,0,66.9,30.7,66.9,68.4v225.2
				C1312.4,558,1282.4,588.6,1245.6,588.6z M1101.6,228c-36.1,0-65.4,30-65.4,67v225.2c0,36.9,29.4,67,65.4,67h143.9
				c36.1,0,65.4-30,65.4-67V295c0-36.9-29.4-67-65.4-67H1101.6z"/>
		</g>
	</g>
	<g id="Group_2244_00000140712497327183464390000017622614337897877695_" transform="translate(319 378)">
		<g id="Ellipse_16_00000123436339815122284940000013096020643103788182_">
			<circle class="st38" cx="284.5" cy="109.8" r="46.3"/>
			<circle class="st39" cx="284.5" cy="109.8" r="42.8"/>
		</g>
		<path id="Path_1793_00000065754801723909653010000005172337487448176523_" class="st40" d="M310.8,100.6v17.1h-18.4v18.4h-17.1
			v-18.4h-18.4v-17.1h18.4V82.2h17.1v18.4L310.8,100.6z"/>
	</g>
</g>
</svg>
