<?xml version="1.0" encoding="utf-8"?>
<!-- Generator: Adobe Illustrator 25.4.1, SVG Export Plug-In . SVG Version: 6.00 Build 0)  -->
<svg version="1.1" id="Layer_1" xmlns="http://www.w3.org/2000/svg" xmlns:xlink="http://www.w3.org/1999/xlink" x="0px" y="0px"
	 viewBox="0 0 512 512" style="enable-background:new 0 0 512 512;" xml:space="preserve">
<style type="text/css">
	.st0{fill:#14213B;}
	.st1{fill:#25455B;}
	.st2{fill:#11122D;}
	.st3{fill:#1D556C;}
	.st4{fill:#A6AFAC;}
	.st5{fill:#909D9E;}
	.st6{fill:#667B84;}
	.st7{fill:#7C8B91;}
	.st8{fill:#1D334C;}
	.st9{fill:#193B51;}
	.st10{fill:#F7A485;}
	.st11{fill:#ED7F5B;}
	.st12{fill:#152C45;}
	.st13{fill:#B82028;}
	.st14{fill:#F9A31A;}
	.st15{fill:#FDD600;}
	.st16{fill:#B0B4C5;}
	.st17{fill:#F58A1F;}
	.st18{fill:#FFD23E;}
	.st19{fill:#F5891F;}
	.st20{fill:url(#SVGID_1_);}
	.st21{fill-rule:evenodd;clip-rule:evenodd;fill:#FFFFFF;}
	.st22{fill:#FD0000;}
	.st23{fill:#FFFFFF;}
	.st24{fill:#2967B0;}
	.st25{fill:#FDFDFD;}
	.st26{fill:#1677F0;}
	.st27{fill:#F1F2F2;}
	.st28{fill:#BCBEC0;}
	.st29{fill:#4278BA;}
	.st30{fill:#90D35B;}
	.st31{fill:#414042;}
	.st32{fill:#7FB749;}
	.st33{fill:#345118;}
	.st34{opacity:5.000000e-02;enable-background:new    ;}
	.st35{opacity:0.1;fill:#F1F2F2;enable-background:new    ;}
	.st36{opacity:0.1;}
	.st37{fill:#231F20;}
	.st38{fill:none;}
	.st39{fill:none;stroke:#5DA77E;stroke-width:7.1299;}
	.st40{fill:#5DA77E;}
	.st41{fill:#E20F23;}
	.st42{fill:none;stroke:#E20F23;stroke-width:7.1299;}
	.st43{fill:#5A98E2;}
	.st44{fill:#2B4572;}
	.st45{fill:#203451;}
	.st46{fill:#C1D3E5;}
	.st47{fill:#E6E6E6;}
	.st48{fill:#FF5C68;}
</style>
<g id="Group_2262_00000113343353171162424940000006057518209272606128_" transform="translate(-592 -470)">
	<g id="Group_2246_00000157307013775218712200000005132922058650881934_" transform="translate(592 470)">
		<path id="Rectangle_961_00000178178504563420209870000004416117115196312961_" class="st43" d="M126.8,86.6h258.3
			c7.5,0,13.6,6.1,13.6,13.6v333.6c0,7.5-6.1,13.6-13.6,13.6H126.8c-7.5,0-13.6-6.1-13.6-13.6V100.2
			C113.2,92.7,119.3,86.6,126.8,86.6z"/>
		<path id="Path_1978_00000163762763447793277040000011512942133633607042_" class="st23" d="M384.8,101v299.5l-29.4-0.2l0,26H127.2
			V101H384.8z"/>
		<path id="Path_1979_00000163793004769975162380000016125901815175047562_" class="st44" d="M267.7,75.1c0-6.5-5.2-11.7-11.7-11.7
			c-6.5,0-11.7,5.2-11.7,11.7H196c-2.3,0-4.2,1.9-4.2,4.2v25.1h128.4V79.2c0-2.3-1.9-4.2-4.2-4.2H267.7z M256,81.2
			c-3.4,0-6.1-2.7-6.1-6.1c0-3.4,2.7-6.1,6.1-6.1c3.4,0,6.1,2.7,6.1,6.1C262.1,78.5,259.4,81.2,256,81.2L256,81.2z"/>
		<path id="Rectangle_962_00000145744826213082550470000004689263700766825372_" class="st45" d="M191.8,104.1h128.4l0,0v3.2
			c0,3.1-2.5,5.6-5.6,5.6l0,0H197.4c-3.1,0-5.6-2.5-5.6-5.6V104.1L191.8,104.1z"/>
		<path id="Path_1980_00000077323521439450712740000004219701485232414867_" class="st46" d="M384.8,400.5l-29.4,25.9l0-26
			L384.8,400.5z"/>
	</g>
	<path id="Path_1981_00000069385978628819386960000017654926898092243844_" class="st47" d="M963.5,794.7H736.7
		c-1,0-1.8,0.8-1.8,1.7v65.8c0,1,0.8,1.8,1.8,1.8h72c0.4,0.2,0.9,0.2,1.3,0h153.5c1,0,1.7-0.8,1.7-1.7c0,0,0,0,0,0v-65.8
		C965.2,795.5,964.4,794.7,963.5,794.7z M961.7,844.6H811.1v-15.4h150.6V844.6z M738.5,813.3h69.1v12.5h-69.1L738.5,813.3z
		 M738.5,829.3h69.1v15.4h-69.1L738.5,829.3z M811.1,825.8v-12.5h150.6v12.5H811.1z M738.5,798.2h223.2v11.5H738.5V798.2z
		 M738.5,848.1h69.1v12.5h-69.1L738.5,848.1z M811.1,860.6v-12.5h150.6v12.5H811.1z"/>
	<g id="Group_2247_00000158718638387870257400000001946043144635020207_" transform="translate(602.705 534.463)">
		<path id="Path_1982_00000108305985834957752870000013217269261277799606_" class="st47" d="M148.7,195.2h-15
			c-0.9,0-1.6-0.7-1.6-1.6c0,0,0,0,0,0v-15c0-0.9,0.7-1.6,1.6-1.6h15c0.9,0,1.6,0.7,1.6,1.6v15C150.3,194.5,149.6,195.2,148.7,195.2
			C148.7,195.2,148.7,195.2,148.7,195.2z M135.2,192h11.9v-11.9h-11.9V192z"/>
	</g>
	<g id="Group_2248_00000075846482763008665500000015068208658472759187_" transform="translate(602.705 543.426)">
		<path id="Path_1983_00000082367132122850182660000009097403436118252676_" class="st47" d="M148.7,211h-15c-0.9,0-1.6-0.7-1.6-1.6
			c0,0,0,0,0,0v-15c0-0.9,0.7-1.6,1.6-1.6c0,0,0,0,0,0h15c0.9,0,1.6,0.7,1.6,1.6c0,0,0,0,0,0v15C150.3,210.3,149.6,211,148.7,211
			C148.7,211,148.7,211,148.7,211z M135.2,207.8h11.9v-11.9h-11.9V207.8z"/>
	</g>
	<g id="Group_2249_00000120559945119031257490000013103208055948748932_" transform="translate(602.705 552.39)">
		<path id="Path_1984_00000053534280528030823470000010907678358160523431_" class="st47" d="M148.7,226.8h-15
			c-0.9,0-1.6-0.7-1.6-1.6v-15c0-0.9,0.7-1.6,1.6-1.6c0,0,0,0,0,0h15c0.9,0,1.6,0.7,1.6,1.6c0,0,0,0,0,0v15
			C150.3,226.1,149.6,226.8,148.7,226.8z M135.2,223.6h11.9v-11.9h-11.9V223.6z"/>
	</g>
	<g id="Group_2250_00000103239015919598777080000015665574238370678657_" transform="translate(611.79 537.252)">
		<path id="Path_1985_00000084519903186128987330000007602460669421201025_" class="st47" d="M342.6,187.9H151.1c-1.6,0-3-1.3-3-3
			c0,0,0,0,0,0l0,0c0-1.6,1.3-3,3-3c0,0,0,0,0,0h191.5c1.6,0,3,1.3,3,3c0,0,0,0,0,0l0,0C345.5,186.5,344.2,187.8,342.6,187.9z"/>
	</g>
	<g id="Group_2251_00000075850093274560521170000016382049514987312014_" transform="translate(641.427 495.457)">
		<path id="Path_1986_00000044898685349162861780000013813811181566103186_" class="st47" d="M312.8,114.2H203.3c-1.6,0-3-1.3-3-3
			c0,0,0,0,0,0l0,0c0-1.6,1.3-3,3-3c0,0,0,0,0,0h109.4c1.6,0,3,1.3,3,3l0,0C315.7,112.8,314.4,114.2,312.8,114.2L312.8,114.2z"/>
	</g>
	<g id="Group_2252_00000082351681715938699590000002130979820702820994_" transform="translate(641.295 502.296)">
		<path id="Path_1987_00000028300449632652562410000012122839983564189068_" class="st47" d="M312.5,126.2H203.1c-1.6,0-3-1.3-3-3
			l0,0c0-1.6,1.3-3,3-3h0h109.4c1.6,0,3,1.3,3,3v0l0,0C315.5,124.9,314.2,126.2,312.5,126.2z"/>
	</g>
	<g id="Group_2253_00000137847538020128134310000007107334767463181717_" transform="translate(641.164 509.135)">
		<path id="Path_1988_00000102504466479645120460000011715137437575534756_" class="st47" d="M312.3,138.3H202.9c-1.6,0-3-1.3-3-3
			c0,0,0,0,0,0l0,0c0-1.6,1.3-3,3-3h0h109.4c1.6,0,3,1.3,3,3l0,0C315.3,137,314,138.3,312.3,138.3z"/>
	</g>
	<g id="Group_2254_00000127006373122341380610000011475859659111944365_" transform="translate(641.032 515.975)">
		<path id="Path_1989_00000146500979757494937180000007669632179524401051_" class="st47" d="M312.1,150.3H202.6c-1.6,0-3-1.3-3-3
			c0,0,0,0,0,0l0,0c0-1.6,1.3-3,3-3h109.4c1.6,0,3,1.3,3,3l0,0C315,149,313.7,150.3,312.1,150.3
			C312.1,150.3,312.1,150.3,312.1,150.3z"/>
	</g>
	<g id="Group_2255_00000000916292719244958270000001274689558208397453_" transform="translate(640.901 522.814)">
		<path id="Path_1990_00000156546592509785979230000007548442012810539421_" class="st47" d="M252.4,162.4h-50c-1.6,0-3-1.3-3-3l0,0
			c0-1.6,1.3-3,3-3c0,0,0,0,0,0h50c1.6,0,3,1.3,3,3c0,0,0,0,0,0l0,0C255.4,161.1,254.1,162.4,252.4,162.4
			C252.4,162.4,252.4,162.4,252.4,162.4z"/>
	</g>
	<g id="Group_2256_00000156572364282561972950000006588366900462377894_" transform="translate(611.791 545.611)">
		<path id="Path_1991_00000060712499282875052010000012703699324693815685_" class="st47" d="M342.6,202.6H151.1c-1.6,0-3-1.3-3-3
			l0,0c0-1.6,1.3-3,3-3c0,0,0,0,0,0h191.5c1.6,0,3,1.3,3,3c0,0,0,0,0,0l0,0C345.5,201.3,344.2,202.6,342.6,202.6z"/>
	</g>
	<g id="Group_2257_00000041996784041421944760000005417425612415361708_" transform="translate(611.918 554.603)">
		<path id="Path_1992_00000088100841091746005250000010201152646724379538_" class="st47" d="M342.8,218.4H151.3c-1.6,0-3-1.3-3-3
			l0,0c0-1.6,1.3-3,3-3h191.5c1.6,0,3,1.3,3,3l0,0C345.8,217.1,344.4,218.4,342.8,218.4C342.8,218.4,342.8,218.4,342.8,218.4z"/>
	</g>
	<g id="Group_2258_00000016782492534351698310000014390543550156281011_" transform="translate(602.765 493.051)">
		<circle id="Ellipse_18_00000089559570728252879670000018425029246765635227_" class="st48" cx="175.8" cy="147.6" r="43.6"/>
		<path id="Path_1993_00000006706224771741970690000013982947995832124575_" class="st23" d="M203.7,139.9h-20.1v-20.1
			c0-1.8-1.4-3.2-3.2-3.2l0,0h-9.4c-1.8,0-3.2,1.4-3.2,3.2v0v20.1h-20.1c-1.8,0-3.2,1.4-3.2,3.2l0,0v9.4c0,1.8,1.4,3.2,3.2,3.2l0,0
			h20.1v20.1c0,1.8,1.4,3.2,3.2,3.2h9.4c1.8,0,3.2-1.4,3.2-3.2v-20.1h20.1c1.8,0,3.2-1.4,3.2-3.2V143
			C206.9,141.3,205.5,139.9,203.7,139.9z"/>
	</g>
	<g id="Group_2259_00000001662954128675815550000018264071845753547450_" transform="translate(604.032 532.692)">
		<path id="Path_1994_00000001638548259466308270000007534483881628813221_" class="st47" d="M141.1,193.5c-0.4,0-0.9-0.2-1.2-0.5
			l-4.9-4.6c-0.7-0.7-0.7-1.8-0.1-2.5c0.7-0.7,1.8-0.7,2.5-0.1l3.6,3.4l13.9-14.8c0.7-0.7,1.8-0.7,2.5-0.1c0.7,0.7,0.7,1.8,0.1,2.5
			l0,0l-15,16.1C142,193.3,141.6,193.5,141.1,193.5z"/>
	</g>
	<g id="Group_2260_00000073701411664366630520000002137519588269012360_" transform="translate(604.032 541.685)">
		<path id="Path_1995_00000109708859446651511070000012045456349421413257_" class="st47" d="M141.1,209.3c-0.4,0-0.9-0.2-1.2-0.5
			l-4.9-4.5c-0.7-0.7-0.7-1.8,0-2.5c0.6-0.7,1.7-0.7,2.4-0.1l3.6,3.4l13.9-14.8c0.7-0.7,1.8-0.7,2.5-0.1c0.7,0.7,0.7,1.8,0.1,2.5
			l0,0l-15,16.1C142,209.1,141.6,209.3,141.1,209.3z"/>
	</g>
	<g id="Group_2261_00000096772180329784504290000016293502285939845053_" transform="translate(604.032 550.677)">
		<path id="Path_1996_00000111181244435717799030000000151317329450923143_" class="st47" d="M141.1,225.2c-0.4,0-0.9-0.2-1.2-0.5
			l-4.9-4.6c-0.7-0.7-0.7-1.8-0.1-2.5c0.7-0.7,1.8-0.7,2.5-0.1l0,0l3.6,3.4l13.9-14.8c0.7-0.7,1.8-0.7,2.5-0.1
			c0.7,0.7,0.7,1.8,0.1,2.5l-15,16.1C142,225,141.6,225.2,141.1,225.2z"/>
	</g>
</g>
</svg>
