<svg xmlns="http://www.w3.org/2000/svg" width="379" height="379" viewBox="0 0 379 379"><defs><style>.a,.b,.c{fill:#e54d48;}.a,.b{opacity:0.08;}.b{mix-blend-mode:multiply;isolation:isolate;}.d{fill:#231f20;opacity:0.1;}</style></defs><g transform="translate(-781 -1202)"><g transform="translate(0 1157)"><circle class="a" cx="189.5" cy="189.5" r="189.5" transform="translate(781 45)"/><circle class="b" cx="161.5" cy="161.5" r="161.5" transform="translate(809 73)"/><circle class="b" cx="132.5" cy="132.5" r="132.5" transform="translate(838 102)"/></g><g transform="translate(724.175 1161.81)"><g transform="translate(145.708 96.214)"><path class="c" d="M211.551,123.638c-.747,7.456-1.453,17.072-1.453,26.709,1.05.515,2.09,1.055,3.128,1.636.26-.09.514-.171.748-.241,6.193-16.047,20.4-34.021,52.751-38.058-7.372-6.956-13.754-6.822-14.138-6.808-1.01.06-4.066-.331-4.8-1.031s-3.209-1.671-3.209-2.684V96.214l-17.9.9-1.2,12.714c-.192,1.08-.337,2.024-1.287,2.574A45.618,45.618,0,0,0,211.551,123.638Z" transform="translate(-154.46 -96.214)"/><path class="c" d="M182.336,145.861a49.4,49.4,0,0,1,15.344,2.552,303.991,303.991,0,0,1,2.868-36.141l-14.139-7.951c-5.789,9.271-10.252,27.881-12.953,42.477A42.829,42.829,0,0,1,182.336,145.861Z" transform="translate(-149.479 -97.316)"/><path class="c" d="M315.488,143.567l.956,3.19a3.725,3.725,0,0,1-3.488,4.794c-7.592.165-28.279,2.892-32.781,13.4-5.377,12.543,9.759,21.333,12.352,22.726a102.135,102.135,0,0,1,28.938,11.58c3.178-10.828,8.312-24.524,19.035-28.711l-2.394-6.583c-5.4.849-12.729,2.593-15.743,4.892a3.722,3.722,0,0,1-5.847-3.939c.366-1.337,3.417-11.876,10.309-17.3l-2.8-6.236Z" transform="translate(-163.828 -102.353)"/><path class="c" d="M154.087,171.2c-11.255,11.256-8.939,41.572-5.8,60.13,1.3-5.123,2.824-10.087,4.462-14.866,10.6-30.982,30.09-45.449,42.668-51.849a43.534,43.534,0,0,0-16.857-3.6A33.975,33.975,0,0,0,154.087,171.2Z" transform="translate(-145.708 -105.02)"/><path class="c" d="M333.753,234.16c-7.224-13.462-20.232-22.848-39.617-28.778,2.807,7.675,6.088,20.6,3.658,34.94-.182,2.438-1.263,22.181,10.329,30.7,6.118,4.57,14.076,3.507,20.3-2.718a3.722,3.722,0,0,1,5.266,5.261,25.434,25.434,0,0,1-14.193,7.46c5.9,11.316.931,27.486.658,28.363a3.722,3.722,0,0,1-3.546,2.6,3.858,3.858,0,0,1-1.121-.17,3.728,3.728,0,0,1-2.431-4.667c.072-.219,6.695-21.841-5.3-27.686-9.438-4.594-13.869-13.408-15.895-21.617-1.033,2.1-2.189,4.361-3.453,6.757-.016.03-.035.057-.051.088-1.51,2.869-3.149,5.9-4.914,9.169-15.409,28.492-38.472,71.047-27.163,98.87A70.1,70.1,0,0,0,279.432,377h0c19.5,0,33.659-11.186,42.1-34.519C336.5,301.1,348.7,262.024,333.753,234.16Z" transform="translate(-160.326 -111.052)"/><path class="c" d="M202.791,339.454a171.707,171.707,0,0,0,30.853,18.721c-7.167-29.71,13.354-68.87,28.288-96.517A118.755,118.755,0,0,1,249,265.544c-1.731.451-3.441.893-5.1,1.36-3.52,1.31-6.87,2.532-10.143,3.708a26.986,26.986,0,0,0-3.355,1.965c-10.1,7.071-9.272,20.632-9.26,20.765a3.728,3.728,0,0,1-3.44,3.975c-.1.009-.186.015-.28.015a3.723,3.723,0,0,1-3.7-3.432,35.657,35.657,0,0,1,4.029-17.964c-10.55,3.163-20.048,5.106-29.222,5.106a3.722,3.722,0,0,1,0-7.443c7.832,0,16.081-1.571,25.274-4.22-16.231-.538-19.66-5.338-21.076-7.32a3.72,3.72,0,1,1,6.055-4.324c1.308,1.822,8.26,7.341,43.155,2,1.729-.485,3.471-.94,5.2-1.389,8.051-2.089,15.651-4.089,21.306-8.8,1.8-3.421,3.375-6.537,4.61-9.253,9.958-21.907.318-44.271-1.863-48.82-8.653-4.771-21.532-16.638-15.028-31.822,5.656-13.2,25.38-16.66,34.645-17.571l-5.183-17.261a120.979,120.979,0,0,0-12.662-.668c-21.805,0-50,6.217-60.448,35.829a3.734,3.734,0,0,1-2.662,2.387c-1.389.329-34.359,8.661-49.108,51.771C153.019,236.692,134.95,288.963,202.791,339.454Z" transform="translate(-146.653 -100.011)"/></g><path class="d" d="M233.644,364.019S94.934,252.025,211.685,167.15c0,0-59.3,15.539-59.027,103.645C152.658,270.8,160.384,328.689,233.644,364.019Z" transform="translate(-0.944 -9.641)"/><path class="d" d="M148.331,231.329s-13.5-76.839,47.13-66.715c0,0-35.776-16.3-48.411,20.563C147.05,185.178,143.98,216.48,148.331,231.329Z" transform="translate(-0.039 -8.809)"/><path class="d" d="M173.456,146.8l8.078-31.869,4.876-10.607,3.871,2.177L187,115.491l-7.615,30.477Z" transform="translate(-3.771 -1.102)"/><path class="d" d="M226.673,97.251l-2.487,15.288-12.635,11.24L210.1,150.488l3.128,1.635,1.992-27.436,11.455-9.179,2.864-18.258Z" transform="translate(-8.752 -0.141)"/></g></g></svg>