<svg xmlns="http://www.w3.org/2000/svg" width="1324.978" height="226.974" viewBox="0 0 1324.978 226.974">
  <g id="Page_05_img_01" transform="translate(379.755 382.551)">
    <path id="Path_2218" data-name="Path 2218" d="M-211.728-155.577l-2.685-.033L-228.1-363.875l-13.78,174.441-2.666.117c-1.142-4.752-2.994-10.337-4.052-11.279-2.355-.806-20.437-.377-30.192-.147-4.322.1-8.055.192-10.188.192-4.58,0-6.574-2.972-8.5-5.846-2.073-3.092-4.031-6.012-8.965-6.012s-7.18,2.96-9.555,6.1c-2.222,2.931-4.518,5.962-9.207,5.962h-54.548v-2h54.548c3.117,0,4.853-2.291,6.863-4.943,2.526-3.334,5.39-7.114,11.9-7.114,6.6,0,9.247,3.948,11.373,7.119,1.971,2.938,3.318,4.739,6.094,4.739,2.09,0,5.8-.088,10.1-.191,23.74-.561,30.642-.416,32.121.683.971.722,1.942,2.846,2.768,5.179l14.666-185.671,2.688.01,13.957,212.366c1.754-13.5,4.345-30.217,6.587-31.884,2.5-1.861,8.99-4.984,24.317-4.984,5.239,0,10.052-8.455,14.708-16.63,6.154-10.81,12.517-21.987,22.832-21.987,9.409,0,13.7,9.447,18.251,19.447,4.575,10.064,9.306,20.47,19.066,20.47a29.952,29.952,0,0,0,10.5-1.644,26.256,26.256,0,0,1,8.976-1.522c3.846,0,6.4,1.271,9.111,2.616,3.718,1.847,7.932,3.941,17.2,3.941H-43.47v2H-61.125c-10.086,0-14.861-2.372-18.7-4.278-2.562-1.274-4.587-2.279-7.616-2.279a22.718,22.718,0,0,0-7.922,1.362,33.331,33.331,0,0,1-11.555,1.8c-11.691,0-16.736-11.1-21.615-21.83-4.229-9.3-8.223-18.087-15.7-18.087-8.532,0-14.813,11.033-20.355,20.766-5.453,9.578-10.164,17.851-17.186,17.851-14.893,0-20.637,3.076-22.415,4.4C-206.042-198.8-209.465-176.04-211.728-155.577Z" fill="#a10c1a"/>
    <path id="Path_2219" data-name="Path 2219" d="M38.273-155.577l-2.685-.033L21.9-363.876,8.119-189.434l-2.666.117C4.312-194.069,2.46-199.653,1.4-200.6c-2.354-.807-20.439-.378-30.194-.147-4.321.1-8.053.192-10.187.192-4.58,0-6.574-2.972-8.5-5.847-2.073-3.091-4.031-6.011-8.965-6.011s-7.18,2.96-9.555,6.1c-2.222,2.931-4.518,5.962-9.206,5.962h-54.548v-2h54.548c3.115,0,4.852-2.291,6.862-4.943,2.526-3.334,5.389-7.114,11.9-7.114,6.6,0,9.245,3.948,11.373,7.119,1.971,2.938,3.32,4.739,6.095,4.739,2.09,0,5.8-.088,10.1-.191,23.74-.562,30.644-.417,32.122.683.971.722,1.941,2.844,2.768,5.177L20.68-382.551l2.686.01L37.325-170.177c1.754-13.5,4.343-30.215,6.586-31.882,2.5-1.861,8.99-4.984,24.317-4.984,5.239,0,10.052-8.455,14.708-16.63,6.153-10.81,12.518-21.987,22.832-21.987,9.409,0,13.7,9.447,18.25,19.447,4.576,10.064,9.307,20.47,19.067,20.47a29.952,29.952,0,0,0,10.5-1.644,26.255,26.255,0,0,1,8.976-1.522c3.847,0,6.4,1.271,9.111,2.616,3.719,1.847,7.932,3.941,17.2,3.941H206.53v2H188.875c-10.086,0-14.861-2.372-18.7-4.278-2.562-1.274-4.587-2.279-7.616-2.279a22.718,22.718,0,0,0-7.922,1.362,33.331,33.331,0,0,1-11.555,1.8c-11.691,0-16.735-11.1-21.615-21.83-4.229-9.3-8.223-18.087-15.7-18.087-8.532,0-14.814,11.033-20.355,20.766-5.455,9.578-10.164,17.851-17.186,17.851-14.895,0-20.637,3.076-22.415,4.4C43.958-198.8,40.536-176.04,38.273-155.577Z" transform="translate(86.286)" fill="#a10c1a"/>
    <path id="Path_2220" data-name="Path 2220" d="M283.529-155.577l-2.685-.033L267.157-363.875,253.376-189.434l-2.666.117c-1.142-4.752-2.994-10.337-4.05-11.279-2.357-.806-20.438-.377-30.193-.147-4.322.1-8.055.192-10.187.192-4.582,0-6.575-2.972-8.5-5.846-2.073-3.092-4.031-6.012-8.965-6.012s-7.18,2.96-9.555,6.1c-2.222,2.931-4.518,5.962-9.208,5.962H115.5v-2H170.05c3.117,0,4.853-2.291,6.863-4.943,2.528-3.334,5.39-7.114,11.9-7.114,6.6,0,9.246,3.948,11.373,7.119,1.971,2.938,3.32,4.739,6.095,4.739,2.089,0,5.8-.088,10.1-.191,23.74-.561,30.644-.416,32.121.683.971.722,1.942,2.846,2.768,5.179l14.667-185.671,2.686.01,13.957,212.366c1.755-13.5,4.345-30.217,6.587-31.884,2.5-1.861,8.99-4.984,24.317-4.984,5.239,0,10.054-8.455,14.708-16.63,6.154-10.81,12.518-21.987,22.832-21.987,9.409,0,13.7,9.447,18.251,19.447,4.575,10.064,9.306,20.47,19.066,20.47a29.952,29.952,0,0,0,10.5-1.644,26.255,26.255,0,0,1,8.976-1.522c3.847,0,6.4,1.271,9.111,2.616,3.718,1.847,7.934,3.941,17.2,3.941h17.655v2H434.132c-10.086,0-14.861-2.372-18.7-4.278-2.562-1.274-4.586-2.279-7.616-2.279a22.716,22.716,0,0,0-7.92,1.362,33.346,33.346,0,0,1-11.556,1.8c-11.691,0-16.736-11.1-21.615-21.83-4.229-9.3-8.223-18.087-15.7-18.087-8.532,0-14.813,11.033-20.355,20.766-5.453,9.578-10.163,17.851-17.186,17.851-14.893,0-20.637,3.076-22.415,4.4C289.215-198.8,285.793-176.04,283.529-155.577Z" transform="translate(170.934)" fill="#a10c1a"/>
    <path id="Path_2221" data-name="Path 2221" d="M523.281-155.577l-2.683-.033L506.909-363.875l-13.78,174.441-2.667.117c-1.141-4.752-2.994-10.337-4.05-11.279-2.355-.806-20.438-.377-30.193-.147-4.321.1-8.053.192-10.187.192-4.58,0-6.574-2.972-8.5-5.846-2.073-3.092-4.031-6.012-8.965-6.012s-7.18,2.96-9.556,6.1c-2.221,2.931-4.517,5.962-9.206,5.962H355.255v-2H409.8c3.117,0,4.853-2.291,6.863-4.943,2.526-3.334,5.389-7.114,11.9-7.114,6.6,0,9.245,3.948,11.373,7.119,1.971,2.938,3.318,4.739,6.093,4.739,2.09,0,5.8-.088,10.1-.191,23.74-.561,30.644-.416,32.122.683.971.722,1.942,2.846,2.768,5.179l14.666-185.671,2.686.01,13.958,212.366c1.754-13.5,4.344-30.217,6.586-31.884,2.5-1.861,8.991-4.984,24.318-4.984,5.241,0,10.054-8.455,14.709-16.63,6.154-10.81,12.517-21.987,22.833-21.987,9.409,0,13.7,9.447,18.251,19.447,4.575,10.064,9.306,20.47,19.066,20.47a29.953,29.953,0,0,0,10.5-1.644,26.246,26.246,0,0,1,8.975-1.522c3.847,0,6.4,1.271,9.112,2.616,3.718,1.847,7.932,3.941,17.2,3.941H691.54v2H673.885c-10.087,0-14.861-2.372-18.7-4.278-2.561-1.274-4.586-2.279-7.616-2.279a22.715,22.715,0,0,0-7.92,1.362,33.344,33.344,0,0,1-11.555,1.8c-11.691,0-16.736-11.1-21.616-21.83-4.228-9.3-8.222-18.087-15.7-18.087-8.532,0-14.814,11.033-20.355,20.766-5.453,9.578-10.164,17.851-17.187,17.851-14.892,0-20.636,3.076-22.415,4.4C528.967-198.8,525.545-176.04,523.281-155.577Z" transform="translate(253.683)" fill="#a10c1a"/>
  </g>
</svg>
