<?xml version="1.0" encoding="utf-8"?>
<!-- Generator: Adobe Illustrator 25.4.1, SVG Export Plug-In . SVG Version: 6.00 Build 0)  -->
<svg version="1.1" id="Layer_1" xmlns="http://www.w3.org/2000/svg" xmlns:xlink="http://www.w3.org/1999/xlink" x="0px" y="0px"
	 viewBox="0 0 256 256" style="enable-background:new 0 0 256 256;" xml:space="preserve">
<style type="text/css">
	.st0{fill:#2775BC;}
	.st1{fill:#74C12E;}
	.st2{fill:#39B54A;}
	.st3{fill:#009444;}
	.st4{fill:#006838;}
	.st5{fill:#594A42;}
	.st6{fill:#A2948C;stroke:#594A42;stroke-width:8.504;stroke-linejoin:round;}
	.st7{fill:#519877;stroke:#006838;stroke-width:8.504;stroke-linejoin:round;}
	.st8{fill:#31C474;stroke:#009444;stroke-width:8.504;stroke-linejoin:round;}
	.st9{fill:#91C899;stroke:#39B54A;stroke-width:8.504;stroke-linejoin:round;}
	.st10{fill:#A7DB79;stroke:#74C12E;stroke-width:8.504;stroke-linejoin:round;}
</style>
<g id="Group_3109" transform="translate(-1638.94 -966.296)">
	<g id="Group_3108" transform="translate(2084.94 1131.796)">
		<g id="Group_3107" transform="translate(0 0)">
			<g id="Group_3106">
				<path id="Path_3323" class="st0" d="M-256.9-99c-3.9-9.4-0.7-23.7-7.8-30.7s-21.4-3.9-30.7-7.8c-9-3.7-16.8-16.2-27.2-16.2
					s-18.2,12.5-27.2,16.2c-9.4,3.9-23.7,0.7-30.7,7.8c-7,7-3.9,21.4-7.8,30.7c-3.7,9-16.2,16.8-16.2,27.2s12.5,18.2,16.2,27.2
					c3.9,9.4,0.7,23.7,7.8,30.7c7,7,21.4,3.9,30.7,7.8c9,3.7,16.8,16.2,27.2,16.2c10.4,0,18.2-12.5,27.2-16.2
					c9.4-3.9,23.7-0.7,30.7-7.8s3.9-21.4,7.8-30.7c3.7-9,16.2-16.8,16.2-27.2C-240.7-82.1-253.2-90-256.9-99z M-322.6-25.7
					c-25.4,0-46.1-20.6-46.1-46.1s20.6-46.1,46.1-46.1c25.4,0,46.1,20.6,46.1,46.1C-276.5-46.3-297.2-25.7-322.6-25.7L-322.6-25.7z"
					/>
				<path id="Path_3324" class="st0" d="M-327.5-50.2l10.5-10.5l22.1-22.1l-10.5-10.5l-22.1,22.1l-12.2-12.2L-350.2-73l12.2,12.2
					L-327.5-50.2z M-268.7,70.6l-9.3-65.8c-1,0.1-2,0.2-3,0.3c-3.1,0.1-6.1,0.6-9.1,1.4c-2.5,1.4-4.8,3.2-6.9,5.1
					c-6,5.1-14.3,12.1-25.5,12.1s-19.4-7-25.5-12.1c-2.1-2-4.4-3.7-6.9-5.1c-3-0.8-6-1.3-9.1-1.4c-0.7-0.1-1.4-0.1-2.1-0.2
					l-10.1,67.3c-0.5,3.1,1.7,6,4.8,6.5c1.2,0.2,2.4,0,3.5-0.6l43.4-22.4c1.6-0.8,3.5-0.9,5.1-0.1l42.6,20.9
					c2.8,1.4,6.3,0.2,7.7-2.6C-268.8,72.8-268.6,71.7-268.7,70.6L-268.7,70.6z"/>
			</g>
		</g>
	</g>
</g>
</svg>
