<svg id="Page_04_img_02" xmlns="http://www.w3.org/2000/svg" xmlns:xlink="http://www.w3.org/1999/xlink" width="43.979" height="72.5" viewBox="0 0 43.979 72.5">
  <defs>
    <clipPath id="clip-path">
      <rect id="Rectangle_32" data-name="Rectangle 32" width="43.979" height="72.5" fill="#a10c1a"/>
    </clipPath>
  </defs>
  <g id="Group_37" data-name="Group 37" clip-path="url(#clip-path)">
    <path id="Path_23" data-name="Path 23" d="M42.781,40.347a12.858,12.858,0,0,0-3.4-4.6,19.111,19.111,0,0,0-5.372-3.169A65.94,65.94,0,0,0,26.9,30.221L24.424,29.6l-3.633-1.082a12.092,12.092,0,0,1-4.058-1.971A3.752,3.752,0,0,1,15.381,23.5q0-4.018,5.41-4.483a15.81,15.81,0,0,1,3.633.077,17.848,17.848,0,0,1,4.29,1.043,40.486,40.486,0,0,1,3.865,1.546,27.989,27.989,0,0,1,2.86,1.507,6.027,6.027,0,0,1,1.353,1l5.565-10.512A63.223,63.223,0,0,0,34.7,10.048a32.766,32.766,0,0,0-7.937-2.073C26.274,7.909,25.47,0,25.47,0H19.746s-.508,7.886-.855,7.935a25.451,25.451,0,0,0-5.867,1.533,17.2,17.2,0,0,0-5.565,3.517A16.646,16.646,0,0,0,3.71,18.357a17.44,17.44,0,0,0-1.391,7.149,15.064,15.064,0,0,0,.889,5.411,11.353,11.353,0,0,0,2.705,4.1,17.307,17.307,0,0,0,4.6,3.13,45.7,45.7,0,0,0,6.57,2.512l3.71,1.082L24.424,42.9a17.947,17.947,0,0,1,4.328,2.048,3.593,3.593,0,0,1,1.623,3.13q0,3.866-5.951,4.1a35.745,35.745,0,0,1-3.633-.155,28.513,28.513,0,0,1-5.41-1.275,47.029,47.029,0,0,1-4.715-1.855,26.9,26.9,0,0,1-3.44-1.855,8.518,8.518,0,0,1-1.662-1.275L0,56.81a38.094,38.094,0,0,0,9.391,4.483A47.31,47.31,0,0,0,18.419,63.3c.507.061,1.327,9.2,1.327,9.2H25.47s.758-9.017,1.228-9.058a28.38,28.38,0,0,0,5.648-1.067A18.433,18.433,0,0,0,38.3,59.4a14.277,14.277,0,0,0,4.135-5.063,16.626,16.626,0,0,0,1.546-7.5,15.977,15.977,0,0,0-1.2-6.493" fill="#a10c1a"/>
  </g>
</svg>
