<?xml version="1.0" encoding="utf-8"?>
<!-- Generator: Adobe Illustrator 25.4.1, SVG Export Plug-In . SVG Version: 6.00 Build 0)  -->
<svg version="1.1" id="Layer_1" xmlns="http://www.w3.org/2000/svg" xmlns:xlink="http://www.w3.org/1999/xlink" x="0px" y="0px"
	 viewBox="0 0 256 256" style="enable-background:new 0 0 256 256;" xml:space="preserve">
<style type="text/css">
	.st0{fill:#2775BC;}
	.st1{fill:#74C12E;}
	.st2{fill:#39B54A;}
	.st3{fill:#009444;}
	.st4{fill:#006838;}
	.st5{fill:#594A42;}
	.st6{fill:#A2948C;stroke:#594A42;stroke-width:8.504;stroke-linejoin:round;}
	.st7{fill:#519877;stroke:#006838;stroke-width:8.504;stroke-linejoin:round;}
	.st8{fill:#31C474;stroke:#009444;stroke-width:8.504;stroke-linejoin:round;}
	.st9{fill:#91C899;stroke:#39B54A;stroke-width:8.504;stroke-linejoin:round;}
	.st10{fill:#A7DB79;stroke:#74C12E;stroke-width:8.504;stroke-linejoin:round;}
</style>
<g id="Group_3093" transform="translate(-1865.759 -2515.776)">
	<g id="Group_3092" transform="translate(2511.759 2522.491)">
		<g id="Group_3091" transform="translate(0)">
			<g id="Group_3090">
				<path id="Path_3313" class="st0" d="M-404.7,224.4L-486,80.9c-3-5.3-9.7-7.1-15-4.1c-1.8,1-3.3,2.6-4.3,4.4l-33.3,62.4
					l17.8,31.1c3.3,5.8,2.3,13.1-2.5,17.8l-4.6-0.7l-35-61.3c-3-5.3-9.7-7.1-15-4.1c-1.8,1-3.3,2.6-4.3,4.4l-49.1,93.7
					c-0.7,1.3-0.2,3,1.2,3.7c0.4,0.2,0.8,0.3,1.3,0.3h221.7c1.5,0,2.7-1.2,2.7-2.8C-404.4,225.2-404.5,224.8-404.7,224.4z"/>
				<path id="Path_3314" class="st0" d="M-448.5,42.4c-0.9-1.1-0.9-2.7,0-3.8l11.8-13.8c1.1-1.2,0.9-3.1-0.3-4.1
					c-0.5-0.5-1.2-0.7-1.9-0.7h-55.1c-1.6,0-2.9,1.3-2.9,2.9c0,0,0,0,0,0V58c0,1.6,1.3,2.9,2.9,2.9c0,0,0,0,0,0h55.1
					c1.6,0,2.9-1.3,2.9-2.9c0-0.7-0.2-1.4-0.7-1.9L-448.5,42.4z"/>
			</g>
		</g>
	</g>
</g>
</svg>
