<?xml version="1.0" encoding="utf-8"?>
<!-- Generator: Adobe Illustrator 25.4.1, SVG Export Plug-In . SVG Version: 6.00 Build 0)  -->
<svg version="1.1" id="Layer_1" xmlns="http://www.w3.org/2000/svg" xmlns:xlink="http://www.w3.org/1999/xlink" x="0px" y="0px"
	 viewBox="0 0 256 256" style="enable-background:new 0 0 256 256;" xml:space="preserve">
<style type="text/css">
	.st0{fill:#2775BC;}
	.st1{fill:#74C12E;}
	.st2{fill:#39B54A;}
	.st3{fill:#009444;}
	.st4{fill:#006838;}
	.st5{fill:#594A42;}
	.st6{fill:#A2948C;stroke:#594A42;stroke-width:8.504;stroke-linejoin:round;}
	.st7{fill:#519877;stroke:#006838;stroke-width:8.504;stroke-linejoin:round;}
	.st8{fill:#31C474;stroke:#009444;stroke-width:8.504;stroke-linejoin:round;}
	.st9{fill:#91C899;stroke:#39B54A;stroke-width:8.504;stroke-linejoin:round;}
	.st10{fill:#A7DB79;stroke:#74C12E;stroke-width:8.504;stroke-linejoin:round;}
</style>
<g id="Group_3096" transform="translate(-728.675 -2054.954)">
	<g id="Group_3095" transform="translate(1169.676 2054.954)">
		<g id="Group_3094" transform="translate(0 0)">
			<path id="Path_3315" class="st0" d="M-295,122.7h-0.3c-4.7,0.1-8.4,4-8.4,8.7v102.8c0,4.9,4,8.8,8.8,8.8c4.8,0,8.7-3.9,8.8-8.8
				V131.3c0-4.8-3.9-8.7-8.7-8.7C-294.8,122.7-294.9,122.7-295,122.7z M-236.2,45.7c-1.3-1.5-1.3-3.8,0-5.3l16.4-19.1
				c1.5-1.7,1.3-4.3-0.4-5.7c-0.7-0.6-1.7-1-2.7-1h-76.7c-2.3,0-4.1,1.8-4.1,4.1l0,0v48.9c0,2.2,1.8,4.1,4.1,4.1c0,0,0,0,0,0h76.7
				c2.3,0,4.1-1.8,4.1-4.1c0-1-0.3-1.9-1-2.6L-236.2,45.7z"/>
			<path id="Path_3316" class="st0" d="M-361.5,68.3c15.3,0,27.6-12.4,27.6-27.6S-346.2,13-361.5,13c-15.3,0-27.6,12.4-27.6,27.6
				S-376.7,68.3-361.5,68.3L-361.5,68.3z M-291.9,84.8h-89.8c-5.6,0-10.5,4-11.5,9.6L-404,152c-0.6,3.1,0.1,6.2,1.9,8.8l14.7,21.4
				c1.2,1.7,1.9,3.7,2,5.7l3.6,44.3c0.5,6.1,5.6,10.8,11.7,10.8h15.9c6.1,0,11.2-4.7,11.7-10.8l3.6-45.2c0.1-1.4,0.5-2.9,1.1-4.2
				l3.7-7.7c0.8-1.6,1.2-3.3,1.2-5.1v-61.8h41c6.5,0,11.7-5.2,11.7-11.7C-280.2,90.1-285.5,84.8-291.9,84.8L-291.9,84.8z"/>
		</g>
	</g>
</g>
</svg>
