<?xml version="1.0" encoding="utf-8"?>
<!-- Generator: Adobe Illustrator 25.4.1, SVG Export Plug-In . SVG Version: 6.00 Build 0)  -->
<svg version="1.1" id="Layer_1" xmlns="http://www.w3.org/2000/svg" xmlns:xlink="http://www.w3.org/1999/xlink" x="0px" y="0px"
	 viewBox="0 0 256 256" style="enable-background:new 0 0 256 256;" xml:space="preserve">
<style type="text/css">
	.st0{fill:#2775BC;}
	.st1{fill:#74C12E;}
	.st2{fill:#39B54A;}
	.st3{fill:#009444;}
	.st4{fill:#006838;}
	.st5{fill:#594A42;}
	.st6{fill:#A2948C;stroke:#594A42;stroke-width:8.504;stroke-linejoin:round;}
	.st7{fill:#519877;stroke:#006838;stroke-width:8.504;stroke-linejoin:round;}
	.st8{fill:#31C474;stroke:#009444;stroke-width:8.504;stroke-linejoin:round;}
	.st9{fill:#91C899;stroke:#39B54A;stroke-width:8.504;stroke-linejoin:round;}
	.st10{fill:#A7DB79;stroke:#74C12E;stroke-width:8.504;stroke-linejoin:round;}
</style>
<g id="Group_3121" transform="translate(-15.414 -1895.951)">
	<g id="Group_3119" transform="translate(225.414 2064.808)">
		<g id="Group_3118">
			<g id="Group_3117">
				<path id="Path_3330" class="st0" d="M-20.8-22.7L-62.6,9.9c-2.1,1.6-4.6,2.5-7.3,2.5l-29.9,0c-4.1,0-7.4-3.3-7.4-7.3
					c0-4.1,3.3-7.4,7.3-7.4c0,0,0.1,0,0.1,0l25.1,0c8.1-0.1,14.7-6.8,14.6-14.9c-0.1-8-6.5-14.4-14.5-14.6l-57.4-0.1l0,0h-3.9
					c-7.9,0-15.6,2.6-21.9,7.5l-20.5,16c-1.3,1-1.5,2.9-0.5,4.1c0,0,0,0,0,0l39.7,50.4c0.6,0.7,1.4,1.1,2.3,1.1l48.1,0.5l13.3,0.1
					c8.1,0.1,15.9-2.6,22.3-7.6L-2.6,0.6c6.4-5.1,7.4-14.4,2.2-20.8C-5.3-26.4-14.4-27.5-20.8-22.7z M14.8-77.6L-24.9-128
					c-0.6-0.7-1.4-1.1-2.3-1.1l-48.1-0.5l-13.3-0.1c-8.1-0.1-15.9,2.6-22.3,7.6l-50.6,39.8c-6.4,5-7.5,14.3-2.5,20.7
					s14.3,7.5,20.7,2.5l41.8-32.6c2.1-1.6,4.6-2.5,7.3-2.5l29.9,0c4.1,0.1,7.3,3.4,7.2,7.5c-0.1,4-3.3,7.1-7.2,7.2l-25.1,0
					c-8.1,0.1-14.7,6.8-14.6,14.9c0.1,8,6.5,14.5,14.5,14.6l41.2,0l20.1,0c7.9,0,15.6-2.6,21.9-7.5l20.5-16
					C15.6-74.4,15.8-76.3,14.8-77.6C14.8-77.6,14.8-77.6,14.8-77.6L14.8-77.6z"/>
				<path id="Path_3331" class="st0" d="M-190.4,5c-1-1.3-2.9-1.5-4.1-0.5c0,0,0,0,0,0l-9.3,7.3c-1.3,1-1.5,2.9-0.5,4.1c0,0,0,0,0,0
					l38.8,49.2c1,1.3,2.9,1.5,4.1,0.5c0,0,0,0,0,0l9.3-7.3c1.3-1,1.5-2.9,0.5-4.1L-190.4,5z M40.3-97.6L1.5-146.8
					c-1-1.3-2.9-1.5-4.1-0.5c0,0,0,0,0,0l-9.3,7.3c-1.3,1-1.5,2.9-0.5,4.1l38.8,49.2c1,1.3,2.9,1.5,4.1,0.5c0,0,0,0,0,0l9.3-7.3
					C41.1-94.5,41.3-96.3,40.3-97.6C40.3-97.6,40.3-97.6,40.3-97.6L40.3-97.6z"/>
			</g>
		</g>
	</g>
</g>
</svg>
