<?xml version="1.0" encoding="utf-8"?>
<!-- Generator: Adobe Illustrator 25.4.1, SVG Export Plug-In . SVG Version: 6.00 Build 0)  -->
<svg version="1.1" id="Layer_1" xmlns="http://www.w3.org/2000/svg" xmlns:xlink="http://www.w3.org/1999/xlink" x="0px" y="0px"
	 viewBox="0 0 256 256" style="enable-background:new 0 0 256 256;" xml:space="preserve">
<style type="text/css">
	.st0{fill:#2775BC;}
	.st1{fill:#74C12E;}
	.st2{fill:#39B54A;}
	.st3{fill:#009444;}
	.st4{fill:#006838;}
	.st5{fill:#594A42;}
	.st6{fill:#A2948C;stroke:#594A42;stroke-width:8.504;stroke-linejoin:round;}
	.st7{fill:#519877;stroke:#006838;stroke-width:8.504;stroke-linejoin:round;}
	.st8{fill:#31C474;stroke:#009444;stroke-width:8.504;stroke-linejoin:round;}
	.st9{fill:#91C899;stroke:#39B54A;stroke-width:8.504;stroke-linejoin:round;}
	.st10{fill:#A7DB79;stroke:#74C12E;stroke-width:8.504;stroke-linejoin:round;}
</style>
<g id="Group_3111" transform="translate(-2295.281 -1140.462)">
	<g id="Group_3110" transform="translate(2511.281 1140.462)">
		<path id="Path_3325" class="st0" d="M-122.7,140.6h-74.5c-1.6,0-2.9,1.3-2.9,2.8c0,0.1,0,0.1,0,0.2c1.8,22.2,21.2,38.7,43.4,37
			c19.7-1.6,35.4-17.2,37-37c0.1-1.6-1.2-2.9-2.7-3C-122.5,140.6-122.6,140.6-122.7,140.6z M21.2,140.6h-74.5
			c-1.6,0-2.9,1.3-2.9,2.8c0,0.1,0,0.1,0,0.2c1.8,22.2,21.2,38.7,43.4,37c19.7-1.6,35.4-17.2,37-37c0.1-1.6-1.1-2.9-2.7-3
			C21.3,140.6,21.3,140.6,21.2,140.6L21.2,140.6z"/>
		<path id="Path_3326" class="st0" d="M-9.5,72.1c-0.9-2.2-2.9-3.7-5.2-4.2c-0.7-0.4-1.5-0.7-2.2-1c-17.4-4-35.2-6.4-53.1-6.9
			c-2.3-4.8-6.5-8.5-11.5-10.3l7.3-10.3c0.6-0.9,0.7-2,0.2-2.9l-11.5-23.1c-0.7-1.4-2.4-2-3.9-1.3c-0.6,0.3-1,0.7-1.3,1.3
			l-11.5,23.1c-0.5,0.9-0.4,2.1,0.2,2.9l7.3,10.3c-5.1,1.8-9.2,5.5-11.5,10.3c-17.9,0.6-35.6,2.9-53.1,6.9c-0.8,0.2-1.5,0.5-2.2,1
			c-2.3,0.5-4.2,2-5.2,4.2l-22.7,54.2h15.6l13.7-32.8l13.7,32.8h15.6L-149,82.3c14.1-2.8,28.5-4.5,42.9-5c1.5,3.2,3.8,5.9,6.6,7.9
			v113H-111c-6.4,0-11.5,5.2-11.5,11.5v5.8h-17.3c-6.4,0-11.5,5.2-11.5,11.5v14.4c0,1.6,1.3,2.9,2.9,2.9h120.8
			c1.6,0,2.9-1.3,2.9-2.9v-14.4c0-6.4-5.2-11.5-11.5-11.5h-17.3v-5.8c0-6.4-5.2-11.5-11.5-11.5h-11.5v-113c2.9-2,5.1-4.7,6.6-7.9
			c14.4,0.5,28.7,2.2,42.9,5l-18.4,43.9h15.6l13.7-32.8l13.7,32.8h15.6L-9.5,72.1z"/>
	</g>
</g>
</svg>
