<?xml version="1.0" encoding="utf-8"?>
<!-- Generator: Adobe Illustrator 25.4.1, SVG Export Plug-In . SVG Version: 6.00 Build 0)  -->
<svg version="1.1" id="Layer_1" xmlns="http://www.w3.org/2000/svg" xmlns:xlink="http://www.w3.org/1999/xlink" x="0px" y="0px"
	 viewBox="0 0 256 256" style="enable-background:new 0 0 256 256;" xml:space="preserve">
<style type="text/css">
	.st0{fill:#2775BC;}
	.st1{fill:#74C12E;}
	.st2{fill:#39B54A;}
	.st3{fill:#009444;}
	.st4{fill:#006838;}
	.st5{fill:#594A42;}
	.st6{fill:#A2948C;stroke:#594A42;stroke-width:8.504;stroke-linejoin:round;}
	.st7{fill:#519877;stroke:#006838;stroke-width:8.504;stroke-linejoin:round;}
	.st8{fill:#31C474;stroke:#009444;stroke-width:8.504;stroke-linejoin:round;}
	.st9{fill:#91C899;stroke:#39B54A;stroke-width:8.504;stroke-linejoin:round;}
	.st10{fill:#A7DB79;stroke:#74C12E;stroke-width:8.504;stroke-linejoin:round;}
</style>
<g id="Group_3100" transform="translate(-2068.333 -694.265)">
	<g id="Group_3099" transform="translate(2068.333 694.265)">
		<g id="Group_3098" transform="translate(0)">
			<g id="Group_3097">
				<path id="Path_3317" class="st0" d="M237.2,153.4L237.2,153.4c-5.3-6.7-15-7.8-21.7-2.6l-43.7,34.2c-2.2,1.7-4.8,2.6-7.6,2.6
					l-31.3,0c-4.3,0-7.7-3.4-7.7-7.7c0-4.3,3.4-7.7,7.7-7.7l26.2,0c8.5,0,15.4-6.9,15.4-15.4c0-8.5-6.9-15.4-15.4-15.4l-60.1,0.1H95
					c-8.3,0-16.3,2.8-22.9,7.9l-21.4,16.8c-1.3,1.1-1.6,3-0.5,4.3l41.6,52.6c0.6,0.7,1.5,1.2,2.4,1.2l50.4,0.4l13.9,0.1
					c8.4,0.1,16.7-2.7,23.3-8l52.9-41.8C241.4,169.8,242.5,160.1,237.2,153.4C237.2,153.4,237.2,153.4,237.2,153.4z"/>
				<path id="Path_3318" class="st0" d="M38.1,180.1c-1.1-1.3-3-1.6-4.3-0.5c0,0,0,0,0,0l-9.7,7.7c-1.3,1.1-1.6,3-0.5,4.3
					c0,0,0,0,0,0L64.2,243c1.1,1.3,3,1.6,4.3,0.5c0,0,0,0,0,0l9.7-7.7c1.3-1.1,1.6-3,0.5-4.3v0L38.1,180.1z M148,70
					c16.1,0,29.1-13,29.1-29.1c0-16.1-13-29.1-29.1-29.1c-16.1,0-29.1,13-29.1,29.1C118.9,57,131.9,70,148,70C148,70,148,70,148,70z
					 M174.9,88.2h-53.8c-12.2,0-22,10.6-22,23.7v6.8c-0.1,3.8,2.9,7.1,6.7,7.2h84.4c3.8-0.1,6.8-3.4,6.7-7.2v-6.8
					C196.9,98.8,187,88.2,174.9,88.2L174.9,88.2z"/>
			</g>
		</g>
	</g>
</g>
</svg>
