<?xml version="1.0" encoding="utf-8"?>
<!-- Generator: Adobe Illustrator 25.4.1, SVG Export Plug-In . SVG Version: 6.00 Build 0)  -->
<svg version="1.1" id="Layer_1" xmlns="http://www.w3.org/2000/svg" xmlns:xlink="http://www.w3.org/1999/xlink" x="0px" y="0px"
	 viewBox="0 0 256 256" style="enable-background:new 0 0 256 256;" xml:space="preserve">
<style type="text/css">
	.st0{fill:#2775BC;}
	.st1{fill:#74C12E;}
	.st2{fill:#39B54A;}
	.st3{fill:#009444;}
	.st4{fill:#006838;}
	.st5{fill:#594A42;}
	.st6{fill:#A2948C;stroke:#594A42;stroke-width:8.504;stroke-linejoin:round;}
	.st7{fill:#519877;stroke:#006838;stroke-width:8.504;stroke-linejoin:round;}
	.st8{fill:#31C474;stroke:#009444;stroke-width:8.504;stroke-linejoin:round;}
	.st9{fill:#91C899;stroke:#39B54A;stroke-width:8.504;stroke-linejoin:round;}
	.st10{fill:#A7DB79;stroke:#74C12E;stroke-width:8.504;stroke-linejoin:round;}
</style>
<g id="Group_3102" transform="translate(-505.134 -1428.025)">
	<g id="Group_3101" transform="translate(1159.135 1600.239)">
		<path id="Path_3319" class="st0" d="M-565.5,11.6c-0.4-1.1-1.5-1.9-2.8-1.9h-21.6c-21.9,0-39.7,17.8-39.7,39.7V69c0,1.6,1.3,3,3,3
			h80.2c1.6,0,3-1.3,3-3c0-0.4-0.1-0.7-0.2-1.1L-565.5,11.6z M-462.1,9.7h-21.6c-1.2,0-2.3,0.8-2.8,1.9l-21.9,56.4
			c-0.6,1.5,0.2,3.3,1.7,3.9c0.3,0.1,0.7,0.2,1.1,0.2h80.1c1.6,0,3-1.3,3-3V49.3C-422.5,27.4-440.2,9.7-462.1,9.7z"/>
		<path id="Path_3320" class="st0" d="M-526,11.3c-4.9,0-8.9,4-8.9,8.9c0,0,0,0,0,0v41.6c0,4.9,4,8.9,8.9,9c4.9,0,8.9-4,9-8.9
			c0,0,0-0.1,0-0.1V20.2C-517.1,15.3-521.1,11.3-526,11.3z M-447-92.3c-0.3-1.8-1.8-3.1-3.6-3.1h-7.5c-2.4-0.7-4.4-2.6-5.1-5.1
			c-1.4-4.4-3.3-8.6-5.6-12.6c-0.8-1.4-0.6-3.2,0.5-4.4l6-6c1.3-1.3,1.5-3.3,0.4-4.8c-4.6-6.2-10.1-11.7-16.3-16.3
			c-1.5-1.1-3.5-0.9-4.8,0.4l-6,6c-1.2,1.2-3,1.4-4.4,0.5c-5.6-3.2-11.7-5.6-18-7l0,0v-11.3c0-1.8-1.3-3.3-3.1-3.6
			c-7.7-1.2-15.5-1.2-23.1,0c-1.8,0.3-3.1,1.8-3.1,3.6v11.3l0,0c-6.3,1.4-12.4,3.8-18,7c-1.4,0.8-3.2,0.6-4.4-0.5l-6-6
			c-1.3-1.3-3.3-1.5-4.8-0.4c-6.2,4.6-11.7,10.1-16.3,16.3c-1.1,1.5-0.9,3.5,0.4,4.8l6,6c1.2,1.2,1.4,3,0.5,4.4
			c-2.3,4-4.1,8.2-5.6,12.6c-0.8,2.4-2.7,4.3-5.1,5.1h-7.5c-1.8,0-3.3,1.3-3.6,3.1c-1.2,7.8-1.2,15.7,0,23.5
			c0.3,1.8,1.8,3.1,3.6,3.1h7.5c2.4,0.7,4.4,2.6,5.1,5.1c1.4,4.4,3.3,8.6,5.6,12.6c0.8,1.4,0.6,3.2-0.5,4.4l-6,6
			c-1.3,1.3-1.5,3.3-0.4,4.8c4.6,6.2,10.1,11.7,16.3,16.3c1.5,1.1,3.5,0.9,4.8-0.4l6-6c1.2-1.2,3-1.4,4.4-0.5c5.6,3.2,11.7,5.6,18,7
			l0,0v11.3c0,1.8,1.3,3.3,3.1,3.6c7.7,1.2,15.5,1.2,23.1,0c1.8-0.3,3.1-1.8,3.1-3.6v-11.3l0,0c6.3-1.4,12.4-3.8,18-7
			c1.4-0.8,3.2-0.6,4.4,0.5l6,6c1.3,1.3,3.3,1.5,4.8,0.4c6.2-4.6,11.7-10.1,16.3-16.3c1.1-1.5,0.9-3.5-0.4-4.8l-6-6
			c-1.2-1.2-1.4-3-0.5-4.4c2.3-4,4.1-8.2,5.6-12.6c0.8-2.4,2.7-4.3,5.1-5.1h7.5c1.8,0,3.3-1.3,3.6-3.1
			C-445.8-76.6-445.8-84.5-447-92.3L-447-92.3z M-495.8-75.7c-2.7,16.7-18.3,28-35,25.3c-16.7-2.7-28-18.3-25.3-35
			c2.1-13,12.3-23.2,25.3-25.3c16.7-2.6,32.4,8.9,35,25.6C-495.4-82-495.4-78.8-495.8-75.7L-495.8-75.7z"/>
	</g>
</g>
</svg>
