<svg xmlns="http://www.w3.org/2000/svg" width="1470.463" height="1603.907" viewBox="0 0 1470.463 1603.907"><defs><style>.a{fill:#e5dbc8;}</style></defs><path class="a" d="M383.168,279.705l24.5,14.185h11.606v7.737l6.446,6.448,12.9,6.448h18.054v6.448h7.737s2.578,2.578,0,6.448-7.737,0-7.737,0-3.869,9.026-9.028,9.026-16.763,6.448-16.763,6.448l-6.52,6.448v9.026s5.086,0,0,6.448l-5.085,6.448L413.6,382.608l-.772,1.547,5.157,7.737,6.376,9.026h-6.376l-6.448,9.028h-3.868l-10.317,11.6-6.446,9.026-7.737,12.9s5.157-6.446,5.157,0v6.448s-1.289-5.158-5.157,0,5.157-1.289-3.869,5.158-15.474,6.448-15.474,10.315v12.9s-5.158,7.737-6.448,11.606l-1.289,3.868s-5.158,7.737-9.028,9.028-5.157-5.158-9.026,0-11.606,10.315-14.185,14.185,1.289,0-10.317,11.6S292.9,550.5,292.9,550.5s3.868,5.158,0,9.026-7.737,12.9-7.737,12.9v3.869s-7.738-3.869-11.606,0-5.158,5.157-10.317,7.737-7.737-7.737-11.6,0-14.185,10.315-14.185,10.315-5.158,9.026-9.028,0-6.446-15.474-6.446-15.474v-7.737c-11.606,1.289-20.632,6.448-23.212,10.315s-9.026,16.908-9.026,16.908,11.606,1.145,0,7.593-15.474,15.474-15.474,15.474v6.448l-7.737,11.606,6.448,7.737s-2.58-3.869,7.737,0l10.317,3.869s6.446-9.028,9.026,0a68,68,0,0,1,2.578,16.763l-2.578,9.026-2.58,11.606s-10.315,3.868-6.446,6.448,5.157-6.448,10.315,0-3.869,2.578,5.157,6.446l9.028,3.869h7.737a100,100,0,0,1,1.289,11.606c0,3.868-6.448-5.158,0,3.868s12.9,3.869,14.185,14.185a36.033,36.033,0,0,0,6.448,16.763l1.289,15.475s2.58,6.446-2.578,10.315-9.026,9.026-14.185,9.026h-5.158l-6.448-6.448c-6.448-6.448,3.869-10.315-6.448-6.448a32.57,32.57,0,0,0-15.474,12.9c-6.448,1.289,6.448,2.58-11.606,0s-6.446-2.578-18.052-2.578-12.9,6.846-20.632,4.067-15.474.663-15.474.663v9.455H104.634L98.188,812.27v12.9l11.6-6.448,6.448-11.6,6.448-1.291s7.737,1.291,6.446,5.158l-1.288,3.869L116.24,825.166l2.578,9.026,7.737,7.737h10.317l6.446,12.9s2.58-6.448,6.449,0,6.446,6.446,10.315,6.446,0,2.58,10.315,0,6.448,10.031,15.475,1.147,0-5.014,9.026-8.884,0-3.868,9.026-3.868,11.606-12.894,9.028,0-7.738,15.968-7.738,15.968-1.289,5.953-5.157,7.244-11.606,0-11.606,0,0,7.737-5.158,9.026-6.448-5.158-11.6,0-12.9,7.737-12.9,7.737l-9.026-1.289-6.449,1.289s-3.868,3.868-3.868,7.737,1.289,0,5.158,5.8,7.737,4.514,10.315,9.672,2.58,6.448,9.028,11.606,60.606,49,60.606,49,28.369,5.16,32.238,0,10.315-9.026,15.474-11.6,1.145-2.58,9.6-3.869l8.453-1.288s3.869,9.025,6.448-3.869,2.578-19.343,5.158-23.212,5.158-26.435,5.158-26.435l2.578-8.38c6.448-3.869-1.289-1.291,6.448-3.869l7.737-2.579h0l3.869,6.448s-7.737,5.154-7.737,8.38V906.4h0l2.578,7.737,2.578,7.737,7.737,9.028v6.446l-5.157,9.028,2.578,7.737,6.448,5.157s2.578,5.158,0,9.028a48.962,48.962,0,0,1-6.448,7.451s-2.578,8.023-2.578,11.891v12.9a26.66,26.66,0,0,0-2.58,10.315v5.158s0,10.315,2.58,14.185,5.157,12.9,5.157,12.9l-1.289,6.446,1.289,10.317s11.606,10.315,12.9,6.448l1.289-3.869h0c-1.289,3.869-6.448,12.894-6.448,12.894l-5.157,7.738s-1.289,5.158,1.289,9.026,7.737,12.9,7.737,12.9-1.289-2.578,0,6.448a118.025,118.025,0,0,1,1.289,20.632c0,7.737-2.578,11.6,0,23.212s5.158,18.052,6.448,25.789,2.578,14.185,5.158,20.631,5.157,20.634,5.157,20.634l7.737,11.6h6.448s3.869,6.448,5.158,10.317a134.685,134.685,0,0,0,6.448,15.474c2.58,5.158,3.869,5.158,6.448,14.184l2.578,9.026,9.026,15.474s3.869,3.869,3.869,9.026,2.58,7.738,2.58,12.9,3.868,11.606,3.868,11.606l10.317,7.737s5.157,3.868,5.157,7.738,2.58,6.446,2.58,11.6,1.289,20.631,1.289,20.631,0-1.288,1.289,6.448,6.448,23.212,6.448,23.212,0-5.158,5.158,9.026,7.737,21.921,10.315,25.791,6.3,12.9,6.3,12.9,6.592-1.291,9.17,6.448,9.026,12.894,9.026,12.894-3.868,5.158,0,9.027,6.449,10.315,7.737,15.474,10.317,12.894,10.317,12.894v12.9L509.538,1546v25.789L531.46,1595s-7.737,1.289,0,3.869l7.737,2.578,10.317,14.183v6.449l10.315,10.315c11.606,1.289,2.578,2.58,11.606,1.289s-1.289,6.448,9.026-1.289l10.315-7.737s6.449-3.868,7.737-7.737,6.449-14.184,6.449-14.184V1595l7.737-10.316,6.448-9.027h10.315l6.448,1.291h23.211v-5.16l-6.448-2.577h-7.737l-3.868-7.737,1.289-9.028s19.341-6.448,16.763-10.317l-2.578-3.868,2.815-10.317s-4.922-2.577,0-5.157l4.922-2.58,11.606-2.578,7.735,1.291,7.738-2.58s5.157-5.157,0-9.026S683.621,1497,683.621,1497v-6.449c2.58-10.315,2.58-12.9,2.58-16.763V1462.18l-2.58-10.316s-5.157,3.868-2.578-7.737l2.578-11.606,3.869-6.448s4.584-1.289,6.16-5.157l1.577-3.869h0s7.737-6.448,9.028-10.315-5.158-5.16,0-9.028,1.289,5.158,5.157-3.869,6.448-16.761,6.448-16.761v-12.9a58.657,58.657,0,0,1-10.315-5.157l-6.448-3.868,1.289-7.737s3.869,5.157,3.869-7.738v-12.9a103.31,103.31,0,0,1-3.869-19.343l-1.289-11.6a69.441,69.441,0,0,1-1.289-10.317c0-3.868,1.289,5.158,0-3.868l-1.291-9.026s-2.578-6.448,1.291-10.317,1.289,3.869,3.868-3.868,2.58-10.317,3.869-14.184l1.289-3.869,9.026-6.448a76.8,76.8,0,0,0,14.185-3.868s6.448,2.578,10.317,3.868l3.868,1.291h0c9.028-9.028,9.028-10.317,14.185-16.764s14.185-10.316,14.185-10.316h12.9c11.6,0,23.211-16.764,23.211-16.764V1177.2l6.448-10.317,11.6-9.028s2.58-7.737,7.738-9.025,7.737-7.737,11.606-7.737,10.315,3.868,12.894-1.291l2.58-5.159,10.315-12.9V1115.3h16.763a100.753,100.753,0,0,1,10.317-12.894c5.158-5.157,9.026-11.606,14.185-14.185s-6.448,9.028,5.158-2.58l11.6-11.6c6.449-6.448,1.289,1.288,6.449-6.448s10.314-11.606,11.6-15.474,3.868-5.158,6.448-11.606,0-14.185,0-14.185l14.184-3.868,7.737,2.578s2.578-1.291,7.737,0l5.157,1.289s11.606,3.869,15.474,0l3.871-3.868,30.948-42.555s7.737,2.58,7.737-2.578,1.289,1.291,0-5.159-6.449-14.375-6.449-14.375l-1.288-10.125s3.724-3.869,8.311-9.026-3.154,0,4.584-5.158,21.921-15.474,29.658-18.054l7.737-2.578,11.6-3.868s2.58-1.291,7.737,6.446l5.159,7.738v3.869h9.026s2.58,3.868,6.448,3.868h3.869v-3.868l7.737-1.291h7.737c5.158-6.448,6.448,3.868,5.158-6.448s6.089-11.609.465-16.12-6.912-7.091-6.912-10.96,2.58,5.159,0-3.868-5.157-14.184-5.157-19.343v-12.9c0-3.868,1.289-6.448,1.289-10.317v-3.868l-6.449-10.317-3.868-6.446-3.869-7.738s-5.157-3.868-2.578-7.737l2.578-3.868,5.158-6.448a15.628,15.628,0,0,0,1.291-6.446V789.06l-5.16-6.448-11.6-3.868-7.737-5.16L1104,764.558l-3.869-9.026s2.58-7.737,6.449-7.737h3.868s7.737-1.289,9.026-5.158l1.289-3.868,9.026-6.448s2.58,1.289,7.737,0l5.16-1.289h0c-1.291-10.317,6.446-3.869-1.291-10.317s5.158,0-7.737-6.448-19.343-9.026-19.343-9.026l-9.026-6.448L1104,689.768h0s2.58-3.869,6.448-9.026l3.868-5.158,2.578-7.737,2.58-6.448,12.9,5.158s0,1.289,7.737,3.868A61.482,61.482,0,0,0,1156.9,673l11.578,9.026,9.026,2.578s6.448-7.737,6.448-3.868v30.948s-9.028,0,0,6.448,15.474,15.474,19.343,16.763,7.735,2.578,12.9,1.291,19.342-9.028,23.211-9.028h25.789s0,1.289,10.317,1.289,14.184-2.578,18.052,0,14.184,5.158,14.184,5.158l9.028,3.868v3.869l6.446,5.158v5.157l-7.737,6.449-9.025,2.578-3.869,10.317-3.868,6.446-10.317,5.158-7.737,6.448h-7.739l-7.737,2.578-5.157,12.9-5.16,6.448,7.74,9.026v16.765l9.025,6.446,9.028,9.028s7.737,3.868,9.026-3.869-1.289,1.289,1.289-7.737-1.289,1.289,2.579-9.028,3.869-16.761,3.869-16.761l5.158-7.737,7.737,5.157s3.868,6.448,5.157,11.6-1.289,19.343-1.289,19.343l1.289,10.315c9.028,3.869,0,3.869,7.737,9.028s7.737,15.474,6.448,20.631.64,14.186.64,14.186v11.606s.649,2.578,5.809,0l5.157-2.58h0s6.448,3.866,11.606-3.225-1.291.646,5.159-7.091-1.289-21.921,0-25.791l1.288-3.868,1.31-10.317-6.467-3.868,6.467-3.869s6.427,1.289,6.427-6.448v-7.737c0-7.737-1.288-7.737,0-14.185s1.291,2.58,1.291-6.448V794.218s6.448-2.58,10.317-1.289-3.869-2.58,3.868,1.289l7.737,3.868,10.317,6.448s6.446,2.58,9.026-1.289-6.448-6.448,0-11.606,21.921-50.291,21.921-50.291V724.585s-6.448,0,0-7.737a75.191,75.191,0,0,1,14.185-12.9v-9.026l7.737-3.869V654.951l9.028-6.448,7.735-2.578,9.026-6.448s3.869-2.578,9.028-6.448-1.289,1.289,5.157-3.868-2.577,2.578,6.448-5.159l9.028-7.738s5.157-3.868,9.026-3.868h3.869c9.026,0,1.289,1.289,9.026,0s12.9,5.158,12.9,5.158l6.448,5.157c3.868-6.448,0-14.184,0-14.184l1.72-9.026s-6.879,0-5.589-3.868l1.289-3.869s11.6-2.58,15.474-7.737l3.869-5.158s3.869-3.868,0-12.894,1.289-2.58-3.869-9.028-25.791-9.026-25.791-9.026h-9.025l-6.448-3.869-1.289-7.737,7.737-9.026-3.869-10.315-10.317-3.869s-7.735,0-6.448-3.869l1.291-3.868v-9.026l-6.448-5.158-10.317,1.289a60.22,60.22,0,0,1-7.735,6.448c-3.869,2.578-12.9,6.448-12.9,6.448a58.475,58.475,0,0,1-10.315,3.868l-5.158,1.291-11.6-1.291a85.844,85.844,0,0,0-9.027-3.868l-3.868-1.289h0l-18.054,7.737-14.185,12.9-9.026,7.737-18.052,3.868s-12.9,1.289-15.474,6.448a82.275,82.275,0,0,1-7.738,11.606l-5.157,9.026a99.13,99.13,0,0,1-7.737,9.026c-3.869,3.869-12.9,6.448-12.9,6.448s-10.315,6.448-16.762,6.448-20.634,2.58-20.634,2.58l-6.448,7.737c5.16,6.448,14.185,6.448,14.185,6.448l6.448,2.578,6.449,7.737L1300,618.845v7.737l1.289,6.448-5.157,7.737c-11.6,1.289-24.5,1.289-24.5,1.289H1226.5s-9.026-5.157-12.9-6.448-14.184-1.289-14.184-1.289l-12.894,5.158-11.608,2.578h-10.314s-9.028,0-14.184-1.289-12.9-1.289-14.185-5.159-2.58-6.446-2.58-12.9,2.58-11.6,2.58-20.631,1.288-11.606,1.288-15.475,1.289-11.6,1.289-16.763v-5.158h-14.183l-7.739,3.869a80.741,80.741,0,0,1-18.052,5.157s-1.289,15.474-1.289,19.343v14.185a100.009,100.009,0,0,1,1.289,11.606c0,3.868-3.869-3.869,0,3.868l3.869,7.737s1.289,6.449,2.578,10.317l1.291,3.868-1.291,11.606-3.869,6.448h-33.526l-10.317-3.868s-7.737-6.449-11.6-6.449-12.9,2.58-12.9,2.58a58.492,58.492,0,0,1-12.894,1.289c-7.737,0-19.343-1.289-23.212-2.578l-3.868-1.291s-7.737,3.869-10.317-2.578a44.15,44.15,0,0,1-2.577-14.185,146.159,146.159,0,0,0-18.054,1.291s-11.6,2.578-14.185-1.291-16.764-19.343-16.764-19.343l-9.025-5.157-11.606-1.289-6.448-7.737-11.606-2.58-14.185,1.289L869.31,599.5l-6.448,10.317s-1.289,3.868-10.315-2.58l-9.028-6.448-10.1-9.026h-15.69s-3.869,2.578-6.449-2.58l-2.578-5.157-9.026-10.317-6.448,2.58s6.448,3.869-9.026,0-6.448,1.289-15.475-3.869-15.472-9.026-19.341-12.9-12.9-10.315-12.9-10.315L727.465,538.9l-5.158-6.448-12.9-3.869-6.448-5.158s2.58-12.894,2.58-16.763,5.157-34.817,5.157-34.817,2.58-7.737,6.448-9.026l3.869-1.289s10.315-5.158,14.184-6.448l3.868-1.289,7.737-10.317c-5.157-6.446,2.58-2.578-5.157-6.446s-14.185-6.449-18.054-6.449-10.315-3.868-10.315-3.868l-7.737-6.448s0-10.315-3.869-10.315h-3.868l-6.448-6.449-16.764-1.289s-10.315-3.868-11.6-7.737L661.7,390.6l-12.894-7.737-7.737,1.289-2.58-7.737-1.289-9.028c-1.289-9.026,2.578-9.026-2.578-15.474s-1.289,1.289-5.159-6.448A133.958,133.958,0,0,1,623.015,330l-5.158-24.5,6.448-2.578,5.158,9.026s1.289,2.578,7.737,5.157,36.106-16.763,36.106-16.763-3.868-3.868-5.157-7.737l-1.291-3.868s-6.446-7.738-3.868-9.028,2.578,6.448,2.578-1.289v-7.737H653.962l-6.448-14.185-5.157-6.448,5.157-10.315-6.446-9.028V220.389h24.5l2.58-11.606c3.868-9.026-6.449-1.289,3.868-9.026s14.185-9.026,18.054-12.9l3.868-3.869,6.448-6.446s3.869-1.291,5.158-6.448-2.58,10.315,1.289-5.158l3.868-15.474c2.58-10.317,3.869-16.765,3.869-16.765l-9.026-3.868h0l-14.185-1.289-10.317-12.9a46.6,46.6,0,0,1-5.157-6.448c-2.58-3.869,5.157,0-2.58-3.869s-18.052,0-18.052,0l-6.448-1.719s-12.9-6.878-19.343,0-15.474,10.747-15.474,10.747l-10.317,9.026-9.026,7.737L584.33,132.7l-12.9-1.289c-6.448-2.578-18.054-9.026-18.054-9.026s1.289,0-6.448-2.58-21.921-6.446-21.921-6.446l-7.737-2.58h-6.448l-6.448-1.289L501.8,99.555l-6.448-6.828s-2.578-5.157-2.578-9.026S490.2,77.254,490.2,73.385s-2.58-10.317-2.58-10.317L476.012,47.6H464.406l-1.289-9.028s2.578-7.737-6.448-6.448a47.41,47.41,0,0,1-15.474-.144l-5.158,6.592-3.869-6.592H421.853l-9.026,7.881-12.9,3.869H389.614L379.3,46.3v7.737l-14.185,1.291L354.8,56.622,348.35,59.2l-9.026,14.185L330.3,79.832l-11.606,7.737L317.4,101.754a9.673,9.673,0,0,0,7.737,3.869H330.3l15.474-1.291c6.448,7.737,9.026,9.028,12.9,11.606s11.6,7.737,11.6,7.737l10.317,1.289,1.289,9.026,7.737,9.028,5.158,7.737,6.448,7.737-9.026,12.9-7.738,5.158-6.446,3.868-5.158,10.317a28.106,28.106,0,0,0-1.289,7.737v25.789a71.215,71.215,0,0,1-1.291,11.606v14.185s3.869,10.315,5.158,14.185l1.289,3.868Z" transform="translate(-98.188 -31.976)"/></svg>