<svg id="Page_03_img_04" xmlns="http://www.w3.org/2000/svg" width="423.316" height="282.952" viewBox="0 0 423.316 282.952">
  <path id="Path_3323" data-name="Path 3323" d="M390.035,73.809V74.7A7.272,7.272,0,0,0,390.035,73.809Z" transform="translate(33.268 66.781)" fill="#5ab7e9"/>
  <path id="Path_3324" data-name="Path 3324" d="M58.217,75.542V73.885A9.005,9.005,0,0,0,58.217,75.542Z" transform="translate(-58.181 66.802)" fill="#5ab7e9"/>
  <path id="Path_3325" data-name="Path 3325" d="M58.212,104.278v1.657c-.436,9.756,11.15,11.976,11.15,11.976q1.778.419,3.526.948,5.179,1.424,10.361,3.333c.864.295,1.726.653,2.591.985s1.727.658,2.589,1.029q.656.279,1.314.556c1.288.547,2.578,1.1,3.868,1.708,1.727.768,3.448,1.639,5.18,2.484.864.43,1.727.9,2.591,1.343l1.295.679,1.3.714c3.453,1.878,6.906,3.952,10.36,6.16l5.181,3.406c.864.546,1.726,1.2,2.589,1.8l2.591,1.839c.864.619,1.726,1.212,2.591,1.853l2.589,1.964,2.591,1.964,1.3.989,1.295,1.037,5.179,4.156,5.18,4.416,5.181,4.415c.864.746,1.727,1.455,2.589,2.223l2.591,2.338,10.356,9.351,10.36,9.351,10.36,9.227c1.727,1.537,3.449,3.086,5.181,4.535l2.591,2.212c.862.736,1.727,1.481,2.589,2.177l5.18,4.248,5.181,4.038,1.295,1.006,1.295.948,2.591,1.893,2.591,1.888,2.591,1.754q5.179,3.58,10.361,6.632,5.179,3.019,10.36,5.56c3.453,1.665,6.907,3.146,10.36,4.48a104.261,104.261,0,0,0,41.445,6.919c13.814-.617,27.629-4.814,41.443-12.862,1.727-.985,3.453-2.068,5.18-3.16l2.589-1.707,2.591-1.838c1.727-1.242,3.449-2.408,5.18-3.805l2.591-2.018,1.3-1.009c.431-.339.862-.718,1.295-1.074,1.727-1.463,3.454-2.869,5.181-4.38l5.179-4.632,10.361-9.919.652-.62.648-.652,1.3-1.315,2.589-2.629,5.181-5.259,10.36-10.633,10.359-10.647,2.591-2.662c.862-.861,1.727-1.679,2.589-2.517l5.181-5.014c3.453-3.413,6.907-6.536,10.36-9.605l5.18-4.453,5.181-4.166c.864-.719,1.727-1.325,2.589-1.975L440.7,136c1.726-1.316,3.448-2.486,5.179-3.674,3.454-2.33,6.909-4.445,10.362-6.387s6.907-3.653,10.36-5.184c.864-.372,1.727-.778,2.591-1.114l2.591-1.035c.038-.015.078-.028.116-.043a15.946,15.946,0,0,0,9.583-13.492v-.887c-.115-2.357-1.226-8.881-9.7-12.632l-2.591-1.034c-.864-.335-1.727-.745-2.591-1.114-3.453-1.531-6.907-3.23-10.36-5.183s-6.907-4.052-10.362-6.387c-1.727-1.188-3.453-2.359-5.179-3.674l-2.591-1.925c-.864-.653-1.727-1.256-2.589-1.975l-5.181-4.166-5.18-4.453c-3.453-3.069-6.907-6.193-10.36-9.6l-5.181-5.016c-.862-.839-1.726-1.66-2.589-2.517l-2.591-2.662L394.074,31.2,383.713,20.562l-5.18-5.258-2.595-2.646-1.3-1.315L374,10.691l-.653-.62L362.982.152,357.8-4.479c-1.727-1.509-3.453-2.916-5.18-4.382-.432-.356-.864-.736-1.3-1.075l-1.295-1.008-2.591-2.018c-1.727-1.4-3.453-2.563-5.18-3.806l-2.591-1.838-2.591-1.707c-1.727-1.092-3.453-2.175-5.18-3.16-13.814-8.049-27.629-12.245-41.443-12.863a104.277,104.277,0,0,0-41.443,6.919c-3.453,1.333-6.907,2.815-10.36,4.48q-5.181,2.541-10.361,5.561-5.179,3.054-10.36,6.63L215.34-10.99,212.749-9.1l-2.591,1.894-1.3.948-1.295,1.006-5.18,4.038-5.18,4.248c-.864.7-1.727,1.441-2.591,2.177l-2.591,2.212c-1.727,1.449-3.453,3-5.18,4.535l-10.36,9.227-10.355,9.354L155.77,39.889l-2.591,2.337c-.862.769-1.726,1.481-2.589,2.223l-5.181,4.416-5.18,4.415-5.179,4.156-1.295,1.037-1.3.989-2.591,1.964-2.589,1.966c-.865.639-1.727,1.235-2.591,1.853L122.1,67.084c-.864.6-1.726,1.254-2.589,1.8l-5.181,3.406c-3.454,2.209-6.907,4.282-10.36,6.161l-1.3.714-1.295.677c-.862.446-1.727.915-2.591,1.344-1.727.844-3.449,1.716-5.18,2.482-1.727.815-3.454,1.531-5.181,2.264-.862.374-1.726.685-2.589,1.026s-1.727.69-2.591.985q-5.181,1.913-10.36,3.334c-.323.1-.651.179-.975.27-.421.129-.878.259-1.411.393C60.219,94.515,58.457,101.165,58.212,104.278Z" transform="translate(-58.176 36.408)" fill="#5ab7e9"/>
</svg>
