<svg id="Page_03_img_03" xmlns="http://www.w3.org/2000/svg" width="423.316" height="282.951" viewBox="0 0 423.316 282.951">
  <path id="Path_3320" data-name="Path 3320" d="M607.727-63.846v-.885A7.6,7.6,0,0,0,607.727-63.846Z" transform="translate(-607.715 206.207)" fill="#66a24d"/>
  <path id="Path_3321" data-name="Path 3321" d="M939.551-65.412v1.657A9.01,9.01,0,0,0,939.551-65.412Z" transform="translate(-516.271 206.02)" fill="#66a24d"/>
  <path id="Path_3322" data-name="Path 3322" d="M1030.993-33.379v-1.657c.435-9.756-11.151-11.975-11.151-11.975q-1.776-.419-3.526-.948-5.18-1.425-10.361-3.334c-.862-.295-1.726-.652-2.589-.983s-1.727-.658-2.591-1.031l-1.313-.556c-1.29-.546-2.578-1.1-3.867-1.708-1.727-.767-3.449-1.638-5.181-2.482-.864-.43-1.727-.9-2.591-1.344l-1.295-.677-1.3-.716c-3.453-1.878-6.906-3.95-10.36-6.16l-5.18-3.4c-.865-.546-1.727-1.2-2.591-1.8l-2.591-1.839c-.862-.62-1.726-1.212-2.589-1.853l-2.591-1.964-2.591-1.966-1.295-.987L954.15-81.8l-5.18-4.156-5.18-4.415-5.18-4.415c-.865-.746-1.727-1.457-2.591-2.223l-2.591-2.339L923.073-108.7l-10.361-9.351-10.36-9.227c-1.727-1.537-3.449-3.084-5.18-4.535l-2.591-2.211c-.864-.736-1.727-1.482-2.591-2.179l-5.18-4.246-5.18-4.04-1.295-1.006-1.3-.946-2.591-1.894-2.591-1.888-2.591-1.754q-5.179-3.578-10.36-6.63-5.181-3.021-10.361-5.56c-3.453-1.665-6.907-3.147-10.36-4.481a104.277,104.277,0,0,0-41.443-6.919c-13.816.619-27.629,4.814-41.443,12.863-1.727.983-3.453,2.068-5.18,3.158l-2.591,1.707L746.937-156c-1.727,1.242-3.448,2.41-5.18,3.806l-2.591,2.017-1.295,1.009c-.432.339-.864.718-1.3,1.075-1.727,1.463-3.453,2.869-5.18,4.38l-5.18,4.63-10.36,9.919-.653.62-.648.653-1.295,1.315-2.591,2.629-5.18,5.259-10.361,10.632L684.768-97.412l-2.589,2.663c-.864.86-1.727,1.677-2.591,2.517l-5.18,5.014c-3.454,3.413-6.909,6.536-10.361,9.605l-5.18,4.453-5.18,4.166c-.865.718-1.727,1.324-2.591,1.973L648.505-65.1c-1.726,1.316-3.448,2.487-5.179,3.675-3.453,2.329-6.907,4.444-10.361,6.387s-6.907,3.653-10.36,5.184c-.864.372-1.727.777-2.591,1.114L617.425-47.7l-.117.043a15.946,15.946,0,0,0-9.583,13.493v.885c.115,2.359,1.226,8.881,9.7,12.633l2.589,1.033c.864.337,1.727.746,2.591,1.114,3.453,1.531,6.907,3.23,10.36,5.184s6.908,4.052,10.361,6.386c1.727,1.188,3.453,2.359,5.179,3.675L651.1-1.332c.864.652,1.727,1.255,2.591,1.973l5.18,4.167,5.18,4.452c3.453,3.069,6.907,6.193,10.361,9.6l5.18,5.014c.864.839,1.726,1.661,2.591,2.517l2.589,2.662L695.13,39.705,705.49,50.34l5.181,5.258,2.593,2.646,1.3,1.314.648.653.652.62,10.361,9.919L731.4,75.38c1.727,1.509,3.453,2.915,5.18,4.38.432.357.864.736,1.3,1.075l1.3,1.009,2.589,2.018c1.727,1.4,3.454,2.563,5.181,3.805l2.589,1.838,2.591,1.708c1.727,1.092,3.453,2.175,5.18,3.158,13.814,8.05,27.629,12.245,41.443,12.863a104.3,104.3,0,0,0,41.443-6.917c3.454-1.334,6.909-2.816,10.361-4.481q5.18-2.539,10.36-5.56,5.182-3.054,10.361-6.63l2.589-1.755L876.455,80l2.591-1.894,1.295-.946,1.295-1.006,5.18-4.038L892,67.87c.862-.7,1.727-1.441,2.589-2.179l2.591-2.211c1.727-1.449,3.453-3,5.18-4.535l10.361-9.227,10.355-9.354,10.36-9.352,2.591-2.338c.864-.768,1.726-1.48,2.591-2.223l5.18-4.415,5.18-4.415,5.18-4.157,1.295-1.037,1.295-.987,2.591-1.966,2.591-1.966c.864-.638,1.727-1.233,2.589-1.852l2.591-1.841c.864-.6,1.726-1.254,2.591-1.8l5.18-3.406c3.454-2.209,6.907-4.282,10.36-6.16l1.3-.714,1.295-.679c.864-.446,1.727-.913,2.591-1.343,1.727-.844,3.449-1.717,5.181-2.484,1.727-.815,3.454-1.529,5.18-2.264.864-.372,1.726-.684,2.591-1.026s1.727-.689,2.589-.983q5.181-1.915,10.361-3.336c.323-.1.649-.179.973-.27.422-.128.879-.259,1.412-.392C1028.984-23.614,1030.746-30.264,1030.993-33.379Z" transform="translate(-607.712 175.643)" fill="#66a24d"/>
</svg>
