<svg xmlns="http://www.w3.org/2000/svg" xmlns:xlink="http://www.w3.org/1999/xlink" width="257.039" height="274.089" viewBox="0 0 257.039 274.089">
  <defs>
    <linearGradient id="linear-gradient" x1="0.14" y1="0.463" x2="0.757" y2="0.513" gradientUnits="objectBoundingBox">
      <stop offset="0" stop-color="#9c1622"/>
      <stop offset="1" stop-color="#de2d28"/>
    </linearGradient>
    <linearGradient id="linear-gradient-2" x1="0.867" y1="0.511" x2="0.28" y2="0.499" gradientUnits="objectBoundingBox">
      <stop offset="0" stop-color="#ac0022"/>
      <stop offset="1" stop-color="#e6332a"/>
    </linearGradient>
    <linearGradient id="linear-gradient-3" x1="0.139" y1="0.446" x2="0.813" y2="0.515" gradientUnits="objectBoundingBox">
      <stop offset="0" stop-color="#c4332a"/>
      <stop offset="1" stop-color="#f5380a"/>
    </linearGradient>
  </defs>
  <g id="Page_09_img_01" transform="translate(-389.962 -202.911)">
    <g id="Group_2198" data-name="Group 2198" transform="translate(-1277.625 -1042.283)">
      <path id="Path_2197" data-name="Path 2197" d="M2108.96,1349.262a27.592,27.592,0,0,0,10.707,21.927,8.825,8.825,0,1,1,12.481-12.481l29.452,29.451,29.452-29.451A54.372,54.372,0,0,1,2228,1342.585h0l-4.175-4.175a37.53,37.53,0,0,0-53.078,0l-9.154,9.153-9.152-9.152a37.285,37.285,0,0,0-26.54-10.994,37.924,37.924,0,0,0-6.855.63A27.582,27.582,0,0,0,2108.96,1349.262Z" transform="translate(-342.978 0)" fill="url(#linear-gradient)"/>
      <path id="Path_2198" data-name="Path 2198" d="M2112.19,1384.889a27.923,27.923,0,0,0-13.229-20.571,37.4,37.4,0,0,0-27.635,10.923l-41.932,41.933-41.932-41.933a27.579,27.579,0,0,1-.615-43.143,37.534,37.534,0,0,0-19.685,63.441l62.232,62.231,62.229-62.23a8.826,8.826,0,1,1,12.483,12.48A27.92,27.92,0,0,0,2112.19,1384.889Z" transform="translate(-210.773 -4.052)" fill="url(#linear-gradient-2)"/>
      <path id="Path_2199" data-name="Path 2199" d="M1913.633,1582.353a37.364,37.364,0,0,0-25.445-10.923,27.919,27.919,0,0,1,5.146,43.7l-74.714,74.714-74.706-74.718a53.541,53.541,0,0,1-16.155-36.919l-4.146,4.146a37.537,37.537,0,0,0,0,53.075l95,95.017.006-.006h0l95.011-95.012a37.532,37.532,0,0,0,0-53.077Z" transform="translate(0 -211.164)" fill="url(#linear-gradient-3)"/>
    </g>
    <g id="Group_2202" data-name="Group 2202" transform="matrix(0.743, -0.669, 0.669, 0.743, -385.568, 173.742)">
      <g id="Group_2199" data-name="Group 2199" transform="translate(510 592.599)">
        <path id="Path_2200" data-name="Path 2200" d="M610.288,620.989a4.254,4.254,0,0,1-3.018-1.25,63.629,63.629,0,0,0-89.985,0,4.268,4.268,0,1,1-6.035-6.035,72.164,72.164,0,0,1,102.055,0,4.267,4.267,0,0,1-3.017,7.285Z" transform="translate(-510 -592.599)" fill="#d6c4c4"/>
      </g>
      <g id="Group_2200" data-name="Group 2200" transform="translate(525.554 614.585)">
        <path id="Path_2201" data-name="Path 2201" d="M724.968,820.635a4.254,4.254,0,0,1-3.018-1.25,41.68,41.68,0,0,0-58.877,0,4.267,4.267,0,0,1-6.035-6.035,50.167,50.167,0,0,1,70.947,0,4.267,4.267,0,0,1-3.018,7.285Z" transform="translate(-655.788 -798.678)" fill="#d6c4c4"/>
      </g>
      <g id="Group_2201" data-name="Group 2201" transform="translate(541.153 636.561)">
        <path id="Path_2202" data-name="Path 2202" d="M803.282,1012.823a4.394,4.394,0,0,0-.251,5.937,4.268,4.268,0,0,0,6.2.179,19.507,19.507,0,0,1,13.884-5.751v-8.535h0A27.984,27.984,0,0,0,803.282,1012.823Z" transform="translate(-801.995 -1004.653)" fill="#d6c4c4"/>
        <path id="Path_2203" data-name="Path 2203" d="M1019.839,1012.823a27.984,27.984,0,0,0-19.839-8.17h0v8.535a19.507,19.507,0,0,1,13.884,5.751,4.268,4.268,0,0,0,6.2-.179A4.394,4.394,0,0,0,1019.839,1012.823Z" transform="translate(-978.875 -1004.653)" fill="#d6c4c4"/>
      </g>
    </g>
  </g>
</svg>
