<svg xmlns="http://www.w3.org/2000/svg" width="217.434" height="204.436" viewBox="0 0 217.434 204.436"><defs><style>.a{fill:#20303e;}.b{fill:#0064ad;}</style></defs><g transform="translate(-113.724 -125.218)"><path class="a" d="M305.965,226.345c-1.2,1.912-2.405,3.855-3.577,5.767v72.1c-.031,7.525-3.823,11.379-11.348,11.5-1.788.031-3.608.062-5.427.062l-8.449-.031c-1.357,0-2.683,0-4.009.031a42.147,42.147,0,0,0-24.238,7.525c-5.119,3.485-10.362,7-15.512,10.453l-1.542,1.018c-4.81,3.207-10.824,7.247-16.467,11.1a3.363,3.363,0,0,1-4.965-.031c-5.243-3.577-10.608-7.185-15.82-10.67l-.185-.092c-5.859-3.916-11.565-7.741-17.084-11.533a43.366,43.366,0,0,0-25.225-7.8h-.74l-10.115.031c-2.713,0-4.934,0-7-.062-6.938-.185-10.762-4.1-10.762-11.04-.062-22.265-.062-66.208-.031-87.918v-7.432c0-8.48,3.762-12.273,12.15-12.3q16.513-.046,33-.031H270.348c2-3.238,4.009-6.446,6.013-9.683q-9.344-.047-18.626-.031H168.614q-16.466,0-33,.031c-13.692,0-21.864,8.234-21.864,22.018l-.031,3.947c0,22.82,0,67.966.031,91.4,0,12.335,7.987,20.446,20.26,20.754,2.158.062,4.44.092,7.246.092l10.084-.061.74.031a33.584,33.584,0,0,1,19.736,6.075c5.55,3.823,11.348,7.678,16.96,11.44l.247.154c5.212,3.516,10.64,7.124,15.882,10.731q8,5.459,15.974.031c5.489-3.762,11.07-7.524,16.806-11.317l.586-.431c5.335-3.546,10.762-7.185,16.128-10.855a32.971,32.971,0,0,1,18.842-5.828c1.326-.031,2.621-.031,3.947-.031l8.357.031c1.881,0,3.793,0,5.643-.031,11.626-.185,19.211-6.816,20.63-17.547a4.277,4.277,0,0,0,.278-1.542V216.476Z" transform="translate(0 -26.968)"/><path class="b" d="M280.131,247.321c-1.942,3.084-3.854,6.168-5.766,9.251a.942.942,0,0,0-.124.246H175.684a4.749,4.749,0,0,1,0-9.5Z" transform="translate(-24.863 -53.063)"/><path class="b" d="M268.2,301.587l-1.48,6.476-.709,3.022H175.684a4.749,4.749,0,0,1,0-9.5Z" transform="translate(-24.863 -76.646)"/><path class="b" d="M175.708,355.928H299.885a4.749,4.749,0,0,1,0,9.5H175.708a4.749,4.749,0,0,1,0-9.5Z" transform="translate(-24.874 -100.262)"/><path class="b" d="M402.809,155.513l-2.313,3.593q-19.475,31.215-38.844,62.464a12.363,12.363,0,0,0-1.459,3.416c-2.1,8.893-4.162,17.786-6.19,26.608a9.825,9.825,0,0,0-.319,2.81,3.469,3.469,0,0,0,3.45,3.522,4.36,4.36,0,0,0,1.814-.427,12.977,12.977,0,0,0,2.419-1.6l3.878-3.166q6.989-5.656,13.908-11.383l.569-.5a24.568,24.568,0,0,0,5.763-6.012q13.232-21.29,26.394-42.473l13.411-21.557c.214-.249.356-.534.569-.819Zm-25.4,78.329c-2.881,2.383-5.8,4.767-8.715,7.186-.64.533-1.067.569-1.636.178-.854-.6-1.743-1.1-2.561-1.672a1.062,1.062,0,0,1-.391-.925c.961-4.269,1.956-8.43,2.953-12.7.035-.142.142-.249.142-.285,3.806,2.384,7.542,4.767,11.454,7.186C378.3,233.131,377.873,233.487,377.411,233.842Z" transform="translate(-104.28 -13.166)"/><path class="b" d="M472.4,133.133q-5.5-3.5-11.076-6.883c-3.477-2.144-7.789-.858-10.266,3.048-1.215,1.905-2.382,3.812-3.572,5.717l-.977,1.548c-.071.142-.167.309-.238.452l-.119-.071,1.692,1.047.5.31,19.055,11.814,2.025,1.238,1.429-2.263c1.119-1.787,2.239-3.573,3.335-5.383C476.636,139.73,475.9,135.371,472.4,133.133Z" transform="translate(-144.464)"/></g></svg>