<svg xmlns="http://www.w3.org/2000/svg" width="40.022" height="60.432" viewBox="0 0 40.022 60.432"><defs><style>.a{fill:#2775bc;}</style></defs><g transform="translate(0)"><path class="a" d="M-728.87,928.937a19.94,19.94,0,0,0-4.288-6.36,19.942,19.942,0,0,0-6.36-4.288,19.888,19.888,0,0,0-7.79-1.573,19.888,19.888,0,0,0-7.79,1.573,19.943,19.943,0,0,0-6.36,4.288,19.945,19.945,0,0,0-4.288,6.36,19.886,19.886,0,0,0-1.573,7.79c0,4.525,3.231,12.5,9.6,23.694,4.7,8.253,9.457,15.318,9.5,15.388l.9,1.339.9-1.339c.047-.07,4.808-7.136,9.5-15.388,6.372-11.2,9.6-19.169,9.6-23.694A19.885,19.885,0,0,0-728.87,928.937Zm-7.906,7.249a10.544,10.544,0,0,1-10.532,10.532,10.544,10.544,0,0,1-10.532-10.532,10.544,10.544,0,0,1,10.532-10.532A10.544,10.544,0,0,1-736.776,936.186Z" transform="translate(767.319 -916.715)"/></g></svg>