<svg xmlns="http://www.w3.org/2000/svg" width="27.3" height="41.222" viewBox="0 0 27.3 41.222"><defs><style>.a{fill:#db0606;}</style></defs><g transform="translate(0)"><path class="a" d="M-741.092,925.052a13.6,13.6,0,0,0-2.925-4.339,13.6,13.6,0,0,0-4.339-2.925,13.565,13.565,0,0,0-5.313-1.073,13.565,13.565,0,0,0-5.313,1.073,13.6,13.6,0,0,0-4.339,2.925,13.6,13.6,0,0,0-2.925,4.339,13.566,13.566,0,0,0-1.073,5.313c0,3.087,2.2,8.525,6.55,16.162,3.2,5.629,6.451,10.449,6.483,10.5l.616.913.617-.913c.032-.048,3.28-4.867,6.483-10.5,4.346-7.638,6.55-13.075,6.55-16.162A13.565,13.565,0,0,0-741.092,925.052ZM-746.485,930a7.192,7.192,0,0,1-7.184,7.184A7.192,7.192,0,0,1-760.853,930a7.193,7.193,0,0,1,7.184-7.184A7.192,7.192,0,0,1-746.485,930Z" transform="translate(767.319 -916.715)"/></g></svg>