<svg xmlns="http://www.w3.org/2000/svg" width="46.847" height="36.296" viewBox="0 0 46.847 36.296"><defs><style>.a{fill:#581c51;fill-rule:evenodd;}</style></defs><path class="a" d="M361.5,303.282l-12-4.836c-1.087-.373-1.216-1.156.506-1.533L393.7,285.5c2.378-.651,1.937.3,1.483,1.865l-11.147,32.723c-.6,1.863-.99,1.927-2.519.548l-8.158-7.21-5.968,4.509c-.535.4-1.137.359-1.131-.3l.108-10.176a.232.232,0,0,1,.1-.181l21.244-15.606c.592-.433.556-.676-.267-.3L362.3,303.219c-.428.193-.431.22-.806.063" transform="translate(-348.695 -285.293)"/></svg>