<svg xmlns="http://www.w3.org/2000/svg" xmlns:xlink="http://www.w3.org/1999/xlink" width="765" height="976" viewBox="0 0 765 976"><defs><style>.a{fill:#fff;stroke:#707070;}.b{clip-path:url(#a);}.c{opacity:0.33;}.d{fill:#00edff;}.e{fill:#24fffe;}.f{fill:#fffdfd;}</style><clipPath id="a"><rect class="a" width="765" height="976" transform="translate(4897 -629.063)"/></clipPath></defs><g class="b" transform="translate(-4897 629.063)"><g transform="translate(-6351.246 1946.937)"><g class="c" transform="translate(11332.125 -2397.637)"><path class="d" d="M572.744,131.983q-13.834,14.749-27.668,29.5l24.961-10.511Q571.39,141.479,572.744,131.983Z" transform="translate(-545.076 -131.983)"/></g><g class="c" transform="translate(11290.525 -2368.138)"><path class="d" d="M519.979,172.113l41.6-22.333-24.96,22.333Z" transform="translate(-519.979 -149.78)"/></g><g class="c" transform="translate(11227.905 -2345.805)"><path class="d" d="M482.2,192.592l62.62-29.339L522.926,183.4Z" transform="translate(-482.201 -163.253)"/></g><g class="c" transform="translate(11126.75 -2316.466)"><path class="d" d="M421.175,207.665,522.33,180.953,432.122,215.11Z" transform="translate(-421.175 -180.953)"/></g><g class="c" transform="translate(11359.793 -2453.967)"><path class="d" d="M566.505,98q-2.369,27.683-4.737,55.366,6.967-11.263,13.933-22.523Z" transform="translate(-561.768 -98)"/></g><g class="c" transform="translate(11268.63 -2345.805)"><path class="d" d="M506.77,183.4l21.895-20.143h16.64Z" transform="translate(-506.77 -163.253)"/></g><g class="c" transform="translate(11137.698 -2316.466)"><path class="d" d="M427.779,215.11l90.207-34.156-5.693,17.078Z" transform="translate(-427.779 -180.953)"/></g><g class="c" transform="translate(11357.086 -2397.637)"><path class="d" d="M560.135,150.972q.631-9.493,1.261-18.989l22.24,6Q571.885,144.479,560.135,150.972Z" transform="translate(-560.135 -131.983)"/></g><g class="c" transform="translate(11343.482 -2541.159)"><path class="d" d="M551.928,45.4l7.444,54.3,21.019,23.209Z" transform="translate(-551.928 -45.397)"/></g><g class="c" transform="translate(11371.946 -2478.101)"><path class="d" d="M609.387,133.8,569.1,97.89l9.634-14.451Z" transform="translate(-569.1 -83.44)"/></g><g class="c" transform="translate(11412.233 -2427.742)"><path class="d" d="M619.24,137.905c-1.313,0-25.835-24.084-25.835-24.084H619.24Z" transform="translate(-593.405 -113.821)"/></g><g class="c" transform="translate(11438.069 -2403.658)"><path class="d" d="M643.585,140.174l-34.594-11.823,17.3,11.823Z" transform="translate(-608.991 -128.351)"/></g><g class="c" transform="translate(11469.598 -2415.482)"><path class="d" d="M666.548,144.864h-35.47l-3.065-23.647Z" transform="translate(-628.013 -121.218)"/></g><g class="c" transform="translate(11525.649 -2445.697)"><path class="d" d="M702.99,102.989l-38.973,37.659-2.189-15.764Z" transform="translate(-661.828 -102.989)"/></g><g class="c" transform="translate(11508.133 -2423.196)"><path class="d" d="M651.261,148.531l19.706-16.2-2.189-15.764Z" transform="translate(-651.261 -116.564)"/></g><g class="c" transform="translate(11558.378 -2478.101)"><path class="d" d="M713.1,83.44l-22.771,32.4-8.758-12.7Z" transform="translate(-681.573 -83.44)"/></g><g class="c" transform="translate(11589.583 -2556.486)"><path class="d" d="M718.79,36.151l-5.255,58.241L700.4,114.535Z" transform="translate(-700.399 -36.151)"/></g><g class="c" transform="translate(11438.069 -2427.743)"><path class="d" d="M608.991,113.821l34.594,35.908-34.594-11.823Z" transform="translate(-608.991 -113.821)"/></g><g class="c" transform="translate(11381.58 -2478.101)"><path class="d" d="M574.912,83.44,605.565,133.8H631.4Z" transform="translate(-574.912 -83.44)"/></g><g class="c" transform="translate(11332.126 -2378.648)"><path class="d" d="M570.037,160.08l-24.96-6.131,24.96-10.51Z" transform="translate(-545.076 -143.439)"/></g><g class="c" transform="translate(11734.994 -2313.985)"><path class="d" d="M874.536,209.309l-40.871-21.02-45.542-5.84Q831.332,195.879,874.536,209.309Z" transform="translate(-788.124 -182.45)"/></g><g class="c" transform="translate(11779.368 -2308.729)"><path class="d" d="M872.7,198.465l-57.8-12.844q20.726,10.8,41.454,21.6Z" transform="translate(-814.895 -185.621)"/></g><g class="c" transform="translate(11837.171 -2295.301)"><path class="d" d="M862.612,212.406l29.778,4.088-42.623-22.772Z" transform="translate(-849.767 -193.722)"/></g><g class="c" transform="translate(11692.852 -2325.003)"><path class="d" d="M802.984,186.77,762.7,175.8l45.224,28.279Z" transform="translate(-762.7 -175.803)"/></g><g class="c" transform="translate(11587.745 -2434.246)"><path class="d" d="M716.336,164.766q-2.317-27.434-4.636-54.869-6.2,13.531-12.41,27.06Z" transform="translate(-699.29 -109.897)"/></g><g class="c" transform="translate(11655.234 -2346.813)"><path class="d" d="M777.623,184.454l-37.617-21.809,24.145,39.191Z" transform="translate(-740.006 -162.645)"/></g><g class="c" transform="translate(11679.38 -2325.003)"><path class="d" d="M813.269,204.081,768.044,175.8l-13.472,17.381Z" transform="translate(-754.572 -175.803)"/></g><g class="c" transform="translate(11605.375 -2379.378)"><path class="d" d="M710.62,157.194q24.759,9.249,49.518,18.5L709.926,143Q710.274,150.1,710.62,157.194Z" transform="translate(-709.926 -142.999)"/></g><g transform="translate(11819.013 -2288.541)"><path class="e" d="M842.81,199.8a2,2,0,1,1-2-2A2,2,0,0,1,842.81,199.8Z" transform="translate(-838.812 -197.8)"/></g><g transform="translate(11736.078 -2298.724)"><path class="e" d="M792.774,193.656a2,2,0,1,1-2-2A2,2,0,0,1,792.774,193.656Z" transform="translate(-788.778 -191.657)"/></g><g transform="translate(11604.07 -2367.181)"><path class="e" d="M713.137,152.356a2,2,0,1,1-2-2A2,2,0,0,1,713.137,152.356Z" transform="translate(-709.139 -150.357)"/></g><g transform="translate(11506.135 -2393.833)"><path class="e" d="M654.051,136.277a2,2,0,1,1-2-2A2,2,0,0,1,654.051,136.277Z" transform="translate(-650.055 -134.278)"/></g><g transform="translate(11525.84 -2410.036)"><path class="e" d="M665.941,126.5a2,2,0,1,1-2-2A2,2,0,0,1,665.941,126.5Z" transform="translate(-661.943 -124.503)"/></g><g transform="translate(11523.65 -2425.8)"><path class="e" d="M664.62,116.99a2,2,0,1,1-2-2A2,2,0,0,1,664.62,116.99Z" transform="translate(-660.622 -114.993)"/></g><g transform="translate(11597.737 -2435.092)"><path class="e" d="M709.314,111.386a2,2,0,1,1-2-2A2,2,0,0,1,709.314,111.386Z" transform="translate(-705.318 -109.387)"/></g><g transform="translate(11529.344 -2465.649)"><path class="e" d="M668.053,92.951a2,2,0,1,1-2-2A2,2,0,0,1,668.053,92.951Z" transform="translate(-664.057 -90.952)"/></g><g transform="translate(11555.827 -2460.395)"><g transform="translate(0 0)"><path class="e" d="M684.03,96.121a2,2,0,1,1-2-2A2,2,0,0,1,684.03,96.121Z" transform="translate(-680.034 -94.122)"/></g></g><g transform="translate(11462.24 -2445.15)"><path class="e" d="M627.57,105.318a2,2,0,1,1-2-2A2,2,0,0,1,627.57,105.318Z" transform="translate(-623.574 -103.319)"/></g><g transform="translate(11356.662 -2399.592)"><circle class="e" cx="1.999" cy="1.999" r="1.999"/></g><g transform="translate(11362.531 -2455.966)"><path class="e" d="M567.418,98.793a2,2,0,1,1-2-2A2,2,0,0,1,567.418,98.793Z" transform="translate(-563.42 -96.794)"/></g><g transform="translate(11339.294 -2576)"><path class="e" d="M553.4,26.377a2,2,0,1,1-2-2A2,2,0,0,1,553.4,26.377Z" transform="translate(-549.401 -24.378)"/></g><g transform="translate(11386.15 -2517.294)"><path class="e" d="M581.665,61.794a2,2,0,1,1-2-2A2,2,0,0,1,581.665,61.794Z" transform="translate(-577.669 -59.795)"/></g><g transform="translate(11436.071 -2405.657)"><path class="e" d="M611.782,129.144a2,2,0,1,1-2-2A2,2,0,0,1,611.782,129.144Z" transform="translate(-607.786 -127.145)"/></g><g transform="translate(11377.422 -2393.187)"><path class="e" d="M576.4,136.667a2,2,0,1,1-2-2A2,2,0,0,1,576.4,136.667Z" transform="translate(-572.403 -134.668)"/></g><g transform="translate(11288.526 -2347.804)"><path class="e" d="M522.771,164.046a2,2,0,1,1-2-2A2,2,0,0,1,522.771,164.046Z" transform="translate(-518.773 -162.047)"/></g><g transform="translate(11358.285 -2304.809)"><path class="e" d="M564.856,189.985a2,2,0,1,1-2-2A2,2,0,0,1,564.856,189.985Z" transform="translate(-560.858 -187.986)"/></g><g transform="translate(11124.752 -2291.536)"><path class="e" d="M423.967,197.992a2,2,0,1,1-2-2A2,2,0,0,1,423.967,197.992Z" transform="translate(-419.969 -195.993)"/></g><g transform="translate(11279.331 -2309.707)"><path class="e" d="M517.222,187.03a2,2,0,1,1-2-2A2,2,0,0,1,517.222,187.03Z" transform="translate(-513.226 -185.031)"/></g><g transform="translate(11187.371 -2271.515)"><circle class="e" cx="1.999" cy="1.999" r="1.999"/></g><g transform="translate(11135.7 -2284.089)"><path class="e" d="M430.57,202.485a2,2,0,1,1-2-2A2,2,0,0,1,430.57,202.485Z" transform="translate(-426.574 -200.486)"/></g><g transform="translate(11354.923 -2364.005)"><path class="e" d="M562.826,154.27a2,2,0,1,1-2-2A2,2,0,0,1,562.826,154.27Z" transform="translate(-558.83 -152.273)"/></g><g transform="translate(11388.806 -2354.811)"><path class="e" d="M583.269,159.819a2,2,0,1,1-2-2A2,2,0,0,1,583.269,159.819Z" transform="translate(-579.271 -157.82)"/></g><g transform="translate(11272.763 -2272.33)"><path class="e" d="M513.259,209.577a2,2,0,1,1-2-2A2,2,0,0,1,513.259,209.577Z" transform="translate(-509.263 -207.58)"/></g><g transform="translate(11364.53 -2270.069)"><path class="e" d="M568.622,210.941a2,2,0,1,1-2-2A2,2,0,0,1,568.622,210.941Z" transform="translate(-564.626 -208.944)"/></g><g transform="translate(11467.6 -2417.48)"><path class="e" d="M630.8,122.011a2,2,0,1,1-2-2A2,2,0,0,1,630.8,122.011Z" transform="translate(-626.807 -120.012)"/></g><g transform="translate(11470.664 -2393.833)"><path class="e" d="M632.654,136.277a2,2,0,1,1-2-2A2,2,0,0,1,632.654,136.277Z" transform="translate(-628.656 -134.278)"/></g><g transform="translate(11368.854 -2465.649)"><path class="e" d="M571.23,92.951a2,2,0,1,1-2-2A2,2,0,0,1,571.23,92.951Z" transform="translate(-567.234 -90.952)"/></g><g transform="translate(11341.483 -2543.157)"><path class="e" d="M554.72,46.189a2,2,0,1,1-2-2A2,2,0,0,1,554.72,46.189Z" transform="translate(-550.722 -44.192)"/></g><g transform="translate(11348.928 -2488.858)"><path class="e" d="M559.211,78.949a2,2,0,1,1-2-2A2,2,0,0,1,559.211,78.949Z" transform="translate(-555.213 -76.95)"/></g><g transform="translate(11379.581 -2480.1)"><path class="e" d="M577.7,84.233a2,2,0,1,1-2-2A2,2,0,0,1,577.7,84.233Z" transform="translate(-573.706 -82.234)"/></g><g transform="translate(11605.977 -2558.484)"><path class="e" d="M714.285,36.944a2,2,0,1,1-2-2A2,2,0,0,1,714.285,36.944Z" transform="translate(-710.289 -34.945)"/></g><g transform="translate(11573.424 -2510.753)"><path class="e" d="M694.646,65.74a2,2,0,1,1-2-2A2,2,0,0,1,694.646,65.74Z" transform="translate(-690.65 -63.741)"/></g><g transform="translate(11677.382 -2309.621)"><path class="e" d="M757.363,187.082a2,2,0,1,1-2-2A2,2,0,0,1,757.363,187.082Z" transform="translate(-753.367 -185.083)"/></g><g transform="translate(11690.853 -2327.002)"><path class="e" d="M765.492,176.594a2,2,0,1,1-2-2A2,2,0,0,1,765.492,176.594Z" transform="translate(-761.494 -174.597)"/></g><g transform="translate(11569.982 -2359.469)"><path class="e" d="M692.572,157.009a2,2,0,1,1-2-2A2,2,0,0,1,692.572,157.009Z" transform="translate(-688.574 -155.01)"/></g><g transform="translate(11683.468 -2271.067)"><path class="e" d="M761.037,210.339a2,2,0,1,1-2-2A2,2,0,0,1,761.037,210.339Z" transform="translate(-757.039 -208.342)"/></g><g transform="translate(11560.586 -2275.329)"><path class="e" d="M686.9,207.77a2,2,0,1,1-2-2A2,2,0,0,1,686.9,207.77Z" transform="translate(-682.905 -205.771)"/></g><g transform="translate(11598.461 -2308.183)"><path class="e" d="M709.753,187.949a2,2,0,1,1-2-2A2,2,0,0,1,709.753,187.949Z" transform="translate(-705.755 -185.95)"/></g><g transform="translate(11846.83 -2278.616)"><path class="e" d="M859.592,205.787a2,2,0,1,1-2-2A2,2,0,0,1,859.592,205.787Z" transform="translate(-855.594 -203.788)"/></g><g transform="translate(11878.378 -2274.528)"><path class="e" d="M878.625,208.253a2,2,0,1,1-2-2A2,2,0,0,1,878.625,208.253Z" transform="translate(-874.627 -206.254)"/></g><g transform="translate(11835.172 -2298.724)"><path class="e" d="M852.559,193.656a2,2,0,1,1-2-2A2,2,0,0,1,852.559,193.656Z" transform="translate(-848.561 -191.657)"/></g><g transform="translate(11776.823 -2311.274)"><circle class="f" cx="2.545" cy="2.545" r="2.545"/></g><g transform="translate(11732.449 -2316.581)"><path class="f" d="M791.679,183.428a2.545,2.545,0,1,1-2.546-2.544A2.547,2.547,0,0,1,791.679,183.428Z" transform="translate(-786.589 -180.884)"/></g><g transform="translate(11602.247 -2381.922)"><path class="f" d="M713.129,144.008a2.545,2.545,0,1,1-2.546-2.544A2.547,2.547,0,0,1,713.129,144.008Z" transform="translate(-708.039 -141.464)"/></g><g transform="translate(11563.553 -2448.242)"><g transform="translate(0 0)"><circle class="f" cx="2.545" cy="2.545" r="2.545"/></g></g><g transform="translate(11600.887 -2500.993)"><path class="f" d="M712.308,72.175a2.545,2.545,0,1,1-2.546-2.546A2.545,2.545,0,0,1,712.308,72.175Z" transform="translate(-707.218 -69.629)"/></g><g transform="translate(11409.688 -2430.288)"><g transform="translate(0 0)"><circle class="f" cx="2.545" cy="2.545" r="2.545"/></g></g><g transform="translate(11329.458 -2369.726)"><path class="f" d="M548.557,151.366a2.545,2.545,0,1,1-2.546-2.544A2.547,2.547,0,0,1,548.557,151.366Z" transform="translate(-543.467 -148.822)"/></g><g transform="translate(11225.361 -2319.01)"><path class="f" d="M485.755,181.962a2.544,2.544,0,1,1-2.544-2.544A2.545,2.545,0,0,1,485.755,181.962Z" transform="translate(-480.666 -179.418)"/></g><g class="c" transform="translate(11053.621 -2289.754)"><path class="d" d="M377.056,236.917l73.129-39.849L437.924,212.4Z" transform="translate(-377.056 -197.068)"/></g><g class="c" transform="translate(11023.844 -2249.905)"><path class="d" d="M359.092,258.769l29.777-37.659-10.948,31.967Z" transform="translate(-359.092 -221.109)"/></g><g class="c" transform="translate(10997.569 -2212.245)"><path class="d" d="M343.241,304.7l26.274-60.868-9.2,46.417Z" transform="translate(-343.241 -243.829)"/></g><g class="c" transform="translate(11014.647 -2217.938)"><path class="d" d="M362.74,246.087l18.83-5.693L353.544,292.5Z" transform="translate(-353.544 -240.394)"/></g><g class="c" transform="translate(11053.621 -2274.427)"><path class="d" d="M413.621,237.406l-36.565-6.569,60.868-24.522Z" transform="translate(-377.056 -206.315)"/></g><g class="c" transform="translate(10986.185 -2151.377)"><path class="d" d="M336.372,333.974l11.385-53.424,2.189,50.8Z" transform="translate(-336.372 -280.55)"/></g><g class="c" transform="translate(10986.185 -2100.581)"><path class="d" d="M336.372,365.933v-52.11l13.575-2.627Z" transform="translate(-336.372 -311.195)"/></g><g class="c" transform="translate(10986.185 -2045.843)"><path class="d" d="M340.313,383.629l-3.941-39.411,16.2,31.967Z" transform="translate(-336.372 -344.218)"/></g><g class="c" transform="translate(10976.54 -2006.431)"><path class="d" d="M330.564,412.66c-.438-1.75,13.575-44.665,13.575-44.665l7.444,49.919Z" transform="translate(-330.554 -367.995)"/></g><g class="c" transform="translate(10962.537 -1961.766)"><path class="d" d="M322.106,455.371c0-1.75,14.013-60.43,14.013-60.43l4.379,40.287Z" transform="translate(-322.106 -394.941)"/></g><g class="c" transform="translate(10999.759 -2168.893)"><path class="d" d="M359.451,273.048l42.038-3.065L344.562,338.3Z" transform="translate(-344.562 -269.983)"/></g><g class="c" transform="translate(10958.158 -1901.336)"><path class="d" d="M319.464,511.972l4.379-80.574,11.823,56.489Z" transform="translate(-319.464 -431.398)"/></g><g class="c" transform="translate(10976.551 -1961.766)"><path class="d" d="M334.939,435.228l-4.379-40.287,21.019,5.255Z" transform="translate(-330.56 -394.941)"/></g><g class="c" transform="translate(10990.125 -2013.876)"><path class="d" d="M346.194,420.868l-7.444-49.921,12.261-7.444Z" transform="translate(-338.75 -363.504)"/></g><g class="c" transform="translate(10962.537 -1921.479)"><path class="d" d="M333.93,495.878l-11.823-56.489L340.5,419.246Z" transform="translate(-322.106 -419.246)"/></g><g class="c" transform="translate(10952.466 -1820.762)"><path class="d" d="M316.03,540.228l5.693-60.22,8.1,48.169Z" transform="translate(-316.03 -480.008)"/></g><g class="c" transform="translate(10945.021 -1760.542)"><path class="d" d="M311.539,560.776l7.444-44.438,13.794,44.438Z" transform="translate(-311.539 -516.338)"/></g><g class="c" transform="translate(10922.688 -1716.104)"><path class="d" d="M298.066,605.767l22.333-62.62-6.131,62.62Z" transform="translate(-298.066 -543.148)"/></g><g class="c" transform="translate(10908.238 -1653.484)"><path class="d" d="M289.348,645.735,303.8,580.926H320Z" transform="translate(-289.348 -580.926)"/></g><g class="c" transform="translate(10894.663 -1588.675)"><path class="d" d="M281.158,716.8l13.575-96.776,5.255,67.437Z" transform="translate(-281.158 -620.025)"/></g><g class="c" transform="translate(10938.891 -1716.104)"><path class="d" d="M307.841,605.767l6.131-62.62h21.238Z" transform="translate(-307.841 -543.148)"/></g><g class="c" transform="translate(11069.386 -1536.127)"><path class="d" d="M413.717,651.727l-22.771,70.94L386.567,681.5Z" transform="translate(-386.567 -651.727)"/></g><g class="c" transform="translate(11082.961 -1621.08)"><path class="d" d="M424.534,600.475l-16.2,84.954s-13.574-7.883-13.574-8.758S424.534,600.475,424.534,600.475Z" transform="translate(-394.757 -600.475)"/></g><g class="c" transform="translate(11101.353 -1688.954)"><path class="d" d="M419.865,559.527,417.238,627.4l-11.386-15.327Z" transform="translate(-405.852 -559.527)"/></g><g class="c" transform="translate(11104.417 -1752.887)"><path class="d" d="M427.845,520.956l-9.2,63.933L407.7,563.87Z" transform="translate(-407.702 -520.956)"/></g><g class="c" transform="translate(11069.386 -1636.406)"><path class="d" d="M418.534,591.229l11.386,15.326-43.352,53.862Z" transform="translate(-386.567 -591.229)"/></g><g class="c" transform="translate(11110.11 -1822.951)"><path class="d" d="M442.665,478.687l-17.078,70.064-14.451-35.032Z" transform="translate(-411.136 -478.687)"/></g><g class="c" transform="translate(11130.691 -1883.163)"><path class="d" d="M436.252,442.362,434.5,502.573l-10.947-19.268Z" transform="translate(-423.552 -442.362)"/></g><g class="c" transform="translate(11130.604 -1967.458)"><path class="d" d="M436.287,391.507v84.3s-11.386-8.54-12.7-9.853S436.287,391.507,436.287,391.507Z" transform="translate(-423.5 -391.507)"/></g><g class="c" transform="translate(11110.11 -1842.219)"><path class="d" d="M431.717,467.063l10.947,19.268-31.529,35.032Z" transform="translate(-411.136 -467.063)"/></g><g class="c" transform="translate(11141.639 -1843.971)"><path class="d" d="M452.052,540.011l-21.895-52.986,16.2-21.02Q449.207,503.01,452.052,540.011Z" transform="translate(-430.157 -466.006)"/></g><g class="c" transform="translate(11163.534 -1769.966)"><path class="d" d="M468.764,561.887l-25.4-51.234,25.4,19.268Z" transform="translate(-443.366 -510.653)"/></g><g class="c" transform="translate(11188.933 -1718.731)"><path class="d" d="M476.2,583.163l-17.516-41.6,20.581,8.758Z" transform="translate(-458.689 -541.563)"/></g><g class="c" transform="translate(11206.448 -1677.131)"><path class="d" d="M482.393,622.711,469.256,566.66l20.581,35.47Z" transform="translate(-469.256 -566.66)"/></g><g class="c" transform="translate(11219.585 -1621.079)"><path class="d" d="M477.182,663.1v-62.62l12.261,57.8Z" transform="translate(-477.182 -600.475)"/></g><g class="c" transform="translate(11209.514 -1558.459)"><path class="d" d="M471.105,685.546l10.072-47.293,2.19,39.411Z" transform="translate(-471.105 -638.253)"/></g><g class="c" transform="translate(11199.223 -1511.166)"><path class="d" d="M464.9,721.085V687.366l10.291-20.581Z" transform="translate(-464.897 -666.785)"/></g><g class="c" transform="translate(11195.938 -1467.814)"><path class="d" d="M462.916,737.167l3.284-33.28,13.794-10.948Z" transform="translate(-462.916 -692.939)"/></g><g class="c" transform="translate(11199.223 -1511.166)"><path class="d" d="M475.188,666.785l3.5,43.352L464.9,721.085Z" transform="translate(-464.897 -666.785)"/></g><g class="c" transform="translate(11219.585 -1641.661)"><path class="d" d="M484.626,588.059l-7.444,20.581,12.261,57.8Z" transform="translate(-477.182 -588.059)"/></g><g class="c" transform="translate(11206.448 -1709.973)"><path class="d" d="M472.321,546.846l-3.065,32.843,20.581,35.47Z" transform="translate(-469.256 -546.846)"/></g><g class="c" transform="translate(11776.454 -1866.654)"><path class="d" d="M815.761,527.872q6.557-24.61,13.112-49.218-7.867-13.165-15.735-26.332Q814.45,490.1,815.761,527.872Z" transform="translate(-813.137 -452.322)"/></g><g class="c" transform="translate(11753.68 -1791.103)"><path class="d" d="M799.4,549.135,824.8,497.9l-25.4,19.268Z" transform="translate(-799.397 -497.901)"/></g><g class="c" transform="translate(11733.099 -1739.869)"><path class="d" d="M790.046,570.411l17.516-41.6-20.581,8.758Z" transform="translate(-786.981 -528.81)"/></g><g class="c" transform="translate(11715.582 -1698.268)"><path class="d" d="M783.858,609.959,797,553.908l-20.582,35.47Z" transform="translate(-776.413 -553.908)"/></g><g class="c" transform="translate(11710.766 -1642.217)"><path class="d" d="M785.769,650.343v-62.62l-12.261,57.8Z" transform="translate(-773.507 -587.723)"/></g><g class="c" transform="translate(11720.838 -1579.597)"><path class="d" d="M791.845,672.794,781.773,625.5l-2.189,39.411Z" transform="translate(-779.584 -625.501)"/></g><g class="c" transform="translate(11733.099 -1532.304)"><path class="d" d="M797.271,708.333V674.614l-10.291-20.581Z" transform="translate(-786.981 -654.033)"/></g><g class="c" transform="translate(11729.596 -1488.952)"><path class="d" d="M801.946,724.415l-3.284-33.28-13.794-10.947Z" transform="translate(-784.867 -680.187)"/></g><g class="c" transform="translate(11729.596 -1532.304)"><path class="d" d="M788.371,654.033l-3.5,43.352,13.794,10.947Z" transform="translate(-784.867 -654.033)"/></g><g class="c" transform="translate(11710.766 -1662.798)"><path class="d" d="M778.324,575.306l7.445,20.581-12.261,57.8Z" transform="translate(-773.507 -575.306)"/></g><g class="c" transform="translate(11715.582 -1731.111)"><path class="d" d="M793.93,534.094,797,566.937l-20.582,35.47Z" transform="translate(-776.413 -534.094)"/></g><g class="c" transform="translate(11850.016 -2277.2)"><path class="d" d="M918.239,240.842q-14.891-15.182-29.778-30.362l-30.945-5.838Z" transform="translate(-857.516 -204.642)"/></g><g class="c" transform="translate(11910.739 -2241)"><path class="d" d="M915.856,266.49,894.15,226.481q1.571,16.748,3.143,33.5Z" transform="translate(-894.15 -226.481)"/></g><g class="c" transform="translate(11932.444 -2200.991)"><path class="d" d="M930.832,312.577l-23.587-61.959,7.157,46.775Z" transform="translate(-907.245 -250.618)"/></g><g class="c" transform="translate(11867.526 -2239.248)"><path class="d" d="M914.436,259.284q-1.28-15.873-2.559-31.746l-43.8,4.295Z" transform="translate(-868.08 -227.538)"/></g><g class="c" transform="translate(11913.882 -2207.502)"><path class="d" d="M914.609,253.2l-18.563-6.511,25.72,53.286Z" transform="translate(-896.046 -246.69)"/></g><g class="c" transform="translate(11951.623 -2139.033)"><path class="d" d="M932.262,341.868,923.224,288l-4.409,50.652Z" transform="translate(-918.815 -287.997)"/></g><g class="c" transform="translate(11951.623 -2088.38)"><path class="d" d="M929.983,373.834l2.279-52.06-13.447-3.218Z" transform="translate(-918.815 -318.556)"/></g><g class="c" transform="translate(11945.207 -2033.102)"><path class="d" d="M926.868,391.106l5.661-39.2-17.585,31.228Z" transform="translate(-914.944 -351.905)"/></g><g class="c" transform="translate(11947.511 -1993.9)"><path class="d" d="M937.563,420.772c.514-1.731-11.608-45.217-11.608-45.217l-9.62,49.546Z" transform="translate(-916.334 -375.555)"/></g><g class="c" transform="translate(11962.603 -1948.683)"><path class="d" d="M942.933,463.819c.076-1.75-11.358-60.985-11.358-60.985l-6.136,40.057Z" transform="translate(-925.439 -402.834)"/></g><g class="c" transform="translate(11965.814 -1887.699)"><path class="d" d="M942.51,520.314l-.852-80.688-14.282,55.918Z" transform="translate(-927.376 -439.626)"/></g><g class="c" transform="translate(11945.207 -2001.874)"><path class="d" d="M917.248,428.265l9.62-49.547-11.924-7.973Z" transform="translate(-914.944 -370.744)"/></g><g class="c" transform="translate(11962.603 -1908.627)"><path class="d" d="M928.65,503.846l14.282-55.918L925.439,427Z" transform="translate(-925.439 -427)"/></g><g class="c" transform="translate(11970.748 -1807.01)"><path class="d" d="M943.607,548.716,940.553,488.3l-10.2,47.769Z" transform="translate(-930.353 -488.304)"/></g><g class="c" transform="translate(11968.278 -1746.599)"><path class="d" d="M950.081,569.471l-5.494-44.721-15.724,43.792Z" transform="translate(-928.863 -524.75)"/></g><g class="c" transform="translate(11989.496 -1701.878)"><path class="d" d="M961.237,615.267,941.663,551.73l3.387,62.828Z" transform="translate(-941.663 -551.73)"/></g><g class="c" transform="translate(11992.882 -1639.05)"><path class="d" d="M971.5,655.722l-11.6-65.379-16.187-.708Z" transform="translate(-943.706 -589.634)"/></g><g class="c" transform="translate(12012.473 -1572.962)"><path class="d" d="M973.054,726.781l-9.33-97.277-8.2,67.142Z" transform="translate(-955.525 -629.504)"/></g><g class="c" transform="translate(11830.257 -1528.698)"><path class="d" d="M845.6,656.208l19.647,71.868,6.175-40.932Z" transform="translate(-845.596 -656.208)"/></g><g class="c" transform="translate(11817.784 -1614.279)"><path class="d" d="M838.071,604.578l12.473,85.58s13.905-7.28,13.945-8.155S838.071,604.578,838.071,604.578Z" transform="translate(-838.071 -604.578)"/></g><g class="c" transform="translate(11817.785 -1682.203)"><path class="d" d="M838.415,563.6l-.343,67.924,12.045-14.814Z" transform="translate(-838.071 -563.6)"/></g><g class="c" transform="translate(11811.736 -1746.477)"><path class="d" d="M834.423,524.823l6.391,64.275,11.856-20.52Z" transform="translate(-834.423 -524.823)"/></g><g class="c" transform="translate(11968.278 -1759.242)"><path class="d" d="M931.333,517.123l13.254,12.643-15.724,43.792Z" transform="translate(-928.863 -517.123)"/></g><g transform="translate(10884.492 -2574.331)"><path class="d" d="M776.524,154.3c.01-.012.008-.028.018-.04s.02,0,.026-.013l22.772-32.405,0-.008,0,0,13.135-20.141a.354.354,0,0,0,.06-.169l5.255-58.24c0-.013-.01-.022-.01-.035a.337.337,0,0,0-.043-.148.324.324,0,0,0-.048-.091c-.008-.008-.007-.022-.017-.031-.031-.028-.075-.028-.111-.045s-.045-.04-.075-.045c-.008,0-.015,0-.023,0a.38.38,0,0,0-.168.038.411.411,0,0,0-.079.028l-.018.007L776.042,76.242c-.023.018-.023.048-.04.07s-.035.01-.045.027l-35.4,59.432-66.047,19.77-9.33-42.749a.363.363,0,0,0-.4-.283l-73.3,8.7,6.482-36.737a.368.368,0,0,0-.177-.381L554.3,58.937h20.973a.368.368,0,0,0,.327-.2.372.372,0,0,0-.035-.381L551.045,25.51a.366.366,0,0,0-.658.242l2.19,32.843.007.012,0,.013,7.443,54.305a.375.375,0,0,0,.093.191l21.02,23.209.017.007.01.02,40.281,35.9c5.584,5.482,23.412,22.893,25.875,24.111l.005.008,17.3,11.822a.361.361,0,0,0,.207.065h52.765a.413.413,0,0,0,.095-.012c.018,0,.025-.027.041-.033a.354.354,0,0,0,.09-.036l.008,0,19.7-16.2.013-.017.01,0ZM671.439,204.631l8.485,2.9H664.938l-14.988-10.244Zm-91.025-70.19L560.732,112.71,553.76,61.863Zm157.119,56.3L735.5,176.13l38.644-20.556L737.56,190.931Zm-2.725-15.291-59.348-19.425,64.9-19.428Zm2.1,16.095-18.086,14.87L734.9,177.072l.439,3.158ZM786.334,90.323l-2.374-3.406L776.766,76.6l39.1-31.615Zm-139.766,81.3H621.9l-29.273-48.091Zm1.789.3,25.614-15.328,4.62,27.085Zm.587,1.011,29.78,11.581,2.9,22.334Zm-1.372-1.394-54.681-48.747,80.54,33.276Zm29.148,34.128-28.825-9.853V172.893l32.916,34.167Zm91.513-65.209L786.36,91.972l12.225,29.511-10.159,6.35ZM737.02,165.131l4.091-28.62,25.686,5.054-31.162,33.267ZM680.1,184.463l54.33-8.066-16.979,30.987ZM797.7,122.9l-21.431,30.5-8.243-11.953ZM785.866,90.933,742.584,133.8l33.71-56.6ZM767.28,140.915l-25.732-5.062,43.869-43.447ZM597.8,133.431l22.311,36.652-38.22-34.065,9.14-13.71Zm49.367,38.921v23.115c-2.571-1.84-14.363-13.1-24.577-23.115Zm32.354,12.607L716.3,207.53H682.442Zm87.954-43.045,8.268,11.988-38.864,20.673Zm19.282-50.9L816.6,45.194l-17.656,75.247Zm-107.4,92.821-4.654-27.3L733.525,175.8ZM590.606,121.62,581.5,135.278,554.6,62.017Zm209.268-1.933L816.6,48.38l-4.779,52.983Zm-207.4,2.14,72.064-8.555,9.2,42.129ZM553.989,59.6l43.215,25-6.355,36.011ZM551.2,26.938l23.348,31.268H553.283Z" transform="translate(-96.313 -25.363)"/><path class="d" d="M780.737,199.166c-.008-.018-.031-.022-.042-.038a.368.368,0,0,0-.076-.118l-33.276-25.5,23.012-12.72a.366.366,0,0,0,.186-.363.359.359,0,0,0-.267-.308l-21.092-5.816.053-.476c.013.007.02.023.036.028a.363.363,0,0,0,.423-.154l13.935-22.523a.369.369,0,0,0,.041-.292l-9.2-32.841a.357.357,0,0,0-.385-.265.366.366,0,0,0-.331.332l-4.711,55.063a.36.36,0,0,0-.416.091l-27.146,30.418L679.954,205.98,617.376,235.3,516.251,262c-.017,0-.027.02-.043.027s-.027,0-.038.007l-73.13,39.85,0,0c-.023.013-.033.038-.051.056s-.041.017-.056.035L413.15,339.64c-.012.015-.01.035-.018.05v0c-.008.013-.025.017-.031.032L386.828,400.59c0,.013,0,.026,0,.038s-.017.018-.018.03l-11.386,53.423c0,.012.01.02.008.03s-.017.03-.017.048v52.109l.007.018,0,.018,3.933,39.334c-2.35,7.2-13.562,41.694-13.562,44.64l0,0c-1.432,6-13.953,58.507-14.015,60.47l0,0-4.379,80.56L341.7,791.533l-7.434,44.378-22.322,62.595,0,.018c0,.01-.013.015-.015.025l-14.451,64.809,0,.015-.007.013-13.576,96.775,0,.008,0,.008-7.444,75.756a.359.359,0,0,0,.22.371.351.351,0,0,0,.143.03.355.355,0,0,0,.28-.133l23.647-28.462a.347.347,0,0,0,.06-.128c0-.01.013-.015.017-.025l22.949-100.1L376.8,983.476a.367.367,0,0,0,.209-.391l-4.815-30.2-5.581-68.734c0-.008-.01-.012-.012-.02s.007-.018,0-.028l-10.29-47.659,43.945,6.06.033,0h44.615L421.406,921.3a.348.348,0,0,0,.035.26c0,.008,0,.02,0,.028l37.222,63.495a.356.356,0,0,0,.109.108c.007,0,.007.015.013.018l.007,0a.362.362,0,0,0,.186.053H459a.354.354,0,0,0,.239-.123c.008-.008.022-.005.03-.015l41.842-51.985c-7.572,19.161-27.5,69.646-28.843,73.818l-25.034,10.885a.365.365,0,0,0-.191.476l11.552,27.461-27.545,82.633a.364.364,0,0,0,.174.438.366.366,0,0,0,.462-.1l31.968-41.6c.012-.015,0-.035.015-.051s.035-.035.041-.06l22.772-70.941c0-.008,0-.017,0-.027s.01-.008.012-.015l16.2-84.952c0-.01-.005-.017,0-.027s.008-.018.01-.028v-.01l2.625-67.836,9.193-63.914,16.808-68.953,21.469,51.951.008.01,0,.013,25.387,51.214h0l17.506,41.572,13.12,55.979v62.54l-10.053,47.211-10.27,20.539a.366.366,0,0,0-.038.164v33.7l-3.284,33.266a.368.368,0,0,0,.365.4.362.362,0,0,0,.34-.234l17.055-44.166,39.749-45.734-18.527,85.312a.364.364,0,0,0,.134.366.357.357,0,0,0,.222.076.379.379,0,0,0,.169-.042l42.914-22.332a.367.367,0,0,0,.172-.453l-24.058-64.3,1.039-32.712a.367.367,0,0,0-.157-.312l-22.791-15.722-4.774-77.685,17.015,5.105a.373.373,0,0,0,.1.015.362.362,0,0,0,.226-.078.366.366,0,0,0,.139-.308l-3.013-53.148,30.859,29.787a.366.366,0,0,0,.254.1.377.377,0,0,0,.2-.06.365.365,0,0,0,.143-.431l-15.817-43.468a.361.361,0,0,0-.244-.229.366.366,0,0,0-.331.071l-15.4,12.778L604.7,822.373a.365.365,0,0,0-.655.111l-5.18,19.155-18.958-8.067,24.645-11.626a.363.363,0,0,0,.209-.289.368.368,0,0,0-.139-.33l-25.871-20.2h0v0l-24.963-18.938,24.926-14.613a.366.366,0,0,0,.139-.484l-30.214-58.24a.368.368,0,0,0-.421-.182.364.364,0,0,0-.267.375l.456,6.944-.605-7.87a.365.365,0,0,0-.653-.2L531.63,728.046l1.719-59.087,0-.005,0,0v-84.3l0,0,0,0-1.75-63.934a.37.37,0,0,0-.328-.353.363.363,0,0,0-.393.279l-10.887,45.58-51.791-49.5,39.261-65.875a.364.364,0,0,0-.265-.547l-39.187-5.225-21.26-61.61,67.91-20.428,37.416,20.507a.359.359,0,0,0,.176.045.355.355,0,0,0,.162-.038.365.365,0,0,0,.2-.275l6.1-43.171,104.864-56.981-28.9,64.92a.365.365,0,0,0,.1.429.378.378,0,0,0,.234.084.37.37,0,0,0,.207-.065l73-49.962.23.084a.448.448,0,0,0,.078.013l.007,0,.042,0c.023,0,.038-.025.061-.028s.023.022.04.022a.434.434,0,0,0,.1-.013l46.966-13.247a.366.366,0,0,0,.26-.409l-5.881-36.531,30.579-48.93,0-.012c0-.008.013-.012.017-.02a.357.357,0,0,0,.012-.273C780.732,199.182,780.741,199.174,780.737,199.166ZM749.88,152.018l4.436-51.834,8.609,30.748ZM458.793,1047.476l4.185,39.342-30.556,39.763Zm.156-2.727-11.1-26.384,24.081-10.469Zm26.6-28.676-25.633,28.112L472.7,1007.9C474.11,1009.183,478.419,1011.923,485.553,1016.073Zm-26.195,29.813,16.846-18.475,9.064-9.94-21.729,67.7Zm13.62-38.82c1.1-3.377,17.945-46.172,28.268-72.3l-15.376,80.614Zm84.944-666.548-5.959,42.127-36.486-20ZM749.512,249.2l5.722,35.548L709.7,297.591ZM520.592,566.839l10.35-43.337,1.644,59.974ZM439.023,803.931l5.952,37.842H401.182ZM371.6,953.746l4.653,29.18-51.381,23.259ZM749.1,155.04l20.118,5.548L747.12,172.8Zm11.225,38.409-13.282-3.623V174.2L778.7,198.46Zm19.5,6.075-29.78,47.647-2.979-56.581ZM558.086,339.608,514.827,362.16,480.36,309l98.025-26.185ZM513.445,801.6l-8.687,60.385-7.791-14.958-2.549-4.895,12.909-27.5Zm-54.5,182.51-36.574-62.393,67.985-5.594L466.98,966.708ZM298.9,960.324l13.675-61.332h15.333l-6.4,13.524Zm62.364-264.135,2.3,11L349.7,727.809l-1.507,2.238,4.156-76.469Zm19.282-142.481,6.174,41.4L366.5,590.058c.278-2.667,6.9-23.823,13.083-42.793Zm-.522-8.641-3.688-36.889L391.5,538.1l-10.042,6.1Zm-3.88-41.789V454.46l2.35-.454L388.86,452Zm.108-49.583,10.671-50.077,2.052,47.614-5.873,1.137Zm38.194-114.515,27.733-35.074-10.2,29.772Zm96.185-70.266-6.773,8.467L454.243,297.37l-5.329,2.147,66.011-35.969ZM445.758,842.04l-5.929-37.7,24.046,27,2.536,58.749ZM329.072,896.369l5.874-60h20.348l-9.8,22.429ZM665.223,220.507l15.037-13.834h15.011l-.187.1-34.574,18.072Zm64.663-39.576,16.427-6.917v15.624l-23.435-5.755ZM444.15,374.439,432.7,334.357l26.02-13.91L479.005,309.6l-32.649,72.555Zm-35.122,255.8,5.589-54.178,81.7,47.728Zm29.21,172.5-66-3.857,4.712-50.145Zm-30.121-330.63L376.46,505.032l13.085-52.76Zm-2.79-4.049L389.84,451.517l55.141-66.17L408.5,471.453Zm40.12-84.415L394.1,445.26l-4.056,4.865,14.49-63.5,12.727-.928Zm.358-.758-40.925,2.984,27.284-50.732,4.475,15.666Zm-40.731,1.079,8.681-43.813,17.772-5.374ZM376.22,506.335l14.136-14.7,17.575-18.278-5.356,21.28L391.864,537.2l-11.736-23.155Zm122.181,380L491.449,912.4l2.871-68.877,10.249,19.68ZM481.492,748.2l-17.466,82.214-24.28-27.262ZM342.478,791.688l13.01-11.364V833.6Zm37.638-245.822,1.556-.945,9.882-6-1.668,19.871-2.826,33.65L384.9,577.957Zm79.268,138.429L496.95,625.62,482.01,745.152Zm59.981,26.993-14.1,37.209-5.7,15.036-16.854-16.852L493,736.743Zm-20.038,53.046-5.41,74.072-11.237-90.72Zm-82.093-44.416L377.209,747.17c1.217-7.759,2.65-55.5,2.851-62.29Zm-38.456-39.163c-.978-4.437-2.4-12.944-3.864-22.448Zm-8.17-46.853c.678,4.83,2.019,14.265,3.436,23.536,3.247,21.22,4.442,25.84,5.062,26.869l-14.669,21.6Zm8.709,51.4c-.245,8.174-1.616,52.659-2.742,61.217l-12.22-39.19ZM370.9,630.686l15.755-33.17c-1.028,14.033-5.349,72.441-6.939,84.4Zm5.351,117.248L356.385,778.05l7.738-69.015Zm41.854-28.706-9.014-87.558,49.359,52.553Zm-9.839-88.605c0,.017-.012.03-.01.048l9.1,88.355L380.128,683.94c1.377-5.921,6.716-78.917,7.386-88.146l26.35-19.549-5.608,54.35C408.255,630.606,408.267,630.613,408.267,630.622Zm73.826,118.256,11.482,92.711-28.92-10.633Zm-94.5-154.053,4.654-55.432,21.582,35.968Zm30.426,125.44.01-.016c.007-.005.018,0,.025-.008l40.765-35.369,22.956,61.744L439.22,802.632l-61.973-54.605Zm75.467,122.07-19,34.928-7.323,13.464-2.548-59Zm.093,1.359-2.965,71.174-23.3-22.876ZM497.752,625.1l22.119,34.03-37.007,85.075ZM366.564,590.826l.313.08,19.763,4.941L375.6,619.086l-4.857,10.224L366.6,591.144Zm-3.139,117.881-7.645,68.177-7.643-45.452ZM500.736,762.5l6.967-18.379,12.647-33.369,10.434,18.363Zm19.183-52.759-9.747,9.408-26.917,25.991,36.664-84.286Zm-61-26.078-49.513-52.719,87.4-6.46ZM408.932,472.373l57.539-26-73.737,90.357Zm168.268-190-93.053,24.855,65.527-29.168,22.884,3.585Zm1.648-.481-13.605-2.132-14.252-2.234,59.041-23.7ZM524.2,271.239l3.09-1.049,20.2,7.129h-41.2Zm23.707,6.811L518.117,291.31l-37.146,16.536,23.289-29.8ZM631.321,242.1l26.794-15.167,5.947,8.407,6.216,8.788-56.618,7.968Zm27.443-15.517L695.641,207.3l-10.608,15.644-14.118,20.816L661.606,230.6Zm30.622-8.752,7.6-11.212,47.564-15.437-72.18,51.733Zm-139.77,59.465L528.663,269.9l79.3-16.025Zm68.164-41.336,38.107-8.6-43.435,24.585ZM443.459,302.621l15.818,2.843,19.4,3.486-17.321,9.259-28.444,15.2Zm227.019-57.786-6.395,36.876-51.158-28.775Zm26.286,35.891-25.114-35.92L749,248.674l-40.4,48.989Zm25.056-96.353,23.526,5.78-29.616,9.612-17.436,5.659L715.084,190.4ZM616.908,236.261l-3.565,10.693-1.818,5.455-79.91,16.148ZM516.418,262.85l10.061,6.842-9.145,3.106-12.186,4.139,1.73-2.163Zm-13.463,15.682-23.329,29.846-35.1-6.307,17.068-6.876ZM403.641,387.27l-3.632,15.923L389.6,448.8,387.536,400.9Zm-33.574,244.4L363.8,704.757l-2.466-11.779-8.81-42.094,3.12-3.416ZM356.219,779.628l19.934-30.217-4.676,49.724L356.219,834.25ZM671.131,245.341l36.349,51.988-42.714-15.286ZM513.755,799.216l-17.328,36.917-1.908,4.064,5.437-74.436,9.955,24.134Zm12.027-177.9c-4.578,25.294-5.743,33.62-5.916,36.465L497.973,624.1l34.406-38.23C531.494,590.516,528.58,605.857,525.782,621.317Zm86.073-368.146,51.106,28.746H579.915Zm60.13-9.08,74.363-53.3,3.01,57.173Zm24.633-38.149H681.57l37.622-20.2Zm-38.57,20.173L620.7,234.548l57.423-26.906Zm-124.157,40.8-6.552,2.481-10.126-6.887L610.789,237.8ZM403.907,386.088l-15.793,13.363,24.3-56.286Zm-33.766,244.42L352.7,649.615c1.328-6.612,8.855-38.447,13.312-57.13Zm-20.192,116.1,5.51,32.765L342.509,790.69l5.344-56.533Zm1.956,77.909,3.453,11.121H335.046l7.119-42.5Zm-53.66,138.9,29.791-62.988-4.895,105.547Zm29.909-65.157H312.8l21.162-59.334ZM323,1007.186l-19.621,22.785-5.062-64.977Zm-22.84,98.327-5.775-16.854-9.728-28.4,18.016-28.069-.547,15.992Zm-2.916-66.217-12.4,19.316,12.876-91.806,4.986,63.974ZM302,1073.143l1.445-42.129,19.316-22.432-21.809,95.126Zm26.8-173.531,42.555,53.3-47.5,53.3Zm.277-.824,17.779-6.8,19.069-7.3,5.448,67.072ZM495.775,921.6l-4.431-5.966,4.966-18.623,8.155-30.584-2.46,63.559Zm36.843-253.377c-2.175-1.636-10.509-7.923-11.941-9.249l11.941-70ZM467.371,516.637l-53,58.211-21.95-36.579,74.947-91.843ZM746.334,173.213l-23.266,9.8L748,155.073Zm-461.88,888.708,12.327,35.977,3.264,9.531-22.753,27.39Zm47.629-165.062-2.916,1.116,22.182-50.753,4.386-10.032,10.095,46.757Zm67.465-55.194-43.168-5.954L371.9,799.984ZM372.543,799.63l65.895,3.852-38.081,38.082ZM466.4,891.922l-44.013,28.628,23.075-77.342Zm23.715,23.486-66.951,5.508,43.645-28.391Zm.9,1.009,10.85,14.607-41.315,51.328Zm9.11-152.151,2.75-3.057,27.653-30.726-16.468,67.566Zm20.551-54.416,11.862-38.24L530.9,727.842Zm-.03-2.365V659.905c2.495,2.1,10.555,8.165,11.908,9.181Zm11.865-122.857L497.441,623.6,415.5,575.727,520.02,567.3Zm-117.309-9.609,52.55-57.717,51.6,49.318Zm-5.884-103.623,36.924-87.158,21.036,60.969Zm70.516-161.858,34.293,52.891-67.189,20.211Zm99.383-26.887h83.7l-103.87,56.44ZM707.378,298.22l-71.506,48.936L664.55,282.74Zm-175.729,431,15.495-20.1,5.442,70.766Zm-25.1-278.273L468.1,515.453V445.817Zm46.9,330.589-4.664-70.8,29.253,56.385Zm78.168,80.114,15-12.445,15.1,41.5Zm-42.44,199.967,9.078-18.155-5.748,30.332-3.33,17.567ZM554.144,783.377,578.159,801.6v30.226Zm41.668,90.12-16.6-39.429,19.506,8.3Zm3.718-31.529,5.013-18.53,25.271,36.99Zm31.3,21.774,2.917,51.464-16.669-5ZM622.31,989.879l21.7,14.966-.986,31.008Zm20.305,47.834-39.425,45.361,3.822-22.367,4.656-27.235,1.444.2Zm-40.831,47.7-15.626,40.47,3.005-30.451,11.653-9.249Zm.955-4.048-3.251-40.236,11.379-7.315-4.136,24.192Zm39.99-44.38-30.362-4.159-.555-.076,9.74-42.775,13.29,29.5Zm-31.141-6.541L609.557,993.9l11.372-4.467-6.721,29.518Zm-22.231,63.9,9.6-50.672L600,1056.543l2.229,27.59-.4.318Zm31.66-105.741-11.474,4.508v-58.6Zm-10.025,44.264-.51.326-10.836,6.965,9.319-43.758Zm8.442-55.247-9.877-46.566,6.809-18.825,4.406,71.7Zm-20.159-133.36,16.337,63.719-19.2-33.085,1.825-19.551Zm16.945,66.222-6.968,19.266-12.294-52.464Zm-16.537-67.569,30.96,18.873-13.995,47.289ZM578.9,802.168l24.805,19.37-24.477,11.547Zm88.065,299.471-41.937,21.825,18.4-84.73Z" transform="translate(-276.447 22.255)"/><path class="d" d="M1152.037,1082.516l-9.331-97.276-.006-.012,0-.018-11.6-65.378c0-.01-.011-.017-.015-.026l0-.018-19.563-63.5-5.49-44.693-3.052-60.388h0l-.852-80.674,0-.005c.023-1.891-9.41-50.922-11.3-60.758l-.055-.273c.123-2.967-9.564-37.9-11.6-45.184l5.651-39.127c0-.007-.005-.012-.005-.018l.008-.017,2.279-52.063c0-.017-.013-.03-.015-.046s.012-.018.01-.028l-9.037-53.873c0-.013-.015-.018-.018-.031s0-.025,0-.036l-23.589-61.96-.013-.015c0-.008,0-.02-.005-.028l-21.708-40.009c-.008-.017-.028-.02-.038-.035s-.008-.035-.021-.048l-29.778-30.362a.362.362,0,0,0-.192-.1l-5.274-1,3.988.549c.018,0,.033,0,.052,0a.364.364,0,0,0,.171-.686l-42.124-22.5-.322-.5c0-.027.017-.05.013-.076a.363.363,0,0,0-.282-.307l-57.8-12.846a.366.366,0,0,0-.421.232.34.34,0,0,0,0,.148l-43.989-5.641-.041,0a.364.364,0,0,0-.36.287c-.008.043.015.08.02.121l-1.412-.443h-.01l0,0L814.669,232.9l-37.12-21.519a.328.328,0,0,0-.091-.126l-50.213-32.7a.363.363,0,0,0-.381-.012c-.025.013-.036.04-.056.056L722.19,124.44a.363.363,0,0,0-.3-.327.333.333,0,0,0-.163.023l1.906-35.29a.365.365,0,0,0-.708-.143l-9.151,25.528a.364.364,0,0,0,.046.337l7.225,10.116a.358.358,0,0,0,.222.114l-12.187,26.1a.364.364,0,0,0,.022.345l16.862,27.509-32.518,21.712a.334.334,0,0,0-.091.124c-.01.015-.033.017-.042.033s0,.013,0,.02a.351.351,0,0,0,0,.272c0,.007.012.01.017.018v.017l28.334,50.085-37.66,34.055a.367.367,0,0,0,.169.628l66.706,14.524,42.876,77.778a.361.361,0,0,0,.32.191.315.315,0,0,0,.09-.012.367.367,0,0,0,.277-.351l.361-42.147a.361.361,0,0,0-.119-.257l11.5-46.127,102.078,61.4-63.849-1.725a.344.344,0,0,0-.366.259.373.373,0,0,0,.151.413l68.9,44.958a.377.377,0,0,0,.166.05c.032.048.04.113.093.143a.385.385,0,0,0,.179.046.393.393,0,0,0,.161-.038l38.277-18.853,65.932,23.022-62.7,23.007a.366.366,0,0,0-.126.607l38.969,37.251-45.114-3.431a.359.359,0,0,0-.333.169.364.364,0,0,0-.008.378l43.065,74.574-54.113,47.368-10.559-11.15a.366.366,0,0,0-.628.217l-2.748,28.545h0L911.48,679.18a.456.456,0,0,0,.007.066c0,.012-.008.022-.007.031l7.567,61.783.007.015,0,.012,14,70.732,6.386,64.218-.343,67.922c0,.01.008.018.008.028s-.006.017,0,.025l12.472,85.58c0,.007.01.01.012.017s0,.018,0,.028l19.649,71.865c.005.023.028.036.038.058s0,.04.013.056l30.118,42.957a.359.359,0,0,0,.3.158.35.35,0,0,0,.157-.036.361.361,0,0,0,.194-.429l-23.9-83.759,12.744-26.93a.371.371,0,0,0-.172-.484l-24.534-11.967c-1.16-4.23-18.861-55.539-25.59-75.012l39.531,53.768c.007.008.02,0,.028.013a.342.342,0,0,0,.23.134l.036,0a.359.359,0,0,0,.179-.048c.036-.02.05-.061.076-.091s.04-.01.05-.027l48.787-75.206a.365.365,0,0,0,.01-.386.349.349,0,0,0-.338-.179l-76.656,4.623,24.164-21.732,53.277,16.945a.356.356,0,0,0,.113.018.361.361,0,0,0,.272-.123.37.37,0,0,0,.061-.393l-29.614-65.4,44.473,1.948h.01l44.188-4.136L1077.1,903.008c0,.01,0,.018,0,.028s-.01.01-.01.016l-8.575,68.35-24.729,35.172a.368.368,0,0,0-.045.33.361.361,0,0,0,.239.229l70.535,21.054,18.542,100.969c.007.031.033.05.047.076a.32.32,0,0,0,.063.109.342.342,0,0,0,.1.06c.026.013.045.041.076.046a.375.375,0,0,0,.073.008l.033,0c.016,0,.026-.018.043-.021a.342.342,0,0,0,.159-.078.292.292,0,0,0,.053-.066c.017-.023.042-.038.051-.064l18.255-46.538c.007-.018-.008-.038,0-.056A.39.39,0,0,0,1152.037,1082.516Zm-174.175-20.325,22.884,80.188-28.787-41.063Zm-6.39,37.453-18.749-68.582L972.3,1054.51l5.069,6.072-2.3,15.246Zm-3.527-51.486L952.5,1029.651c7.311-3.836,11.737-6.383,13.2-7.6l11.184,36.808Zm-1.477-26.078,23.6,11.512-12.241,25.873Zm-14.257,6.872L940.377,947.74c9.168,26.549,24.126,70.034,25.079,73.463ZM722.773,91.3l-1.735,32.109-6.509-9.112Zm3.2,86.051-16.14-26.327,11.751-25.162ZM924.461,595.37l2.554-26.529,10.032,10.592ZM908.88,351.458l3.988,42.13-67.183-43.839Zm169.006,551.431,12.13-46.271,4.081,10.577,19.8,51.31-16.065-6.967Zm-2.4-84.146,13.947,36.37-43.389,4.059Zm-31.078,40.466-43.753-1.916,7.6-37.546Zm-44.206-.706,29.2,64.484-52.294-16.634Zm-48.172,70.975,76.465-4.611L980.485,998.88l-16.9-41.21Zm66.739-530.965-66.24-23.13,36.574-51.342Zm-67.594-22.971-37.327,18.384-4.109-42.346Zm-119.607-85.31,59.422,2.6L908.677,350.1l-101.3-60.929ZM727.328,193.523l-5.448,56.4-27.668-48.9Zm28.369,9.589-27.6-10.315-.648-13.241,46.838,30.5Zm182.158,65.994-77.08-23.959,41.259,5.291Zm195.232,856.166-17.627-95.985,18.316,23.255-.183,19.316Zm1.411-71.518,16.771,28.828-17.468,44.529Zm.023-1.414,7.779-63.7,8.85,92.282ZM951.249,855.487l-11.2,19.382-6.039-60.708Zm-22.5-218.1,4.261,33.866-20.72,7.431,11.659-79.411ZM909.614,350.662,891.82,293.037l96.787,30.445-36.762,51.6ZM855.2,246.913l3.932,13.786-42.316-26.461L854.512,244.5Zm227.055,224.713-8.57-2.052,4.131-47.476,8.474,50.494Zm-8.492-1.281,12.6,3.015-2.137,48.772ZM1090.451,611.7c3.635,18.858,9.763,50.987,10.8,57.657L1084.661,649.5l3.416-22.306Zm11.943,142.33,2.869,56.715-12.445-11.868,7-32.782Zm27.532,165.468-15.026-.658-3.207-59.53,18.545,60.2Zm-9.041,13.814-5.773-13.731,15.318.671,10.98,61.864Zm21.045,51.93L1115.2,1026.67l-.273-105.659,9.195,21.865Zm-27.464,41.633-45.121-55.325,44.844-51.388ZM729.882,194.246l46.776,17.477,14.348,23.285,8.657,14.053-69.848-54.841Zm131.589,68.449,57.945,26.258-24.159,2.712-3.859.433-27.918-27.428ZM965.152,279.94l3.793,1.318-46.85,7.335,20.658-16.312Zm107.536,487.381,2.516,50.3-66.105.968Zm-132.5,108.771,11.1-19.21-.144,68.933-5.195-23.57Zm55.529-415.963L1019.4,400.14l33.077,88.687-54.826-27.72ZM876.982,278.957l13.348,13.115-82.965-3.632,52.313-26.483Zm196.087,191.631,9.473,46.878,1.293,6.4-30.186-34.277,8.938-8.747ZM958.9,637.27l83.707-44.111,3.216,54.372Zm93.921-147.447,13.368,65.007-69.716-93.5Zm31.2,35.361-16.978,30.15-13.261-64.484Zm-50.291-107.871-13.506-17.729,40.74,4.769,11.7,64.07Zm-13.827-18.5,15.715-47.1,25.041,51.877Zm.714,2.5,52.2,68.516-19.518,19.1-11.416-30.609Zm1.3-59.074-31.568-18.694,41.907-4.109,2.873,30.627ZM988.436,322.5l-66.464-33.14L970,282.069ZM971.19,282.223l60.087,36.36-41.854,4.31ZM913.078,290.4l7.635-.855L984.9,321.55l-91.876-28.9Zm76.855,33.745,45.18,26.756-15.735,47.156-11.83-29.7ZM1078.4,564.5l-8.976,46.228-1.273-31.754-.877-21.911,10.078,6.738Zm-70.824,254.428-25.449,26.173-13.854-82.9Zm59.7-243.616,1.513,37.773L1043.424,592.5l23.133-34.99Zm5.828,128.521,13.983,22.661-13.922,38.616C1072.414,756.605,1072.972,712.962,1073.1,703.838Zm10.794-54.193-.022.1-11.114,50.219-3.136-84.1,5.188,12.283Zm-11.519,53.743c-.1,6.8-.748,54.567.124,62.356l-38.8-28.978Zm14.686,21.684-13.92-22.56,10.887-50.052.448,10.683ZM994.086,699.3l51.608-50.344-12.833,87.079Zm97.866,98.2-18.532-30.953,13.819-38.331Zm-23.13-183.44,3.3,88.575-38.5,33.231L1046.576,648c0-.017-.008-.03-.008-.046s.011-.017.011-.028l-3.226-54.544ZM967.886,759.145l-9.7-120.071,34.965,60.261Zm-35.838-35.464,35.073,36.96-8.135,7.454-9.438,8.646L942.2,754.469Zm32.1,40.678,2.96-2.713-15.193,90.147-2.165-74.242Zm3.5-1.493,13.829,82.762-29.354,9.355Zm-.565-4.7-33.254-86.615,23.585-33.027Zm26.563-59.442-35.265-60.778,87.035,10.274Zm-27,60.355L931.56,722.1l2.138-48.837Zm1.414,1.54,25.633-60.679,39.178,37.116c.006.007.018,0,.025.01l.01.016,39.52,29.518-64.3,51.842Zm124.551,35.749-4.656-68.443,14.28,23.37Zm8.759-125.735-13.62,53.324-2.379-56.914-.683-16.368Zm-11.4-60.614-5.861,38.26-14.416-34.124,12.9-2.632ZM924.5,597.776l32.734,39.735-23.574,33.016-2.016-16.005ZM919.86,740.988l6.728-10.721,4.5-7.169,4.993,15.142,12.339,37.416-19.71-23.929Zm29.2,37.962,2.175,74.6-17.423-41.779,1.525-3.285Zm32.414,67.443-5.124,58.839-24.176-49.5Zm108.95,6.647,2.329-53.225,12.5,11.923-8.8,24.522Zm-17.255-385.927-11.336-62.081,15.493,14.32-1.722,19.806Zm-23.009-86.964-13.889-28.775,11.818,4.146,5.7,2,6.756,44.149ZM806.27,244.478l8.339-10.759L857.921,260.8l-56.215-10.438Zm-6.125,6.508-49.026,47.571-28.343-47.088Zm.636.4,4.769,37.062-53.213,10.4Zm.7-.323,57.141,10.608-52.366,26.511Zm274.475,566.842-2.5-49.878,18.591,31.055-2.389,54.57Zm14.538,37.912,10.673.466,9.655.424.033.615,3.21,59.578ZM800,250.256l-77.47.482,5.507-56.986Zm266.429,306.12L1042.9,591.961l-50.4-60.473,3.071-70.142Zm-84.2,289.667,25.207-25.926-7.573,37.406-22.734,47.1Zm108.227,9.044,11.257-31.354,3.779-10.524,5.255,42.769Zm7.791-111.708-10.375-16.98,13.552-53.069.81,76.576Zm-28.608-129.96,9.221-47.489c5.346,19.223,11.038,40.648,11.2,43.322Zm1.871-54.393-4.152-2.778,16.458-29.228-5.3,36.69Zm-9.9-155.185L1055,360.591l21.81,57.289ZM1035.9,350.47l-2.465-30.582,19.912,36.7Zm-65.809-69.752a.35.35,0,0,0-.342.023l-4.27-1.46-21.92-7.613,14.963-8.6c.01.025,0,.053.02.075l4.079,5.934Zm-169-30.743-23.107-37.5,36,20.87ZM933.021,672.026l-2.13,48.664-18.555-41.245Zm-2.244,50.189L919.647,739.95,912.5,681.582Zm-1.7,31.106,19.874,24.126-.854,1.837-14.545,31.3-13.5-68.221ZM951.1,929.05l-11.278,13.872.322-63.606Zm162.845-9.727-44.57,51.075,8.374-66.77Zm1.334,108.559,26.5-41.073-7.9,64.693Zm-83.143-709.63-59.774-36.171.469.065,59.228,35.31ZM974.687,282.4l8.289,1.137,19.475,3.675,27.723,28.265Zm-2.932-1.724a.359.359,0,0,0-.244.041l-8.283-12.047-2.907-4.532,39.172,20.928L983.1,282.819Zm-28.978-10.131-38.99-20.053,54.014,12Zm-22.051,18.2-58.655-26.578,79.863,9.828ZM860.033,261.18l-.346-1.213-4.341-15.213,83.208,26.088ZM695.5,199.976,726.154,179.5l1.193,13.264Zm54.862,99.24c.008.033,0,.066.015.1l.042.076-65.389-14.237,37.02-33.476Zm8.787,7.459,34.81,29.525a.358.358,0,0,0,.118.043l-.345,40.2-41.776-75.781Zm.527-.512-7.527-6.383,53.317-10.564-11.394,45.689ZM938.381,579.149l53.708-47.014,49.976,59.959Zm19.4,57.884-33.337-40.468L937.688,579.8l104.052,12.992ZM951.4,929.853l7.048,17.194,20.5,50.009L939.918,943.97Zm.558-42.969.063-29.8,6.927,14.181,17.2,35.22-24.28,21.837Zm122.91-68.524-29.621,40.675-36.38-39.71Zm38.936,208.854-69.124-20.633,24.214-34.436ZM1018.344,399.6,994.9,459.645l-38.885-37.171Zm-23.471,61.042-3.052,69.706L949.578,457.2Z" transform="translate(-8.525 16.129)"/><path class="d" d="M858.478,435.441h-.02a.366.366,0,0,0-.336.355l-.026.96a.345.345,0,0,0-.284.254L829.9,558.159c0,.018,0,.035,0,.053s-.015.018-.015.028v31.726l-20.261,8.621L752.9,588.622a.353.353,0,0,0-.38.179.372.372,0,0,0,.038.418l24.721,29.294-22.848,51.245a.364.364,0,0,0,.333.514l37-2.6-4.75,77.294-20.039-14.923a.366.366,0,0,0-.585.285l-1.313,63.934c0,.007.006.013.008.02a.143.143,0,0,0,0,.038.3.3,0,0,0,.033.088.374.374,0,0,0,.03.081l.005,0,.008.008,0,.012,40.482,46.574-45.344,38.562a.374.374,0,0,0-.126.326.363.363,0,0,0,.206.28l49.127,23.382a.222.222,0,0,0,.031.007l.018.013a.357.357,0,0,0,.11.017.361.361,0,0,0,.2-.061.356.356,0,0,0,.061-.07c.006-.008.02,0,.026-.013l13.574-17.955,0-.005.01-.023a.351.351,0,0,0,.053-.2c0-.01.01-.018.008-.03l-3.284-33.264v-33.7a.369.369,0,0,0-.036-.164l-10.27-20.539-10.055-47.2V687.9l13.121-55.978,17.5-41.56,25.394-51.227c.007-.012,0-.025,0-.036s.017-.017.02-.028l.095-.341.045-.035a.376.376,0,0,0,.143-.28l.008-.395,13.143-47.527a.348.348,0,0,0,.007-.166l-10.6-54.592A.374.374,0,0,0,858.478,435.441Zm-49.206,467.27-48.063-22.874,44.637-37.958ZM805.588,839.9,766.163,794.54,797.11,790.3Zm-39.742-47.411,1.261-61.436,19.778,14.727-18.6,41.295Zm33.388-42.545-11.474-4.507,11.474-54.1ZM820.5,877.233l-13.509-34.986,4.454,3.534,8.168,6.483,3,30.451Zm2.331,8.062-12.853,17-3.317-58.87,11.5,29.772Zm-56.785-91.478,21.175-47.01,9.742,42.775L793.9,790Zm27.1-45.479,6.067,2.383-2.029,36.549-9.342-41.016Zm16.136,49.622-3.25,40.231-8.127-47.546Zm10.133,53.215-1.252-.993L806.55,840.96l1.6-19.833,1.667-20.625,8.961,47.284ZM797.788,789.7l2.026-36.465,9.319,43.756ZM788,740.757l4.407-71.7,6.809,18.825-3.179,14.986Zm22.972-131.74-.917-9.819,19.508-8.3-16.6,39.429Zm.844,25.1-12.3,52.46-3.5-9.682-3.464-9.582,3.274-5.642ZM793.167,664.81,809.5,601.092l2.859,30.634ZM792.13,665.9l-13.995-47.287,30.96-18.871Zm-14.348-47.925-24.018-28.461,54.89,9.641Zm13.894,48.968L755.344,669.5l22.293-50ZM819.6,848.184l-5.772-30.446-3.307-17.453L819.6,818.44Zm37.741-357.342,1.422-51.711,9.949,51.25-12.351,44.66Zm-26.722,67.579L854.634,540.2l-24.017,48.446Zm24.683-20-24.462,18.906,26.886-116.683-1.111,50.049ZM754.764,670.148Z" transform="translate(36.573 244.291)"/></g><g transform="translate(11868.563 -2028.622)"><circle class="e" cx="1.999" cy="1.999" r="1.999"/></g><g transform="translate(11813.859 -1981.367)"><path class="e" d="M839.7,385.113a2,2,0,1,1-2-2A2,2,0,0,1,839.7,385.113Z" transform="translate(-835.703 -383.116)"/></g><g transform="translate(11834.021 -1922.333)"><path class="e" d="M851.863,420.728a2,2,0,1,1-2-2A2,2,0,0,1,851.863,420.728Z" transform="translate(-847.867 -418.731)"/></g><g transform="translate(11870.562 -1861.159)"><path class="e" d="M873.907,457.636a2,2,0,1,1-2-2A2,2,0,0,1,873.907,457.636Z" transform="translate(-869.911 -455.637)"/></g><g transform="translate(11843.972 -1799.575)"><path class="e" d="M857.866,494.787a2,2,0,1,1-2-2A2,2,0,0,1,857.866,494.787Z" transform="translate(-853.87 -492.79)"/></g><g transform="translate(11884.251 -1741.264)"><path class="e" d="M882.166,529.966a2,2,0,1,1-2-2A2,2,0,0,1,882.166,529.966Z" transform="translate(-878.17 -527.969)"/></g><g transform="translate(11856.079 -1560.514)"><path class="e" d="M865.171,639.011a2,2,0,1,1-2-2A2,2,0,0,1,865.171,639.011Z" transform="translate(-861.174 -637.014)"/></g><g transform="translate(11866.679 -1526.699)"><path class="e" d="M871.567,659.411a2,2,0,1,1-2-2A2,2,0,0,1,871.567,659.411Z" transform="translate(-867.569 -657.414)"/></g><g transform="translate(11686.873 -1538.853)"><path class="e" d="M763.089,652.081a2,2,0,1,1-2-2A2,2,0,0,1,763.089,652.081Z" transform="translate(-759.093 -650.082)"/></g><g transform="translate(11920.418 -1553.451)"><path class="e" d="M903.985,643.272a2,2,0,1,1-2-2A2,2,0,0,1,903.985,643.272Z" transform="translate(-899.989 -641.275)"/></g><g transform="translate(11945.198 -1588.696)"><path class="e" d="M918.937,622.009a2,2,0,1,1-2-2A2,2,0,0,1,918.937,622.009Z" transform="translate(-914.939 -620.012)"/></g><g transform="translate(11854.541 -1499.761)"><path class="e" d="M864.244,675.665a2,2,0,1,1-2-2A2,2,0,0,1,864.244,675.665Z" transform="translate(-860.246 -673.666)"/></g><g transform="translate(11727.598 -1490.951)"><path class="e" d="M787.658,680.98a2,2,0,1,1-2-2A2,2,0,0,1,787.658,680.98Z" transform="translate(-783.662 -678.981)"/></g><g transform="translate(11878.021 -1415.87)"><path class="e" d="M878.41,726.274a2,2,0,1,1-2-2A2,2,0,0,1,878.41,726.274Z" transform="translate(-874.412 -724.277)"/></g><g transform="translate(11991.166 -1532.332)"><path class="e" d="M946.667,656.013a2,2,0,1,1-2-2A2,2,0,0,1,946.667,656.013Z" transform="translate(-942.671 -654.016)"/></g><g transform="translate(12028.004 -1477.684)"><path class="e" d="M968.891,688.984a2,2,0,1,1-2-2A2,2,0,0,1,968.891,688.984Z" transform="translate(-964.895 -686.985)"/></g><g transform="translate(12010.475 -1431.144)"><path class="e" d="M958.316,717.061a2,2,0,1,1-2-2A2,2,0,0,1,958.316,717.061Z" transform="translate(-954.32 -715.062)"/></g><g transform="translate(11681.972 -1452.079)"><path class="e" d="M760.134,704.431a2,2,0,1,1-2-2A2,2,0,0,1,760.134,704.431Z" transform="translate(-756.136 -702.432)"/></g><g transform="translate(12018.875 -1574.961)"><path class="e" d="M963.386,630.3a2,2,0,1,1-2-2A2,2,0,0,1,963.386,630.3Z" transform="translate(-959.388 -628.298)"/></g><g transform="translate(11828.994 -1528.699)"><path class="e" d="M848.832,658.207a2,2,0,1,1-2-2A2,2,0,0,1,848.832,658.207Z" transform="translate(-844.834 -656.208)"/></g><g transform="translate(11741.391 -1514.569)"><path class="e" d="M795.981,666.731a2,2,0,1,1-2-2A2,2,0,0,1,795.981,666.731Z" transform="translate(-791.983 -664.732)"/></g><g transform="translate(11815.787 -1684.202)"><path class="e" d="M840.862,564.393a2,2,0,1,1-2-2A2,2,0,0,1,840.862,564.393Z" transform="translate(-836.866 -562.394)"/></g><g transform="translate(11708.768 -1586.412)"><path class="e" d="M776.3,623.387a2,2,0,1,1-2-2A2,2,0,0,1,776.3,623.387Z" transform="translate(-772.302 -621.39)"/></g><g transform="translate(11751.682 -1742.253)"><path class="e" d="M802.188,529.371a2,2,0,1,1-2-2A2,2,0,0,1,802.188,529.371Z" transform="translate(-798.192 -527.372)"/></g><g transform="translate(11733.439 -1700.267)"><circle class="e" cx="1.999" cy="1.999" r="1.999"/></g><g transform="translate(11713.301 -1664.797)"><path class="e" d="M779.035,576.1a2,2,0,1,1-2-2A2,2,0,0,1,779.035,576.1Z" transform="translate(-775.037 -574.101)"/></g><g transform="translate(11699.248 -1713.622)"><path class="e" d="M770.555,546.642a2,2,0,1,1-2-2A2,2,0,0,1,770.555,546.642Z" transform="translate(-766.559 -544.645)"/></g><g transform="translate(11676.191 -1662.168)"><path class="e" d="M756.645,577.686a2,2,0,1,1-2-2A2,2,0,0,1,756.645,577.686Z" transform="translate(-752.649 -575.687)"/></g><g transform="translate(11721.028 -1642.885)"><circle class="e" cx="1.999" cy="1.999" r="1.999"/></g><g transform="translate(11854.08 -1653.661)"><circle class="e" cx="1.998" cy="1.998" r="1.998"/></g><g transform="translate(11905.529 -1636.653)"><path class="e" d="M895,593.079a2,2,0,1,1-2-2A2,2,0,0,1,895,593.079Z" transform="translate(-891.007 -591.08)"/></g><g transform="translate(11990.884 -1640.34)"><circle class="e" cx="1.999" cy="1.999" r="1.999"/></g><g transform="translate(11921.607 -1700.623)"><path class="e" d="M904.7,554.484a2,2,0,1,1-2-2A2,2,0,0,1,904.7,554.484Z" transform="translate(-900.707 -552.487)"/></g><g transform="translate(11949.082 -1793.649)"><path class="e" d="M921.278,498.364a2,2,0,1,1-2-2A2,2,0,0,1,921.278,498.364Z" transform="translate(-917.282 -496.365)"/></g><g transform="translate(11943.208 -2003.09)"><circle class="e" cx="1.999" cy="1.999" r="1.999"/></g><g transform="translate(11800.311 -1962.337)"><path class="e" d="M831.525,396.6a2,2,0,1,1-2-2A2,2,0,0,1,831.525,396.6Z" transform="translate(-827.529 -394.597)"/></g><g transform="translate(11788.82 -1880.184)"><path class="e" d="M824.6,446.158a2,2,0,1,1-2-2A2,2,0,0,1,824.6,446.158Z" transform="translate(-820.597 -444.159)"/></g><g transform="translate(11922.544 -1912.291)"><path class="e" d="M905.268,426.788a2,2,0,1,1-2-2A2,2,0,0,1,905.268,426.788Z" transform="translate(-901.272 -424.789)"/></g><g transform="translate(11807.521 -1837.797)"><path class="e" d="M835.875,471.73a2,2,0,1,1-2-2A2,2,0,0,1,835.875,471.73Z" transform="translate(-831.879 -469.731)"/></g><g transform="translate(11779.146 -1896.269)"><path class="e" d="M818.757,436.454a2,2,0,1,1-2-2A2,2,0,0,1,818.757,436.454Z" transform="translate(-814.761 -434.455)"/></g><g transform="translate(11777.079 -1793.649)"><path class="e" d="M817.512,498.364a2,2,0,1,1-2-2A2,2,0,0,1,817.512,498.364Z" transform="translate(-813.514 -496.365)"/></g><g transform="translate(11809.741 -1750.156)"><path class="e" d="M837.215,524.6a2,2,0,1,1-2-2A2,2,0,0,1,837.215,524.6Z" transform="translate(-833.219 -522.604)"/></g><g transform="translate(11978.949 -1889.697)"><path class="e" d="M939.3,440.419a2,2,0,1,1-2-2A2,2,0,0,1,939.3,440.419Z" transform="translate(-935.301 -438.42)"/></g><g transform="translate(11961.018 -1910.372)"><path class="e" d="M928.479,427.944a2,2,0,1,1-2-2A2,2,0,0,1,928.479,427.944Z" transform="translate(-924.483 -425.947)"/></g><g transform="translate(11949.082 -1857.655)"><path class="e" d="M921.278,459.75a2,2,0,1,1-2-2A2,2,0,0,1,921.278,459.75Z" transform="translate(-917.282 -457.751)"/></g><g transform="translate(11909.618 -1823.447)"><path class="e" d="M897.47,480.387a2,2,0,1,1-2-2A2,2,0,0,1,897.47,480.387Z" transform="translate(-893.474 -478.388)"/></g><g transform="translate(11825.746 -1783.848)"><path class="e" d="M846.872,504.277a2,2,0,1,1-2-2A2,2,0,0,1,846.872,504.277Z" transform="translate(-842.874 -502.278)"/></g><g transform="translate(11827.986 -1705.142)"><path class="e" d="M848.223,551.76a2,2,0,1,1-2-2A2,2,0,0,1,848.223,551.76Z" transform="translate(-844.226 -549.761)"/></g><g transform="translate(11825.247 -2103.455)"><path class="e" d="M846.571,311.46a2,2,0,1,1-2-2A2,2,0,0,1,846.571,311.46Z" transform="translate(-842.573 -309.461)"/></g><g transform="translate(11929.477 -2070.66)"><path class="e" d="M909.45,331.245a2,2,0,1,1-2-2A2,2,0,0,1,909.45,331.245Z" transform="translate(-905.454 -329.246)"/></g><g transform="translate(11871.584 -2099.951)"><path class="e" d="M874.524,313.572a2,2,0,1,1-2-2A2,2,0,0,1,874.524,313.572Z" transform="translate(-870.528 -311.575)"/></g><g transform="translate(11949.624 -2090.379)"><path class="e" d="M921.607,319.349a2,2,0,1,1-2-2A2,2,0,0,1,921.607,319.349Z" transform="translate(-917.609 -317.35)"/></g><g transform="translate(11954.033 -2140.854)"><path class="e" d="M924.265,288.9a2,2,0,1,1-2-2A2,2,0,0,1,924.265,288.9Z" transform="translate(-920.269 -286.899)"/></g><g transform="translate(11895.311 -2162.163)"><path class="e" d="M888.84,276.042a2,2,0,1,1-2-2A2,2,0,0,1,888.84,276.042Z" transform="translate(-884.842 -274.043)"/></g><g transform="translate(11908.729 -2241.247)"><path class="e" d="M896.934,228.331a2,2,0,1,1-2-2A2,2,0,0,1,896.934,228.331Z" transform="translate(-892.937 -226.332)"/></g><g transform="translate(11789.631 -2165.929)"><path class="e" d="M825.084,273.77a2,2,0,1,1-2-2A2,2,0,0,1,825.084,273.77Z" transform="translate(-821.086 -271.771)"/></g><g transform="translate(11627.222 -2260.789)"><path class="e" d="M727.1,216.542a2,2,0,1,1-2-2A2,2,0,0,1,727.1,216.542Z" transform="translate(-723.106 -214.543)"/></g><g transform="translate(11051.623 -2251.627)"><path class="e" d="M379.847,222.069a2,2,0,1,1-2-2A2,2,0,0,1,379.847,222.069Z" transform="translate(-375.851 -220.07)"/></g><g transform="translate(11165.805 -2213.954)"><path class="e" d="M448.734,244.8a2,2,0,1,1-2-2A2,2,0,0,1,448.734,244.8Z" transform="translate(-444.736 -242.798)"/></g><g transform="translate(10995.57 -2153.375)"><path class="e" d="M346.033,281.342a2,2,0,1,1-2-2A2,2,0,0,1,346.033,281.342Z" transform="translate(-342.035 -279.345)"/></g><g transform="translate(11040.675 -2218.414)"><path class="e" d="M373.242,242.106a2,2,0,1,1-2-2A2,2,0,0,1,373.242,242.106Z" transform="translate(-369.246 -240.107)"/></g><g transform="translate(11054.688 -2171.801)"><circle class="e" cx="1.999" cy="1.999" r="1.999"/></g><g transform="translate(11012.648 -2167.825)"><path class="e" d="M356.336,272.624a2,2,0,1,1-2-2A2,2,0,0,1,356.336,272.624Z" transform="translate(-352.338 -270.627)"/></g><g transform="translate(11122.754 -2191.434)"><path class="e" d="M422.76,258.383a2,2,0,1,1-2-2A2,2,0,0,1,422.76,258.383Z" transform="translate(-418.764 -256.384)"/></g><g transform="translate(11160.89 -2170.892)"><path class="e" d="M445.767,270.776a2,2,0,1,1-2-2A2,2,0,0,1,445.767,270.776Z" transform="translate(-441.771 -268.777)"/></g><g transform="translate(11017.028 -2081.998)"><path class="e" d="M358.978,324.4a2,2,0,1,1-2-2A2,2,0,0,1,358.978,324.4Z" transform="translate(-354.98 -322.406)"/></g><g transform="translate(10998.609 -2102.579)"><path class="e" d="M347.864,311.987a2,2,0,1,1-2-2A2,2,0,0,1,347.864,311.987Z" transform="translate(-343.868 -309.99)"/></g><g transform="translate(11000.606 -2015.874)"><path class="e" d="M349.071,364.3a2,2,0,1,1-2-2A2,2,0,0,1,349.071,364.3Z" transform="translate(-345.073 -362.298)"/></g><g transform="translate(10995.57 -1958.947)"><path class="e" d="M346.033,398.639a2,2,0,1,1-2-2A2,2,0,0,1,346.033,398.639Z" transform="translate(-342.035 -396.642)"/></g><g transform="translate(11017.028 -1923.478)"><path class="e" d="M358.978,420.039a2,2,0,1,1-2-2A2,2,0,0,1,358.978,420.039Z" transform="translate(-354.98 -418.04)"/></g><g transform="translate(11026.224 -1834.145)"><path class="e" d="M364.524,473.931a2,2,0,1,1-2-2A2,2,0,0,1,364.524,473.931Z" transform="translate(-360.528 -471.934)"/></g><g transform="translate(11108.111 -1789.918)"><path class="e" d="M413.928,500.615a2,2,0,1,1-2-2A2,2,0,0,1,413.928,500.615Z" transform="translate(-409.93 -498.616)"/></g><g transform="translate(11122.562 -1754.395)"><path class="e" d="M422.646,522.046a2,2,0,1,1-2-2A2,2,0,0,1,422.646,522.046Z" transform="translate(-418.648 -520.047)"/></g><g transform="translate(11008.709 -1712.007)"><path class="e" d="M353.957,547.616a2,2,0,1,1-2-2A2,2,0,0,1,353.957,547.616Z" transform="translate(-349.961 -545.619)"/></g><g transform="translate(11212.359 -1731.459)"><path class="e" d="M476.82,535.883a2,2,0,1,1-2-2A2,2,0,0,1,476.82,535.883Z" transform="translate(-472.822 -533.884)"/></g><g transform="translate(11186.489 -1720.92)"><path class="e" d="M461.211,542.239a2,2,0,1,1-2-2A2,2,0,0,1,461.211,542.239Z" transform="translate(-457.215 -540.242)"/></g><g transform="translate(11186.934 -1752.697)"><circle class="e" cx="1.998" cy="1.998" r="1.998"/></g><g transform="translate(11161.536 -1771.963)"><path class="e" d="M446.157,511.445a2,2,0,1,1-2-2A2,2,0,0,1,446.157,511.445Z" transform="translate(-442.161 -509.448)"/></g><g transform="translate(11156.71 -1845.969)"><path class="e" d="M443.245,466.8a2,2,0,1,1-2-2A2,2,0,0,1,443.245,466.8Z" transform="translate(-439.249 -464.801)"/></g><g transform="translate(10942.207 -1718.102)"><path class="e" d="M313.837,543.941a2,2,0,1,1-2-2A2,2,0,0,1,313.837,543.941Z" transform="translate(-309.841 -541.942)"/></g><g transform="translate(10985.062 -1806.069)"><path class="e" d="M339.691,490.871a2,2,0,1,1-2-2A2,2,0,0,1,339.691,490.871Z" transform="translate(-335.695 -488.872)"/></g><g transform="translate(11047.682 -1750.945)"><path class="e" d="M377.469,524.127a2,2,0,1,1-2-2A2,2,0,0,1,377.469,524.127Z" transform="translate(-373.473 -522.128)"/></g><g transform="translate(10964.261 -1774.06)"><path class="e" d="M327.144,510.182a2,2,0,1,1-2-2A2,2,0,0,1,327.144,510.182Z" transform="translate(-323.146 -508.183)"/></g><g transform="translate(11090.596 -1808.596)"><path class="e" d="M403.359,489.347a2,2,0,1,1-2-2A2,2,0,0,1,403.359,489.347Z" transform="translate(-399.363 -487.348)"/></g><g transform="translate(11072.641 -1722.919)"><path class="e" d="M392.529,541.035a2,2,0,1,1-2-2A2,2,0,0,1,392.529,541.035Z" transform="translate(-388.531 -539.036)"/></g><g transform="translate(11102.231 -1711.972)"><path class="e" d="M410.379,547.639a2,2,0,1,1-2-2A2,2,0,0,1,410.379,547.639Z" transform="translate(-406.383 -545.64)"/></g><g transform="translate(11031.26 -1632.159)"><path class="e" d="M367.564,595.79a2,2,0,1,1-2-2A2,2,0,0,1,367.564,595.79Z" transform="translate(-363.566 -593.791)"/></g><g transform="translate(10908.866 -1446.604)"><path class="e" d="M293.723,707.734a2,2,0,1,1-2-2A2,2,0,0,1,293.723,707.734Z" transform="translate(-289.727 -705.735)"/></g><g transform="translate(10885.22 -1418.14)"><path class="e" d="M279.459,724.906a2,2,0,1,1-2-2A2,2,0,0,1,279.459,724.906Z" transform="translate(-275.461 -722.907)"/></g><g transform="translate(10974.662 -1669.933)"><path class="e" d="M333.417,573a2,2,0,1,1-2-2A2,2,0,0,1,333.417,573Z" transform="translate(-329.421 -571.002)"/></g><g transform="translate(10936.893 -1655.483)"><path class="e" d="M310.631,581.719a2,2,0,1,1-2-2A2,2,0,0,1,310.631,581.719Z" transform="translate(-306.635 -579.72)"/></g><g transform="translate(10906.239 -1591.768)"><circle class="e" cx="1.999" cy="1.999" r="1.999"/></g><g transform="translate(10985.062 -1570.179)"><path class="e" d="M339.691,633.182a2,2,0,1,1-2-2A2,2,0,0,1,339.691,633.182Z" transform="translate(-335.695 -631.183)"/></g><g transform="translate(10931.856 -1546.883)"><circle class="e" cx="1.999" cy="1.999" r="1.999"/></g><g transform="translate(11075.27 -1662.052)"><path class="e" d="M394.113,577.756a2,2,0,1,1-2-2A2,2,0,0,1,394.113,577.756Z" transform="translate(-390.117 -575.757)"/></g><g transform="translate(11094.537 -1538.125)"><path class="e" d="M405.737,652.52a2,2,0,1,1-2-2A2,2,0,0,1,405.737,652.52Z" transform="translate(-401.741 -650.521)"/></g><g transform="translate(11071.766 -1466.966)"><path class="e" d="M392,695.448a2,2,0,1,1-2-2A2,2,0,0,1,392,695.448Z" transform="translate(-388.003 -693.451)"/></g><g transform="translate(11068.373 -1569.216)"><path class="e" d="M389.952,633.763a2,2,0,1,1-2-2A2,2,0,0,1,389.952,633.763Z" transform="translate(-385.956 -631.764)"/></g><g transform="translate(11067.387 -1508.349)"><path class="e" d="M389.359,670.484a2,2,0,1,1-2-2A2,2,0,0,1,389.359,670.484Z" transform="translate(-385.361 -668.485)"/></g><g transform="translate(11039.8 -1425.584)"><path class="e" d="M372.714,720.413a2,2,0,1,1-2-2A2,2,0,0,1,372.714,720.413Z" transform="translate(-368.718 -718.416)"/></g><g transform="translate(11211.018 -1468.965)"><path class="e" d="M476.009,694.244a2,2,0,1,1-2-2A2,2,0,0,1,476.009,694.244Z" transform="translate(-472.013 -692.245)"/></g><g transform="translate(11207.297 -1513.166)"><path class="e" d="M473.764,667.578a2,2,0,1,1-2-2A2,2,0,0,1,473.764,667.578Z" transform="translate(-469.768 -665.579)"/></g><g transform="translate(11229.848 -1565.274)"><path class="e" d="M487.369,636.139a2,2,0,1,1-2-2A2,2,0,0,1,487.369,636.139Z" transform="translate(-483.373 -634.142)"/></g><g transform="translate(11242.547 -1638.405)"><path class="e" d="M495.032,592.022a2,2,0,1,1-2-2A2,2,0,0,1,495.032,592.022Z" transform="translate(-491.034 -590.023)"/></g><g transform="translate(11225.031 -1643.659)"><path class="e" d="M484.463,588.852a2,2,0,1,1-2-2A2,2,0,0,1,484.463,588.852Z" transform="translate(-480.467 -586.853)"/></g><g transform="translate(11269.691 -1663.446)"><path class="e" d="M511.406,576.913a2,2,0,1,1-2-2A2,2,0,0,1,511.406,576.913Z" transform="translate(-507.41 -574.916)"/></g><g transform="translate(11239.481 -1692.485)"><path class="e" d="M493.181,559.394a2,2,0,1,1-2-2A2,2,0,0,1,493.181,559.394Z" transform="translate(-489.185 -557.397)"/></g><g transform="translate(11217.587 -1623.077)"><path class="e" d="M479.972,601.267a2,2,0,1,1-2-2A2,2,0,0,1,479.972,601.267Z" transform="translate(-475.976 -599.27)"/></g><g transform="translate(11251.743 -1516.668)"><path class="e" d="M500.578,665.465a2,2,0,1,1-2-2A2,2,0,0,1,500.578,665.465Z" transform="translate(-496.582 -663.466)"/></g><g transform="translate(11232.913 -1429.964)"><path class="e" d="M489.22,717.773a2,2,0,1,1-2-2A2,2,0,0,1,489.22,717.773Z" transform="translate(-485.222 -715.774)"/></g><g transform="translate(11055.782 -1536.126)"><path class="e" d="M382.358,653.724a2,2,0,1,1-2-2A2,2,0,0,1,382.358,653.724Z" transform="translate(-378.36 -651.727)"/></g><g transform="translate(10964.261 -1718.102)"><path class="e" d="M327.144,543.941a2,2,0,1,1-2-2A2,2,0,0,1,327.144,543.941Z" transform="translate(-323.146 -541.942)"/></g><g transform="translate(11141.392 -1884.01)"><path class="e" d="M434,443.85a2,2,0,1,1-2-2A2,2,0,0,1,434,443.85Z" transform="translate(-430.008 -441.851)"/></g><g transform="translate(11128.693 -1842.485)"><path class="e" d="M426.343,468.9a2,2,0,1,1-2-2A2,2,0,0,1,426.343,468.9Z" transform="translate(-422.347 -466.903)"/></g><g transform="translate(11139.393 -1824.951)"><path class="e" d="M432.8,479.48a2,2,0,1,1-2-2A2,2,0,0,1,432.8,479.48Z" transform="translate(-428.802 -477.481)"/></g><g transform="translate(11128.606 -1895.014)"><circle class="e" cx="1.998" cy="1.998" r="1.998"/></g><g transform="translate(11105.922 -1930.046)"><path class="e" d="M412.607,416.075a2,2,0,1,1-2-2A2,2,0,0,1,412.607,416.075Z" transform="translate(-408.609 -414.078)"/></g><g transform="translate(10988.127 -1868.74)"><path class="e" d="M341.542,453.062a2,2,0,1,1-2-2A2,2,0,0,1,341.542,453.062Z" transform="translate(-337.544 -451.063)"/></g><g transform="translate(11022.722 -1978.654)"><path class="e" d="M362.411,386.752a2,2,0,1,1-2-2A2,2,0,0,1,362.411,386.752Z" transform="translate(-358.415 -384.753)"/></g><g transform="translate(11141.392 -1969.458)"><path class="e" d="M434,392.3a2,2,0,1,1-2-2A2,2,0,0,1,434,392.3Z" transform="translate(-430.008 -390.301)"/></g><g transform="translate(11076.146 -2037.332)"><path class="e" d="M394.641,351.352a2,2,0,1,1-2-2A2,2,0,0,1,394.641,351.352Z" transform="translate(-390.645 -349.353)"/></g><g transform="translate(11128.605 -1987.192)"><path class="e" d="M426.292,381.6a2,2,0,1,1-2-2A2,2,0,0,1,426.292,381.6Z" transform="translate(-422.294 -379.602)"/></g><g transform="translate(10974.543 -1963.764)"><path class="e" d="M333.345,395.733a2,2,0,1,1-2-2A2,2,0,0,1,333.345,395.733Z" transform="translate(-329.349 -393.736)"/></g><g transform="translate(10984.094 -2099.123)"><path class="e" d="M339.107,314.074a2,2,0,1,1-2-2A2,2,0,0,1,339.107,314.074Z" transform="translate(-335.111 -312.075)"/></g><g transform="translate(11115.556 -2102.579)"><path class="e" d="M418.419,311.987a2,2,0,1,1-2-2A2,2,0,0,1,418.419,311.987Z" transform="translate(-414.421 -309.99)"/></g><g transform="translate(11075.664 -2108.71)"><path class="e" d="M394.351,308.29a2,2,0,1,1-2-2A2,2,0,0,1,394.351,308.29Z" transform="translate(-390.355 -306.291)"/></g><g transform="translate(11088.188 -2245.146)"><path class="e" d="M401.906,225.979a2,2,0,1,1-2-2A2,2,0,0,1,401.906,225.979Z" transform="translate(-397.91 -223.98)"/></g><g transform="translate(11243.424 -2206.739)"><path class="e" d="M495.559,249.148a2,2,0,1,1-2-2A2,2,0,0,1,495.559,249.148Z" transform="translate(-491.563 -247.151)"/></g><g transform="translate(11316.729 -2256.505)"><path class="e" d="M539.786,219.126a2,2,0,1,1-2-2A2,2,0,0,1,539.786,219.126Z" transform="translate(-535.788 -217.127)"/></g><g transform="translate(11767.596 -2267.757)"><circle class="e" cx="1.999" cy="1.999" r="1.999"/></g><g transform="translate(11865.527 -2236.953)"><path class="e" d="M870.87,230.922a2,2,0,1,1-2-2A2,2,0,0,1,870.87,230.922Z" transform="translate(-866.874 -228.923)"/></g><g transform="translate(11960.471 -2035.647)"><circle class="f" cx="2.545" cy="2.545" r="2.545"/></g><g transform="translate(11930.928 -2203.537)"><circle class="f" cx="2.545" cy="2.545" r="2.545"/></g><g transform="translate(11785.093 -2209.875)"><circle class="f" cx="2.545" cy="2.545" r="2.545"/></g><g transform="translate(11021.298 -2214.501)"><path class="f" d="M362.646,245.014a2.545,2.545,0,1,1-2.544-2.546A2.544,2.544,0,0,1,362.646,245.014Z" transform="translate(-357.556 -242.468)"/></g><g transform="translate(10983.64 -2049.981)"><path class="f" d="M339.927,344.266a2.545,2.545,0,1,1-2.546-2.544A2.545,2.545,0,0,1,339.927,344.266Z" transform="translate(-334.837 -341.722)"/></g><g transform="translate(10959.992 -1903.881)"><path class="f" d="M325.661,432.407a2.545,2.545,0,1,1-2.546-2.544A2.547,2.547,0,0,1,325.661,432.407Z" transform="translate(-320.571 -429.863)"/></g><g transform="translate(10955.23 -1823.27)"><path class="f" d="M322.788,481.041a2.545,2.545,0,1,1-2.546-2.546A2.545,2.545,0,0,1,322.788,481.041Z" transform="translate(-317.698 -478.495)"/></g><g transform="translate(10920.143 -1656.03)"><path class="f" d="M301.62,581.936a2.545,2.545,0,1,1-2.544-2.546A2.544,2.544,0,0,1,301.62,581.936Z" transform="translate(-296.53 -579.39)"/></g><g transform="translate(10892.118 -1494.444)"><circle class="f" cx="2.545" cy="2.545" r="2.545"/></g><g transform="translate(11196.678 -1459.412)"><circle class="f" cx="2.545" cy="2.545" r="2.545"/></g><g transform="translate(11275.28 -1452.187)"><path class="f" d="M515.872,704.913a2.545,2.545,0,1,1-2.544-2.546A2.544,2.544,0,0,1,515.872,704.913Z" transform="translate(-510.782 -702.367)"/></g><g transform="translate(11111.943 -1691.498)"><path class="f" d="M417.332,560.536a2.545,2.545,0,1,1-2.544-2.544A2.544,2.544,0,0,1,417.332,560.536Z" transform="translate(-412.242 -557.992)"/></g><g transform="translate(11110.193 -1621.08)"><path class="f" d="M416.275,603.021a2.544,2.544,0,1,1-2.544-2.546A2.544,2.544,0,0,1,416.275,603.021Z" transform="translate(-411.186 -600.475)"/></g><g transform="translate(11203.904 -1679.677)"><path class="f" d="M472.81,567.67a2.544,2.544,0,1,1-2.544-2.546A2.544,2.544,0,0,1,472.81,567.67Z" transform="translate(-467.721 -565.124)"/></g><g transform="translate(11918.722 -1968.209)"><path class="f" d="M904.056,393.6a2.545,2.545,0,1,1-2.544-2.544A2.545,2.545,0,0,1,904.056,393.6Z" transform="translate(-898.966 -391.054)"/></g><g transform="translate(11966.209 -1951.826)"><path class="f" d="M932.705,403.482a2.545,2.545,0,1,1-2.544-2.544A2.545,2.545,0,0,1,932.705,403.482Z" transform="translate(-927.615 -400.938)"/></g><g transform="translate(11978.402 -1810.538)"><path class="f" d="M940.061,488.722a2.545,2.545,0,1,1-2.546-2.546A2.544,2.544,0,0,1,940.061,488.722Z" transform="translate(-934.971 -486.176)"/></g><g transform="translate(11968.755 -1762.323)"><circle class="f" cx="2.545" cy="2.545" r="2.545"/></g><g transform="translate(11986.951 -1703.143)"><path class="f" d="M945.218,553.511a2.545,2.545,0,1,1-2.546-2.544A2.547,2.547,0,0,1,945.218,553.511Z" transform="translate(-940.128 -550.967)"/></g><g transform="translate(12006.523 -1640.886)"><path class="f" d="M957.026,591.07a2.545,2.545,0,1,1-2.544-2.544A2.545,2.545,0,0,1,957.026,591.07Z" transform="translate(-951.936 -588.526)"/></g><g transform="translate(11847.359 -1460.406)"><circle class="f" cx="2.545" cy="2.545" r="2.545"/></g><g transform="translate(11744.129 -1447.269)"><path class="f" d="M798.725,707.88a2.545,2.545,0,1,1-2.544-2.546A2.545,2.545,0,0,1,798.725,707.88Z" transform="translate(-793.635 -705.334)"/></g><g transform="translate(11720.481 -1582.142)"><path class="f" d="M784.459,626.51a2.545,2.545,0,1,1-2.544-2.544A2.545,2.545,0,0,1,784.459,626.51Z" transform="translate(-779.369 -623.966)"/></g><g transform="translate(11815.583 -1616.823)"><path class="f" d="M841.833,605.587a2.545,2.545,0,1,1-2.546-2.544A2.547,2.547,0,0,1,841.833,605.587Z" transform="translate(-836.743 -603.043)"/></g></g></g></svg>