<svg id="Page_02_img_02" xmlns="http://www.w3.org/2000/svg" width="127.947" height="46.101" viewBox="0 0 127.947 46.101">
  <g id="Group_2147" data-name="Group 2147" transform="translate(56.868)">
    <path id="Path_2180" data-name="Path 2180" d="M1462.124,903.8c-.669,0-1.212-.236-1.212-.527V873.6c0-.291.542-.527,1.212-.527s1.212.236,1.212.527v29.679C1463.336,903.568,1462.793,903.8,1462.124,903.8Z" transform="translate(-1460.913 -873.071)" fill="#333"/>
  </g>
  <g id="Group_2148" data-name="Group 2148" transform="translate(45.426 4.861)">
    <path id="Path_2181" data-name="Path 2181" d="M1421.088,934.105c-.669,0-1.211-.236-1.211-.527v-19.9c0-.291.542-.527,1.211-.527s1.211.236,1.211.527v19.9C1422.3,933.869,1421.756,934.105,1421.088,934.105Z" transform="translate(-1419.876 -913.149)" fill="#333"/>
  </g>
  <g id="Group_2149" data-name="Group 2149" transform="translate(33.983 15.566)">
    <path id="Path_2182" data-name="Path 2182" d="M1380.05,1023.482c-.669,0-1.211-.236-1.211-.527v-21.023c0-.291.542-.527,1.211-.527s1.211.236,1.211.527v21.023C1381.262,1023.246,1380.719,1023.482,1380.05,1023.482Z" transform="translate(-1378.839 -1001.405)" fill="#333"/>
  </g>
  <g id="Group_2150" data-name="Group 2150" transform="translate(22.541 24.763)">
    <path id="Path_2183" data-name="Path 2183" d="M1339.013,1096.581c-.669,0-1.211-.236-1.211-.527v-18.29c0-.291.542-.527,1.211-.527s1.212.236,1.212.527v18.29C1340.225,1096.345,1339.683,1096.581,1339.013,1096.581Z" transform="translate(-1337.802 -1077.237)" fill="#333"/>
  </g>
  <g id="Group_2152" data-name="Group 2152" transform="translate(11.443 28.598)">
    <path id="Path_2185" data-name="Path 2185" d="M1256.938,999.328c-.669,0-1.211-.236-1.211-.527V987.9c0-.291.542-.527,1.211-.527s1.212.236,1.212.527v10.9C1258.15,999.092,1257.607,999.328,1256.938,999.328Z" transform="translate(-1255.727 -987.375)" fill="#333"/>
  </g>
  <g id="Group_2153" data-name="Group 2153" transform="translate(0 26.952)">
    <path id="Path_2186" data-name="Path 2186" d="M1215.9,1035.44c-.669,0-1.212-.236-1.212-.527V1029c0-.291.543-.527,1.212-.527s1.211.236,1.211.527v5.915C1217.112,1035.2,1216.57,1035.44,1215.9,1035.44Z" transform="translate(-1214.689 -1028.471)" fill="#333"/>
  </g>
  <g id="Group_2154" data-name="Group 2154" transform="translate(125.524 18.848)">
    <path id="Path_2187" data-name="Path 2187" d="M1708.348,1035.44c-.669,0-1.211-.236-1.211-.527V1029c0-.291.542-.527,1.211-.527s1.212.236,1.212.527v5.915C1709.56,1035.2,1709.017,1035.44,1708.348,1035.44Z" transform="translate(-1707.137 -1028.471)" fill="#333"/>
  </g>
  <g id="Group_2155" data-name="Group 2155" transform="translate(114.081 13.864)">
    <path id="Path_2188" data-name="Path 2188" d="M1667.31,999.328c-.669,0-1.211-.236-1.211-.527V987.9c0-.291.542-.527,1.211-.527s1.211.236,1.211.527v10.9C1668.522,999.092,1667.979,999.328,1667.31,999.328Z" transform="translate(-1666.099 -987.375)" fill="#333"/>
  </g>
  <g id="Group_2156" data-name="Group 2156" transform="translate(102.639 16.045)">
    <path id="Path_2189" data-name="Path 2189" d="M1626.273,1025.668c-.669,0-1.211-.236-1.211-.527v-19.257c0-.291.542-.527,1.211-.527s1.212.236,1.212.527v19.257C1627.485,1025.432,1626.943,1025.668,1626.273,1025.668Z" transform="translate(-1625.062 -1005.357)" fill="#333"/>
  </g>
  <g id="Group_2157" data-name="Group 2157" transform="translate(91.196 24.763)">
    <path id="Path_2190" data-name="Path 2190" d="M1585.236,1098.575c-.669,0-1.211-.236-1.211-.527v-20.284c0-.291.542-.527,1.211-.527s1.212.236,1.212.527v20.284C1586.447,1098.339,1585.9,1098.575,1585.236,1098.575Z" transform="translate(-1584.024 -1077.237)" fill="#333"/>
  </g>
  <g id="Group_2158" data-name="Group 2158" transform="translate(79.754 15.566)">
    <path id="Path_2191" data-name="Path 2191" d="M1544.2,1023.482c-.669,0-1.212-.236-1.212-.527v-21.023c0-.291.543-.527,1.212-.527s1.211.236,1.211.527v21.023C1545.41,1023.246,1544.868,1023.482,1544.2,1023.482Z" transform="translate(-1542.987 -1001.405)" fill="#333"/>
  </g>
  <g id="Group_2159" data-name="Group 2159" transform="translate(68.311 4.861)">
    <path id="Path_2192" data-name="Path 2192" d="M1503.161,934.105c-.669,0-1.212-.236-1.212-.527v-19.9c0-.291.543-.527,1.212-.527s1.211.236,1.211.527v19.9C1504.373,933.869,1503.83,934.105,1503.161,934.105Z" transform="translate(-1501.95 -913.149)" fill="#333"/>
  </g>
</svg>
