<svg xmlns="http://www.w3.org/2000/svg" width="85.418" height="85.418" viewBox="0 0 85.418 85.418"><defs><style>.a{fill:#fa8a06;}</style></defs><g transform="translate(-95.592 -401.486) rotate(45)"><g transform="translate(390.994 176.793)"><path class="a" d="M431.466,230.951l-3.906-5.578a84.791,84.791,0,0,0,.887-11.781,49.4,49.4,0,0,0-7.89-26.938,41.29,41.29,0,0,0-7.955-9.291l-.716-.57-.716.57a41.3,41.3,0,0,0-7.955,9.291,49.4,49.4,0,0,0-7.89,26.938,84.786,84.786,0,0,0,.887,11.781l-3.906,5.578a7.245,7.245,0,0,0-.827,6.769l4.187,10.875a1.54,1.54,0,0,0,1.253.977,1.556,1.556,0,0,0,.188.011,1.539,1.539,0,0,0,1.262-.658l2.344-3.348.185.648h21.975l.185-.648,2.339,3.341a1.547,1.547,0,0,0,2.711-.332l4.184-10.867A7.246,7.246,0,0,0,431.466,230.951ZM397.3,246.44l-3.676-9.547a4.948,4.948,0,0,1,.565-4.623l2.535-3.62c.888,5.167,2.074,9.993,3.186,14.063Zm23.837-2.515h-18.5c-2.22-7.865-5.01-19.249-5.01-30.333a47.108,47.108,0,0,1,7.47-25.609,42.708,42.708,0,0,1,6.792-8.194,42.478,42.478,0,0,1,6.739,8.116,47.1,47.1,0,0,1,7.521,25.687C426.148,224.675,423.358,236.06,421.138,243.924Zm9.009-7.032-3.676,9.547-2.61-3.728c1.112-4.07,2.3-8.9,3.186-14.063l2.535,3.62A4.948,4.948,0,0,1,430.147,236.893Z" transform="translate(-390.994 -176.793)"/><path class="a" d="M462.292,292.718a8.941,8.941,0,1,0,8.941,8.941A8.951,8.951,0,0,0,462.292,292.718Zm0,15.582a6.641,6.641,0,1,1,6.641-6.641A6.649,6.649,0,0,1,462.292,308.3Z" transform="translate(-441.399 -270.499)"/></g><g transform="translate(405.245 249.936)"><path class="a" d="M466.25,558.4a.9.9,0,0,0-.9.9v17.576a.9.9,0,1,0,1.8,0V559.3A.9.9,0,0,0,466.25,558.4Z" transform="translate(-465.351 -558.404)"/><path class="a" d="M496.207,558.4a.9.9,0,0,0-.9.9v24.065a.9.9,0,0,0,1.8,0V559.3A.9.9,0,0,0,496.207,558.4Z" transform="translate(-489.565 -558.404)"/><path class="a" d="M526.163,558.4a.9.9,0,0,0-.9.9v17.576a.9.9,0,1,0,1.8,0V559.3A.9.9,0,0,0,526.163,558.4Z" transform="translate(-513.781 -558.404)"/></g></g></svg>