<svg xmlns="http://www.w3.org/2000/svg" xmlns:xlink="http://www.w3.org/1999/xlink" width="902.891" height="902.89" viewBox="0 0 902.891 902.89"><defs><style>.a{fill:url(#a);}</style><linearGradient id="a" x1="0.5" x2="0.5" y2="1" gradientUnits="objectBoundingBox"><stop offset="0" stop-color="#2775bc"/><stop offset="0.502" stop-color="#438d98"/><stop offset="1" stop-color="#6cb063"/></linearGradient></defs><path class="a" d="M-604.107,443.163a15.055,15.055,0,0,1-14.309-9.859,17.684,17.684,0,0,1-.932-4.506h.069c-.063-.555-.1-1.119-.109-1.687.012-.568.046-1.132.109-1.687h-.069a17.694,17.694,0,0,1,.932-4.506,15.057,15.057,0,0,1,14.309-9.859c93.615-.052,151.168,6.414,203.685-53.146,35.743-40.507,37.471-109.96-8.649-138.117-29.094-17.771-37.732-16.006-48.149-27.949a17.75,17.75,0,0,0-1.8-1.783c-12.03-10.363-10.268-19-28.217-48-28.4-45.937-97.853-43.844-138.177-7.889-59.3,52.911-52.457,110.469-52,204.2a15.192,15.192,0,0,1-14.809,15.384h-.189a18.1,18.1,0,0,1-2.22-.136,15.158,15.158,0,0,1-13.058-15.142c-.064-93.867,6.507-151.5-53.143-204.125C-801.331,98.608-870.784,96.908-898.942,143c-17.773,29.129-16,37.765-27.956,48.185a17.957,17.957,0,0,0-1.773,1.782c-10.364,12.009-19,10.273-48.007,28.223-45.968,28.4-43.845,97.854-7.89,138.178,52.833,59.21,110.306,52.47,203.807,52a15.1,15.1,0,0,1,14.988,11.8,17.788,17.788,0,0,1,.314,2.258h-.07c.064.555.1,1.119.111,1.687-.013.568-.047,1.132-.111,1.687h.07a17.735,17.735,0,0,1-.314,2.257,15.1,15.1,0,0,1-14.988,11.8c-93.5-.472-150.975-7.212-203.807,52-35.955,40.324-38.078,109.777,7.89,138.178,29.011,17.951,37.644,16.214,48.007,28.223a17.847,17.847,0,0,0,1.773,1.782c11.951,10.42,10.183,19.056,27.956,48.185,28.158,46.09,97.611,44.391,138.117,8.648,59.65-52.623,53.079-110.259,53.143-204.124A15.156,15.156,0,0,1-694.624,500.6a17.89,17.89,0,0,1,2.22-.137h.189a15.193,15.193,0,0,1,14.809,15.385c-.459,93.731-7.305,151.288,52,204.2,40.324,35.955,109.777,38.049,138.177-7.889,17.948-29.008,16.187-37.642,28.217-48a17.747,17.747,0,0,0,1.8-1.783c10.417-11.943,19.055-10.178,48.149-27.949,46.12-28.157,44.392-97.61,8.649-138.117C-452.939,436.749-510.492,443.216-604.107,443.163Z" transform="translate(1243.262 639.236) rotate(45)"/></svg>