<svg xmlns="http://www.w3.org/2000/svg" width="264.768" height="276.505" viewBox="0 0 264.768 276.505"><defs><style>.a,.b{fill:#2876ba;}.b{stroke:#2a2a2a;stroke-linecap:round;stroke-linejoin:round;stroke-width:0;}</style></defs><g transform="translate(1263.906 -1784.676)"><g transform="translate(-1263.906 1784.676)"><path class="a" d="M-999.312,1839.43l-.077-14.87-2.333-.4c-67.768-11.652-122.328-11.412-159.625-8.37a53.847,53.847,0,0,0-48.73-31.114,53.888,53.888,0,0,0-53.829,53.828,53.878,53.878,0,0,0,44.34,52.94c.092,48.3,1.526,64.983,8.091,81.866,16.166,41.559,51.1,72.918,95.836,86.029l6.285,1.842,6.284-1.842c44.743-13.114,79.673-44.472,95.837-86.029C-998.729,1951.436-998.84,1929.932-999.312,1839.43Zm-220.268,43.758a45.694,45.694,0,0,1-36.189-44.681,45.685,45.685,0,0,1,45.684-45.687h.005A45.667,45.667,0,0,1-1170,1816.57a45.632,45.632,0,0,1,2.478,5.407,45.331,45.331,0,0,1,2.659,10.308,45.913,45.913,0,0,1,.473,6.219,45.681,45.681,0,0,1-40.628,45.39,46.134,46.134,0,0,1-5.062.295c-1.3,0-2.58-.092-3.853-.194A45.541,45.541,0,0,1-1219.58,1883.188Zm207.081,88.076c-15.523,39.913-49.113,70.04-92.16,82.661l-4.7,1.375-4.7-1.375c-43.045-12.617-76.635-42.748-92.16-82.661-6.213-15.977-7.605-32.231-7.708-79.125,1.276.092,2.547.2,3.846.2,1.7,0,3.383-.1,5.046-.255-.025,3.961-.105,7.938-.2,12.135-.474,21.12-.965,42.959,6.9,63.2,14.569,37.447,46.152,65.731,86.654,77.6h0l2.316.678,2.316-.678a137.959,137.959,0,0,0,47.586-24.588,126.633,126.633,0,0,0,39.066-53.015,107.129,107.129,0,0,0,6.525-30.608c.863-10.845.623-21.81.38-32.589l-.193-59.893-.034-6.072c-55.614-10.792-107.4-9.832-143.046-6.726a53.376,53.376,0,0,0-2.379-10.262c36.373-2.836,88.973-2.925,154.128,8.066l.051,10.134C-1004.49,1929.095-1004.379,1950.391-1012.5,1971.264Zm-130.692-65.877h0a31.393,31.393,0,0,1,31.393-31.394c1.035,0,2.056.057,3.065.154.336.034.662.093.995.137.667.088,1.334.177,1.988.3.386.077.762.176,1.143.265.586.137,1.17.276,1.743.448.4.119.782.253,1.171.385.542.185,1.078.377,1.606.589.388.156.768.323,1.148.493.512.231,1.014.472,1.513.729.368.191.731.384,1.09.588.49.276.968.573,1.441.874.341.218.682.435,1.013.666.473.33.93.682,1.382,1.036.3.237.61.466.9.714a31.319,31.319,0,0,1,11.191,24.012,31.377,31.377,0,0,1-15.431,27.032v32.453a15.963,15.963,0,0,1-15.963,15.962h0a15.869,15.869,0,0,1-7.492-1.87,16.021,16.021,0,0,1-6.541-6.483,15.748,15.748,0,0,1-1.013-2.325,15.723,15.723,0,0,1-.591-2.067,15.993,15.993,0,0,1-.324-3.216v-32.454A31.374,31.374,0,0,1-1143.19,1905.387Z" transform="translate(1263.906 -1784.676)"/><path class="b" d="M-1205.48,1793.516h0" transform="translate(1259.306 -1785.372)"/></g><path class="a" d="M-1181.069,1830.083l-16.122,16.153-11.534,11.507-8.52,8.547a6.752,6.752,0,0,1-4.757,1.964,6.756,6.756,0,0,1-4.673-1.881l-12.917-12.475a6.754,6.754,0,0,1-.166-9.515,6.725,6.725,0,0,1,9.509-.17l.006,0,8.16,7.882,13.358-13.358,18.149-18.148a6.532,6.532,0,0,1,1.687-1.218,6.69,6.69,0,0,1,6.141,0,6.536,6.536,0,0,1,1.688,1.218c2.363,2.563,2.137,6.719,0,9.49Z" transform="translate(-1.753 -2.673)"/></g></svg>