<svg xmlns="http://www.w3.org/2000/svg" width="68.13" height="71.175" viewBox="0 0 68.13 71.175"><defs><style>.a{fill:#fff;}</style></defs><path class="a" d="M-167.288,24.107l.018-.01,9.44-5.451-.705-1.222a.966.966,0,0,1,.353-1.318l9.458-5.457-.705-1.223a.959.959,0,0,1-.1-.732.958.958,0,0,1,.45-.586L-114.943-11.6l-1.3-2.246a.966.966,0,0,1,.353-1.318l4.115-2.376a.981.981,0,0,1,.734-.1.958.958,0,0,1,.584.449L-99.765,1.326a.959.959,0,0,1,.1.732.959.959,0,0,1-.45.586l-4.115,2.376a.967.967,0,0,1-.483.129,1.006,1.006,0,0,1-.251-.033.959.959,0,0,1-.585-.45l-1.3-2.247-20,11.548.059.173a5.651,5.651,0,0,1-2.235,6.521l-.165.109,15.662,31.336a.958.958,0,0,1,.052.737.959.959,0,0,1-.484.558.958.958,0,0,1-.737.052.959.959,0,0,1-.558-.485l-15.989-31.99V52.538a.966.966,0,0,1-.965.965.966.966,0,0,1-.965-.965V20.989l-15.983,31.98a.959.959,0,0,1-.558.485.959.959,0,0,1-.737-.052.959.959,0,0,1-.484-.558.959.959,0,0,1,.052-.737l15.661-31.322-.164-.109a5.526,5.526,0,0,1-1.079-.938l-.121-.136-4.386,2.532a.965.965,0,0,1-.483.129,1,1,0,0,1-.251-.033.958.958,0,0,1-.585-.45l-.7-1.228-9.459,5.457a.959.959,0,0,1-.732.1.958.958,0,0,1-.586-.45l-.705-1.22-9.458,5.457a.966.966,0,0,1-.481.128h0a.968.968,0,0,1-.836-.483l-2.376-4.115A.967.967,0,0,1-167.288,24.107ZM-104.36,2.866l2.443-1.411-9.726-16.845-2.443,1.411Zm-31.125,14.972a3.742,3.742,0,0,0,1.884,1.63,3.839,3.839,0,0,0,1.378.256,3.837,3.837,0,0,0,.7-.065,4.4,4.4,0,0,0,.747-.22,2.962,2.962,0,0,0,.456-.214,3.782,3.782,0,0,0,1.386-5.16l-.208-.361-.014.026a3.776,3.776,0,0,0-2.076-1.439,3.848,3.848,0,0,0-.893-.126c-.094,0-.186,0-.282.009a3.749,3.749,0,0,0-.62.083l-.056.012a1.943,1.943,0,0,0-.2.05,3.82,3.82,0,0,0-.813.338A3.809,3.809,0,0,0-135.486,17.838Zm-5.628,2.144,3.494-2.017v-.129a.338.338,0,0,0-.018-.1l-.005-.018a5.593,5.593,0,0,1-.229-.982c-.008-.064-.011-.132-.014-.205,0-.045,0-.091-.007-.136a5.754,5.754,0,0,1-.019-.7c0-.1.018-.195.031-.3l.012-.094a5.86,5.86,0,0,1,.106-.632c.027-.118.064-.244.113-.4a5.753,5.753,0,0,1,.219-.59c.064-.146.121-.266.179-.378a5.671,5.671,0,0,1,.333-.546l.05-.076c.06-.092.117-.179.179-.258a5.963,5.963,0,0,1,.48-.522c.037-.036.072-.073.107-.11a1.937,1.937,0,0,1,.142-.141,5.6,5.6,0,0,1,6.18-.849c.079.037.151.076.224.117l.034.019a5.627,5.627,0,0,1,.632.394l.058.042c.062.045.124.089.183.134a5.666,5.666,0,0,1,.71.667l.121.135,20-11.554-6.162-10.681L-147.274,9.3Zm-11.479,3.876,8.614-4.974-3.786-6.563-8.614,4.974Zm-11.476,3.882,8.615-4.974-1.411-2.443L-165.48,25.3Z" transform="translate(167.765 17.671)"/></svg>