<?xml version="1.0" encoding="utf-8"?>
<!-- Generator: Adobe Illustrator 26.0.1, SVG Export Plug-In . SVG Version: 6.00 Build 0)  -->
<svg version="1.1" id="Layer_1" xmlns="http://www.w3.org/2000/svg" xmlns:xlink="http://www.w3.org/1999/xlink" x="0px" y="0px"
	 viewBox="0 0 268.9 140.5" style="enable-background:new 0 0 268.9 140.5;" xml:space="preserve">
<style type="text/css">
	.st0{fill:#14213B;}
	.st1{fill:#25455B;}
	.st2{fill:#11122D;}
	.st3{fill:#1D556C;}
	.st4{fill:#A6AFAC;}
	.st5{fill:#909D9E;}
	.st6{fill:#667B84;}
	.st7{fill:#7C8B91;}
	.st8{fill:#1D334C;}
	.st9{fill:#193B51;}
	.st10{fill:#F7A485;}
	.st11{fill:#ED7F5B;}
	.st12{fill:#152C45;}
	.st13{fill:#B82028;}
	.st14{fill:#F9A31A;}
	.st15{fill:#FDD600;}
	.st16{fill:#B0B4C5;}
	.st17{fill:#F58A1F;}
	.st18{fill:#FFD23E;}
	.st19{fill:#F5891F;}
	.st20{fill-rule:evenodd;clip-rule:evenodd;}
	.st21{fill-rule:evenodd;clip-rule:evenodd;fill:#FFFFFF;}
	.st22{fill:#FFFFFF;}
	.st23{fill:#FDFDFD;}
	.st24{fill:url(#SVGID_1_);}
	.st25{fill:#FD0000;}
	.st26{fill:#2967B0;}
	.st27{fill:#1677F0;}
	.st28{fill:#F1F2F2;}
	.st29{fill:#BCBEC0;}
	.st30{fill:#4278BA;}
	.st31{fill:#90D35B;}
	.st32{fill:#414042;}
	.st33{fill:#7FB749;}
	.st34{fill:#345118;}
	.st35{opacity:5.000000e-02;enable-background:new    ;}
	.st36{opacity:0.1;fill:#F1F2F2;enable-background:new    ;}
	.st37{opacity:0.1;}
	.st38{fill:#231F20;}
	.st39{fill:none;}
	.st40{fill:none;stroke:#5DA77E;stroke-width:7.1299;}
	.st41{fill:#5DA77E;}
	.st42{fill:#E20F23;}
	.st43{fill:none;stroke:#E20F23;stroke-width:7.1299;}
	.st44{fill:#5A98E2;}
	.st45{fill:#2B4572;}
	.st46{fill:#203451;}
	.st47{fill:#C1D3E5;}
	.st48{fill:#E6E6E6;}
	.st49{fill:#FF5C68;}
	.st50{fill:#919191;}
	.st51{fill:url(#Path_1636_00000027566698694696388890000000329590364179826054_);}
	.st52{fill:url(#Path_1637_00000088115441801249793510000010914458098108899465_);}
	.st53{fill:#F1E1DC;}
	.st54{fill:url(#Path_1638_00000003813082131531122900000018399341609613942404_);}
	.st55{fill:url(#Path_1639_00000043447732513530616160000001144645822861657749_);}
	.st56{fill:url(#Path_1636_00000059293941099104703900000011523230611483048629_);}
	.st57{fill:url(#Path_1637_00000023961886915488367480000003307943321207474865_);}
	.st58{fill:url(#Path_1638_00000094598638988787835780000003586980151274629043_);}
	.st59{fill:url(#Path_1639_00000161631570897528958890000014569568396131339419_);}
	.st60{fill:#0F2129;}
</style>
<g id="Group_2153" transform="translate(0 0)">
	<g id="Group_2140" transform="translate(8.541 37.313)">
		<g id="Group_2138" transform="translate(254 22.442) rotate(90)">
			
				<rect id="Rectangle_925" x="-111.6" y="125.3" transform="matrix(2.535182e-06 1 -1 2.535182e-06 137.7692 116.9126)" class="st60" width="244" height="4"/>
			
				<ellipse id="Ellipse_3" transform="matrix(2.535182e-06 1 -1 2.535182e-06 262.7692 241.9123)" class="st60" cx="10.4" cy="252.3" rx="7" ry="7"/>
		</g>
		<g id="Polygon_5" transform="translate(29.397) rotate(90)">
			<path id="Path_1647" class="st60" d="M33.2-190.1L3.8-215.7h58.9L33.2-190.1z"/>
			<path id="Path_1648" class="st60" d="M33.2-190.3l29.1-25.3H4.1L33.2-190.3 M3.4-215.8h59.6l-29.8,25.9L3.4-215.8z"/>
		</g>
	</g>
	<g id="Group_2148" transform="translate(64.938 134.265) rotate(180)">
		<g id="Group_2143" transform="translate(26.524 0)">
			<g id="Group_2141" transform="translate(0.008 0)">
				<path id="Path_1649" class="st60" d="M-191.5,52.3c9.8-21.6-10.2-42.7-25.8-37.4c-11.2,3.8-12,14.3-7.2,18.5
					c5.4,4.6,13.2-1.9,9.2-7.1c-0.2-0.2-0.4-0.4-0.6-0.5c-1.5-1-3.5-0.7-4.5,0.7c6-1.8,6.8,8.6,0.4,7c-5.1-1.2-6.1-7.2-3.4-11.2
					c5.8-8.4,17.7-6.3,24.6-0.1C-190.5,29.9-187.6,41.8-191.5,52.3z"/>
				<path id="Path_1650" class="st60" d="M-190.9,43.3c-2.8-18.1-16.4-21-21.1-29.1c-3.6-6.2-3-12.5,2.2-16.3
					c2.7-1.9,6.4-1.8,8.9,0.4c2.2,1.9,3.1,6.1,0.7,8.6c-1.7,1.7-4,1.7-5.1,0.6c-1.5-1.5-1-4.9,1.7-4.4c1.2,0.2,0,1.7,0.1,2.8
					c0.2,1,1.4,1.6,2.5,0.7c2.3-1.8,1.1-6.5-2.5-7.1c-5.4-1-9.4,4.4-8.2,10.2C-209.1,21.3-192.6,23.8-190.9,43.3z"/>
				<path id="Path_1651" class="st60" d="M-219.4,32.8c1-5,6.7-7,11.6-6c13.5,2.6,18.4,17,14,26.4c-2.1,4.6-7.5,7.6-12.3,6.7
					c-7.6-1.5-11.5-10.7-5.9-16.4c6.3-6.5,16.3,0.7,11.8,8.2c-1.2,1.9-3.4,2.9-5.6,2.5c-0.1,0-0.1,0-0.2,0c-2.2-0.4-3.5-2.5-3.1-4.7
					c0.4-2.2,3.4-3.4,4.7-1.5c1.2,1.8-1.1,3.5-2.1,2.1c-0.3,3.9,5.3,3.5,6.4-0.2c0.8-2.6-0.5-5.5-3.1-6.5
					c-6.4-2.5-11.7,4.5-8.3,10.6c3.6,6.4,13.1,4.4,16.3-2.2c4.4-9-1.1-20.6-11.1-23.8c-4.9-1.6-10.8-0.2-12.3,4.8
					c-1.1,3.9,3.2,7.3,6.1,4.5c-1.3-2.1,1.7-3.6,2.6-1.4c0.5,1.1-0.4,2.6-1.9,3.3c-0.9,0.4-1.8,0.6-2.8,0.5
					C-217.5,39.3-220.2,36.8-219.4,32.8z"/>
			</g>
			<g id="Group_2142" transform="translate(0 70.824)">
				<path id="Path_1652" class="st60" d="M-191.5,4.2c9.8,21.6-10.3,42.7-25.8,37.4c-11.2-3.9-12-14.3-7.2-18.5
					c5.4-4.7,13.2,1.9,9.2,7.1c-0.2,0.2-0.4,0.4-0.6,0.5c-1.5,1-3.5,0.7-4.5-0.7c6,1.8,6.8-8.6,0.4-7c-5.1,1.2-6.1,7.2-3.4,11.2
					c5.8,8.5,17.7,6.3,24.6,0.1C-190.5,26.7-187.6,14.8-191.5,4.2z"/>
				<path id="Path_1653" class="st60" d="M-190.9,13.3c-2.8,18.1-16.4,21-21.1,29.1c-3.6,6.2-3,12.5,2.2,16.3
					c2.7,1.9,6.4,1.8,8.9-0.4c2.2-1.9,3.1-6.1,0.7-8.6c-1.7-1.7-4-1.7-5-0.6c-1.5,1.5-1,4.9,1.7,4.4c1.2-0.2,0-1.7,0.1-2.7
					s1.4-1.6,2.5-0.7c2.3,1.8,1.1,6.5-2.5,7.1c-5.4,1-9.4-4.4-8.2-10.2C-209,35.3-192.6,32.8-190.9,13.3z"/>
				<path id="Path_1654" class="st60" d="M-219.4,23.8c1,4.9,6.7,7,11.6,6c13.5-2.6,18.4-17,14-26.4c-2.1-4.6-7.5-7.6-12.3-6.7
					c-7.6,1.5-11.5,10.7-5.9,16.4c6.3,6.5,16.3-0.7,11.8-8.2c-1.2-1.9-3.4-2.9-5.6-2.5c-0.1,0-0.1,0-0.2,0c-2.2,0.4-3.6,2.5-3.1,4.7
					c0.4,2.2,3.4,3.3,4.7,1.5c1.2-1.8-1.1-3.5-2.1-2.1c-0.3-3.9,5.3-3.5,6.4,0.2c0.8,2.6-0.5,5.5-3.1,6.5
					c-6.4,2.5-11.7-4.5-8.3-10.6c3.6-6.4,13.1-4.4,16.3,2.2c4.4,9-1.1,20.7-11.1,23.8c-4.9,1.6-10.8,0.2-12.3-4.8
					c-1.1-3.9,3.2-7.3,6.1-4.5c-1.3,2.1,1.7,3.6,2.6,1.4c0.5-1.1-0.4-2.6-1.9-3.3c-0.9-0.4-1.8-0.6-2.8-0.5
					C-217.5,17.3-220.2,19.8-219.4,23.8z"/>
			</g>
		</g>
		<path id="Path_1655" class="st60" d="M-176.9,64.7c0.5,0,1-0.4,1-1c0-0.5-0.4-1-1-1c-0.5,0-1,0.4-1,1
			C-177.9,64.2-177.5,64.7-176.9,64.7C-176.9,64.7-176.9,64.7-176.9,64.7z"/>
		<g id="Group_2145" transform="translate(45.665 60.292)">
			<g id="Group_2144" transform="translate(0 0)">
				<path id="Path_1656" class="st60" d="M-235.5-3.4c1.3,4.4,4.4,6.3,8.3,6.8C-236,3.8-237.4-0.8-235.5-3.4z"/>
				<path id="Path_1657" class="st60" d="M-227.2,3.4c-3.9,0.5-6.9,2.4-8.3,6.8C-237.4,7.6-236,3-227.2,3.4z"/>
			</g>
			<path id="Path_1658" class="st60" d="M-236.2,4.8c2,1.2,4.4-1.1,7.2-1.4h0c0,0,0,0,0,0c-2.8-0.3-5.2-2.5-7.2-1.4
				c-0.5,0.3-0.8,0.8-0.8,1.4v0C-237,4-236.7,4.5-236.2,4.8z"/>
		</g>
		<path id="Path_1659" class="st60" d="M-144.9,61.4c4.4-2.4,5.4,1.5,9.1,2.3c-3.6,0.8-4.7,4.7-9.1,2.3c-2.4-1.3-5.2-2.1-7.9-2.3
			C-150.1,63.5-147.4,62.7-144.9,61.4z"/>
		<g id="Group_2146" transform="translate(9.21 31.36)">
			<path id="Path_1660" class="st60" d="M-171.5,68.1c0.1-3.3,1.9-4.5,4-6.7c4.5-4.8,1.1-9.6-1.8-14.3c-2.4-3.9-3-10,3.1-12.9
				c-4.1,2.8-4.2,9.1-0.9,11.7c0.1,0,0.1,0.1,0.2,0.1c3,2.1,7.2,1.3,9.2-1.8c2.5-4.3-2.1-8.7-5.3-5.5c0.4,0,0.7,0.2,1,0.4
				c0.7,0.6,0.7,1.7,0.1,2.4c-0.2,0.2-0.5,0.4-0.9,0.5c-1,0.3-2-0.3-2.3-1.3c-1.6-4.4,6.3-8,9.9-2c3.6,5.9-3.5,14.4-12,9.1
				c4.7,4.8,7.4,10.3,4.2,14.3C-165.4,65-170,64.6-171.5,68.1z"/>
			<path id="Path_1661" class="st60" d="M-171.5-3.4c0.1,3.3,1.9,4.5,4,6.7c4.5,4.8,1.1,9.6-1.8,14.3c-2.4,3.9-3,10,3.1,12.9
				c-4.1-2.8-4.2-9.1-0.9-11.7c0.1,0,0.1-0.1,0.2-0.1c3-2.1,7.2-1.2,9.2,1.8c2.5,4.2-2.1,8.7-5.3,5.5c0.4,0,0.7-0.2,1-0.4
				c0.7-0.6,0.7-1.7,0.1-2.4c-0.2-0.3-0.5-0.4-0.9-0.5c-1-0.3-2,0.3-2.3,1.3c-1.6,4.4,6.3,8,9.9,2c3.6-5.9-3.5-14.4-12-9.1
				c4.7-4.8,7.4-10.3,4.2-14.3C-165.4-0.4-170,0.1-171.5-3.4z"/>
		</g>
		<path id="Path_1662" class="st60" d="M-166.6,66.9c-1.7-0.1-1.8-2.4-5.6-3.2h0h0c3.9-0.8,4-3.1,5.6-3.2c1.8-0.1,2.7,2.7,5.7,3.2
			l0,0C-164,64.3-164.9,67.1-166.6,66.9z"/>
	</g>
</g>
</svg>
