<?xml version="1.0" encoding="utf-8"?>
<!-- Generator: Adobe Illustrator 26.0.1, SVG Export Plug-In . SVG Version: 6.00 Build 0)  -->
<svg version="1.1" id="Layer_1" xmlns="http://www.w3.org/2000/svg" xmlns:xlink="http://www.w3.org/1999/xlink" x="0px" y="0px"
	 viewBox="0 0 268.9 140.5" style="enable-background:new 0 0 268.9 140.5;" xml:space="preserve">
<style type="text/css">
	.st0{fill:#14213B;}
	.st1{fill:#25455B;}
	.st2{fill:#11122D;}
	.st3{fill:#1D556C;}
	.st4{fill:#A6AFAC;}
	.st5{fill:#909D9E;}
	.st6{fill:#667B84;}
	.st7{fill:#7C8B91;}
	.st8{fill:#1D334C;}
	.st9{fill:#193B51;}
	.st10{fill:#F7A485;}
	.st11{fill:#ED7F5B;}
	.st12{fill:#152C45;}
	.st13{fill:#B82028;}
	.st14{fill:#F9A31A;}
	.st15{fill:#FDD600;}
	.st16{fill:#B0B4C5;}
	.st17{fill:#F58A1F;}
	.st18{fill:#FFD23E;}
	.st19{fill:#F5891F;}
	.st20{fill-rule:evenodd;clip-rule:evenodd;}
	.st21{fill-rule:evenodd;clip-rule:evenodd;fill:#FFFFFF;}
	.st22{fill:#FFFFFF;}
	.st23{fill:#FDFDFD;}
	.st24{fill:url(#SVGID_1_);}
	.st25{fill:#FD0000;}
	.st26{fill:#2967B0;}
	.st27{fill:#1677F0;}
	.st28{fill:#F1F2F2;}
	.st29{fill:#BCBEC0;}
	.st30{fill:#4278BA;}
	.st31{fill:#90D35B;}
	.st32{fill:#414042;}
	.st33{fill:#7FB749;}
	.st34{fill:#345118;}
	.st35{opacity:5.000000e-02;enable-background:new    ;}
	.st36{opacity:0.1;fill:#F1F2F2;enable-background:new    ;}
	.st37{opacity:0.1;}
	.st38{fill:#231F20;}
	.st39{fill:none;}
	.st40{fill:none;stroke:#5DA77E;stroke-width:7.1299;}
	.st41{fill:#5DA77E;}
	.st42{fill:#E20F23;}
	.st43{fill:none;stroke:#E20F23;stroke-width:7.1299;}
	.st44{fill:#5A98E2;}
	.st45{fill:#2B4572;}
	.st46{fill:#203451;}
	.st47{fill:#C1D3E5;}
	.st48{fill:#E6E6E6;}
	.st49{fill:#FF5C68;}
	.st50{fill:#919191;}
	.st51{fill:url(#Path_1636_00000065764356702319160060000017416915376345819266_);}
	.st52{fill:url(#Path_1637_00000169516159805330347740000017030888795035633075_);}
	.st53{fill:#F1E1DC;}
	.st54{fill:url(#Path_1638_00000032624161319591855430000011200399572300559034_);}
	.st55{fill:url(#Path_1639_00000156550285453526220310000012941389142998559655_);}
	.st56{fill:url(#Path_1636_00000011714879646707795280000006033842560113477309_);}
	.st57{fill:url(#Path_1637_00000076604576226467310710000009697854309731678905_);}
	.st58{fill:url(#Path_1638_00000137823776602271145870000002319397703915243944_);}
	.st59{fill:url(#Path_1639_00000060002491026270490180000010324672683532270770_);}
	.st60{fill:#0F2129;}
</style>
<g id="Group_2153_00000074414703172689624150000002553434404430097289_" transform="translate(0 0)">
	<g id="Group_2140_00000129885438146089868520000015148705630550000318_" transform="translate(8.541 37.313)">
		<g id="Group_2138_00000075861084454650365090000009639059175340551326_" transform="translate(254 22.442) rotate(90)">
			
				<rect id="Rectangle_925_00000132079708602628040730000004540066396695885459_" x="-111.6" y="126.8" transform="matrix(2.535182e-06 1 -1 2.535182e-06 139.2279 118.3712)" class="st60" width="244" height="4"/>
			
				<ellipse id="Ellipse_3_00000036223554926044660110000006549189683808897920_" transform="matrix(2.535182e-06 1 -1 2.535182e-06 14.2279 -6.6284)" class="st60" cx="10.4" cy="3.8" rx="7" ry="7"/>
		</g>
		<g id="Polygon_5_00000129924030747549605420000001945584223901106570_" transform="translate(29.397) rotate(90)">
			<path id="Path_1647_00000054248752995538625590000010026934975294407086_" class="st60" d="M62.7,22.6H3.8L33.2-3L62.7,22.6z"/>
			<path id="Path_1648_00000173839509773439348490000002138125510183930270_" class="st60" d="M33.2-2.8L4.1,22.5h58.2L33.2-2.8
				 M33.2-3.2l29.8,25.9H3.4L33.2-3.2z"/>
		</g>
	</g>
	<g id="Group_2148_00000132064867035319864500000004463089605373722036_" transform="translate(64.938 134.265) rotate(180)">
		<g id="Group_2143_00000048476834746173087110000011933744092253715119_" transform="translate(26.524 0)">
			<g id="Group_2141_00000130631920931987675600000013077881589746559361_" transform="translate(0.008 0)">
				<path id="Path_1649_00000116232020712801943030000017870233383069396887_" class="st60" d="M6.7,22.3c6.9-6.2,18.8-8.3,24.6,0.1
					c2.7,3.9,1.8,9.9-3.4,11.2c-6.4,1.6-5.6-8.8,0.4-7c-1-1.5-3.1-1.8-4.5-0.7c-0.2,0.2-0.4,0.3-0.6,0.5c-4.1,5.2,3.7,11.8,9.2,7.1
					c4.8-4.2,4-14.6-7.2-18.5C9.6,9.6-10.4,30.8-0.6,52.3C-4.5,41.8-1.6,29.9,6.7,22.3z"/>
				<path id="Path_1650_00000118368420982813183790000005917032366210070686_" class="st60" d="M19.5,9.6c1.3-5.8-2.7-11.2-8.2-10.2
					C7.7,0.1,6.4,4.7,8.8,6.6c1.1,0.9,2.4,0.4,2.5-0.7c0.2-1.1-1.1-2.5,0.1-2.8c2.7-0.5,3.2,2.8,1.7,4.4C12,8.6,9.7,8.6,8,6.9
					C5.6,4.4,6.5,0.2,8.7-1.7c2.6-2.1,6.2-2.3,8.9-0.4c5.2,3.7,5.7,10.1,2.2,16.3C15.1,22.4,1.5,25.2-1.2,43.3
					C0.4,23.8,16.9,21.3,19.5,9.6z"/>
				<path id="Path_1651_00000024721262261966648800000011205880061804315327_" class="st60" d="M22.6,39.6c-0.9,0.1-1.9-0.1-2.8-0.5
					c-1.5-0.7-2.3-2.2-1.9-3.3c0.9-2.2,3.9-0.8,2.6,1.4c2.9,2.8,7.2-0.6,6.1-4.5c-1.5-5-7.4-6.4-12.3-4.8
					C4.4,31.1-1.2,42.7,3.2,51.7c3.2,6.6,12.7,8.6,16.3,2.2c3.4-6.1-1.9-13.1-8.3-10.6c-2.6,1-4,3.8-3.1,6.5
					c1.1,3.7,6.7,4.1,6.4,0.2c-1,1.4-3.4-0.3-2.1-2.1c1.3-1.8,4.2-0.7,4.7,1.5c0.4,2.2-1,4.2-3.1,4.7c-0.1,0-0.1,0-0.2,0
					c-2.2,0.4-4.4-0.6-5.6-2.5c-4.5-7.5,5.4-14.7,11.8-8.2c5.5,5.7,1.7,14.9-5.9,16.4c-4.8,0.9-10.2-2.1-12.3-6.7
					c-4.4-9.4,0.5-23.9,14-26.4c5-0.9,10.7,1.1,11.6,6C28,36.8,25.4,39.3,22.6,39.6z"/>
			</g>
			<g id="Group_2142_00000119095103111218096590000011770165352520108710_" transform="translate(0 70.824)">
				<path id="Path_1652_00000093890549531859700840000000412416323209047730_" class="st60" d="M6.7,34.3c6.9,6.2,18.8,8.3,24.6-0.1
					c2.7-3.9,1.8-9.9-3.4-11.2c-6.4-1.6-5.6,8.8,0.4,7c-1,1.5-3.1,1.8-4.5,0.7c-0.2-0.2-0.4-0.3-0.6-0.5c-4.1-5.2,3.7-11.8,9.2-7.1
					c4.8,4.1,4,14.6-7.2,18.5C9.6,47-10.4,25.8-0.6,4.2C-4.5,14.8-1.6,26.7,6.7,34.3z"/>
				<path id="Path_1653_00000114772165219957182370000016004258277912308632_" class="st60" d="M19.5,47c1.3,5.8-2.7,11.2-8.2,10.2
					c-3.6-0.7-4.9-5.3-2.5-7.1c1.1-0.9,2.4-0.4,2.5,0.7s-1.1,2.5,0.1,2.7c2.7,0.5,3.2-2.8,1.7-4.4C12,48,9.7,47.9,8,49.7
					c-2.4,2.5-1.5,6.7,0.7,8.6c2.6,2.1,6.2,2.3,8.9,0.4c5.2-3.7,5.7-10.1,2.2-16.3c-4.7-8.2-18.3-11-21.1-29.1
					C0.5,32.8,16.9,35.3,19.5,47z"/>
				<path id="Path_1654_00000059298933593030681390000007302692951778577826_" class="st60" d="M22.6,17c-1-0.1-1.9,0.1-2.8,0.5
					c-1.5,0.7-2.3,2.2-1.9,3.3c0.9,2.2,3.9,0.8,2.6-1.4c2.9-2.9,7.2,0.6,6.1,4.5c-1.5,5-7.4,6.4-12.3,4.8C4.4,25.5-1.2,13.9,3.2,4.9
					C6.5-1.7,16-3.7,19.6,2.6c3.4,6.1-1.9,13.1-8.3,10.6c-2.6-1-3.9-3.8-3.1-6.5c1.1-3.6,6.7-4.1,6.4-0.2c-1-1.4-3.4,0.3-2.1,2.1
					c1.3,1.8,4.2,0.7,4.7-1.5c0.4-2.2-1-4.3-3.1-4.7c-0.1,0-0.1,0-0.2,0C11.5,2,9.3,3,8.1,4.9c-4.5,7.5,5.4,14.7,11.8,8.2
					C25.4,7.4,21.6-1.8,14-3.3C9.1-4.2,3.7-1.2,1.6,3.4c-4.4,9.4,0.5,23.9,14,26.4c5,0.9,10.7-1.1,11.6-6C28,19.8,25.4,17.3,22.6,17
					z"/>
			</g>
		</g>
		<path id="Path_1655_00000113354066084468193430000013474578421131168186_" class="st60" d="M37.9,64.7c0.5,0,1-0.4,1-1
			c0-0.5-0.4-1-1-1c-0.5,0-1,0.4-1,1C36.9,64.2,37.3,64.7,37.9,64.7C37.8,64.7,37.8,64.7,37.9,64.7z"/>
		<g id="Group_2145_00000151540331867764502920000006311270112198624141_" transform="translate(45.665 60.292)">
			<g id="Group_2144_00000106139306817319469520000015352299887077344680_" transform="translate(0 0)">
				<path id="Path_1656_00000020398351483142059400000011731699249965965472_" class="st60" d="M-3.2,3.4C0.7,2.9,3.7,1,5.1-3.4
					C7-0.8,5.6,3.8-3.2,3.4z"/>
				<path id="Path_1657_00000015329853995959355560000004109547019335916688_" class="st60" d="M5.1,10.3C3.7,5.8,0.7,3.9-3.2,3.4
					C5.6,3,7,7.6,5.1,10.3z"/>
			</g>
			<path id="Path_1658_00000171706278268919796910000013750974201411127721_" class="st60" d="M6.6,3.4L6.6,3.4
				c0-0.6-0.3-1.1-0.8-1.4c-2-1.2-4.4,1.1-7.2,1.4c0,0,0,0,0,0h0C1.4,3.7,3.8,6,5.8,4.8C6.3,4.5,6.6,4,6.6,3.4z"/>
		</g>
		<path id="Path_1659_00000120526735185489921070000005023776604424298894_" class="st60" d="M13.8,63.7c-2.8,0.2-5.5,1-7.9,2.3
			c-4.4,2.4-5.4-1.5-9.1-2.3c3.6-0.8,4.7-4.7,9.1-2.3C8.3,62.7,11,63.5,13.8,63.7z"/>
		<g id="Group_2146_00000094610141706439104770000000882550719523119786_" transform="translate(9.21 31.36)">
			<path id="Path_1660_00000142864418475911311170000010887584001507439009_" class="st60" d="M5.6,62.2c-3.3-4-0.5-9.5,4.2-14.3
				c-8.5,5.3-15.6-3.2-12-9.1c3.6-6,11.5-2.4,9.9,2c-0.3,1-1.3,1.6-2.3,1.3C5,42,4.7,41.8,4.5,41.6c-0.6-0.7-0.6-1.8,0.1-2.4
				c0.3-0.3,0.6-0.4,1-0.4c-3.2-3.2-7.8,1.2-5.3,5.5c2.1,3,6.2,3.8,9.2,1.8c0.1,0,0.1-0.1,0.2-0.1c3.3-2.6,3.2-8.9-0.9-11.7
				c6.1,2.9,5.4,9,3.1,12.9c-2.9,4.7-6.3,9.5-1.8,14.3c2,2.2,3.9,3.5,4,6.7C12.5,64.6,7.9,65,5.6,62.2z"/>
			<path id="Path_1661_00000029038094600263060360000000151964709941637295_" class="st60" d="M5.6,2.4c-3.3,4-0.5,9.5,4.2,14.3
				c-8.5-5.3-15.6,3.2-12,9.1c3.6,6,11.5,2.4,9.9-2c-0.3-1-1.3-1.6-2.3-1.3c-0.3,0.1-0.6,0.3-0.9,0.5c-0.6,0.7-0.6,1.8,0.1,2.4
				c0.3,0.3,0.6,0.4,1,0.4c-3.2,3.2-7.8-1.2-5.3-5.5c2.1-3,6.2-3.8,9.2-1.8c0.1,0,0.1,0.1,0.2,0.1c3.3,2.6,3.2,8.9-0.9,11.7
				c6.1-3,5.4-9.1,3.1-12.9C9,12.9,5.6,8.1,10.1,3.3c2-2.2,3.9-3.5,4-6.7C12.5,0.1,7.9-0.4,5.6,2.4z"/>
		</g>
		<path id="Path_1662_00000143618280075542344530000004867039260399364543_" class="st60" d="M21.9,63.7L21.9,63.7
			c3-0.6,3.9-3.4,5.7-3.2c1.7,0.1,1.8,2.4,5.6,3.2h0h0c-3.9,0.8-4,3.1-5.6,3.2C25.8,67.1,24.9,64.3,21.9,63.7z"/>
	</g>
</g>
</svg>
