<?xml version="1.0" encoding="utf-8"?>
<!-- Generator: Adobe Illustrator 25.4.1, SVG Export Plug-In . SVG Version: 6.00 Build 0)  -->
<svg version="1.1" id="Layer_1" xmlns="http://www.w3.org/2000/svg" xmlns:xlink="http://www.w3.org/1999/xlink" x="0px" y="0px"
	 viewBox="0 0 883.9 1310.1" style="enable-background:new 0 0 883.9 1310.1;" xml:space="preserve">
<style type="text/css">
	.st0{fill:#2775BC;}
	.st1{fill:#74C12E;}
	.st2{fill:#39B54A;}
	.st3{fill:#009444;}
	.st4{fill:#006838;}
	.st5{fill:#594A42;}
	.st6{fill:#A2948C;stroke:#594A42;stroke-width:8.504;stroke-linejoin:round;}
	.st7{fill:#519877;stroke:#006838;stroke-width:8.504;stroke-linejoin:round;}
	.st8{fill:#31C474;stroke:#009444;stroke-width:8.504;stroke-linejoin:round;}
	.st9{fill:#91C899;stroke:#39B54A;stroke-width:8.504;stroke-linejoin:round;}
	.st10{fill:#A7DB79;stroke:#74C12E;stroke-width:8.504;stroke-linejoin:round;}
	.st11{fill:#FFFFFF;}
</style>
<path id="Path_3585" class="st1" d="M455.7,587.6c-3.5-6.7-8-12.9-13.3-18.4l-14.6-14.6v-90c0-16.9,9-38.6,21-50.6l174.7-174.7
	l19.7,19.7L468.5,433.7c-6.7,6.7-12.8,21.4-12.8,30.9L455.7,587.6z"/>
<path id="Path_3586" class="st2" d="M259.9,402.2L434.6,577c11.9,11.9,21,33.7,21,50.6v90L441,732.2c-5.3,5.5-9.8,11.7-13.3,18.4
	v-123c0-9.5-6.1-24.2-12.8-30.9L240.2,421.9L259.9,402.2z"/>
<path id="Path_3587" class="st3" d="M455.7,913.6c-3.5-6.7-8-12.9-13.3-18.4l-14.6-14.6v-90c0-16.9,9-38.6,21-50.6l174.7-174.7
	l19.7,19.7L468.5,759.7c-6.7,6.7-12.8,21.4-12.8,30.9L455.7,913.6z"/>
<path id="Path_3588" class="st4" d="M259.9,728.2L434.6,903c11.9,11.9,21,33.7,21,50.6v90l-14.6,14.6c-5.3,5.5-9.8,11.7-13.3,18.4
	v-123c0-9.5-6.1-24.2-12.8-30.9L240.2,747.9L259.9,728.2z"/>
<path id="Path_3589" class="st5" d="M427.8,1288.9h27.8v-172.3c0-9.5,6.1-24.2,12.8-30.9l174.7-174.7l-19.7-19.7L448.8,1066
	c-11.9,11.9-21,33.7-21,50.6L427.8,1288.9z"/>
<path id="Path_3590" class="st6" d="M724.1,672.2c-76.2,0-138,61.8-138,138c0,0,0,0,0,0v138.1h138c76.2,0,138-61.8,138-138.1
	c0,0,0,0,0,0v-138H724.1z"/>
<path id="Path_3591" class="st7" d="M159.7,510.7c76.2,0,138,61.8,138,138c0,0,0,0,0,0v138.1h-138c-76.2,0-138-61.8-138-138.1
	c0,0,0,0,0,0V510.7H159.7z"/>
<path id="Path_3592" class="st8" d="M724.1,346.7c-76.2,0-138,61.8-138,138c0,0,0,0,0,0v138.1h138c76.2,0,138-61.8,138-138.1
	c0,0,0,0,0,0v-138H724.1z"/>
<path id="Path_3593" class="st9" d="M159.7,185.2c76.2,0,138,61.8,138,138c0,0,0,0,0,0v138.1h-138c-76.2,0-138-61.8-138-138
	c0,0,0,0,0,0v-138H159.7z"/>
<path id="Path_3594" class="st10" d="M724.1,21.2c-76.2,0-138,61.8-138,138c0,0,0,0,0,0v138.1h138c76.2,0,138-61.8,138-138.1
	c0,0,0,0,0,0v-138H724.1z"/>
</svg>
