<svg xmlns="http://www.w3.org/2000/svg" width="241.179" height="147.542" viewBox="0 0 241.179 147.542">
  <g id="Page_02_img_03" transform="translate(-1207.38 -432.411)">
    <g id="Group_2135" data-name="Group 2135" transform="translate(1207.38 432.411)">
      <path id="Path_1040" data-name="Path 1040" d="M317.893,298.1v88.862a15.358,15.358,0,0,0,15.128,15.578H543.944a15.358,15.358,0,0,0,15.128-15.578V298.1a15.358,15.358,0,0,0-15.129-15.578H333.021A15.358,15.358,0,0,0,317.893,298.1Z" transform="translate(-317.893 -282.522)" fill="#343434"/>
      <g id="Path_1040-2" data-name="Path 1040" transform="translate(-320.622 -284.918)" fill="#a2d8f4" stroke-miterlimit="10">
        <path d="M 544.7835693359375 399.1153869628906 L 337.6389465332031 399.1153869628906 C 334.694091796875 399.1153869628906 331.9255065917969 397.9685974121094 329.8431701660156 395.8861999511719 C 327.7608642578125 393.8038024902344 326.6140441894531 391.0350341796875 326.6140441894531 388.0899047851563 L 326.6140441894531 301.4480590820313 C 326.6140441894531 298.5032043457031 327.7608337402344 295.7346496582031 329.8431701660156 293.6523132324219 C 331.9255065917969 291.5699462890625 334.6941223144531 290.4231872558594 337.6389465332031 290.4231872558594 L 544.7835693359375 290.4219970703125 C 547.7284545898438 290.4219970703125 550.4970092773438 291.5687561035156 552.579345703125 293.651123046875 C 554.6616821289063 295.7334594726563 555.8084716796875 298.5020446777344 555.8084716796875 301.4469299316406 L 555.8084716796875 388.0899047851563 C 555.8084716796875 391.0350341796875 554.66162109375 393.8038024902344 552.5792846679688 395.8861999511719 C 550.4970092773438 397.9685974121094 547.7284545898438 399.1153869628906 544.7835693359375 399.1153869628906 Z" stroke="none"/>
        <path d="M 544.7835693359375 292.4219970703125 L 544.7835693359375 292.4219970703125 L 337.638916015625 292.4231872558594 C 332.6625366210938 292.4231872558594 328.614013671875 296.4717102050781 328.614013671875 301.4480590820313 L 328.614013671875 388.0899047851563 C 328.614013671875 393.0665588378906 332.6625366210938 397.1153564453125 337.638916015625 397.1153564453125 L 544.7835693359375 397.1153564453125 C 549.7598876953125 397.1153564453125 553.8084716796875 393.0665588378906 553.8084716796875 388.0899047851563 L 553.8084716796875 301.4469604492188 C 553.8084716796875 296.4705505371094 549.7598876953125 292.4219970703125 544.7835693359375 292.4219970703125 M 544.7835693359375 288.4219970703125 C 551.9769287109375 288.4219970703125 557.8084716796875 294.2534484863281 557.8084716796875 301.4469604492188 L 557.8084716796875 388.0899047851563 C 557.8084716796875 395.283935546875 551.9769287109375 401.1153564453125 544.7835693359375 401.1153564453125 L 337.638916015625 401.1153564453125 C 330.4454956054688 401.1153564453125 324.614013671875 395.283935546875 324.614013671875 388.0899047851563 L 324.614013671875 301.4480590820313 C 324.614013671875 294.2546691894531 330.4454956054688 288.4231872558594 337.638916015625 288.4231872558594 L 544.7835693359375 288.4219970703125 Z" stroke="none" fill="#fff"/>
      </g>
      <rect id="Rectangle_864" data-name="Rectangle 864" width="57.577" height="25.525" transform="translate(91.801 120.019)" fill="gray"/>
      <rect id="Rectangle_48" data-name="Rectangle 48" width="108.447" height="3.996" rx="1.998" transform="translate(66.366 143.546)" fill="#343434"/>
    </g>
  </g>
</svg>
