<svg xmlns="http://www.w3.org/2000/svg" width="67.219" height="75.86" viewBox="0 0 67.219 75.86"><defs><style>.a{fill:#2775bc;}.b{fill:#94bc27;}.c,.d{stroke:none;}.d{fill:#fffaf0;}</style></defs><g transform="translate(-667.806 -41)"><path class="a" d="M129.556,83s-27.538,33.113-27.538,48.322a27.538,27.538,0,1,0,55.077,0C157.095,116.113,129.556,83,129.556,83Z" transform="translate(565.788 -42)"/><g transform="translate(691.412 70.161)"><g class="b" transform="translate(-184.28 -154.387)"><path class="c" d="M 196.4010162353516 188.5794219970703 C 195.2298583984375 188.5794219970703 194.1143035888672 188.1382446289062 193.2598571777344 187.337158203125 L 184.2310638427734 178.872802734375 C 183.3086242675781 178.008056640625 182.7795562744141 176.7868957519531 182.7795104980469 175.5224761962891 C 182.7794647216797 174.2579650878906 183.3084869384766 173.0366516113281 184.2309722900391 172.1717071533203 L 186.5348205566406 170.0117492675781 C 187.3893890380859 169.2106781005859 188.5049743652344 168.7695465087891 189.6761627197266 168.7695465087891 C 190.847412109375 168.7695465087891 191.9629669189453 169.2107086181641 192.8173522949219 170.0117492675781 L 196.3898620605469 173.3610076904297 L 216.3108520507812 154.1723785400391 C 217.1711120605469 153.34375 218.3027038574219 152.8874053955078 219.4971923828125 152.8874053955078 C 220.6681976318359 152.8874053955078 221.7836761474609 153.3284759521484 222.6381683349609 154.12939453125 L 224.9407806396484 156.2880706787109 C 225.8562927246094 157.1463775634766 226.3853454589844 158.3583526611328 226.3922882080078 159.6132354736328 C 226.3992462158203 160.8680877685547 225.8836975097656 162.0858001708984 224.9778137207031 162.9541473388672 L 199.5794372558594 187.3020477294922 C 198.7201843261719 188.1257629394531 197.5914001464844 188.5794219970703 196.4010162353516 188.5794219970703 Z"/><path class="d" d="M 196.4010162353516 187.0794219970703 C 197.1723785400391 187.0794219970703 197.9436187744141 186.7922973632812 198.5413970947266 186.2192230224609 L 223.9398193359375 161.8712921142578 C 225.2196655273438 160.6444702148438 225.2082672119141 158.594970703125 223.9148712158203 157.3823852539062 L 221.6123657226562 155.2238006591797 C 220.4107666015625 154.0975341796875 218.5375518798828 154.1102294921875 217.3514709472656 155.2527160644531 L 196.4038543701172 175.4302215576172 L 191.7914123535156 171.1060180664062 C 190.6018676757812 169.9907379150391 188.7505798339844 169.99072265625 187.5607604980469 171.1060180664062 L 185.2569580078125 173.2659454345703 C 183.9536895751953 174.4879302978516 183.9536895751953 176.5567016601562 185.2569580078125 177.7784881591797 L 194.2857818603516 186.2428741455078 C 194.8810424804688 186.8009490966797 195.6410675048828 187.0794219970703 196.4010162353516 187.0794219970703 M 196.4010162353516 190.0794219970703 C 194.8473358154297 190.0794219970703 193.367431640625 189.4941558837891 192.2339172363281 188.4314422607422 L 183.2051544189453 179.9671173095703 C 181.9814453125 178.8199157714844 181.2795867919922 177.1999359130859 181.2795104980469 175.5225372314453 C 181.2794342041016 173.8450469970703 181.9812469482422 172.2248992919922 183.2049865722656 171.0774688720703 L 185.5088806152344 168.9174652099609 C 186.6426086425781 167.8547210693359 188.1225128173828 167.2695465087891 189.6761627197266 167.2695465087891 C 191.2299346923828 167.2695465087891 192.7098693847656 167.8547973632812 193.8433227539062 168.9174957275391 L 196.3758697509766 171.2917785644531 L 215.2702331542969 153.092041015625 C 216.4114532470703 151.9927978515625 217.9126129150391 151.3874053955078 219.4971923828125 151.3874053955078 C 221.0506439208984 151.3874053955078 222.5304260253906 151.9725189208984 223.6639556884766 153.0349578857422 L 225.9666900634766 155.1937561035156 C 227.1812133789062 156.3323974609375 227.8830413818359 157.9402008056641 227.8922729492188 159.6049346923828 C 227.9014892578125 161.2696228027344 227.2175445556641 162.8850555419922 226.0157928466797 164.0370025634766 L 200.6174621582031 188.3848571777344 C 199.4776000976562 189.4776000976562 197.9801635742188 190.0794219970703 196.4010162353516 190.0794219970703 Z"/></g></g></g></svg>