<svg xmlns="http://www.w3.org/2000/svg" width="1920.5" height="408.723" viewBox="0 0 1920.5 408.723">
  <g id="Page_10_img_01" transform="translate(-2379.5 -12603.527)">
    <g id="Group_3335" data-name="Group 3335">
      <g id="Group_3334" data-name="Group 3334">
        <g id="Group_3333" data-name="Group 3333">
          <g id="Group_3332" data-name="Group 3332">
            <g id="Group_3331" data-name="Group 3331">
              <g id="Group_3330" data-name="Group 3330">
                <g id="Group_3329" data-name="Group 3329" transform="translate(31 -122)">
                  <path id="Path_2212" data-name="Path 2212" d="M813.357,493.308l-167.949,4.926c-76.741-.257-113.511,18.255-152.533,56.747-9.577,9.446-20.737,19-34.438,30.453-14.354,12-21.283,16.015-31.756,23.957,38.548-29.235,80.275-71.183,83.028-177,1.2-46.051-5.464-91.434-.861-137.947,7.937-80.231,59.326-68.629,65.8-68.356l.256.018c79.79,13.406,99.2,123.877,175.779,187.065,60.482,49.917,123.63,62.383,200.981,48.658C928.774,471.9,880.193,493.308,813.357,493.308Z" transform="translate(2527.582 12524.858)" fill="#74c2ed"/>
                  <path id="Path_2211" data-name="Path 2211" d="M1395.334,446.7v15.784H1274.87c-82.328,1.676-83.618,55.708-136.829,62.871-40.773,5.487-66.8-19.943-92.034-38.873-38.821-29.12-77.408-8.822-77.408-8.822-43.718,21.114-55.748,71.784-93.441,80.73,0,0,47.244-18.5,60.018-102.821,10.53-69.5,8.638-107.834,15.994-130.817,9.2-28.757,29.18-26.145,30.466-26.06,47.264,10.526,62.1,142.553,166.411,148.007Z" transform="translate(2873.666 12519.399)" fill="#74c2ed"/>
                  <rect id="Rectangle_880" data-name="Rectangle 880" width="1920" height="138" transform="translate(2349 12992)" fill="#2775bc"/>
                  <path id="Path_2205" data-name="Path 2205" d="M2100.1,480.89H1849.658c-112.079-5.074-117.078-132.073-172.381-127.153-42.186,3.752-39.348,61.1-91.69,97.208-35.184,24.274-69.456,32-120.275,20.793-67.132-14.8-79.154-53.488-111.958-54.881-32.229-1.371-40.9,14.625-76.82,33.185-30.762,15.9-80.673,25.015-133.246,17.495-102.044-14.6-159.164-118.7-182.087-155.55-30.765-49.461-60.377-91.446-118.924-86.625-81.265,6.69-94.522,107.942-157.97,191.558-21.411,28.217-61.246,55.959-110.471,20.228-33.194-24.1-42.092-41.433-70.662-40.775-50.65,1.166-73.855,82.523-166.219,84.518H180.414c.014-.031.014,12.33,0,12.7H424.1c32.007,0,94.3,4.515,138.343,52.972,30.967,34.068,40.4,73.168,91.827,81.493,52.857,8.419,97-44.285,125.594-77.874,33.113-38.9,61.827-55.861,150.562-56.592h461.857c5.912.051,44.557,1.422,80.029,28,30.967,23.2,60.873,68.347,109.577,55.226,46.591-12.551,46.993-58.7,92.507-76.039.831-.318,30.834-13.128,80.835,12.565,26.91,13.828,48.787,39.81,89.552,35.1,53.217-6.153,54.505-53.414,136.843-54.848H2100.1C2100.035,493.674,2100.035,480.584,2100.1,480.89Z" transform="translate(2168.585 12500.545)" fill="#2775bc"/>
                  <path id="Path_2206" data-name="Path 2206" d="M813.357,493.308l-167.949,4.926c-76.741-.257-113.511,18.255-152.533,56.747-9.577,9.446-20.737,19-34.438,30.453-14.354,12-21.283,16.015-31.756,23.957,38.548-29.235,80.275-71.183,83.028-177,1.2-46.051-5.464-91.434-.861-137.947,7.937-80.231,59.326-68.629,65.8-68.356l.256.018c79.79,13.406,99.2,123.877,175.779,187.065,60.482,49.917,123.63,62.383,200.981,48.658C928.774,471.9,880.193,493.308,813.357,493.308Z" transform="translate(2461.582 12500.829)" fill="#2775bc"/>
                  <path id="Path_2207" data-name="Path 2207" d="M564.9,293.939S662.729,494.326,824.54,511.128c91.547,9.505,150.885-33.344,185.837-43.617a58.724,58.724,0,0,1,44.351,4.695s-12.579-19.581-56.957-29.737c-16.634-3.807-44.839-8.175-60.009-12.429-37.7-10.574-41.475-27.7-40.217-40.212C899.9,366.4,930.7,365.018,930.7,365.018c-60.409-2.869-116.964,54.1-225.779,31.337C616.845,377.928,564.9,293.939,564.9,293.939Z" transform="translate(2589.106 12552.165)" fill="#2775bc"/>
                  <path id="Path_2208" data-name="Path 2208" d="M476.707,323s7.917.161,12.111,8.937c5.439,11.38-1.505,26.81-14.412,40.62-18.132,19.4-58.019,30.221-83.2,32.349-88.45,7.475-237.066,2.695-237.066,2.695s34.055-.213,95.005-4.506c47.51-3.347,101.972-9.344,141.866-32.38C432.029,347.025,447.462,323,476.707,323Z" transform="translate(2195.133 12573.919)" fill="#2775bc"/>
                  <path id="Path_2209" data-name="Path 2209" d="M1003.739,522.112s49.8-8.645,65.786-95.445c.015-.014,11.757-69.449,20.063-99.2,7.671-27.481,20.63-28.385,20.63-28.385-54.27-9.839-55.723,53.706-106.478,91.64-22.149,16.554-63.435,28.586-118.933,20.551C819.9,401.35,813.9,363.259,773.028,361.934c0,0-30.785-1.617-36.247,20.616-3.007,12.242-1.592,34.265,40.364,47.214,16.5,5.092,41.932,6.15,64.535,11.925,36.86,9.418,55.381,27.434,55.381,27.434,30.966,23.2,57.971,66.111,106.673,52.989Z" transform="translate(2746.774 12555.249)" fill="#2775bc"/>
                  <path id="Path_2210" data-name="Path 2210" d="M1393.334,425.789v12.7H1274.87c-82.328,1.439-83.618,48.7-136.829,54.853-40.773,4.712-66.8-17.127-92.034-33.384-38.821-25.008-77.408-7.577-77.408-7.577-43.718,18.133-55.748,61.649-93.441,69.332,0,0,47.244-15.891,60.018-88.3,10.53-59.688,8.638-92.609,15.994-112.347,9.2-24.7,29.18-22.454,30.466-22.38,47.264,9.04,62.1,122.426,166.411,127.111Z" transform="translate(2875.354 12555.651)" fill="#2775bc"/>
                  <path id="Subtraction_3" data-name="Subtraction 3" d="M91.522,208.073c-41.831,0-79.682-.721-98.522-1.151v-.609c18.009-.338,54.332-1.335,95.276-4.218,50.747-3.574,103.056-9.97,141.866-32.38,14.86-8.58,26.291-17.152,36.377-24.716,8.846-6.633,16.484-12.362,24.28-16.459a58.769,58.769,0,0,1,11.947-4.806,49.131,49.131,0,0,1,13.1-1.733,12.67,12.67,0,0,1,4.483,1.178,14.623,14.623,0,0,1,3.966,2.66,16.964,16.964,0,0,1,3.661,5.1,19.9,19.9,0,0,1,1.857,9.205,31.208,31.208,0,0,1-2.184,10.193c-2.589,6.793-7.46,14.132-14.085,21.221A71.41,71.41,0,0,1,296.43,184.5a136.4,136.4,0,0,1-21.848,9.712,190.822,190.822,0,0,1-23.171,6.473,172.517,172.517,0,0,1-21.075,3.224C197.616,206.671,150.913,208.073,91.522,208.073Z" transform="translate(2356 12774.916)" fill="#2775bc" stroke="rgba(0,0,0,0)" stroke-miterlimit="10" stroke-width="1"/>
                  <path id="Subtraction_2" data-name="Subtraction 2" d="M97.521,208.073c-18.646,0-38.335-.142-58.522-.422v-2.528c18.9-.758,37.5-1.777,55.275-3.029,50.748-3.574,103.058-9.971,141.866-32.38C251,161.134,262.432,152.561,272.519,145c8.846-6.633,16.486-12.362,24.28-16.459a58.72,58.72,0,0,1,11.946-4.806A49.125,49.125,0,0,1,321.84,122a12.69,12.69,0,0,1,4.483,1.178,14.647,14.647,0,0,1,3.967,2.661,16.95,16.95,0,0,1,3.662,5.1,19.894,19.894,0,0,1,1.858,9.206,31.19,31.19,0,0,1-2.184,10.193c-2.588,6.792-7.459,14.131-14.086,21.221A71.4,71.4,0,0,1,302.43,184.5a136.378,136.378,0,0,1-21.849,9.712,190.724,190.724,0,0,1-23.171,6.473,172.6,172.6,0,0,1-21.075,3.224C203.619,206.671,156.916,208.073,97.521,208.073Z" transform="translate(2310 12773.427)" fill="#74c2ed" stroke="rgba(0,0,0,0)" stroke-miterlimit="10" stroke-width="1"/>
                </g>
              </g>
            </g>
          </g>
        </g>
      </g>
    </g>
  </g>
</svg>
