<svg xmlns="http://www.w3.org/2000/svg" width="1920" height="360.343" viewBox="0 0 1920 360.343"><defs><style>.a{fill:#a10c1a;}</style></defs><path class="a" d="M0,1311.685c50.192,16.433,100.63,33.7,150.974,51.171,104.281-18.911,215.284-32.386,346.95-32.386,196.273.005,388.983,29.453,587.691,61.366q9.588,1.294,19.195,2.594l18.626,2.016,18.058,1.432,17.5.847q8.437.129,16.9.255l16.3-.335,15.708-.926,15.086-1.51,11.655-1.684,2.812-.406,3.246-.625q5.291-1.018,10.6-2.037,6.6-1.615,13.243-3.227,6.293-1.89,12.626-3.778,5.983-2.16,12.01-4.315,5.7-2.435,11.458-4.861,5.385-2.682,10.822-5.354,5.084-2.928,10.227-5.841,4.812-3.179,9.69-6.339,4.519-3.4,9.106-6.784c32.393-27.7,67.831-54.31,110.3-77.072,76.31-40.9,175.31-69.335,320.043-69.332,48.269,0,98.1,3.312,149.17,9.313v1.174c-51.082-6.008-100.913-9.322-149.17-9.321-128.494,0-220.781,22.431-293.16,56.059-48.451,22.51-87.986,50.05-123.484,79.263q12.045-8.546,24.686-16.842c89.55-58.565,204.741-105.482,397.593-105.655h1.057A1342.164,1342.164,0,0,1,1920,1226.589v1.173a1340.5,1340.5,0,0,0-142.479-8.052h-1.055c-128.422.121-222.267,20.972-297.045,52.168-52,21.691-94.777,48.394-133.555,76.627q14.961-9.371,30.7-18.435c94.108-53.922,212.809-97.18,405.531-97.536l2.272,0c44.376,0,89.642,2.429,135.63,6.868v1.171c-45.995-4.443-91.26-6.874-135.63-6.873l-2.269,0c-128.347.241-223.743,19.513-300.918,48.276-55.678,20.75-101.875,46.449-144.118,73.522,12.081-6.637,24.452-13.177,37.22-19.556,98.658-49.281,220.866-88.882,413.448-89.419q1.842-.005,3.685-.005c42.284,0,85.181,2.039,128.582,5.78v1.17c-43.406-3.744-86.3-5.784-128.582-5.784q-1.842,0-3.681.005c-220.713.63-348.684,52.542-454.97,111.542l-1.016.889c13.1-6.213,26.484-12.336,40.278-18.3,103.2-44.641,228.908-80.586,421.339-81.3q2.672-.01,5.347-.01c40.073,0,80.522,1.682,121.285,4.782v1.169c-40.767-3.1-81.217-4.785-121.285-4.785q-2.672,0-5.342.01c-220.479.834-353.109,47.893-464.875,101.3q-.805.711-1.61,1.422c116.636-47.331,253.671-88.881,472.115-89.9q3.664-.018,7.33-.017c37.718,0,75.617,1.359,113.667,3.874v1.168c-38.054-2.516-75.952-3.876-113.667-3.875q-3.664,0-7.324.017c-220.255,1.037-357.531,43.26-474.773,91.09q-1,.889-1.993,1.78c122.166-41.9,263.821-78.818,482.394-80.044q4.868-.027,9.738-.028,52.779,0,105.625,3.061v1.163q-52.848-2.981-105.625-3.058-4.866,0-9.731.028c-220.038,1.241-361.95,38.64-484.661,80.9q-1.133,1.017-2.26,2.035c127.673-36.441,273.937-68.678,492.547-70.111q6.365-.042,12.725-.042,48.635,0,97,2.326v1.163q-48.379-2.271-97-2.324-6.356,0-12.716.042c-219.827,1.446-366.364,34.033-494.536,70.733q-1.231,1.114-2.46,2.228c133.165-30.962,284.029-58.5,502.621-60.136q8.271-.062,16.524-.062,44.028,0,87.571,1.689v1.164q-43.557-1.648-87.57-1.687-8.248,0-16.514.062c-219.625,1.65-370.778,29.439-504.408,60.587q-1.3,1.188-2.605,2.376c138.644-25.473,294.1-48.292,512.637-50.138q10.784-.091,21.521-.091,38.762,0,76.939,1.139v1.165q-38.193-1.112-76.939-1.137-10.731,0-21.509.091c-219.433,1.855-375.194,24.856-514.277,50.461q-1.361,1.246-2.719,2.493c144.115-19.98,304.161-38.078,522.618-40.129q14.25-.133,28.388-.133,32.5,0,64.438.68v1.165q-31.954-.664-64.438-.679-14.132,0-28.374.133c-219.249,2.06-379.612,20.283-524.144,40.353q-1.407,1.294-2.809,2.588c149.58-14.484,314.208-27.859,532.575-30.115q19.337-.2,38.415-.2,24.591,0,48.776.32v1.165q-24.194-.313-48.776-.319-19.073,0-38.4.2c-219.073,2.264-384.03,15.718-534.009,30.26q-1.445,1.333-2.886,2.666c155.042-8.989,324.246-17.639,542.516-20.1q27.536-.311,54.444-.307,13.634,0,27.113.079v1.166q-13.485-.076-27.113-.079-26.908,0-54.429.307c-218.9,2.468-388.453,11.163-543.877,20.181l-2.949,2.731c160.5-3.494,334.286-7.421,552.445-10.088q38.683-.473,75.922-.51v1.166q-37.263.046-75.906.51c-218.747,2.674-392.882,6.615-553.75,10.116l-3,2.785c88.984,1.072,181.535,1.8,281.858,1.8,86.781,0,179.378-.543,280.512-1.875q35.857-.472,70.288-.724v1.166q-34.449.255-70.269.724c-101.14,1.332-193.744,1.875-280.531,1.875-100.791,0-193.735-.733-283.1-1.813l-3.05,2.83c138.257,6.044,284.013,10.8,449.582,10.8q59.563,0,122.714-.869,33.011-.465,64.653-.876v1.166q-31.657.412-64.634.876-63.246.893-122.733.869c-166.055,0-312.178-4.785-450.784-10.853l-3.093,2.869c154.25,11.326,316.6,20.559,500.086,20.558q40.367,0,82.139-.618,30.147-.455,59.019-.972v1.167q-28.881.516-59,.971-41.8.63-82.16.618c-183.963,0-346.674-9.278-501.256-20.64l-3.132,2.9c164.382,16.66,336.707,30.456,528.587,30.454q31.43,0,63.575-.507,27.269-.437,53.384-1.016v1.167q-26.121.577-53.362,1.016-32.163.515-63.6.507c-192.344,0-365.029-13.855-529.731-30.562q-1.584,1.464-3.168,2.925c172.449,22.014,352.4,40.4,549.169,40.4q26.267,0,52.94-.447,24.38-.413,47.75-1.014v1.167q-23.371.6-47.727,1.014-26.688.452-52.964.447c-197.225,0-377.531-18.463-550.291-40.532q-1.6,1.476-3.205,2.948c179.553,27.376,366.026,50.375,566.024,50.372q22.9,0,46.046-.41,21.486-.385,42.115-.973v1.167q-20.629.584-42.091.971-23.157.415-46.071.411c-200.441,0-387.276-23.085-567.131-50.523-11,10.089-22.04,20.022-33.314,29.663-36.948,31.589-76.424,60.047-125.274,80.6s-107.063,33.2-181.452,33.2q-5.14,0-10.383-.081c-132.437-2.055-287.073-41.564-450.866-94q-16.193-4.806-32.5-9.78-16.163-4.544-32.428-9.235-16.135-4.264-32.36-8.659-16.079-3.959-32.236-8.03-15.977-3.624-32.021-7.341-15.786-3.253-31.628-6.581-15.8-2.9-31.639-5.866-15.508-2.48-31.057-5.007-15.351-2.063-30.735-4.161-15.1-1.619-30.227-3.26-14.85-1.162-29.727-2.338-14.553-.691-29.134-1.388l-28.53-.422q-13.912.274-27.858.553-13.553.762-27.143,1.53l-4.194.4v-2.467l3.4-.068L8.5,1398l-6.368-.093L0,1398.288v-1.575l2.023.03,7.378-1.3L.087,1395l-.086.019v-1.2q4.162-.92,8.324-1.836L0,1391.333v-1.17l12.255.957q4.361-.958,8.725-1.911Q10.5,1388.078,0,1386.953v-1.175q12.307,1.318,24.581,2.647,4.514-.983,9.031-1.96Q16.833,1384.172,0,1381.9v-1.18q18.511,2.494,36.958,5.018,4.638-1,9.281-2Q23.164,1379.964,0,1376.232v-1.186q24.741,3.98,49.382,8.028,4.748-1.013,9.5-2.017Q29.5,1375.473,0,1369.983v-1.192q31,5.753,61.861,11.639,4.845-1.02,9.7-2.031Q35.853,1370.714,0,1363.192V1362q37.27,7.793,74.393,15.814,4.935-1.023,9.879-2.036Q42.218,1365.71,0,1355.9v-1.2q43.565,10.081,86.984,20.523,5.014-1.022,10.043-2.031Q48.6,1360.473,0,1348.134v-1.209q49.883,12.6,99.649,25.739,5.085-1.017,10.185-2.021Q54.99,1355.021,0,1339.928v-1.216q56.212,15.326,112.369,31.432,5.156-1.01,10.331-2c-40.867-12.517-81.818-24.9-122.7-36.833v-1.223c41.707,12.169,83.483,24.811,125.166,37.584q5.22-1,10.456-1.982C90.425,1350.907,45.142,1336.3,0,1322.3v-1.23c45.947,14.243,92.037,29.124,138.033,44.168q5.282-.985,10.589-1.952C99.058,1346.091,49.409,1329.1,0,1312.922Zm497.924,19.951c-130.725,0-241.057,13.29-344.7,32q7.98,2.77,15.957,5.546c106.261-15.445,218.379-26.441,348.9-26.441h1.756c176.574.136,346.345,19.882,519.617,42.906C856.915,1356.7,678.905,1331.632,497.925,1331.636ZM17.338,1398.412l2.574-.243-3.51-.051-2.733.368Zm13.272-1.253,5.048-.475-6.331-.3-5.094.683Zm14.3.21,2.359-.132-3.326-.159-2.547.239Zm28.25-.064,2.11-.042-3.107-.246-2.325.129Zm28.9.91,1.823.027-2.854-.312-2.064.04Zm29.489,1.87,1.518.072-2.569-.354-1.782-.026Zm30.037,2.809,1.179.092-2.258-.372-1.463-.068Zm30.525,3.721.83.088-1.923-.366-1.138-.087Zm30.967,4.6.479.064-1.577-.337-.794-.083Zm31.31,5.435.158.025-1.232-.292-.479-.062ZM430.8,1459.007c148.127,38.047,289.769,66.181,417.766,67.824q5.737.073,11.371.074c100.416,0,176.466-17.415,242.118-43.558,47.261-18.818,89.138-42.174,130.819-66.825q-4.07-.634-8.135-1.27c-44.409,22.516-88.939,43.877-138.605,61.073-68.44,23.7-146.627,39.474-247.649,39.473q-5.874,0-11.851-.072c-124.442-1.5-259.457-25.364-399.9-58.053Q428.763,1458.341,430.8,1459.007Zm871.275-78.563-3.892.919q-1.23.841-2.458,1.683l4.007-.745Q1300.9,1381.373,1302.072,1380.444Zm4.218-3.333-3.276.951-2.141,1.46,3.365-.792Q1305.261,1377.92,1306.29,1377.112Zm4.1-3.219-2.537.887-1.689,1.146,2.588-.749Zm3.877-3.029-1.567.65-1.009.677,1.578-.549Zm-13.439,6.612,1.6-.467.992-.674-1.624.573Zm-11.437,4.771,1.615-.385.957-.564-1.659.489Zm-12.009,4.242,1.6-.3.9-.457-1.668.4Zm-12.582,3.7,1.552-.221.814-.353-1.65.315Zm-26.9,5.755,1.355-.08.551-.167-1.516.152Zm-14.323,2.039,1.2-.026.373-.092-1.395.083Zm-8.134,1.569,2.687.037,1.449-.356-2.793.059Zm-15.3,1.137,2.587.122,1.325-.255-2.722-.039Zm-15.883.562,2.456.193,1.174-.169-2.619-.125Zm-16.457-.014,2.3.246.991-.1-2.483-.2Zm-17.017-.589,2.1.284.783-.046-2.316-.25Zm-17.574-1.16,1.879.3.546-.01-2.118-.287ZM43.9,1395.909l6.526-.611-8.152-.645-6.512.868Zm13.312-1.246,7.51-.7-9.467-1.032q-3.728.493-7.454.987Zm13.335-1.239,8.218-.759-10.5-1.446-8.135,1.068Zm81.848,5.535-9.488-1.82-7.519.14,9.492,1.569Zm30.3,3.516-9.441-2.045-7.5-.11,9.458,1.809Zm30.727,4.394q-4.686-1.124-9.375-2.25l-7.458-.339,9.4,2.027Zm31.109,5.233q-4.636-1.214-9.276-2.432l-7.4-.549q4.661,1.114,9.319,2.224Zm24.194,5.1,7.255.932q-4.582-1.3-9.169-2.6-3.652-.367-7.306-.737Q264.118,1416.006,268.725,1417.2Zm31.829,6.632q3.575.546,7.149,1.089-4.516-1.365-9.037-2.737-3.608-.452-7.217-.908Q296,1422.561,300.554,1423.835Zm32.089,7.366q3.506.613,7.008,1.22-4.449-1.427-8.9-2.861-3.545-.525-7.09-1.053Q328.153,1429.858,332.643,1431.2Zm32.25,8.04q3.452.675,6.9,1.345-4.383-1.482-8.77-2.97-3.482-.589-6.967-1.184Q360.478,1437.841,364.892,1439.242Zm32.394,8.674c142.022,30.45,279.241,52.941,407.445,54.37q6.253.069,12.4.07c173.878-.005,284.833-41.45,395.42-89.017l-7.794-1.23c-116.7,42.222-233.285,79.141-408.838,79.138q-6.5,0-13.114-.068c-125.847-1.3-258.116-20.275-394.21-46.175Q392.943,1446.464,397.286,1447.916Zm893.15-62.693-4.051.76-2.534,1.5,4.152-.585Zm4.495-3.09-3.411.81-2.195,1.3,3.486-.651Zm-15.506,5.16-2.231,1.135,3.592-.509,2.173-1.292Zm-12.7,3.8-2.247.976,3.675-.364,2.211-1.13Zm-13.309,3.246-2.245.821,3.735-.22,2.229-.971Zm-9.129,1.227,2.793-.165,1.619-.592-2.848.283Zm.4,1.967,4.488-.1,2.628-1.145-4.441.262Zm-14.246,2.229,4.561.062,2.66-.974-4.532.1Zm-14.842,1.656,4.61.215,2.672-.809-4.6-.064Zm-12.779.567-2.658.511,4.636.361,2.668-.653Zm-16.07.634-2.61.375,4.638.5,2.642-.506Zm-19.214.292,4.614.621,2.6-.371-4.667-.5Zm-8.076.8,5.4.865,3.037-.432-5.415-.73ZM110.614,1390.943q-4.374.392-8.746.787l11.324,1.874,8.828-.474Zm16.277,1.928q4.633-.247,9.267-.49l-12.124-2.632q-4.588.406-9.172.814Zm1138.788,1.439,4.876-.286,2.765-1.653-4.775.472Zm-2.578,1.32-3.075,1.577,5.406-.117,2.958-1.77Zm-10.807,1.743,5.011-.108,2.851-1.462-4.925.29Zm-20.3,4.81,5.69.262,3.152-1.373-5.6-.075Zm-14.917,1.628,5.807.448,3.23-1.18-5.734-.267Zm-15.515,1.047,5.9.628,3.291-.993-5.847-.454Zm-16.111.463,5.982.8,3.335-.812-5.939-.635Zm-16.695-.122,6.036.965,3.364-.641-6.009-.807Zm-3.921.559c-137.727,19.6-273.724,36.4-450,36.4q-9.76,0-19.687-.069c-127.419-.9-252.846-9.747-378.848-21.707q6.338,2.185,12.666,4.359c130.392,15.768,259.314,27.447,388.107,28.454q8.556.066,16.972.067c175.035,0,305.668-21.463,437.357-46.455Zm13.359.948,6.538,1.042,3.569-.866-6.478-.868Zm16.437-.157,6.446.859,3.5-1.054-6.37-.678Zm15.847-.744,6.331.67,3.427-1.25-6.244-.482Zm15.246-1.328,6.2.476,3.334-1.451-6.1-.282Zm8.727.668,6.513.5,3.365-1.724-6.386-.293Zm5.917-2.576,6.053.277,3.228-1.655-5.937-.079Zm11.5-2.516,3.061-1.57-5.453.117-3.165,1.38Zm5.781-1.629-3.24,1.662,5.89.077,3.111-1.864Zm-5.458,2.8-3.375,1.731,6.34.287,3.235-1.937Zm-5.466,2.8-3.487,1.787,6.765.512,3.34-2Zm-5.478,2.806-3.581,1.831q3.582.374,7.169.747l3.428-2.047Zm-2.273-.172-6.811-.519-3.612,1.57,6.945.728Zm-9.338-.713-6.558-.5-3.6,1.312,6.671.7Zm-12.654,1.721-3.729,1.357,7.114.94,3.605-1.561Zm-2.672-.283-6.713-.711-3.689,1.111,6.816.9Zm-13.122,1.218-3.833,1.15,7.265,1.149q1.861-.673,3.723-1.349Zm-2.833-.377-6.852-.915-3.767.915,6.938,1.1Zm-13.571.717c-127.552,30.907-254.164,57.759-430.571,57.758q-7.558,0-15.24-.066c-126.715-1.1-255.633-15.008-386.752-33.934q5.57,1.9,11.132,3.787c136.107,23.03,269.081,40.04,397.547,41.254q7.061.067,14.006.067c174.777,0,295.8-31.439,417.178-67.7Zm-445.8,56.526q7.676.066,15.228.066c175.027,0,300.944-26.444,427.563-57.07l-6.969-1.112c-132.78,25.252-264.219,47.078-440.766,47.077q-8.422,0-16.983-.067c-127.077-1-254.255-12.372-382.821-27.81q5.995,2.055,11.978,4.1C479.444,1450.032,610.369,1464.358,738.988,1465.468Zm-410.323-39.587q-4.412-.534-8.826-1.074,5.61,1.813,11.212,3.616,4.41.654,8.816,1.3Q334.271,1427.807,328.666,1425.881Zm-5.3-1.82q-6.02-2.071-12.049-4.152-4.691-.448-9.382-.9,6.022,1.957,12.036,3.9Q318.674,1423.489,323.37,1424.061Zm-16.751-5.776q-6.368-2.2-12.746-4.41-4.894-.339-9.788-.682,6.361,2.076,12.712,4.142Q301.708,1417.813,306.619,1418.285Zm-10.1.2q-4.436-.431-8.873-.868,5.651,1.72,11.3,3.432,4.44.556,8.877,1.107Q302.176,1420.32,296.522,1418.481Zm-5.145-1.675q-6.054-1.973-12.117-3.953-4.7-.332-9.4-.667,6.05,1.85,12.092,3.692Q286.664,1416.344,291.377,1416.806Zm-123.431-24.9q-4.812.244-9.619.49l12.707,3.066,9.706-.171Zm17.1,3.311,10-.173-13.339-3.827q-4.956.245-9.907.495Zm41.2,4.809-13.359-4.116-9.99.167,13.281,3.806Zm-5.781,1.084q6.382,1.827,12.757,3.648l9.809.431q-6.4-1.968-12.815-3.942Zm-21.588-4.965-9.7.166,12.745,3.368,9.769.14Zm.179-1.169,10.241-.173-13.821-4.263q-5.077.246-10.147.5Zm14.024-.236q5.221-.086,10.447-.171l-14.251-4.69q-5.181.246-10.354.5Zm3.592,1.107,13.755,4.237,10.314.145-13.834-4.549Zm17.727,5.459q6.648,2.046,13.29,4.086l10.113.437q-6.673-2.188-13.354-4.383Zm17.72,5.445q6.376,1.957,12.744,3.906,4.914.353,9.826.7-6.39-2.09-12.789-4.187Q257.01,1406.964,252.12,1406.752Zm12.5,5.058q-4.454-.32-8.91-.643,5.681,1.615,11.355,3.224,4.461.448,8.919.892Q270.3,1413.55,264.617,1411.81Zm-4.995-1.529q-6.077-1.863-12.163-3.732l-9.4-.411q6.068,1.732,12.127,3.458Q254.9,1409.94,259.622,1410.281ZM233,1405.916l-8.924-.4q5.7,1.5,11.4,3l8.947.659Q238.717,1407.548,233,1405.916Zm-4.835-1.382q-6.092-1.742-12.19-3.488l-9.382-.134,12.14,3.2Zm-26.43-3.691-8.917-.128,11.417,2.746,8.954.4Zm-4.67-1.234-12.193-3.223-9.338.163,12.131,2.924Zm-26.188-2.977-8.887.159,11.415,2.475,8.937.13Zm-4.5-1.086-12.175-2.938q-4.638.239-9.271.48l12.1,2.626Zm-25.892-2.224-8.829.465,11.384,2.184,8.895-.163Zm.113-1.174q4.808-.251,9.62-.5l-12.746-3.076q-4.761.414-9.517.832Zm13.733-.714q4.95-.255,9.906-.507l-13.3-3.517q-4.9.419-9.8.842Zm13.753-.7q5.069-.257,10.144-.51l-13.778-3.953q-5.021.421-10.034.847Zm13.771-.69q5.171-.257,10.35-.509l-14.219-4.386q-5.125.42-10.241.845Zm13.792-.677q5.258-.255,10.525-.506l-14.613-4.81q-5.215.417-10.418.841Zm13.813-.662q5.335-.252,10.68-.5l-14.975-5.228q-5.295.413-10.579.832Zm13.831-.647c108.542-5,220.211-8.525,342.741-8.525q9.727,0,19.547.03c185.487.568,350.058,8.329,517.874,16.472-177.106-14.03-349.879-27.146-539.793-27.578q-4.594-.011-9.163-.01c-125.77,0-238.129,5.92-346.411,14.3Zm-10.73,1.668,14.548,4.787,10.622-.169-14.64-5.11Q217.825,1389.475,212.565,1389.723Zm17.929,5.9q7.094,2.333,14.18,4.661l10.52.146q-7.126-2.483-14.26-4.972Q235.71,1395.538,230.494,1395.623Zm17.888,5.879q6.886,2.261,13.761,4.515,5.181.222,10.363.441-6.909-2.4-13.828-4.813Zm17.858,5.856q6.644,2.175,13.279,4.343,5.068.357,10.135.711-6.661-2.309-13.329-4.628Q271.281,1407.572,266.24,1407.358Zm27.9,5.366c124.861,8.646,249.9,15.124,379.1,15.927q12.361.077,24.489.077c173.247,0,312.067-11.542,452.6-25.294l-5.418-.87c-144.572,8.288-286.755,15.077-458.117,15.078q-17.531,0-35.48-.1c-128.083-.694-250.026-4.538-370.922-9.589Q287.276,1410.344,294.143,1412.724Zm403.589,17.169q-12.133,0-24.5-.077c-127.751-.795-251.432-7.134-374.875-15.632q6.629,2.294,13.246,4.579c127.6,12.191,254.568,21.255,383.552,22.16q9.924.069,19.678.069c174.606,0,309.653-16.493,446.1-35.86l-6.059-.972C1012.816,1418.1,872.851,1429.893,697.732,1429.893Zm478.672-25.786,5.389.723,3.048-.583-5.386-.578Zm16.363-.187,5.356.572,3.045-.744-5.338-.416Zm15.776-.769,5.3.411,3.022-.913-5.264-.247Zm15.183-1.351,5.225.243,2.98-1.09-5.171-.072Zm14.583-1.928,5.127.069,2.924-1.274-5.056.108Zm20.028-5.131,4.4-.258,2.579-1.321-4.33.429Zm13.055-3.353,4.282-.422,2.513-1.5-4.2.6Zm9.859-2.355-2.783,1.658,4.724-.464,2.665-1.844Zm-5.138,3.063-2.973,1.776,5.238-.307q1.419-.986,2.843-1.972Zm-5.141,3.072-3.124,1.869,5.71-.124,2.983-2.072Zm-5.146,3.08-3.247,1.944,6.15.078,3.1-2.153Zm-5.153,3.086-3.349,2.005,6.567.3,3.191-2.218Zm-5.162,3.091-3.436,2.056,6.966.523,3.271-2.273Zm-5.174,3.1-3.51,2.1,7.349.76,3.342-2.317Zm-5.187,3.1q-1.787,1.066-3.575,2.129,3.859.5,7.723,1,1.7-1.174,3.4-2.352Zm-1.987-.206-7.4-.771-3.663,1.868,7.56.989Zm-9.573-1-7.216-.756q-1.858.806-3.716,1.61l7.358.968Zm-13.022,1.759-3.806,1.643q3.875.609,7.752,1.216,1.83-.928,3.659-1.858Zm-2.288-.3-7.4-.979-3.841,1.394q3.764.594,7.531,1.186Zm-435.462,79.145q6.605.068,13.1.068c174.376,0,290.4-36.44,406.422-78.353l-7.571-1.2c-122.173,36.564-243.814,68.447-419.86,68.445q-6.953,0-14.019-.067c-126.313-1.2-256.941-17.648-390.584-40.065q5.039,1.7,10.069,3.4C519.417,1468.961,654.49,1488.69,782.817,1490.014Zm-426.773-54.769q-5.066-1.724-10.14-3.458-4.027-.586-8.058-1.179,5.092,1.635,10.178,3.261Q352.035,1434.559,356.044,1435.244Zm-32.1-7.876q-5.127-1.654-10.261-3.317-4.068-.5-8.137-1.006,5.152,1.559,10.3,3.11Q319.9,1426.765,323.946,1427.368Zm-31.9-7.192q-5.174-1.573-10.355-3.152-4.107-.407-8.214-.817,5.193,1.469,10.38,2.932Q287.949,1419.66,292.043,1420.177ZM260.4,1413.72q-5.223-1.483-10.45-2.971l-8.265-.605q5.231,1.371,10.456,2.736Q256.27,1413.3,260.4,1413.72Zm-31.353-5.682-10.513-2.766-8.3-.373q5.26,1.262,10.514,2.52Zm-30.984-4.859-10.562-2.542-8.318-.121,10.546,2.282Zm-30.578-4-10.585-2.3-8.3.151,10.557,2.023Zm-30.117-3.1-10.583-2.031-8.266.442,10.54,1.744Zm-24.263-1.3-7.525.407,9.495,1.31,7.541-.143Zm-5.322-.881-10.552-1.747-8.214.748,10.49,1.448Zm-23.911-.528-7.5.69,9.469,1.035,7.539-.414Zm.037-1.176,8.747-.8L81.32,1389.52q-4.324.56-8.646,1.124Zm13.38-1.221q4.579-.416,9.161-.828l-12.05-2.309q-4.527.58-9.05,1.163Zm13.407-1.209q4.75-.426,9.5-.847l-6.819-1.479-5.85-1.268q-4.693.593-9.382,1.189Zm2.977-3.462,10.448,2.267q4.891-.432,9.786-.859l-7.511-1.811-5.706-1.375q-4.835.6-9.663,1.205Zm13.045-1.532,10.864,2.62q5.008-.435,10.022-.866l-8.194-2.166-5.517-1.458q-4.952.6-9.9,1.214Zm13.045-1.532,11.306,2.99q5.108-.436,10.227-.866l-8.869-2.543-5.287-1.515q-5.056.6-10.1,1.214Zm13.043-1.532,11.785,3.38q5.2-.435,10.4-.863l-9.547-2.943-5.016-1.546q-5.145.6-10.277,1.211Zm13.044-1.532,12.293,3.79q5.274-.431,10.56-.856l-10.241-3.368-4.694-1.543q-5.227.6-10.441,1.2Zm13.043-1.532,12.837,4.223q5.343-.426,10.7-.847l-10.944-3.819-4.332-1.51q-5.3.588-10.583,1.188Zm362.86-22.46q-2.23,0-4.454,0c-128.027,0-240.21,8.381-347.429,20.211l2.065.72,13.416,4.681c109.114-8.493,222.31-14.512,349.153-14.513q4.571,0,9.166.011c182.536.418,349.217,12.544,519.091,25.938C903.6,1373.935,728.708,1356.463,541.752,1356.182Zm519.647,33.577c-180.961-24.263-357.591-45.715-541.56-45.85h-1.755c-129.543,0-240.94,10.837-346.5,26.109q7.867,2.739,15.73,5.48c107.98-11.974,220.942-20.484,349.99-20.484q2.225,0,4.456,0C721.311,1355.29,889.712,1371.4,1061.4,1389.759Zm-475.819-9.033q-9.818-.029-19.543-.03c-121.411,0-232.162,3.458-339.785,8.391l14.9,5.2c98.106-1.531,198.077-2.573,304.517-2.573q30.543,0,61.828.119c185.945.714,346.231,3.655,509.5,6.238l-1.9-.305C943.219,1389.419,775.338,1381.306,585.58,1380.726ZM607.494,1393q-31.3-.12-61.823-.119c-105.281,0-204.234,1.02-301.316,2.524q7.285,2.541,14.56,5.076c119.5,1.641,240.82,3.025,370.5,3.625q44.157.2,86.16.2c148.858,0,279.963-1.817,412.928-4.383l-3.467-.558C958.968,1396.751,796.482,1393.725,607.494,1393Zm108.08,12.473q-42.072,0-86.166-.2c-128.417-.594-248.64-1.956-367.006-3.577q7.093,2.47,14.178,4.933c122.158,5.131,245.323,9.05,374.75,9.75q17.95.1,35.473.1c169.229,0,310.005-6.624,452.755-14.773l-4.585-.737C999.788,1403.6,866.849,1405.472,715.573,1405.472Zm425.976-4.637,3.452.554,1.752-.1-3.594-.486Zm8.808,1.415,4.569.733,2.528-.248-4.639-.626Zm8.583-.5,3.572.482,1.89-.186-3.692-.4Zm16.826.344,3.667.394,2.006-.288-3.766-.3Zm16.252-.235,3.734.292,2.1-.4-3.809-.181Zm15.672-.814,3.775.178,2.161-.53-3.825-.054Zm15.084-1.39,3.788.052,2.206-.669-3.815.081Zm7.38-1.812,2.755-.059,1.547-.469-2.836.168Zm7.115-.152,3.774-.081,2.229-.816-3.78.223Zm14.365-4.348,1.471-.146.7-.255-1.6.23Zm6.192-.616,2.8-.278,1.666-.724-2.831.406Zm12.953-3.393,2.786-.4,1.69-.862-2.79.529Zm12.372-3.939,2.742-.515,1.69-1-2.722.651Zm11.792-4.475,2.672-.633,1.674-1.144-2.636.771Zm-1.6,3.755-2.686,1.849,4.561-.639,2.555-2.035Zm-4.834,3.331-2.859,1.977,5.06-.494,2.716-2.172Zm-4.834,3.343-3,2.078,5.519-.322,2.845-2.281Zm-4.837,3.354-3.11,2.16,5.949-.129,2.949-2.369ZM1274,1398.07l-3.2,2.226,6.358.079,3.035-2.44Zm-4.85,3.372-3.28,2.281,6.75.3,3.107-2.5Zm-4.859,3.377-3.348,2.326,7.129.531,3.171-2.547Zm-4.871,3.383-3.407,2.363q3.746.385,7.5.77,1.612-1.291,3.227-2.587Zm-4.883,3.385q-1.73,1.2-3.46,2.393,3.925.509,7.857,1.014l3.277-2.62Q1258.372,1411.982,1254.537,1411.588Zm-4.9,3.386q-1.755,1.211-3.511,2.419,4.1.634,8.208,1.266,1.663-1.323,3.325-2.648Zm-1.781-.231-7.911-1.029q-1.817,1.08-3.635,2.157,4.041.629,8.086,1.255Q1246.129,1415.936,1247.859,1414.743Zm-9.828-1.279-7.775-1.018q-1.868.951-3.736,1.9,3.967.62,7.937,1.239Q1236.244,1414.525,1238.031,1413.464ZM826.647,1514.559q5.969.072,11.834.072c100.879,0,178.885-15.747,247.2-39.4,49.055-16.981,93.116-38.049,137.045-60.3q-3.993-.625-7.98-1.253c-111.174,47.881-222.641,89.843-397.615,89.838q-6.153,0-12.413-.07c-125.258-1.4-259.038-22.867-397.449-52.211q3.426,1.139,6.849,2.271C559.16,1487.736,698.558,1513.023,826.647,1514.559Zm-429.712-65.52-2.934-.63q2.164.677,4.328,1.35l2.7.645Zm-10.039-3.363q-3.429-1.15-6.861-2.307l-5.379-1.036q3.5,1.1,7,2.206Q384.278,1445.11,386.9,1445.676Zm-22.333-5.306q-1.573-.308-3.146-.613l4.5,1.328c.99.218,1.982.44,2.971.658Zm-9.8-3.119q-3.523-1.122-7.05-2.25-2.775-.477-5.551-.957,3.592,1.071,7.179,2.136Zm-22.419-4.915-3.417-.6,4.763,1.317,3.192.641Zm-9.556-2.866q-3.612-1.086-7.229-2.176-2.868-.432-5.738-.868l7.348,2.048Q319.974,1428.973,322.784,1429.47Zm-22.506-4.495-3.633-.554,5.006,1.284q1.712.309,3.422.613ZM285.3,1422.71l-.332-.086-.1-.016Zm5.685-.342q-3.7-1.04-7.4-2.084-2.937-.374-5.873-.748,3.76.974,7.516,1.944Q288.11,1421.927,290.987,1422.368Zm-22.514-4.019-3.863-.5q2.605.615,5.212,1.229l3.689.579Zm-9-2.344-7.568-1.975-6.028-.617q3.838.912,7.674,1.821Q256.51,1415.62,259.471,1416.005Zm-22.518-3.51-4.088-.423,5.466,1.165,3.9.513Zm-8.694-2.076q-3.858-.921-7.72-1.846l-6.161-.462,7.805,1.676Zm-22.462-2.957-4.285-.326,5.652,1.072,4.121.435Zm-8.391-1.809-7.857-1.7-6.267-.288,7.937,1.512Zm-22.382-2.366-4.467-.207,5.857.962,4.306.332Zm-8.064-1.542-7.966-1.524-6.356-.094,8.03,1.325Zm-22.216-1.734-4.646-.068,6.012.827,4.509.212Zm-7.748-1.28-8.056-1.333-6.433.121,8.1,1.117Zm-22.015-1.069-4.8.091,6.155.672,4.682.069Zm-7.424-1.025-8.118-1.121-6.49.354,8.146.89Zm-21.767-.374-4.927.271,6.262.5,4.83-.094Zm-7.1-.776-8.149-.89-6.513.6,8.156.646Zm-21.46.347-5.026.47,6.334.3,4.955-.276Zm-20.5-1.62-9.407-.741-7.383,1.3,9.332.443Zm5.517-.736q4.067-.541,8.132-1.08l-10.411-1.132q-4.015.7-8.029,1.4Zm13.006-1.725q4.32-.571,8.643-1.139l-11.24-1.545q-4.262.735-8.522,1.473Zm13.033-1.715q4.52-.591,9.042-1.179-5.969-.985-11.943-1.969-4.457.759-8.911,1.524Zm13.072-1.7q4.68-.606,9.365-1.207l-12.567-2.4q-4.616.776-9.226,1.559Zm13.1-1.686q4.818-.616,9.642-1.226l-13.115-2.839q-4.752.788-9.5,1.583Q87.972,1385.41,94.455,1386.652Zm13.137-1.668q4.935-.622,9.875-1.237-6.806-1.64-13.617-3.276-4.87.793-9.73,1.6Zm13.178-1.648q5.034-.624,10.078-1.241-7.031-1.857-14.068-3.712-4.973.8-9.935,1.6Q113.81,1381.66,120.77,1383.336Zm13.22-1.624q5.12-.624,10.25-1.24-7.239-2.074-14.483-4.145-5.064.794-10.115,1.6Q126.818,1379.818,133.99,1381.712Zm13.262-1.6q5.2-.621,10.412-1.232-7.432-2.288-14.869-4.575-5.146.788-10.276,1.589Q139.889,1378,147.252,1380.114Zm13.3-1.571q5.272-.615,10.557-1.22-7.608-2.5-15.22-5-5.223.781-10.43,1.573Q153.012,1376.218,160.556,1378.542ZM173.911,1377q5.336-.608,10.687-1.2-7.772-2.709-15.548-5.416-5.292.769-10.562,1.555Q166.2,1374.47,173.911,1377Zm1035.77,22.471.162-.031-.955.019ZM1324.5,1364.9l-1.479.712-1.022.784,1.513-.619Zm-3.631,3.238-2.406.989-1.658,1.285,2.484-.857Q1320.078,1368.849,1320.868,1368.141Zm-3.829,3.44-3.126,1.084q-1.038.81-2.07,1.62l3.227-.926Zm-3.946,3.568-3.717,1.07q-1.184.93-2.366,1.861l3.847-.9Q1311.974,1376.164,1313.094,1375.148Zm-4.012,3.65-4.239.994q-1.291,1.02-2.578,2.04l4.384-.809Zm-4.06,3.714-4.712.871-2.737,2.178,4.867-.678Q1303.729,1383.7,1305.022,1382.512Zm-4.091,3.76-5.153.719q-1.433,1.142-2.862,2.286l5.315-.517Zm-4.118,3.8-5.566.542-2.964,2.375,5.738-.334Q1295.415,1391.363,1296.812,1390.071Zm-4.139,3.829-5.961.347-3.047,2.446,6.138-.133Zm-4.158,3.854-6.342.138-3.118,2.507,6.524.079Zm-4.176,3.875-6.712-.083-3.178,2.555,6.9.3Zm-4.194,3.892-7.072-.312-3.232,2.6,7.261.536Zm-4.213,3.905-7.427-.548-3.28,2.631q3.807.389,7.618.776Zm-4.233,3.916q-3.888-.395-7.773-.792-1.662,1.332-3.324,2.659,3.981.512,7.967,1.021Q1270.133,1414.789,1271.7,1413.343Zm-4.844,4.467.59-.544q-4.059-.518-8.114-1.041-1.683,1.343-3.366,2.682,4.152.638,8.308,1.273Q1265.565,1419,1266.855,1417.81ZM914.307,1563.649q5.233.081,10.361.081c98.978,0,169.111-22.413,226.749-56.03,41.752-24.355,76.947-54.605,111.752-86.5q-4.228-.647-8.451-1.3c-11.717,9.313-23.467,18.482-35.434,27.381-39.335,29.249-81.016,55.589-131.56,74.613s-109.939,30.726-184.681,30.725q-5.284,0-10.67-.078c-113.646-1.663-241.708-28.619-377.068-66.712C659.92,1530.038,796.055,1561.825,914.307,1563.649Zm-21.915-12.272q5.377.079,10.65.078c99.464,0,171.575-20.748,231.888-51.875,43.606-22.5,81.045-50.453,118.159-79.929q-4.186-.643-8.366-1.291c-12.426,8.541-24.878,16.948-37.529,25.108-83.432,53.821-175.553,96.886-325.734,96.878q-5.449,0-11-.076c-118.214-1.626-249.977-28.188-388.5-65.225C629.716,1518.163,769.561,1549.588,892.392,1551.376ZM870.477,1539.1q5.543.076,10.982.076c99.944,0,174.029-19.082,237.013-47.718,45.443-20.658,85.11-46.309,124.519-73.369q-4.134-.639-8.262-1.283c-42.085,24.916-84.363,48.568-132.17,67.607-65.792,26.2-142.05,43.656-242.625,43.655q-5.643,0-11.39-.074c-122.924-1.584-258.313-27.541-399.89-63.234C599.445,1506.5,742.925,1537.357,870.477,1539.1ZM8.232,1396.833l8.089.118,6.517-.876-8.128-.386Zm-3.781-2.8,10.17.48q4.012-.707,8.023-1.411L12.35,1392.3Q8.4,1393.166,4.451,1394.037Zm11.831-2.6,10.974.862q4.253-.745,8.509-1.487l-11.112-1.2Q20.467,1390.519,16.282,1391.436Zm11.982-2.614,11.661,1.265q4.446-.773,8.9-1.541l-11.812-1.618Q32.634,1387.873,28.263,1388.822Zm12.094-2.616q6.142.84,12.275,1.682,4.6-.792,9.206-1.58-6.21-1.022-12.428-2.042Q44.882,1385.232,40.357,1386.205Zm12.2-2.61q6.414,1.053,12.824,2.108,4.732-.806,9.469-1.6-6.489-1.238-12.985-2.474Q57.21,1382.605,52.56,1383.6Zm12.289-2.6q6.666,1.269,13.327,2.541,4.846-.815,9.7-1.622-6.74-1.456-13.486-2.909Q69.615,1380,64.849,1381Zm12.375-2.578q6.9,1.487,13.791,2.976,4.947-.819,9.9-1.63-6.974-1.675-13.954-3.347Q82.087,1377.414,77.224,1378.42Zm12.461-2.554q7.111,1.7,14.218,3.411,5.035-.82,10.082-1.63-7.186-1.893-14.376-3.781Q94.64,1374.86,89.685,1375.866Zm12.544-2.525q7.312,1.922,14.619,3.848,5.113-.818,10.236-1.625-7.384-2.11-14.772-4.216Q107.261,1372.338,102.228,1373.341Zm12.626-2.489q7.5,2.137,14.988,4.279,5.186-.813,10.387-1.612-7.566-2.325-15.137-4.646Q119.964,1369.855,114.855,1370.852Zm12.7-2.452q7.671,2.353,15.339,4.709,5.253-.8,10.52-1.6-7.735-2.537-15.474-5.069Q132.741,1367.414,127.558,1368.4Zm12.8-2.4q7.831,2.563,15.658,5.13,5.316-.793,10.65-1.573-7.9-2.747-15.794-5.488Q145.6,1365.02,140.353,1366Z" transform="translate(-0.001 -1204.553)"/></svg>