<svg xmlns="http://www.w3.org/2000/svg" width="104.555" height="59.498" viewBox="0 0 104.555 59.498"><defs><style>.a{fill:#2775bc;}</style></defs><g transform="translate(-510 -592.599)"><g transform="translate(510 592.599)"><path class="a" d="M610.288,620.989a4.254,4.254,0,0,1-3.018-1.25,63.629,63.629,0,0,0-89.985,0,4.268,4.268,0,1,1-6.035-6.035,72.164,72.164,0,0,1,102.055,0,4.267,4.267,0,0,1-3.017,7.285Z" transform="translate(-510 -592.599)"/></g><g transform="translate(525.554 614.585)"><path class="a" d="M724.968,820.635a4.254,4.254,0,0,1-3.018-1.25,41.68,41.68,0,0,0-58.877,0,4.267,4.267,0,0,1-6.035-6.035,50.167,50.167,0,0,1,70.947,0,4.267,4.267,0,0,1-3.018,7.285Z" transform="translate(-655.788 -798.678)"/></g><g transform="translate(541.153 636.561)"><path class="a" d="M803.282,1012.823a4.394,4.394,0,0,0-.251,5.937,4.268,4.268,0,0,0,6.2.179,19.507,19.507,0,0,1,13.884-5.751v-8.535h0A27.984,27.984,0,0,0,803.282,1012.823Z" transform="translate(-801.995 -1004.653)"/><path class="a" d="M1019.839,1012.823a27.984,27.984,0,0,0-19.839-8.17h0v8.535a19.507,19.507,0,0,1,13.884,5.751,4.268,4.268,0,0,0,6.2-.179A4.394,4.394,0,0,0,1019.839,1012.823Z" transform="translate(-978.875 -1004.653)"/></g></g></svg>